ISO-10303-21;
HEADER;
/* Generated by software containing ST-Developer
 * from STEP Tools, Inc. (www.steptools.com) 
 */
/* OPTION: using custom renumber hook */

FILE_DESCRIPTION(
/* description */ ('STEP AP242 Edition 2',
'CAx-IF Rec.Pracs.---Representation and Presentation of Product Manufa
cturing Information (PMI)---4.0---2014-10-13',
'CAx-IF Rec.Pracs.---3D Tessellated Geometry---0.4---2014-09-14','2;1',
'CAx-IF Rec.Pracs.---User Defined Attributes---1.5---2016-08-15'),
/* implementation_level */ '2;1');

FILE_NAME(
/* name */ 'Full Assembly - Gear',
/* time_stamp */ '2026-04-24T00:57:03Z',
/* author */ (''),
/* organization */ (''),
/* preprocessor_version */ 'ST-DEVELOPER v20',
/* originating_system */ 'ONSHAPE BY PTC INC, 1.213',
/* authorisation */ '  ');

FILE_SCHEMA (('AP242_MANAGED_MODEL_BASED_3D_ENGINEERING_MIM_LF { 1 0 10303 442 3 1 4 }'));
ENDSEC;

DATA;
#10=SHAPE_REPRESENTATION_RELATIONSHIP('','',#267,#11);
#11=ADVANCED_BREP_SHAPE_REPRESENTATION('',(#265),#443);
#12=CYLINDRICAL_SURFACE('',#273,0.0027);
#13=CYLINDRICAL_SURFACE('',#276,0.025);
#14=CYLINDRICAL_SURFACE('',#281,0.0057);
#15=CYLINDRICAL_SURFACE('',#286,0.00135);
#16=CYLINDRICAL_SURFACE('',#291,0.00135);
#17=CYLINDRICAL_SURFACE('',#294,0.00135);
#18=CIRCLE('',#271,0.0057);
#19=CIRCLE('',#272,0.025);
#20=CIRCLE('',#274,0.0027);
#21=CIRCLE('',#275,0.0027);
#22=CIRCLE('',#277,0.025);
#23=CIRCLE('',#279,0.00135);
#24=CIRCLE('',#282,0.0057);
#25=CIRCLE('',#284,0.00135);
#26=CIRCLE('',#289,0.00135);
#27=CIRCLE('',#290,0.00135);
#28=CIRCLE('',#292,0.00135);
#29=CIRCLE('',#295,0.00135);
#30=ORIENTED_EDGE('',*,*,#90,.T.);
#31=ORIENTED_EDGE('',*,*,#91,.T.);
#32=ORIENTED_EDGE('',*,*,#92,.F.);
#33=ORIENTED_EDGE('',*,*,#93,.F.);
#34=ORIENTED_EDGE('',*,*,#94,.F.);
#35=ORIENTED_EDGE('',*,*,#95,.F.);
#36=ORIENTED_EDGE('',*,*,#96,.F.);
#37=ORIENTED_EDGE('',*,*,#97,.T.);
#38=ORIENTED_EDGE('',*,*,#90,.F.);
#39=ORIENTED_EDGE('',*,*,#98,.T.);
#40=ORIENTED_EDGE('',*,*,#99,.F.);
#41=ORIENTED_EDGE('',*,*,#100,.F.);
#42=ORIENTED_EDGE('',*,*,#101,.T.);
#43=ORIENTED_EDGE('',*,*,#102,.T.);
#44=ORIENTED_EDGE('',*,*,#103,.T.);
#45=ORIENTED_EDGE('',*,*,#104,.F.);
#46=ORIENTED_EDGE('',*,*,#98,.F.);
#47=ORIENTED_EDGE('',*,*,#93,.T.);
#48=ORIENTED_EDGE('',*,*,#105,.F.);
#49=ORIENTED_EDGE('',*,*,#106,.F.);
#50=ORIENTED_EDGE('',*,*,#102,.F.);
#51=ORIENTED_EDGE('',*,*,#107,.T.);
#52=ORIENTED_EDGE('',*,*,#100,.T.);
#53=ORIENTED_EDGE('',*,*,#108,.F.);
#54=ORIENTED_EDGE('',*,*,#109,.T.);
#55=ORIENTED_EDGE('',*,*,#103,.F.);
#56=ORIENTED_EDGE('',*,*,#92,.T.);
#57=ORIENTED_EDGE('',*,*,#99,.T.);
#58=ORIENTED_EDGE('',*,*,#106,.T.);
#59=ORIENTED_EDGE('',*,*,#110,.F.);
#60=ORIENTED_EDGE('',*,*,#111,.T.);
#61=ORIENTED_EDGE('',*,*,#94,.T.);
#62=ORIENTED_EDGE('',*,*,#112,.F.);
#63=ORIENTED_EDGE('',*,*,#113,.F.);
#64=ORIENTED_EDGE('',*,*,#114,.F.);
#65=ORIENTED_EDGE('',*,*,#112,.T.);
#66=ORIENTED_EDGE('',*,*,#95,.T.);
#67=ORIENTED_EDGE('',*,*,#111,.F.);
#68=ORIENTED_EDGE('',*,*,#114,.T.);
#69=ORIENTED_EDGE('',*,*,#110,.T.);
#70=ORIENTED_EDGE('',*,*,#101,.F.);
#71=ORIENTED_EDGE('',*,*,#107,.F.);
#72=ORIENTED_EDGE('',*,*,#105,.T.);
#73=ORIENTED_EDGE('',*,*,#113,.T.);
#74=ORIENTED_EDGE('',*,*,#104,.T.);
#75=ORIENTED_EDGE('',*,*,#109,.F.);
#76=ORIENTED_EDGE('',*,*,#115,.F.);
#77=ORIENTED_EDGE('',*,*,#96,.T.);
#78=ORIENTED_EDGE('',*,*,#116,.F.);
#79=ORIENTED_EDGE('',*,*,#117,.F.);
#80=ORIENTED_EDGE('',*,*,#108,.T.);
#81=ORIENTED_EDGE('',*,*,#91,.F.);
#82=ORIENTED_EDGE('',*,*,#97,.F.);
#83=ORIENTED_EDGE('',*,*,#115,.T.);
#84=ORIENTED_EDGE('',*,*,#118,.F.);
#85=ORIENTED_EDGE('',*,*,#117,.T.);
#86=ORIENTED_EDGE('',*,*,#118,.T.);
#87=ORIENTED_EDGE('',*,*,#119,.F.);
#88=ORIENTED_EDGE('',*,*,#116,.T.);
#89=ORIENTED_EDGE('',*,*,#119,.T.);
#90=EDGE_CURVE('',#120,#121,#142,.T.);
#91=EDGE_CURVE('',#121,#122,#143,.T.);
#92=EDGE_CURVE('',#123,#122,#144,.T.);
#93=EDGE_CURVE('',#120,#123,#145,.T.);
#94=EDGE_CURVE('',#124,#125,#18,.T.);
#95=EDGE_CURVE('',#125,#124,#146,.T.);
#96=EDGE_CURVE('',#126,#127,#147,.T.);
#97=EDGE_CURVE('',#126,#121,#148,.T.);
#98=EDGE_CURVE('',#120,#127,#19,.T.);
#99=EDGE_CURVE('',#128,#129,#20,.T.);
#100=EDGE_CURVE('',#130,#128,#149,.T.);
#101=EDGE_CURVE('',#130,#131,#21,.T.);
#102=EDGE_CURVE('',#131,#129,#150,.T.);
#103=EDGE_CURVE('',#123,#132,#22,.T.);
#104=EDGE_CURVE('',#127,#132,#151,.T.);
#105=EDGE_CURVE('',#133,#133,#23,.T.);
#106=EDGE_CURVE('',#129,#128,#152,.T.);
#107=EDGE_CURVE('',#131,#130,#153,.T.);
#108=EDGE_CURVE('',#134,#122,#154,.T.);
#109=EDGE_CURVE('',#134,#132,#155,.T.);
#110=EDGE_CURVE('',#135,#136,#24,.T.);
#111=EDGE_CURVE('',#135,#124,#156,.T.);
#112=EDGE_CURVE('',#136,#125,#157,.T.);
#113=EDGE_CURVE('',#137,#137,#25,.T.);
#114=EDGE_CURVE('',#136,#135,#158,.T.);
#115=EDGE_CURVE('',#126,#134,#159,.T.);
#116=EDGE_CURVE('',#138,#138,#26,.T.);
#117=EDGE_CURVE('',#139,#139,#27,.T.);
#118=EDGE_CURVE('',#140,#140,#28,.T.);
#119=EDGE_CURVE('',#141,#141,#29,.T.);
#120=VERTEX_POINT('',#376);
#121=VERTEX_POINT('',#377);
#122=VERTEX_POINT('',#379);
#123=VERTEX_POINT('',#381);
#124=VERTEX_POINT('',#385);
#125=VERTEX_POINT('',#386);
#126=VERTEX_POINT('',#389);
#127=VERTEX_POINT('',#390);
#128=VERTEX_POINT('',#395);
#129=VERTEX_POINT('',#396);
#130=VERTEX_POINT('',#398);
#131=VERTEX_POINT('',#400);
#132=VERTEX_POINT('',#404);
#133=VERTEX_POINT('',#408);
#134=VERTEX_POINT('',#413);
#135=VERTEX_POINT('',#417);
#136=VERTEX_POINT('',#418);
#137=VERTEX_POINT('',#423);
#138=VERTEX_POINT('',#431);
#139=VERTEX_POINT('',#433);
#140=VERTEX_POINT('',#436);
#141=VERTEX_POINT('',#440);
#142=LINE('',#375,#160);
#143=LINE('',#378,#161);
#144=LINE('',#380,#162);
#145=LINE('',#382,#163);
#146=LINE('',#387,#164);
#147=LINE('',#388,#165);
#148=LINE('',#391,#166);
#149=LINE('',#397,#167);
#150=LINE('',#401,#168);
#151=LINE('',#405,#169);
#152=LINE('',#409,#170);
#153=LINE('',#410,#171);
#154=LINE('',#412,#172);
#155=LINE('',#414,#173);
#156=LINE('',#419,#174);
#157=LINE('',#420,#175);
#158=LINE('',#424,#176);
#159=LINE('',#428,#177);
#160=VECTOR('',#301,1.);
#161=VECTOR('',#302,1.);
#162=VECTOR('',#303,1.);
#163=VECTOR('',#304,1.);
#164=VECTOR('',#309,1.);
#165=VECTOR('',#310,1.);
#166=VECTOR('',#311,1.);
#167=VECTOR('',#318,1.);
#168=VECTOR('',#321,1.);
#169=VECTOR('',#326,1.);
#170=VECTOR('',#331,1.);
#171=VECTOR('',#332,1.);
#172=VECTOR('',#335,1.);
#173=VECTOR('',#336,1.);
#174=VECTOR('',#341,1.);
#175=VECTOR('',#342,1.);
#176=VECTOR('',#347,1.);
#177=VECTOR('',#354,1.);
#178=EDGE_LOOP('',(#30,#31,#32,#33));
#179=EDGE_LOOP('',(#34,#35));
#180=EDGE_LOOP('',(#36,#37,#38,#39));
#181=EDGE_LOOP('',(#40,#41,#42,#43));
#182=EDGE_LOOP('',(#44,#45,#46,#47));
#183=EDGE_LOOP('',(#48));
#184=EDGE_LOOP('',(#49,#50,#51,#52));
#185=EDGE_LOOP('',(#53,#54,#55,#56));
#186=EDGE_LOOP('',(#57,#58));
#187=EDGE_LOOP('',(#59,#60,#61,#62));
#188=EDGE_LOOP('',(#63));
#189=EDGE_LOOP('',(#64,#65,#66,#67));
#190=EDGE_LOOP('',(#68,#69));
#191=EDGE_LOOP('',(#70,#71));
#192=EDGE_LOOP('',(#72));
#193=EDGE_LOOP('',(#73));
#194=EDGE_LOOP('',(#74,#75,#76,#77));
#195=EDGE_LOOP('',(#78));
#196=EDGE_LOOP('',(#79));
#197=EDGE_LOOP('',(#80,#81,#82,#83));
#198=EDGE_LOOP('',(#84));
#199=EDGE_LOOP('',(#85));
#200=EDGE_LOOP('',(#86));
#201=EDGE_LOOP('',(#87));
#202=EDGE_LOOP('',(#88));
#203=EDGE_LOOP('',(#89));
#204=FACE_BOUND('',#178,.T.);
#205=FACE_BOUND('',#179,.T.);
#206=FACE_BOUND('',#180,.T.);
#207=FACE_BOUND('',#181,.T.);
#208=FACE_BOUND('',#182,.T.);
#209=FACE_BOUND('',#183,.T.);
#210=FACE_BOUND('',#184,.T.);
#211=FACE_BOUND('',#185,.T.);
#212=FACE_BOUND('',#186,.T.);
#213=FACE_BOUND('',#187,.T.);
#214=FACE_BOUND('',#188,.T.);
#215=FACE_BOUND('',#189,.T.);
#216=FACE_BOUND('',#190,.T.);
#217=FACE_BOUND('',#191,.T.);
#218=FACE_BOUND('',#192,.T.);
#219=FACE_BOUND('',#193,.T.);
#220=FACE_BOUND('',#194,.T.);
#221=FACE_BOUND('',#195,.T.);
#222=FACE_BOUND('',#196,.T.);
#223=FACE_BOUND('',#197,.T.);
#224=FACE_BOUND('',#198,.T.);
#225=FACE_BOUND('',#199,.T.);
#226=FACE_BOUND('',#200,.T.);
#227=FACE_BOUND('',#201,.T.);
#228=FACE_BOUND('',#202,.T.);
#229=FACE_BOUND('',#203,.T.);
#230=PLANE('',#269);
#231=PLANE('',#270);
#232=PLANE('',#278);
#233=PLANE('',#280);
#234=PLANE('',#283);
#235=PLANE('',#285);
#236=PLANE('',#287);
#237=PLANE('',#288);
#238=PLANE('',#293);
#239=PLANE('',#296);
#240=ADVANCED_FACE('',(#204),#230,.T.);
#241=ADVANCED_FACE('',(#205,#206),#231,.T.);
#242=ADVANCED_FACE('',(#207),#12,.F.);
#243=ADVANCED_FACE('',(#208),#13,.T.);
#244=ADVANCED_FACE('',(#209,#210),#232,.T.);
#245=ADVANCED_FACE('',(#211,#212),#233,.F.);
#246=ADVANCED_FACE('',(#213),#14,.T.);
#247=ADVANCED_FACE('',(#214,#215),#234,.F.);
#248=ADVANCED_FACE('',(#216,#217),#235,.T.);
#249=ADVANCED_FACE('',(#218,#219),#15,.F.);
#250=ADVANCED_FACE('',(#220),#236,.F.);
#251=ADVANCED_FACE('',(#221,#222,#223),#237,.F.);
#252=ADVANCED_FACE('',(#224,#225),#16,.F.);
#253=ADVANCED_FACE('',(#226),#238,.T.);
#254=ADVANCED_FACE('',(#227,#228),#17,.F.);
#255=ADVANCED_FACE('',(#229),#239,.T.);
#256=CLOSED_SHELL('',(#240,#241,#242,#243,#244,#245,#246,#247,#248,#249,
#250,#251,#252,#253,#254,#255));
#257=STYLED_ITEM('',(#258),#265);
#258=PRESENTATION_STYLE_ASSIGNMENT((#259));
#259=SURFACE_STYLE_USAGE(.BOTH.,#260);
#260=SURFACE_SIDE_STYLE('',(#261));
#261=SURFACE_STYLE_FILL_AREA(#262);
#262=FILL_AREA_STYLE('',(#263));
#263=FILL_AREA_STYLE_COLOUR('',#264);
#264=COLOUR_RGB('',0.917647058823529,0.917647058823529,0.917647058823529);
#265=MANIFOLD_SOLID_BREP('Gear',#256);
#266=SHAPE_DEFINITION_REPRESENTATION(#448,#267);
#267=SHAPE_REPRESENTATION('Gear',(#268),#443);
#268=AXIS2_PLACEMENT_3D('',#373,#297,#298);
#269=AXIS2_PLACEMENT_3D('',#374,#299,#300);
#270=AXIS2_PLACEMENT_3D('',#383,#305,#306);
#271=AXIS2_PLACEMENT_3D('',#384,#307,#308);
#272=AXIS2_PLACEMENT_3D('',#392,#312,#313);
#273=AXIS2_PLACEMENT_3D('',#393,#314,#315);
#274=AXIS2_PLACEMENT_3D('',#394,#316,#317);
#275=AXIS2_PLACEMENT_3D('',#399,#319,#320);
#276=AXIS2_PLACEMENT_3D('',#402,#322,#323);
#277=AXIS2_PLACEMENT_3D('',#403,#324,#325);
#278=AXIS2_PLACEMENT_3D('',#406,#327,#328);
#279=AXIS2_PLACEMENT_3D('',#407,#329,#330);
#280=AXIS2_PLACEMENT_3D('',#411,#333,#334);
#281=AXIS2_PLACEMENT_3D('',#415,#337,#338);
#282=AXIS2_PLACEMENT_3D('',#416,#339,#340);
#283=AXIS2_PLACEMENT_3D('',#421,#343,#344);
#284=AXIS2_PLACEMENT_3D('',#422,#345,#346);
#285=AXIS2_PLACEMENT_3D('',#425,#348,#349);
#286=AXIS2_PLACEMENT_3D('',#426,#350,#351);
#287=AXIS2_PLACEMENT_3D('',#427,#352,#353);
#288=AXIS2_PLACEMENT_3D('',#429,#355,#356);
#289=AXIS2_PLACEMENT_3D('',#430,#357,#358);
#290=AXIS2_PLACEMENT_3D('',#432,#359,#360);
#291=AXIS2_PLACEMENT_3D('',#434,#361,#362);
#292=AXIS2_PLACEMENT_3D('',#435,#363,#364);
#293=AXIS2_PLACEMENT_3D('',#437,#365,#366);
#294=AXIS2_PLACEMENT_3D('',#438,#367,#368);
#295=AXIS2_PLACEMENT_3D('',#439,#369,#370);
#296=AXIS2_PLACEMENT_3D('',#441,#371,#372);
#297=DIRECTION('',(0.,0.,1.));
#298=DIRECTION('',(1.,0.,0.));
#299=DIRECTION('',(6.12323399573677E-17,1.38777878078145E-16,-1.));
#300=DIRECTION('',(0.,1.,1.38777878078145E-16));
#301=DIRECTION('',(-6.12323399573677E-17,-1.,-1.38777878078145E-16));
#302=DIRECTION('',(-1.,6.12323399573677E-17,-6.12323399573677E-17));
#303=DIRECTION('',(-6.12323399573677E-17,-1.,-1.38777878078145E-16));
#304=DIRECTION('',(-1.,6.12323399573677E-17,-6.12323399573677E-17));
#305=DIRECTION('',(1.,-6.12323399573677E-17,6.12323399573677E-17));
#306=DIRECTION('',(6.12323399573677E-17,1.,3.74939945665465E-33));
#307=DIRECTION('',(1.,-6.12323399573677E-17,6.12323399573677E-17));
#308=DIRECTION('',(6.12323399573677E-17,0.,-1.));
#309=DIRECTION('',(-6.12323399573677E-17,-1.,-3.74939945665465E-33));
#310=DIRECTION('',(-6.12323399573676E-17,-1.,-5.55111512312578E-16));
#311=DIRECTION('',(6.12323399573677E-17,5.55111512312578E-16,-1.));
#312=DIRECTION('',(1.,-6.12323399573677E-17,6.12323399573677E-17));
#313=DIRECTION('',(6.12323399573677E-17,0.,-1.));
#314=DIRECTION('',(-1.,6.12323399573677E-17,-6.12323399573677E-17));
#315=DIRECTION('',(-6.12323399573677E-17,0.,1.));
#316=DIRECTION('',(1.,-6.12323399573677E-17,6.12323399573677E-17));
#317=DIRECTION('',(6.12323399573677E-17,0.,-1.));
#318=DIRECTION('',(-1.,6.12323399573677E-17,-6.12323399573677E-17));
#319=DIRECTION('',(1.,-6.12323399573677E-17,6.12323399573677E-17));
#320=DIRECTION('',(6.12323399573677E-17,0.,-1.));
#321=DIRECTION('',(-1.,6.12323399573677E-17,-6.12323399573677E-17));
#322=DIRECTION('',(-1.,6.12323399573677E-17,-6.12323399573677E-17));
#323=DIRECTION('',(-6.12323399573677E-17,0.,1.));
#324=DIRECTION('',(1.,-6.12323399573677E-17,6.12323399573677E-17));
#325=DIRECTION('',(6.12323399573677E-17,0.,-1.));
#326=DIRECTION('',(-1.,6.12323399573677E-17,-6.12323399573677E-17));
#327=DIRECTION('',(6.12323399573677E-17,0.,-1.));
#328=DIRECTION('',(-1.,0.,-6.12323399573677E-17));
#329=DIRECTION('',(6.12323399573677E-17,0.,-1.));
#330=DIRECTION('',(-1.,0.,-6.12323399573677E-17));
#331=DIRECTION('',(-6.12323399573677E-17,-1.,-3.74939945665465E-33));
#332=DIRECTION('',(-6.12323399573677E-17,-1.,-3.74939945665465E-33));
#333=DIRECTION('',(1.,-6.12323399573677E-17,6.12323399573677E-17));
#334=DIRECTION('',(6.12323399573677E-17,1.,3.74939945665465E-33));
#335=DIRECTION('',(6.12323399573677E-17,5.55111512312578E-16,-1.));
#336=DIRECTION('',(-6.12323399573676E-17,-1.,-5.55111512312578E-16));
#337=DIRECTION('',(-1.,6.12323399573677E-17,-6.12323399573677E-17));
#338=DIRECTION('',(-6.12323399573677E-17,0.,1.));
#339=DIRECTION('',(1.,-6.12323399573677E-17,6.12323399573677E-17));
#340=DIRECTION('',(6.12323399573677E-17,0.,-1.));
#341=DIRECTION('',(-1.,6.12323399573677E-17,-6.12323399573677E-17));
#342=DIRECTION('',(-1.,6.12323399573677E-17,-6.12323399573677E-17));
#343=DIRECTION('',(6.12323399573677E-17,0.,-1.));
#344=DIRECTION('',(-1.,0.,-6.12323399573677E-17));
#345=DIRECTION('',(-6.12323399573677E-17,0.,1.));
#346=DIRECTION('',(1.,0.,6.12323399573677E-17));
#347=DIRECTION('',(-6.12323399573677E-17,-1.,-3.74939945665465E-33));
#348=DIRECTION('',(1.,-6.12323399573677E-17,6.12323399573677E-17));
#349=DIRECTION('',(6.12323399573677E-17,1.,0.));
#350=DIRECTION('',(-6.12323399573677E-17,0.,1.));
#351=DIRECTION('',(1.,0.,6.12323399573677E-17));
#352=DIRECTION('',(-6.12323399573677E-17,-5.55111512312578E-16,1.));
#353=DIRECTION('',(0.,-1.,-5.55111512312578E-16));
#354=DIRECTION('',(-1.,6.12323399573677E-17,-6.12323399573677E-17));
#355=DIRECTION('',(6.12323399573676E-17,1.,5.55111512312578E-16));
#356=DIRECTION('',(0.,-5.55111512312578E-16,1.));
#357=DIRECTION('',(-6.12323399573676E-17,-1.,-5.55111512312578E-16));
#358=DIRECTION('',(0.,5.55111512312578E-16,-1.));
#359=DIRECTION('',(-6.12323399573676E-17,-1.,-5.55111512312578E-16));
#360=DIRECTION('',(0.,5.55111512312578E-16,-1.));
#361=DIRECTION('',(-6.12323399573676E-17,-1.,-5.55111512312578E-16));
#362=DIRECTION('',(0.,5.55111512312578E-16,-1.));
#363=DIRECTION('',(-6.12323399573676E-17,-1.,-5.55111512312578E-16));
#364=DIRECTION('',(0.,5.55111512312578E-16,-1.));
#365=DIRECTION('',(-6.12323399573676E-17,-1.,-5.55111512312578E-16));
#366=DIRECTION('',(1.,-6.12323399573676E-17,-3.39907768361722E-32));
#367=DIRECTION('',(-6.12323399573676E-17,-1.,-5.55111512312578E-16));
#368=DIRECTION('',(0.,5.55111512312578E-16,-1.));
#369=DIRECTION('',(-6.12323399573676E-17,-1.,-5.55111512312578E-16));
#370=DIRECTION('',(0.,5.55111512312578E-16,-1.));
#371=DIRECTION('',(-6.12323399573676E-17,-1.,-5.55111512312578E-16));
#372=DIRECTION('',(1.,-6.12323399573676E-17,-3.39907768361722E-32));
#373=CARTESIAN_POINT('',(0.,0.,0.));
#374=CARTESIAN_POINT('',(0.0344660254037845,-0.0542320508075689,-0.00413397459621555));
#375=CARTESIAN_POINT('',(0.0344660254037845,-0.0542320508075689,-0.00413397459621555));
#376=CARTESIAN_POINT('',(0.0344660254037845,-0.041732050807569,-0.00413397459621554));
#377=CARTESIAN_POINT('',(0.0344660254037845,-0.0617320508075689,-0.00413397459621554));
#378=CARTESIAN_POINT('',(0.0344660254037845,-0.0617320508075689,-0.00413397459621554));
#379=CARTESIAN_POINT('',(0.0294660254037845,-0.0617320508075689,-0.00413397459621554));
#380=CARTESIAN_POINT('',(0.0294660254037845,-0.0542320508075689,-0.00413397459621555));
#381=CARTESIAN_POINT('',(0.0294660254037845,-0.041732050807569,-0.00413397459621554));
#382=CARTESIAN_POINT('',(0.0344660254037845,-0.041732050807569,-0.00413397459621554));
#383=CARTESIAN_POINT('',(0.0344660254037845,-0.0417320508075689,0.0208660254037845));
#384=CARTESIAN_POINT('',(0.0344660254037845,-0.0417320508075689,0.0208660254037845));
#385=CARTESIAN_POINT('',(0.0344660254037845,-0.0440665743135547,0.0260660254037844));
#386=CARTESIAN_POINT('',(0.0344660254037845,-0.0393975273015831,0.0260660254037844));
#387=CARTESIAN_POINT('',(0.0344660254037845,-0.0417320508075689,0.0260660254037844));
#388=CARTESIAN_POINT('',(0.0344660254037845,-0.0617320508075689,0.0208660254037845));
#389=CARTESIAN_POINT('',(0.0344660254037845,-0.0617320508075689,0.0208660254037845));
#390=CARTESIAN_POINT('',(0.0344660254037845,-0.0667320508075689,0.0208660254037845));
#391=CARTESIAN_POINT('',(0.0344660254037845,-0.0617320508075689,0.00836602540378445));
#392=CARTESIAN_POINT('',(0.0344660254037845,-0.0417320508075689,0.0208660254037845));
#393=CARTESIAN_POINT('',(0.0344660254037845,-0.0417320508075689,0.0208660254037845));
#394=CARTESIAN_POINT('',(0.0294660254037845,-0.0417320508075689,0.0208660254037845));
#395=CARTESIAN_POINT('',(0.0294660254037845,-0.0432972983918187,0.0230660254037844));
#396=CARTESIAN_POINT('',(0.0294660254037845,-0.040166803223319,0.0230660254037844));
#397=CARTESIAN_POINT('',(0.0344660254037845,-0.0432972983918187,0.0230660254037844));
#398=CARTESIAN_POINT('',(0.0408660254037845,-0.0432972983918187,0.0230660254037844));
#399=CARTESIAN_POINT('',(0.0408660254037845,-0.0417320508075689,0.0208660254037845));
#400=CARTESIAN_POINT('',(0.0408660254037845,-0.040166803223319,0.0230660254037844));
#401=CARTESIAN_POINT('',(0.0344660254037845,-0.040166803223319,0.0230660254037844));
#402=CARTESIAN_POINT('',(0.0344660254037845,-0.0417320508075689,0.0208660254037845));
#403=CARTESIAN_POINT('',(0.0294660254037845,-0.0417320508075689,0.0208660254037845));
#404=CARTESIAN_POINT('',(0.0294660254037845,-0.0667320508075689,0.0208660254037845));
#405=CARTESIAN_POINT('',(0.0344660254037845,-0.0667320508075689,0.0208660254037845));
#406=CARTESIAN_POINT('',(0.0344660254037845,-0.0417320508075689,0.0230660254037844));
#407=CARTESIAN_POINT('',(0.0376660254037844,-0.0417320508075689,0.0230660254037844));
#408=CARTESIAN_POINT('',(0.0363160254037845,-0.0417320508075689,0.0230660254037844));
#409=CARTESIAN_POINT('',(0.0294660254037845,-0.0417320508075689,0.0230660254037844));
#410=CARTESIAN_POINT('',(0.0408660254037845,-0.0417320508075689,0.0230660254037844));
#411=CARTESIAN_POINT('',(0.0294660254037845,-0.0417320508075689,0.0208660254037845));
#412=CARTESIAN_POINT('',(0.0294660254037845,-0.0617320508075689,0.00836602540378445));
#413=CARTESIAN_POINT('',(0.0294660254037845,-0.0617320508075689,0.0208660254037845));
#414=CARTESIAN_POINT('',(0.0294660254037845,-0.0617320508075689,0.0208660254037845));
#415=CARTESIAN_POINT('',(0.0408680254037845,-0.0417320508075689,0.0208660254037845));
#416=CARTESIAN_POINT('',(0.0408660254037845,-0.0417320508075689,0.0208660254037845));
#417=CARTESIAN_POINT('',(0.0408660254037845,-0.0440665743135547,0.0260660254037844));
#418=CARTESIAN_POINT('',(0.0408660254037845,-0.0393975273015831,0.0260660254037844));
#419=CARTESIAN_POINT('',(0.0408680254037845,-0.0440665743135547,0.0260660254037844));
#420=CARTESIAN_POINT('',(0.0408680254037845,-0.0393975273015831,0.0260660254037844));
#421=CARTESIAN_POINT('',(0.0408680254037845,-0.0417320508075689,0.0260660254037844));
#422=CARTESIAN_POINT('',(0.0376660254037844,-0.0417320508075689,0.0260660254037844));
#423=CARTESIAN_POINT('',(0.0390160254037844,-0.0417320508075689,0.0260660254037844));
#424=CARTESIAN_POINT('',(0.0408660254037845,-0.0417320508075689,0.0260660254037844));
#425=CARTESIAN_POINT('',(0.0408660254037845,-0.0417320508075689,0.0208660254037845));
#426=CARTESIAN_POINT('',(0.0376660254037844,-0.0417320508075689,0.0206660254037844));
#427=CARTESIAN_POINT('',(0.0344660254037845,-0.0617320508075689,0.0208660254037845));
#428=CARTESIAN_POINT('',(0.0344660254037845,-0.0617320508075689,0.0208660254037845));
#429=CARTESIAN_POINT('',(0.0344660254037845,-0.0617320508075689,0.00836602540378445));
#430=CARTESIAN_POINT('',(0.0319660254037845,-0.0617320508075689,0.000866025403784454));
#431=CARTESIAN_POINT('',(0.0319660254037845,-0.0617320508075689,-0.000483974596215546));
#432=CARTESIAN_POINT('',(0.0319660254037845,-0.0617320508075689,0.0158660254037844));
#433=CARTESIAN_POINT('',(0.0319660254037845,-0.0617320508075689,0.0145160254037844));
#434=CARTESIAN_POINT('',(0.0319660254037845,-0.0567320508075689,0.0158660254037844));
#435=CARTESIAN_POINT('',(0.0319660254037845,-0.0567320508075689,0.0158660254037844));
#436=CARTESIAN_POINT('',(0.0319660254037845,-0.0567320508075689,0.0145160254037844));
#437=CARTESIAN_POINT('',(0.0319660254037845,-0.0567320508075689,0.00836602540378447));
#438=CARTESIAN_POINT('',(0.0319660254037845,-0.0567320508075689,0.000866025403784457));
#439=CARTESIAN_POINT('',(0.0319660254037845,-0.0567320508075689,0.000866025403784457));
#440=CARTESIAN_POINT('',(0.0319660254037845,-0.0567320508075689,-0.000483974596215543));
#441=CARTESIAN_POINT('',(0.0319660254037845,-0.0567320508075689,0.00836602540378447));
#442=MECHANICAL_DESIGN_GEOMETRIC_PRESENTATION_REPRESENTATION('',(#257),
#443);
#443=(
GEOMETRIC_REPRESENTATION_CONTEXT(3)
GLOBAL_UNCERTAINTY_ASSIGNED_CONTEXT((#444))
GLOBAL_UNIT_ASSIGNED_CONTEXT((#447,#446,#445))
REPRESENTATION_CONTEXT('Gear','TOP_LEVEL_ASSEMBLY_PART')
);
#444=UNCERTAINTY_MEASURE_WITH_UNIT(LENGTH_MEASURE(1.E-8),#447,
'DISTANCE_ACCURACY_VALUE','Maximum Tolerance applied to model');
#445=(
NAMED_UNIT(*)
SI_UNIT($,.STERADIAN.)
SOLID_ANGLE_UNIT()
);
#446=(
NAMED_UNIT(*)
PLANE_ANGLE_UNIT()
SI_UNIT($,.RADIAN.)
);
#447=(
LENGTH_UNIT()
NAMED_UNIT(*)
SI_UNIT($,.METRE.)
);
#448=PRODUCT_DEFINITION_SHAPE('','',#449);
#449=PRODUCT_DEFINITION('','',#451,#450);
#450=PRODUCT_DEFINITION_CONTEXT('',#457,'design');
#451=PRODUCT_DEFINITION_FORMATION_WITH_SPECIFIED_SOURCE('','',#453,
 .NOT_KNOWN.);
#452=PRODUCT_RELATED_PRODUCT_CATEGORY('','',(#453));
#453=PRODUCT('Gear','Gear','Gear',(#455));
#454=PRODUCT_CATEGORY('','');
#455=PRODUCT_CONTEXT('',#457,'mechanical');
#456=APPLICATION_PROTOCOL_DEFINITION('international standard',
'ap242_managed_model_based_3d_engineering',2020,#457);
#457=APPLICATION_CONTEXT('managed model based 3d engineering');
ENDSEC;
END-ISO-10303-21;
