ISO-10303-21;
HEADER;
/* Generated by software containing ST-Developer
 * from STEP Tools, Inc. (www.steptools.com) 
 */
/* OPTION: using custom renumber hook */

FILE_DESCRIPTION(
/* description */ ('STEP AP242 Edition 2',
'CAx-IF Rec.Pracs.---Representation and Presentation of Product Manufa
cturing Information (PMI)---4.0---2014-10-13',
'CAx-IF Rec.Pracs.---3D Tessellated Geometry---0.4---2014-09-14','2;1',
'CAx-IF Rec.Pracs.---User Defined Attributes---1.5---2016-08-15'),
/* implementation_level */ '2;1');

FILE_NAME(
/* name */ 'Full Assembly - Rain Tank Holder',
/* time_stamp */ '2026-04-24T00:57:03Z',
/* author */ (''),
/* organization */ (''),
/* preprocessor_version */ 'ST-DEVELOPER v20',
/* originating_system */ 'ONSHAPE BY PTC INC, 1.213',
/* authorisation */ '  ');

FILE_SCHEMA (('AP242_MANAGED_MODEL_BASED_3D_ENGINEERING_MIM_LF { 1 0 10303 442 3 1 4 }'));
ENDSEC;

DATA;
#10=SHAPE_REPRESENTATION_RELATIONSHIP('','',#552,#11);
#11=ADVANCED_BREP_SHAPE_REPRESENTATION('',(#550),#874);
#12=CIRCLE('',#573,0.0025);
#13=CIRCLE('',#574,0.0025);
#14=CIRCLE('',#576,0.0025);
#15=CIRCLE('',#577,0.0025);
#16=CIRCLE('',#582,0.0025);
#17=CIRCLE('',#583,0.0025);
#18=CIRCLE('',#585,0.0025);
#19=CIRCLE('',#586,0.0025);
#20=CYLINDRICAL_SURFACE('',#572,0.0025);
#21=CYLINDRICAL_SURFACE('',#575,0.0025);
#22=CYLINDRICAL_SURFACE('',#581,0.0025);
#23=CYLINDRICAL_SURFACE('',#584,0.0025);
#24=ORIENTED_EDGE('',*,*,#166,.F.);
#25=ORIENTED_EDGE('',*,*,#167,.T.);
#26=ORIENTED_EDGE('',*,*,#168,.T.);
#27=ORIENTED_EDGE('',*,*,#169,.F.);
#28=ORIENTED_EDGE('',*,*,#170,.F.);
#29=ORIENTED_EDGE('',*,*,#171,.T.);
#30=ORIENTED_EDGE('',*,*,#172,.T.);
#31=ORIENTED_EDGE('',*,*,#173,.F.);
#32=ORIENTED_EDGE('',*,*,#174,.F.);
#33=ORIENTED_EDGE('',*,*,#175,.T.);
#34=ORIENTED_EDGE('',*,*,#176,.F.);
#35=ORIENTED_EDGE('',*,*,#177,.T.);
#36=ORIENTED_EDGE('',*,*,#178,.T.);
#37=ORIENTED_EDGE('',*,*,#179,.T.);
#38=ORIENTED_EDGE('',*,*,#180,.F.);
#39=ORIENTED_EDGE('',*,*,#181,.F.);
#40=ORIENTED_EDGE('',*,*,#182,.T.);
#41=ORIENTED_EDGE('',*,*,#183,.F.);
#42=ORIENTED_EDGE('',*,*,#184,.F.);
#43=ORIENTED_EDGE('',*,*,#173,.T.);
#44=ORIENTED_EDGE('',*,*,#185,.T.);
#45=ORIENTED_EDGE('',*,*,#175,.F.);
#46=ORIENTED_EDGE('',*,*,#186,.F.);
#47=ORIENTED_EDGE('',*,*,#187,.T.);
#48=ORIENTED_EDGE('',*,*,#188,.T.);
#49=ORIENTED_EDGE('',*,*,#179,.F.);
#50=ORIENTED_EDGE('',*,*,#189,.F.);
#51=ORIENTED_EDGE('',*,*,#190,.T.);
#52=ORIENTED_EDGE('',*,*,#191,.T.);
#53=ORIENTED_EDGE('',*,*,#187,.F.);
#54=ORIENTED_EDGE('',*,*,#192,.T.);
#55=ORIENTED_EDGE('',*,*,#193,.T.);
#56=ORIENTED_EDGE('',*,*,#194,.F.);
#57=ORIENTED_EDGE('',*,*,#195,.F.);
#58=ORIENTED_EDGE('',*,*,#196,.T.);
#59=ORIENTED_EDGE('',*,*,#197,.T.);
#60=ORIENTED_EDGE('',*,*,#192,.F.);
#61=ORIENTED_EDGE('',*,*,#198,.F.);
#62=ORIENTED_EDGE('',*,*,#199,.T.);
#63=ORIENTED_EDGE('',*,*,#200,.T.);
#64=ORIENTED_EDGE('',*,*,#196,.F.);
#65=ORIENTED_EDGE('',*,*,#201,.F.);
#66=ORIENTED_EDGE('',*,*,#202,.T.);
#67=ORIENTED_EDGE('',*,*,#203,.T.);
#68=ORIENTED_EDGE('',*,*,#204,.F.);
#69=ORIENTED_EDGE('',*,*,#205,.F.);
#70=ORIENTED_EDGE('',*,*,#166,.T.);
#71=ORIENTED_EDGE('',*,*,#206,.F.);
#72=ORIENTED_EDGE('',*,*,#181,.T.);
#73=ORIENTED_EDGE('',*,*,#207,.T.);
#74=ORIENTED_EDGE('',*,*,#190,.F.);
#75=ORIENTED_EDGE('',*,*,#208,.F.);
#76=ORIENTED_EDGE('',*,*,#177,.F.);
#77=ORIENTED_EDGE('',*,*,#209,.T.);
#78=ORIENTED_EDGE('',*,*,#171,.F.);
#79=ORIENTED_EDGE('',*,*,#210,.F.);
#80=ORIENTED_EDGE('',*,*,#211,.T.);
#81=ORIENTED_EDGE('',*,*,#212,.T.);
#82=ORIENTED_EDGE('',*,*,#199,.F.);
#83=ORIENTED_EDGE('',*,*,#213,.T.);
#84=ORIENTED_EDGE('',*,*,#214,.F.);
#85=ORIENTED_EDGE('',*,*,#202,.F.);
#86=ORIENTED_EDGE('',*,*,#215,.T.);
#87=ORIENTED_EDGE('',*,*,#216,.T.);
#88=ORIENTED_EDGE('',*,*,#194,.T.);
#89=ORIENTED_EDGE('',*,*,#217,.F.);
#90=ORIENTED_EDGE('',*,*,#218,.F.);
#91=ORIENTED_EDGE('',*,*,#219,.T.);
#92=ORIENTED_EDGE('',*,*,#183,.T.);
#93=ORIENTED_EDGE('',*,*,#220,.T.);
#94=ORIENTED_EDGE('',*,*,#168,.F.);
#95=ORIENTED_EDGE('',*,*,#221,.T.);
#96=ORIENTED_EDGE('',*,*,#222,.T.);
#97=ORIENTED_EDGE('',*,*,#223,.F.);
#98=ORIENTED_EDGE('',*,*,#216,.F.);
#99=ORIENTED_EDGE('',*,*,#224,.F.);
#100=ORIENTED_EDGE('',*,*,#195,.T.);
#101=ORIENTED_EDGE('',*,*,#224,.T.);
#102=ORIENTED_EDGE('',*,*,#215,.F.);
#103=ORIENTED_EDGE('',*,*,#213,.F.);
#104=ORIENTED_EDGE('',*,*,#201,.T.);
#105=ORIENTED_EDGE('',*,*,#198,.T.);
#106=ORIENTED_EDGE('',*,*,#182,.F.);
#107=ORIENTED_EDGE('',*,*,#206,.T.);
#108=ORIENTED_EDGE('',*,*,#169,.T.);
#109=ORIENTED_EDGE('',*,*,#220,.F.);
#110=ORIENTED_EDGE('',*,*,#188,.F.);
#111=ORIENTED_EDGE('',*,*,#191,.F.);
#112=ORIENTED_EDGE('',*,*,#207,.F.);
#113=ORIENTED_EDGE('',*,*,#180,.T.);
#114=ORIENTED_EDGE('',*,*,#185,.F.);
#115=ORIENTED_EDGE('',*,*,#172,.F.);
#116=ORIENTED_EDGE('',*,*,#209,.F.);
#117=ORIENTED_EDGE('',*,*,#176,.T.);
#118=ORIENTED_EDGE('',*,*,#186,.T.);
#119=ORIENTED_EDGE('',*,*,#178,.F.);
#120=ORIENTED_EDGE('',*,*,#208,.T.);
#121=ORIENTED_EDGE('',*,*,#189,.T.);
#122=ORIENTED_EDGE('',*,*,#225,.T.);
#123=ORIENTED_EDGE('',*,*,#211,.F.);
#124=ORIENTED_EDGE('',*,*,#226,.F.);
#125=ORIENTED_EDGE('',*,*,#218,.T.);
#126=ORIENTED_EDGE('',*,*,#227,.F.);
#127=ORIENTED_EDGE('',*,*,#228,.T.);
#128=ORIENTED_EDGE('',*,*,#229,.F.);
#129=ORIENTED_EDGE('',*,*,#230,.T.);
#130=ORIENTED_EDGE('',*,*,#229,.T.);
#131=ORIENTED_EDGE('',*,*,#227,.T.);
#132=ORIENTED_EDGE('',*,*,#226,.T.);
#133=ORIENTED_EDGE('',*,*,#210,.T.);
#134=ORIENTED_EDGE('',*,*,#170,.T.);
#135=ORIENTED_EDGE('',*,*,#184,.T.);
#136=ORIENTED_EDGE('',*,*,#174,.T.);
#137=ORIENTED_EDGE('',*,*,#219,.F.);
#138=ORIENTED_EDGE('',*,*,#230,.F.);
#139=ORIENTED_EDGE('',*,*,#228,.F.);
#140=ORIENTED_EDGE('',*,*,#225,.F.);
#141=ORIENTED_EDGE('',*,*,#217,.T.);
#142=ORIENTED_EDGE('',*,*,#193,.F.);
#143=ORIENTED_EDGE('',*,*,#197,.F.);
#144=ORIENTED_EDGE('',*,*,#200,.F.);
#145=ORIENTED_EDGE('',*,*,#212,.F.);
#146=ORIENTED_EDGE('',*,*,#231,.F.);
#147=ORIENTED_EDGE('',*,*,#222,.F.);
#148=ORIENTED_EDGE('',*,*,#232,.T.);
#149=ORIENTED_EDGE('',*,*,#204,.T.);
#150=ORIENTED_EDGE('',*,*,#233,.F.);
#151=ORIENTED_EDGE('',*,*,#234,.T.);
#152=ORIENTED_EDGE('',*,*,#235,.F.);
#153=ORIENTED_EDGE('',*,*,#236,.T.);
#154=ORIENTED_EDGE('',*,*,#235,.T.);
#155=ORIENTED_EDGE('',*,*,#233,.T.);
#156=ORIENTED_EDGE('',*,*,#167,.F.);
#157=ORIENTED_EDGE('',*,*,#205,.T.);
#158=ORIENTED_EDGE('',*,*,#232,.F.);
#159=ORIENTED_EDGE('',*,*,#221,.F.);
#160=ORIENTED_EDGE('',*,*,#236,.F.);
#161=ORIENTED_EDGE('',*,*,#234,.F.);
#162=ORIENTED_EDGE('',*,*,#214,.T.);
#163=ORIENTED_EDGE('',*,*,#223,.T.);
#164=ORIENTED_EDGE('',*,*,#231,.T.);
#165=ORIENTED_EDGE('',*,*,#203,.F.);
#166=EDGE_CURVE('',#237,#238,#287,.T.);
#167=EDGE_CURVE('',#237,#239,#288,.T.);
#168=EDGE_CURVE('',#239,#240,#289,.T.);
#169=EDGE_CURVE('',#238,#240,#290,.T.);
#170=EDGE_CURVE('',#241,#242,#291,.T.);
#171=EDGE_CURVE('',#241,#243,#292,.T.);
#172=EDGE_CURVE('',#243,#244,#293,.T.);
#173=EDGE_CURVE('',#242,#244,#294,.T.);
#174=EDGE_CURVE('',#245,#246,#295,.T.);
#175=EDGE_CURVE('',#245,#247,#296,.T.);
#176=EDGE_CURVE('',#248,#247,#297,.T.);
#177=EDGE_CURVE('',#248,#249,#298,.T.);
#178=EDGE_CURVE('',#249,#250,#299,.T.);
#179=EDGE_CURVE('',#250,#251,#300,.T.);
#180=EDGE_CURVE('',#252,#251,#301,.T.);
#181=EDGE_CURVE('',#253,#252,#302,.T.);
#182=EDGE_CURVE('',#253,#254,#303,.T.);
#183=EDGE_CURVE('',#246,#254,#304,.T.);
#184=EDGE_CURVE('',#242,#245,#305,.T.);
#185=EDGE_CURVE('',#244,#247,#306,.T.);
#186=EDGE_CURVE('',#255,#250,#307,.T.);
#187=EDGE_CURVE('',#255,#256,#308,.T.);
#188=EDGE_CURVE('',#256,#251,#309,.T.);
#189=EDGE_CURVE('',#257,#255,#310,.T.);
#190=EDGE_CURVE('',#257,#258,#311,.T.);
#191=EDGE_CURVE('',#258,#256,#312,.T.);
#192=EDGE_CURVE('',#259,#260,#313,.T.);
#193=EDGE_CURVE('',#260,#261,#314,.T.);
#194=EDGE_CURVE('',#262,#261,#315,.T.);
#195=EDGE_CURVE('',#259,#262,#316,.T.);
#196=EDGE_CURVE('',#263,#264,#317,.T.);
#197=EDGE_CURVE('',#264,#260,#318,.T.);
#198=EDGE_CURVE('',#263,#259,#319,.T.);
#199=EDGE_CURVE('',#265,#266,#320,.T.);
#200=EDGE_CURVE('',#266,#264,#321,.T.);
#201=EDGE_CURVE('',#265,#263,#322,.T.);
#202=EDGE_CURVE('',#267,#268,#323,.T.);
#203=EDGE_CURVE('',#268,#269,#324,.T.);
#204=EDGE_CURVE('',#270,#269,#325,.T.);
#205=EDGE_CURVE('',#237,#270,#326,.T.);
#206=EDGE_CURVE('',#253,#238,#327,.T.);
#207=EDGE_CURVE('',#252,#258,#328,.T.);
#208=EDGE_CURVE('',#249,#257,#329,.T.);
#209=EDGE_CURVE('',#248,#243,#330,.T.);
#210=EDGE_CURVE('',#271,#241,#331,.T.);
#211=EDGE_CURVE('',#271,#272,#332,.T.);
#212=EDGE_CURVE('',#272,#266,#333,.T.);
#213=EDGE_CURVE('',#265,#267,#334,.T.);
#214=EDGE_CURVE('',#268,#273,#335,.T.);
#215=EDGE_CURVE('',#267,#274,#336,.T.);
#216=EDGE_CURVE('',#274,#273,#337,.T.);
#217=EDGE_CURVE('',#275,#261,#338,.T.);
#218=EDGE_CURVE('',#276,#275,#339,.T.);
#219=EDGE_CURVE('',#276,#246,#340,.T.);
#220=EDGE_CURVE('',#254,#240,#341,.T.);
#221=EDGE_CURVE('',#239,#277,#342,.T.);
#222=EDGE_CURVE('',#277,#278,#343,.T.);
#223=EDGE_CURVE('',#273,#278,#344,.T.);
#224=EDGE_CURVE('',#262,#274,#345,.T.);
#225=EDGE_CURVE('',#275,#272,#346,.T.);
#226=EDGE_CURVE('',#276,#271,#347,.T.);
#227=EDGE_CURVE('',#279,#279,#12,.T.);
#228=EDGE_CURVE('',#280,#280,#13,.T.);
#229=EDGE_CURVE('',#281,#281,#14,.T.);
#230=EDGE_CURVE('',#282,#282,#15,.T.);
#231=EDGE_CURVE('',#278,#269,#348,.T.);
#232=EDGE_CURVE('',#277,#270,#349,.T.);
#233=EDGE_CURVE('',#283,#283,#16,.T.);
#234=EDGE_CURVE('',#284,#284,#17,.T.);
#235=EDGE_CURVE('',#285,#285,#18,.T.);
#236=EDGE_CURVE('',#286,#286,#19,.T.);
#237=VERTEX_POINT('',#727);
#238=VERTEX_POINT('',#728);
#239=VERTEX_POINT('',#730);
#240=VERTEX_POINT('',#732);
#241=VERTEX_POINT('',#736);
#242=VERTEX_POINT('',#737);
#243=VERTEX_POINT('',#739);
#244=VERTEX_POINT('',#741);
#245=VERTEX_POINT('',#745);
#246=VERTEX_POINT('',#746);
#247=VERTEX_POINT('',#748);
#248=VERTEX_POINT('',#750);
#249=VERTEX_POINT('',#752);
#250=VERTEX_POINT('',#754);
#251=VERTEX_POINT('',#756);
#252=VERTEX_POINT('',#758);
#253=VERTEX_POINT('',#760);
#254=VERTEX_POINT('',#762);
#255=VERTEX_POINT('',#769);
#256=VERTEX_POINT('',#771);
#257=VERTEX_POINT('',#775);
#258=VERTEX_POINT('',#777);
#259=VERTEX_POINT('',#781);
#260=VERTEX_POINT('',#782);
#261=VERTEX_POINT('',#784);
#262=VERTEX_POINT('',#786);
#263=VERTEX_POINT('',#790);
#264=VERTEX_POINT('',#791);
#265=VERTEX_POINT('',#796);
#266=VERTEX_POINT('',#797);
#267=VERTEX_POINT('',#802);
#268=VERTEX_POINT('',#803);
#269=VERTEX_POINT('',#805);
#270=VERTEX_POINT('',#807);
#271=VERTEX_POINT('',#814);
#272=VERTEX_POINT('',#816);
#273=VERTEX_POINT('',#821);
#274=VERTEX_POINT('',#823);
#275=VERTEX_POINT('',#827);
#276=VERTEX_POINT('',#829);
#277=VERTEX_POINT('',#833);
#278=VERTEX_POINT('',#835);
#279=VERTEX_POINT('',#848);
#280=VERTEX_POINT('',#850);
#281=VERTEX_POINT('',#853);
#282=VERTEX_POINT('',#855);
#283=VERTEX_POINT('',#863);
#284=VERTEX_POINT('',#865);
#285=VERTEX_POINT('',#868);
#286=VERTEX_POINT('',#870);
#287=LINE('',#726,#350);
#288=LINE('',#729,#351);
#289=LINE('',#731,#352);
#290=LINE('',#733,#353);
#291=LINE('',#735,#354);
#292=LINE('',#738,#355);
#293=LINE('',#740,#356);
#294=LINE('',#742,#357);
#295=LINE('',#744,#358);
#296=LINE('',#747,#359);
#297=LINE('',#749,#360);
#298=LINE('',#751,#361);
#299=LINE('',#753,#362);
#300=LINE('',#755,#363);
#301=LINE('',#757,#364);
#302=LINE('',#759,#365);
#303=LINE('',#761,#366);
#304=LINE('',#763,#367);
#305=LINE('',#765,#368);
#306=LINE('',#766,#369);
#307=LINE('',#768,#370);
#308=LINE('',#770,#371);
#309=LINE('',#772,#372);
#310=LINE('',#774,#373);
#311=LINE('',#776,#374);
#312=LINE('',#778,#375);
#313=LINE('',#780,#376);
#314=LINE('',#783,#377);
#315=LINE('',#785,#378);
#316=LINE('',#787,#379);
#317=LINE('',#789,#380);
#318=LINE('',#792,#381);
#319=LINE('',#793,#382);
#320=LINE('',#795,#383);
#321=LINE('',#798,#384);
#322=LINE('',#799,#385);
#323=LINE('',#801,#386);
#324=LINE('',#804,#387);
#325=LINE('',#806,#388);
#326=LINE('',#808,#389);
#327=LINE('',#809,#390);
#328=LINE('',#810,#391);
#329=LINE('',#811,#392);
#330=LINE('',#812,#393);
#331=LINE('',#813,#394);
#332=LINE('',#815,#395);
#333=LINE('',#817,#396);
#334=LINE('',#818,#397);
#335=LINE('',#820,#398);
#336=LINE('',#822,#399);
#337=LINE('',#824,#400);
#338=LINE('',#826,#401);
#339=LINE('',#828,#402);
#340=LINE('',#830,#403);
#341=LINE('',#831,#404);
#342=LINE('',#832,#405);
#343=LINE('',#834,#406);
#344=LINE('',#836,#407);
#345=LINE('',#837,#408);
#346=LINE('',#844,#409);
#347=LINE('',#845,#410);
#348=LINE('',#859,#411);
#349=LINE('',#860,#412);
#350=VECTOR('',#593,1.);
#351=VECTOR('',#594,1.);
#352=VECTOR('',#595,1.);
#353=VECTOR('',#596,1.);
#354=VECTOR('',#599,1.);
#355=VECTOR('',#600,1.);
#356=VECTOR('',#601,1.);
#357=VECTOR('',#602,1.);
#358=VECTOR('',#605,1.);
#359=VECTOR('',#606,1.);
#360=VECTOR('',#607,1.);
#361=VECTOR('',#608,1.);
#362=VECTOR('',#609,1.);
#363=VECTOR('',#610,1.);
#364=VECTOR('',#611,1.);
#365=VECTOR('',#612,1.);
#366=VECTOR('',#613,1.);
#367=VECTOR('',#614,1.);
#368=VECTOR('',#617,1.);
#369=VECTOR('',#618,1.);
#370=VECTOR('',#621,1.);
#371=VECTOR('',#622,1.);
#372=VECTOR('',#623,1.);
#373=VECTOR('',#626,1.);
#374=VECTOR('',#627,1.);
#375=VECTOR('',#628,1.);
#376=VECTOR('',#631,1.);
#377=VECTOR('',#632,1.);
#378=VECTOR('',#633,1.);
#379=VECTOR('',#634,1.);
#380=VECTOR('',#637,1.);
#381=VECTOR('',#638,1.);
#382=VECTOR('',#639,1.);
#383=VECTOR('',#642,1.);
#384=VECTOR('',#643,1.);
#385=VECTOR('',#644,1.);
#386=VECTOR('',#647,1.);
#387=VECTOR('',#648,1.);
#388=VECTOR('',#649,1.);
#389=VECTOR('',#650,1.);
#390=VECTOR('',#651,1.);
#391=VECTOR('',#652,1.);
#392=VECTOR('',#653,1.);
#393=VECTOR('',#654,1.);
#394=VECTOR('',#655,1.);
#395=VECTOR('',#656,1.);
#396=VECTOR('',#657,1.);
#397=VECTOR('',#658,1.);
#398=VECTOR('',#661,1.);
#399=VECTOR('',#662,1.);
#400=VECTOR('',#663,1.);
#401=VECTOR('',#666,1.);
#402=VECTOR('',#667,1.);
#403=VECTOR('',#668,1.);
#404=VECTOR('',#669,1.);
#405=VECTOR('',#670,1.);
#406=VECTOR('',#671,1.);
#407=VECTOR('',#672,1.);
#408=VECTOR('',#673,1.);
#409=VECTOR('',#686,1.);
#410=VECTOR('',#687,1.);
#411=VECTOR('',#706,1.);
#412=VECTOR('',#707,1.);
#413=EDGE_LOOP('',(#24,#25,#26,#27));
#414=EDGE_LOOP('',(#28,#29,#30,#31));
#415=EDGE_LOOP('',(#32,#33,#34,#35,#36,#37,#38,#39,#40,#41));
#416=EDGE_LOOP('',(#42,#43,#44,#45));
#417=EDGE_LOOP('',(#46,#47,#48,#49));
#418=EDGE_LOOP('',(#50,#51,#52,#53));
#419=EDGE_LOOP('',(#54,#55,#56,#57));
#420=EDGE_LOOP('',(#58,#59,#60,#61));
#421=EDGE_LOOP('',(#62,#63,#64,#65));
#422=EDGE_LOOP('',(#66,#67,#68,#69,#70,#71,#72,#73,#74,#75,#76,#77,#78,
#79,#80,#81,#82,#83));
#423=EDGE_LOOP('',(#84,#85,#86,#87));
#424=EDGE_LOOP('',(#88,#89,#90,#91,#92,#93,#94,#95,#96,#97,#98,#99));
#425=EDGE_LOOP('',(#100,#101,#102,#103,#104,#105));
#426=EDGE_LOOP('',(#106,#107,#108,#109));
#427=EDGE_LOOP('',(#110,#111,#112,#113));
#428=EDGE_LOOP('',(#114,#115,#116,#117));
#429=EDGE_LOOP('',(#118,#119,#120,#121));
#430=EDGE_LOOP('',(#122,#123,#124,#125));
#431=EDGE_LOOP('',(#126));
#432=EDGE_LOOP('',(#127));
#433=EDGE_LOOP('',(#128));
#434=EDGE_LOOP('',(#129));
#435=EDGE_LOOP('',(#130));
#436=EDGE_LOOP('',(#131));
#437=EDGE_LOOP('',(#132,#133,#134,#135,#136,#137));
#438=EDGE_LOOP('',(#138));
#439=EDGE_LOOP('',(#139));
#440=EDGE_LOOP('',(#140,#141,#142,#143,#144,#145));
#441=EDGE_LOOP('',(#146,#147,#148,#149));
#442=EDGE_LOOP('',(#150));
#443=EDGE_LOOP('',(#151));
#444=EDGE_LOOP('',(#152));
#445=EDGE_LOOP('',(#153));
#446=EDGE_LOOP('',(#154));
#447=EDGE_LOOP('',(#155));
#448=EDGE_LOOP('',(#156,#157,#158,#159));
#449=EDGE_LOOP('',(#160));
#450=EDGE_LOOP('',(#161));
#451=EDGE_LOOP('',(#162,#163,#164,#165));
#452=FACE_BOUND('',#413,.T.);
#453=FACE_BOUND('',#414,.T.);
#454=FACE_BOUND('',#415,.T.);
#455=FACE_BOUND('',#416,.T.);
#456=FACE_BOUND('',#417,.T.);
#457=FACE_BOUND('',#418,.T.);
#458=FACE_BOUND('',#419,.T.);
#459=FACE_BOUND('',#420,.T.);
#460=FACE_BOUND('',#421,.T.);
#461=FACE_BOUND('',#422,.T.);
#462=FACE_BOUND('',#423,.T.);
#463=FACE_BOUND('',#424,.T.);
#464=FACE_BOUND('',#425,.T.);
#465=FACE_BOUND('',#426,.T.);
#466=FACE_BOUND('',#427,.T.);
#467=FACE_BOUND('',#428,.T.);
#468=FACE_BOUND('',#429,.T.);
#469=FACE_BOUND('',#430,.T.);
#470=FACE_BOUND('',#431,.T.);
#471=FACE_BOUND('',#432,.T.);
#472=FACE_BOUND('',#433,.T.);
#473=FACE_BOUND('',#434,.T.);
#474=FACE_BOUND('',#435,.T.);
#475=FACE_BOUND('',#436,.T.);
#476=FACE_BOUND('',#437,.T.);
#477=FACE_BOUND('',#438,.T.);
#478=FACE_BOUND('',#439,.T.);
#479=FACE_BOUND('',#440,.T.);
#480=FACE_BOUND('',#441,.T.);
#481=FACE_BOUND('',#442,.T.);
#482=FACE_BOUND('',#443,.T.);
#483=FACE_BOUND('',#444,.T.);
#484=FACE_BOUND('',#445,.T.);
#485=FACE_BOUND('',#446,.T.);
#486=FACE_BOUND('',#447,.T.);
#487=FACE_BOUND('',#448,.T.);
#488=FACE_BOUND('',#449,.T.);
#489=FACE_BOUND('',#450,.T.);
#490=FACE_BOUND('',#451,.T.);
#491=PLANE('',#554);
#492=PLANE('',#555);
#493=PLANE('',#556);
#494=PLANE('',#557);
#495=PLANE('',#558);
#496=PLANE('',#559);
#497=PLANE('',#560);
#498=PLANE('',#561);
#499=PLANE('',#562);
#500=PLANE('',#563);
#501=PLANE('',#564);
#502=PLANE('',#565);
#503=PLANE('',#566);
#504=PLANE('',#567);
#505=PLANE('',#568);
#506=PLANE('',#569);
#507=PLANE('',#570);
#508=PLANE('',#571);
#509=PLANE('',#578);
#510=PLANE('',#579);
#511=PLANE('',#580);
#512=PLANE('',#587);
#513=PLANE('',#588);
#514=ADVANCED_FACE('',(#452),#491,.T.);
#515=ADVANCED_FACE('',(#453),#492,.F.);
#516=ADVANCED_FACE('',(#454),#493,.F.);
#517=ADVANCED_FACE('',(#455),#494,.F.);
#518=ADVANCED_FACE('',(#456),#495,.F.);
#519=ADVANCED_FACE('',(#457),#496,.F.);
#520=ADVANCED_FACE('',(#458),#497,.F.);
#521=ADVANCED_FACE('',(#459),#498,.F.);
#522=ADVANCED_FACE('',(#460),#499,.F.);
#523=ADVANCED_FACE('',(#461),#500,.T.);
#524=ADVANCED_FACE('',(#462),#501,.T.);
#525=ADVANCED_FACE('',(#463),#502,.F.);
#526=ADVANCED_FACE('',(#464),#503,.F.);
#527=ADVANCED_FACE('',(#465),#504,.T.);
#528=ADVANCED_FACE('',(#466),#505,.F.);
#529=ADVANCED_FACE('',(#467),#506,.F.);
#530=ADVANCED_FACE('',(#468),#507,.T.);
#531=ADVANCED_FACE('',(#469),#508,.F.);
#532=ADVANCED_FACE('',(#470,#471),#20,.F.);
#533=ADVANCED_FACE('',(#472,#473),#21,.F.);
#534=ADVANCED_FACE('',(#474,#475,#476),#509,.F.);
#535=ADVANCED_FACE('',(#477,#478,#479),#510,.T.);
#536=ADVANCED_FACE('',(#480),#511,.T.);
#537=ADVANCED_FACE('',(#481,#482),#22,.F.);
#538=ADVANCED_FACE('',(#483,#484),#23,.F.);
#539=ADVANCED_FACE('',(#485,#486,#487),#512,.F.);
#540=ADVANCED_FACE('',(#488,#489,#490),#513,.T.);
#541=CLOSED_SHELL('',(#514,#515,#516,#517,#518,#519,#520,#521,#522,#523,
#524,#525,#526,#527,#528,#529,#530,#531,#532,#533,#534,#535,#536,#537,#538,
#539,#540));
#542=STYLED_ITEM('',(#543),#550);
#543=PRESENTATION_STYLE_ASSIGNMENT((#544));
#544=SURFACE_STYLE_USAGE(.BOTH.,#545);
#545=SURFACE_SIDE_STYLE('',(#546));
#546=SURFACE_STYLE_FILL_AREA(#547);
#547=FILL_AREA_STYLE('',(#548));
#548=FILL_AREA_STYLE_COLOUR('',#549);
#549=COLOUR_RGB('',0.901960784313726,0.901960784313726,0.901960784313726);
#550=MANIFOLD_SOLID_BREP('Rain Tank Holder',#541);
#551=SHAPE_DEFINITION_REPRESENTATION(#879,#552);
#552=SHAPE_REPRESENTATION('Rain Tank Holder',(#553),#874);
#553=AXIS2_PLACEMENT_3D('',#724,#589,#590);
#554=AXIS2_PLACEMENT_3D('',#725,#591,#592);
#555=AXIS2_PLACEMENT_3D('',#734,#597,#598);
#556=AXIS2_PLACEMENT_3D('',#743,#603,#604);
#557=AXIS2_PLACEMENT_3D('',#764,#615,#616);
#558=AXIS2_PLACEMENT_3D('',#767,#619,#620);
#559=AXIS2_PLACEMENT_3D('',#773,#624,#625);
#560=AXIS2_PLACEMENT_3D('',#779,#629,#630);
#561=AXIS2_PLACEMENT_3D('',#788,#635,#636);
#562=AXIS2_PLACEMENT_3D('',#794,#640,#641);
#563=AXIS2_PLACEMENT_3D('',#800,#645,#646);
#564=AXIS2_PLACEMENT_3D('',#819,#659,#660);
#565=AXIS2_PLACEMENT_3D('',#825,#664,#665);
#566=AXIS2_PLACEMENT_3D('',#838,#674,#675);
#567=AXIS2_PLACEMENT_3D('',#839,#676,#677);
#568=AXIS2_PLACEMENT_3D('',#840,#678,#679);
#569=AXIS2_PLACEMENT_3D('',#841,#680,#681);
#570=AXIS2_PLACEMENT_3D('',#842,#682,#683);
#571=AXIS2_PLACEMENT_3D('',#843,#684,#685);
#572=AXIS2_PLACEMENT_3D('',#846,#688,#689);
#573=AXIS2_PLACEMENT_3D('',#847,#690,#691);
#574=AXIS2_PLACEMENT_3D('',#849,#692,#693);
#575=AXIS2_PLACEMENT_3D('',#851,#694,#695);
#576=AXIS2_PLACEMENT_3D('',#852,#696,#697);
#577=AXIS2_PLACEMENT_3D('',#854,#698,#699);
#578=AXIS2_PLACEMENT_3D('',#856,#700,#701);
#579=AXIS2_PLACEMENT_3D('',#857,#702,#703);
#580=AXIS2_PLACEMENT_3D('',#858,#704,#705);
#581=AXIS2_PLACEMENT_3D('',#861,#708,#709);
#582=AXIS2_PLACEMENT_3D('',#862,#710,#711);
#583=AXIS2_PLACEMENT_3D('',#864,#712,#713);
#584=AXIS2_PLACEMENT_3D('',#866,#714,#715);
#585=AXIS2_PLACEMENT_3D('',#867,#716,#717);
#586=AXIS2_PLACEMENT_3D('',#869,#718,#719);
#587=AXIS2_PLACEMENT_3D('',#871,#720,#721);
#588=AXIS2_PLACEMENT_3D('',#872,#722,#723);
#589=DIRECTION('',(0.,0.,1.));
#590=DIRECTION('',(1.,0.,0.));
#591=DIRECTION('',(-1.,0.,0.));
#592=DIRECTION('',(0.,0.,1.));
#593=DIRECTION('',(0.,-1.,0.));
#594=DIRECTION('',(0.,0.,-1.));
#595=DIRECTION('',(0.,-1.,0.));
#596=DIRECTION('',(0.,0.,-1.));
#597=DIRECTION('',(-1.,0.,0.));
#598=DIRECTION('',(0.,0.,1.));
#599=DIRECTION('',(0.,0.,-1.));
#600=DIRECTION('',(0.,-1.,0.));
#601=DIRECTION('',(0.,0.,-1.));
#602=DIRECTION('',(0.,-1.,0.));
#603=DIRECTION('',(-1.,0.,0.));
#604=DIRECTION('',(0.,0.,1.));
#605=DIRECTION('',(0.,0.,-1.));
#606=DIRECTION('',(0.,-1.,0.));
#607=DIRECTION('',(0.,0.,-1.));
#608=DIRECTION('',(0.,-1.,0.));
#609=DIRECTION('',(0.,0.,-1.));
#610=DIRECTION('',(0.,-1.,0.));
#611=DIRECTION('',(0.,0.,-1.));
#612=DIRECTION('',(0.,1.,0.));
#613=DIRECTION('',(0.,0.,-1.));
#614=DIRECTION('',(0.,-1.,0.));
#615=DIRECTION('',(1.85455634767257E-16,0.,-1.));
#616=DIRECTION('',(-1.,0.,-1.85455634767257E-16));
#617=DIRECTION('',(1.,0.,1.85455634767257E-16));
#618=DIRECTION('',(1.,0.,1.85455634767257E-16));
#619=DIRECTION('',(1.85455634767257E-16,0.,-1.));
#620=DIRECTION('',(-1.,0.,-1.85455634767257E-16));
#621=DIRECTION('',(1.,0.,1.85455634767257E-16));
#622=DIRECTION('',(0.,-1.,0.));
#623=DIRECTION('',(1.,0.,1.85455634767257E-16));
#624=DIRECTION('',(-1.,0.,0.));
#625=DIRECTION('',(0.,0.,1.));
#626=DIRECTION('',(0.,0.,-1.));
#627=DIRECTION('',(0.,-1.,0.));
#628=DIRECTION('',(0.,0.,-1.));
#629=DIRECTION('',(-1.,0.,0.));
#630=DIRECTION('',(0.,0.,1.));
#631=DIRECTION('',(0.,-1.,0.));
#632=DIRECTION('',(0.,0.,-1.));
#633=DIRECTION('',(0.,-1.,0.));
#634=DIRECTION('',(0.,0.,-1.));
#635=DIRECTION('',(1.85455634767257E-16,0.,-1.));
#636=DIRECTION('',(-1.,0.,-1.85455634767257E-16));
#637=DIRECTION('',(0.,-1.,0.));
#638=DIRECTION('',(1.,0.,1.85455634767257E-16));
#639=DIRECTION('',(1.,0.,1.85455634767257E-16));
#640=DIRECTION('',(-1.,0.,0.));
#641=DIRECTION('',(0.,0.,1.));
#642=DIRECTION('',(0.,-1.,0.));
#643=DIRECTION('',(0.,0.,-1.));
#644=DIRECTION('',(0.,0.,-1.));
#645=DIRECTION('',(0.,0.,1.));
#646=DIRECTION('',(1.,0.,0.));
#647=DIRECTION('',(0.,-1.,0.));
#648=DIRECTION('',(-1.,0.,0.));
#649=DIRECTION('',(0.,1.,0.));
#650=DIRECTION('',(-1.,0.,0.));
#651=DIRECTION('',(-1.,0.,0.));
#652=DIRECTION('',(-1.,0.,0.));
#653=DIRECTION('',(-1.,0.,0.));
#654=DIRECTION('',(-1.,0.,0.));
#655=DIRECTION('',(-1.,0.,0.));
#656=DIRECTION('',(0.,1.,0.));
#657=DIRECTION('',(-1.,0.,0.));
#658=DIRECTION('',(-1.,0.,0.));
#659=DIRECTION('',(-1.,0.,0.));
#660=DIRECTION('',(0.,0.,1.));
#661=DIRECTION('',(0.,0.,-1.));
#662=DIRECTION('',(0.,0.,-1.));
#663=DIRECTION('',(0.,-1.,0.));
#664=DIRECTION('',(0.,0.,1.));
#665=DIRECTION('',(1.,0.,0.));
#666=DIRECTION('',(-1.,0.,0.));
#667=DIRECTION('',(0.,1.,0.));
#668=DIRECTION('',(-1.,0.,0.));
#669=DIRECTION('',(-1.,0.,0.));
#670=DIRECTION('',(-1.,0.,0.));
#671=DIRECTION('',(0.,1.,0.));
#672=DIRECTION('',(-1.,0.,0.));
#673=DIRECTION('',(-1.,0.,0.));
#674=DIRECTION('',(0.,-1.,0.));
#675=DIRECTION('',(1.,0.,0.));
#676=DIRECTION('',(0.,-1.,0.));
#677=DIRECTION('',(1.,0.,0.));
#678=DIRECTION('',(0.,-1.,0.));
#679=DIRECTION('',(1.,0.,0.));
#680=DIRECTION('',(0.,-1.,0.));
#681=DIRECTION('',(1.,0.,0.));
#682=DIRECTION('',(0.,-1.,0.));
#683=DIRECTION('',(1.,0.,0.));
#684=DIRECTION('',(-1.,0.,1.70908716845005E-16));
#685=DIRECTION('',(1.70908716845005E-16,0.,1.));
#686=DIRECTION('',(1.70908716845005E-16,0.,1.));
#687=DIRECTION('',(1.70908716845005E-16,0.,1.));
#688=DIRECTION('',(0.,1.,0.));
#689=DIRECTION('',(0.,0.,1.));
#690=DIRECTION('',(0.,1.,0.));
#691=DIRECTION('',(0.,0.,1.));
#692=DIRECTION('',(0.,1.,0.));
#693=DIRECTION('',(0.,0.,1.));
#694=DIRECTION('',(0.,1.,0.));
#695=DIRECTION('',(0.,0.,1.));
#696=DIRECTION('',(0.,1.,0.));
#697=DIRECTION('',(0.,0.,1.));
#698=DIRECTION('',(0.,1.,0.));
#699=DIRECTION('',(0.,0.,1.));
#700=DIRECTION('',(0.,1.,0.));
#701=DIRECTION('',(-1.,0.,0.));
#702=DIRECTION('',(0.,1.,0.));
#703=DIRECTION('',(-1.,0.,0.));
#704=DIRECTION('',(-1.,0.,1.70908716845005E-16));
#705=DIRECTION('',(1.70908716845005E-16,0.,1.));
#706=DIRECTION('',(1.70908716845005E-16,0.,1.));
#707=DIRECTION('',(1.70908716845005E-16,0.,1.));
#708=DIRECTION('',(0.,1.,0.));
#709=DIRECTION('',(0.,0.,1.));
#710=DIRECTION('',(0.,1.,0.));
#711=DIRECTION('',(0.,0.,1.));
#712=DIRECTION('',(0.,1.,0.));
#713=DIRECTION('',(0.,0.,1.));
#714=DIRECTION('',(0.,1.,0.));
#715=DIRECTION('',(0.,0.,1.));
#716=DIRECTION('',(0.,1.,0.));
#717=DIRECTION('',(0.,0.,1.));
#718=DIRECTION('',(0.,1.,0.));
#719=DIRECTION('',(0.,0.,1.));
#720=DIRECTION('',(0.,1.,0.));
#721=DIRECTION('',(-1.,0.,0.));
#722=DIRECTION('',(0.,1.,0.));
#723=DIRECTION('',(-1.,0.,0.));
#724=CARTESIAN_POINT('',(0.,0.,0.));
#725=CARTESIAN_POINT('',(-0.0043,0.121,-0.000300000000000022));
#726=CARTESIAN_POINT('',(-0.0043,0.121,0.016));
#727=CARTESIAN_POINT('',(-0.0043,0.111,0.016));
#728=CARTESIAN_POINT('',(-0.0043,-0.0043,0.016));
#729=CARTESIAN_POINT('',(-0.0043,0.111,-0.000300000000000022));
#730=CARTESIAN_POINT('',(-0.0043,0.111,-0.0043));
#731=CARTESIAN_POINT('',(-0.0043,0.121,-0.0043));
#732=CARTESIAN_POINT('',(-0.0043,-0.0043,-0.0043));
#733=CARTESIAN_POINT('',(-0.0043,-0.0043,-0.000300000000000022));
#734=CARTESIAN_POINT('',(-0.0003,0.121,0.0017));
#735=CARTESIAN_POINT('',(-0.0003,0.111,0.0017));
#736=CARTESIAN_POINT('',(-0.0003,0.111,0.016));
#737=CARTESIAN_POINT('',(-0.000299999999999994,0.111,-0.000300000000000022));
#738=CARTESIAN_POINT('',(-0.0003,0.121,0.016));
#739=CARTESIAN_POINT('',(-0.0003,0.1043,0.016));
#740=CARTESIAN_POINT('',(-0.0003,0.1043,0.0017));
#741=CARTESIAN_POINT('',(-0.000299999999999994,0.1043,-0.000300000000000022));
#742=CARTESIAN_POINT('',(-0.000299999999999994,0.121,-0.000300000000000022));
#743=CARTESIAN_POINT('',(0.0035,0.121,-0.0023));
#744=CARTESIAN_POINT('',(0.0035,0.111,-0.0023));
#745=CARTESIAN_POINT('',(0.0035,0.111,-0.000300000000000021));
#746=CARTESIAN_POINT('',(0.0035,0.111,-0.0043));
#747=CARTESIAN_POINT('',(0.0035,0.121,-0.000300000000000021));
#748=CARTESIAN_POINT('',(0.0035,0.1043,-0.000300000000000021));
#749=CARTESIAN_POINT('',(0.0035,0.1043,-0.0023));
#750=CARTESIAN_POINT('',(0.0035,0.1043,0.016));
#751=CARTESIAN_POINT('',(0.0035,0.1043,0.016));
#752=CARTESIAN_POINT('',(0.0035,0.1003,0.016));
#753=CARTESIAN_POINT('',(0.0035,0.1003,-0.0023));
#754=CARTESIAN_POINT('',(0.0035,0.1003,-0.000300000000000021));
#755=CARTESIAN_POINT('',(0.0035,0.121,-0.000300000000000021));
#756=CARTESIAN_POINT('',(0.0035,-0.0003,-0.000300000000000021));
#757=CARTESIAN_POINT('',(0.0035,-0.0003,-0.0023));
#758=CARTESIAN_POINT('',(0.0035,-0.0003,0.016));
#759=CARTESIAN_POINT('',(0.0035,-0.0043,0.016));
#760=CARTESIAN_POINT('',(0.0035,-0.0043,0.016));
#761=CARTESIAN_POINT('',(0.0035,-0.0043,-0.0023));
#762=CARTESIAN_POINT('',(0.0035,-0.0043,-0.0043));
#763=CARTESIAN_POINT('',(0.0035,0.121,-0.0043));
#764=CARTESIAN_POINT('',(0.0016,0.121,-0.000300000000000021));
#765=CARTESIAN_POINT('',(0.0016,0.111,-0.000300000000000021));
#766=CARTESIAN_POINT('',(0.0016,0.1043,-0.000300000000000021));
#767=CARTESIAN_POINT('',(0.0016,0.121,-0.000300000000000021));
#768=CARTESIAN_POINT('',(0.0016,0.1003,-0.000300000000000021));
#769=CARTESIAN_POINT('',(-0.000299999999999994,0.1003,-0.000300000000000022));
#770=CARTESIAN_POINT('',(-0.000299999999999994,0.121,-0.000300000000000022));
#771=CARTESIAN_POINT('',(-0.000299999999999994,-0.0003,-0.000300000000000022));
#772=CARTESIAN_POINT('',(0.0016,-0.0003,-0.000300000000000021));
#773=CARTESIAN_POINT('',(-0.0003,0.121,0.0017));
#774=CARTESIAN_POINT('',(-0.0003,0.1003,0.0017));
#775=CARTESIAN_POINT('',(-0.0003,0.1003,0.016));
#776=CARTESIAN_POINT('',(-0.0003,0.121,0.016));
#777=CARTESIAN_POINT('',(-0.0003,-0.0003,0.016));
#778=CARTESIAN_POINT('',(-0.0003,-0.0003,0.0017));
#779=CARTESIAN_POINT('',(0.0035,0.121,-0.0023));
#780=CARTESIAN_POINT('',(0.0035,0.121,-0.000300000000000021));
#781=CARTESIAN_POINT('',(0.0035,0.121,-0.000300000000000021));
#782=CARTESIAN_POINT('',(0.0035,0.116,-0.000300000000000021));
#783=CARTESIAN_POINT('',(0.0035,0.116,-0.0023));
#784=CARTESIAN_POINT('',(0.0035,0.116,-0.0043));
#785=CARTESIAN_POINT('',(0.0035,0.121,-0.0043));
#786=CARTESIAN_POINT('',(0.0035,0.121,-0.0043));
#787=CARTESIAN_POINT('',(0.0035,0.121,-0.0023));
#788=CARTESIAN_POINT('',(0.0016,0.121,-0.000300000000000021));
#789=CARTESIAN_POINT('',(-0.000299999999999994,0.121,-0.000300000000000022));
#790=CARTESIAN_POINT('',(-0.000299999999999994,0.121,-0.000300000000000022));
#791=CARTESIAN_POINT('',(-0.000299999999999994,0.116,-0.000300000000000022));
#792=CARTESIAN_POINT('',(0.0016,0.116,-0.000300000000000021));
#793=CARTESIAN_POINT('',(0.0016,0.121,-0.000300000000000021));
#794=CARTESIAN_POINT('',(-0.0003,0.121,0.0017));
#795=CARTESIAN_POINT('',(-0.0003,0.121,0.016));
#796=CARTESIAN_POINT('',(-0.0003,0.121,0.016));
#797=CARTESIAN_POINT('',(-0.0003,0.116,0.016));
#798=CARTESIAN_POINT('',(-0.0003,0.116,0.0017));
#799=CARTESIAN_POINT('',(-0.0003,0.121,0.0017));
#800=CARTESIAN_POINT('',(-0.0023,0.121,0.016));
#801=CARTESIAN_POINT('',(-0.0043,0.121,0.016));
#802=CARTESIAN_POINT('',(-0.0043,0.121,0.016));
#803=CARTESIAN_POINT('',(-0.0043,0.116,0.016));
#804=CARTESIAN_POINT('',(-0.0004,0.116,0.016));
#805=CARTESIAN_POINT('',(-0.0143,0.116,0.016));
#806=CARTESIAN_POINT('',(-0.0143,0.111,0.016));
#807=CARTESIAN_POINT('',(-0.0143,0.111,0.016));
#808=CARTESIAN_POINT('',(-0.0004,0.111,0.016));
#809=CARTESIAN_POINT('',(-0.0023,-0.0043,0.016));
#810=CARTESIAN_POINT('',(-0.0023,-0.0003,0.016));
#811=CARTESIAN_POINT('',(-0.0023,0.1003,0.016));
#812=CARTESIAN_POINT('',(-0.0023,0.1043,0.016));
#813=CARTESIAN_POINT('',(-0.0004,0.111,0.016));
#814=CARTESIAN_POINT('',(0.0135,0.111,0.016));
#815=CARTESIAN_POINT('',(0.0135,0.111,0.016));
#816=CARTESIAN_POINT('',(0.0135,0.116,0.016));
#817=CARTESIAN_POINT('',(-0.0004,0.116,0.016));
#818=CARTESIAN_POINT('',(-0.0023,0.121,0.016));
#819=CARTESIAN_POINT('',(-0.0043,0.121,-0.000300000000000022));
#820=CARTESIAN_POINT('',(-0.0043,0.116,-0.000300000000000022));
#821=CARTESIAN_POINT('',(-0.0043,0.116,-0.0043));
#822=CARTESIAN_POINT('',(-0.0043,0.121,-0.000300000000000022));
#823=CARTESIAN_POINT('',(-0.0043,0.121,-0.0043));
#824=CARTESIAN_POINT('',(-0.0043,0.121,-0.0043));
#825=CARTESIAN_POINT('',(-0.0004,0.121,-0.0043));
#826=CARTESIAN_POINT('',(-0.0004,0.116,-0.0043));
#827=CARTESIAN_POINT('',(0.0135,0.116,-0.0043));
#828=CARTESIAN_POINT('',(0.0135,0.111,-0.0043));
#829=CARTESIAN_POINT('',(0.0135,0.111,-0.0043));
#830=CARTESIAN_POINT('',(-0.0004,0.111,-0.0043));
#831=CARTESIAN_POINT('',(-0.0004,-0.0043,-0.0043));
#832=CARTESIAN_POINT('',(-0.0004,0.111,-0.0043));
#833=CARTESIAN_POINT('',(-0.0143,0.111,-0.0043));
#834=CARTESIAN_POINT('',(-0.0143,0.111,-0.0043));
#835=CARTESIAN_POINT('',(-0.0143,0.116,-0.0043));
#836=CARTESIAN_POINT('',(-0.0004,0.116,-0.0043));
#837=CARTESIAN_POINT('',(-0.0004,0.121,-0.0043));
#838=CARTESIAN_POINT('',(0.11785,0.121,0.00585));
#839=CARTESIAN_POINT('',(-0.0004,-0.0043,0.00585));
#840=CARTESIAN_POINT('',(-0.0004,-0.0003,0.00585));
#841=CARTESIAN_POINT('',(-0.0004,0.1043,0.00585));
#842=CARTESIAN_POINT('',(-0.0004,0.1003,0.00585));
#843=CARTESIAN_POINT('',(0.0135,0.111,0.00585));
#844=CARTESIAN_POINT('',(0.0135,0.116,0.00585));
#845=CARTESIAN_POINT('',(0.0135,0.111,0.00585));
#846=CARTESIAN_POINT('',(0.0085,0.111,0.0109));
#847=CARTESIAN_POINT('',(0.0085,0.111,0.0109));
#848=CARTESIAN_POINT('',(0.0085,0.111,0.0134));
#849=CARTESIAN_POINT('',(0.0085,0.116,0.0109));
#850=CARTESIAN_POINT('',(0.0085,0.116,0.0134));
#851=CARTESIAN_POINT('',(0.0085,0.111,0.0009));
#852=CARTESIAN_POINT('',(0.0085,0.111,0.0009));
#853=CARTESIAN_POINT('',(0.0085,0.111,0.0034));
#854=CARTESIAN_POINT('',(0.0085,0.116,0.0009));
#855=CARTESIAN_POINT('',(0.0085,0.116,0.0034));
#856=CARTESIAN_POINT('',(-0.0004,0.111,0.00585));
#857=CARTESIAN_POINT('',(-0.0004,0.116,0.00585));
#858=CARTESIAN_POINT('',(-0.0143,0.111,0.00585));
#859=CARTESIAN_POINT('',(-0.0143,0.116,0.00585));
#860=CARTESIAN_POINT('',(-0.0143,0.111,0.00585));
#861=CARTESIAN_POINT('',(-0.0093,0.111,0.0109));
#862=CARTESIAN_POINT('',(-0.0093,0.111,0.0109));
#863=CARTESIAN_POINT('',(-0.0093,0.111,0.0134));
#864=CARTESIAN_POINT('',(-0.0093,0.116,0.0109));
#865=CARTESIAN_POINT('',(-0.0093,0.116,0.0134));
#866=CARTESIAN_POINT('',(-0.0093,0.111,0.0009));
#867=CARTESIAN_POINT('',(-0.0093,0.111,0.0009));
#868=CARTESIAN_POINT('',(-0.0093,0.111,0.0034));
#869=CARTESIAN_POINT('',(-0.0093,0.116,0.0009));
#870=CARTESIAN_POINT('',(-0.0093,0.116,0.0034));
#871=CARTESIAN_POINT('',(-0.0004,0.111,0.00585));
#872=CARTESIAN_POINT('',(-0.0004,0.116,0.00585));
#873=MECHANICAL_DESIGN_GEOMETRIC_PRESENTATION_REPRESENTATION('',(#542),
#874);
#874=(
GEOMETRIC_REPRESENTATION_CONTEXT(3)
GLOBAL_UNCERTAINTY_ASSIGNED_CONTEXT((#875))
GLOBAL_UNIT_ASSIGNED_CONTEXT((#878,#877,#876))
REPRESENTATION_CONTEXT('Rain Tank Holder','TOP_LEVEL_ASSEMBLY_PART')
);
#875=UNCERTAINTY_MEASURE_WITH_UNIT(LENGTH_MEASURE(1.E-8),#878,
'DISTANCE_ACCURACY_VALUE','Maximum Tolerance applied to model');
#876=(
NAMED_UNIT(*)
SI_UNIT($,.STERADIAN.)
SOLID_ANGLE_UNIT()
);
#877=(
NAMED_UNIT(*)
PLANE_ANGLE_UNIT()
SI_UNIT($,.RADIAN.)
);
#878=(
LENGTH_UNIT()
NAMED_UNIT(*)
SI_UNIT($,.METRE.)
);
#879=PRODUCT_DEFINITION_SHAPE('','',#880);
#880=PRODUCT_DEFINITION('','',#882,#881);
#881=PRODUCT_DEFINITION_CONTEXT('',#888,'design');
#882=PRODUCT_DEFINITION_FORMATION_WITH_SPECIFIED_SOURCE('','',#884,
 .NOT_KNOWN.);
#883=PRODUCT_RELATED_PRODUCT_CATEGORY('','',(#884));
#884=PRODUCT('Rain Tank Holder','Rain Tank Holder','Rain Tank Holder',(#886));
#885=PRODUCT_CATEGORY('','');
#886=PRODUCT_CONTEXT('',#888,'mechanical');
#887=APPLICATION_PROTOCOL_DEFINITION('international standard',
'ap242_managed_model_based_3d_engineering',2020,#888);
#888=APPLICATION_CONTEXT('managed model based 3d engineering');
ENDSEC;
END-ISO-10303-21;
