ISO-10303-21;
HEADER;
/* Generated by software containing ST-Developer
 * from STEP Tools, Inc. (www.steptools.com) 
 */
/* OPTION: using custom renumber hook */

FILE_DESCRIPTION(
/* description */ ('STEP AP242 Edition 2',
'CAx-IF Rec.Pracs.---Representation and Presentation of Product Manufa
cturing Information (PMI)---4.0---2014-10-13',
'CAx-IF Rec.Pracs.---3D Tessellated Geometry---0.4---2014-09-14','2;1',
'CAx-IF Rec.Pracs.---User Defined Attributes---1.5---2016-08-15'),
/* implementation_level */ '2;1');

FILE_NAME(
/* name */ 'Full Assembly - Bottom Tank',
/* time_stamp */ '2026-04-24T00:57:03Z',
/* author */ (''),
/* organization */ (''),
/* preprocessor_version */ 'ST-DEVELOPER v20',
/* originating_system */ 'ONSHAPE BY PTC INC, 1.213',
/* authorisation */ '  ');

FILE_SCHEMA (('AP242_MANAGED_MODEL_BASED_3D_ENGINEERING_MIM_LF { 1 0 10303 442 3 1 4 }'));
ENDSEC;

DATA;
#10=SHAPE_REPRESENTATION_RELATIONSHIP('','',#523,#11);
#11=ADVANCED_BREP_SHAPE_REPRESENTATION('',(#521),#881);
#12=CYLINDRICAL_SURFACE('',#565,0.003);
#13=CYLINDRICAL_SURFACE('',#566,0.003);
#14=CYLINDRICAL_SURFACE('',#567,0.003);
#15=CYLINDRICAL_SURFACE('',#568,0.003);
#16=CYLINDRICAL_SURFACE('',#569,0.003);
#17=CYLINDRICAL_SURFACE('',#570,0.003);
#18=CYLINDRICAL_SURFACE('',#571,0.003);
#19=CYLINDRICAL_SURFACE('',#572,0.003);
#20=CYLINDRICAL_SURFACE('',#573,0.003);
#21=CYLINDRICAL_SURFACE('',#574,0.003);
#22=CYLINDRICAL_SURFACE('',#575,0.003);
#23=CYLINDRICAL_SURFACE('',#576,0.003);
#24=CIRCLE('',#530,0.003);
#25=CIRCLE('',#531,0.003);
#26=CIRCLE('',#532,0.003);
#27=CIRCLE('',#533,0.003);
#28=CIRCLE('',#535,0.003);
#29=CIRCLE('',#536,0.003);
#30=CIRCLE('',#537,0.003);
#31=CIRCLE('',#538,0.003);
#32=CIRCLE('',#539,0.003);
#33=CIRCLE('',#540,0.003);
#34=CIRCLE('',#541,0.003);
#35=CIRCLE('',#542,0.003);
#36=CIRCLE('',#552,0.003);
#37=CIRCLE('',#553,0.003);
#38=CIRCLE('',#554,0.003);
#39=CIRCLE('',#555,0.003);
#40=CIRCLE('',#556,0.003);
#41=CIRCLE('',#557,0.003);
#42=CIRCLE('',#558,0.003);
#43=CIRCLE('',#559,0.003);
#44=CIRCLE('',#561,0.003);
#45=CIRCLE('',#562,0.003);
#46=CIRCLE('',#563,0.003);
#47=CIRCLE('',#564,0.003);
#48=ORIENTED_EDGE('',*,*,#192,.T.);
#49=ORIENTED_EDGE('',*,*,#193,.T.);
#50=ORIENTED_EDGE('',*,*,#194,.F.);
#51=ORIENTED_EDGE('',*,*,#195,.T.);
#52=ORIENTED_EDGE('',*,*,#196,.T.);
#53=ORIENTED_EDGE('',*,*,#197,.T.);
#54=ORIENTED_EDGE('',*,*,#198,.F.);
#55=ORIENTED_EDGE('',*,*,#199,.T.);
#56=ORIENTED_EDGE('',*,*,#200,.T.);
#57=ORIENTED_EDGE('',*,*,#201,.T.);
#58=ORIENTED_EDGE('',*,*,#202,.F.);
#59=ORIENTED_EDGE('',*,*,#203,.T.);
#60=ORIENTED_EDGE('',*,*,#204,.T.);
#61=ORIENTED_EDGE('',*,*,#205,.T.);
#62=ORIENTED_EDGE('',*,*,#206,.F.);
#63=ORIENTED_EDGE('',*,*,#207,.T.);
#64=ORIENTED_EDGE('',*,*,#202,.T.);
#65=ORIENTED_EDGE('',*,*,#208,.T.);
#66=ORIENTED_EDGE('',*,*,#196,.F.);
#67=ORIENTED_EDGE('',*,*,#209,.T.);
#68=ORIENTED_EDGE('',*,*,#192,.F.);
#69=ORIENTED_EDGE('',*,*,#210,.T.);
#70=ORIENTED_EDGE('',*,*,#206,.T.);
#71=ORIENTED_EDGE('',*,*,#211,.T.);
#72=ORIENTED_EDGE('',*,*,#204,.F.);
#73=ORIENTED_EDGE('',*,*,#212,.T.);
#74=ORIENTED_EDGE('',*,*,#194,.T.);
#75=ORIENTED_EDGE('',*,*,#213,.T.);
#76=ORIENTED_EDGE('',*,*,#198,.T.);
#77=ORIENTED_EDGE('',*,*,#214,.T.);
#78=ORIENTED_EDGE('',*,*,#200,.F.);
#79=ORIENTED_EDGE('',*,*,#215,.T.);
#80=ORIENTED_EDGE('',*,*,#216,.T.);
#81=ORIENTED_EDGE('',*,*,#217,.T.);
#82=ORIENTED_EDGE('',*,*,#218,.T.);
#83=ORIENTED_EDGE('',*,*,#219,.T.);
#84=ORIENTED_EDGE('',*,*,#220,.F.);
#85=ORIENTED_EDGE('',*,*,#221,.T.);
#86=ORIENTED_EDGE('',*,*,#222,.F.);
#87=ORIENTED_EDGE('',*,*,#223,.T.);
#88=ORIENTED_EDGE('',*,*,#224,.T.);
#89=ORIENTED_EDGE('',*,*,#225,.T.);
#90=ORIENTED_EDGE('',*,*,#216,.F.);
#91=ORIENTED_EDGE('',*,*,#226,.T.);
#92=ORIENTED_EDGE('',*,*,#222,.T.);
#93=ORIENTED_EDGE('',*,*,#227,.T.);
#94=ORIENTED_EDGE('',*,*,#228,.F.);
#95=ORIENTED_EDGE('',*,*,#229,.T.);
#96=ORIENTED_EDGE('',*,*,#220,.T.);
#97=ORIENTED_EDGE('',*,*,#230,.T.);
#98=ORIENTED_EDGE('',*,*,#231,.F.);
#99=ORIENTED_EDGE('',*,*,#232,.T.);
#100=ORIENTED_EDGE('',*,*,#218,.F.);
#101=ORIENTED_EDGE('',*,*,#233,.T.);
#102=ORIENTED_EDGE('',*,*,#234,.T.);
#103=ORIENTED_EDGE('',*,*,#235,.T.);
#104=ORIENTED_EDGE('',*,*,#236,.T.);
#105=ORIENTED_EDGE('',*,*,#237,.T.);
#106=ORIENTED_EDGE('',*,*,#238,.T.);
#107=ORIENTED_EDGE('',*,*,#239,.T.);
#108=ORIENTED_EDGE('',*,*,#240,.T.);
#109=ORIENTED_EDGE('',*,*,#241,.T.);
#110=ORIENTED_EDGE('',*,*,#242,.T.);
#111=ORIENTED_EDGE('',*,*,#243,.T.);
#112=ORIENTED_EDGE('',*,*,#244,.F.);
#113=ORIENTED_EDGE('',*,*,#245,.T.);
#114=ORIENTED_EDGE('',*,*,#246,.F.);
#115=ORIENTED_EDGE('',*,*,#247,.T.);
#116=ORIENTED_EDGE('',*,*,#248,.F.);
#117=ORIENTED_EDGE('',*,*,#249,.T.);
#118=ORIENTED_EDGE('',*,*,#250,.F.);
#119=ORIENTED_EDGE('',*,*,#251,.T.);
#120=ORIENTED_EDGE('',*,*,#234,.F.);
#121=ORIENTED_EDGE('',*,*,#252,.T.);
#122=ORIENTED_EDGE('',*,*,#224,.F.);
#123=ORIENTED_EDGE('',*,*,#253,.T.);
#124=ORIENTED_EDGE('',*,*,#228,.T.);
#125=ORIENTED_EDGE('',*,*,#254,.T.);
#126=ORIENTED_EDGE('',*,*,#231,.T.);
#127=ORIENTED_EDGE('',*,*,#255,.T.);
#128=ORIENTED_EDGE('',*,*,#238,.F.);
#129=ORIENTED_EDGE('',*,*,#256,.T.);
#130=ORIENTED_EDGE('',*,*,#240,.F.);
#131=ORIENTED_EDGE('',*,*,#257,.T.);
#132=ORIENTED_EDGE('',*,*,#244,.T.);
#133=ORIENTED_EDGE('',*,*,#258,.T.);
#134=ORIENTED_EDGE('',*,*,#250,.T.);
#135=ORIENTED_EDGE('',*,*,#259,.T.);
#136=ORIENTED_EDGE('',*,*,#242,.F.);
#137=ORIENTED_EDGE('',*,*,#260,.T.);
#138=ORIENTED_EDGE('',*,*,#236,.F.);
#139=ORIENTED_EDGE('',*,*,#261,.T.);
#140=ORIENTED_EDGE('',*,*,#248,.T.);
#141=ORIENTED_EDGE('',*,*,#262,.T.);
#142=ORIENTED_EDGE('',*,*,#246,.T.);
#143=ORIENTED_EDGE('',*,*,#263,.T.);
#144=ORIENTED_EDGE('',*,*,#208,.F.);
#145=ORIENTED_EDGE('',*,*,#201,.F.);
#146=ORIENTED_EDGE('',*,*,#214,.F.);
#147=ORIENTED_EDGE('',*,*,#197,.F.);
#148=ORIENTED_EDGE('',*,*,#209,.F.);
#149=ORIENTED_EDGE('',*,*,#199,.F.);
#150=ORIENTED_EDGE('',*,*,#213,.F.);
#151=ORIENTED_EDGE('',*,*,#193,.F.);
#152=ORIENTED_EDGE('',*,*,#211,.F.);
#153=ORIENTED_EDGE('',*,*,#205,.F.);
#154=ORIENTED_EDGE('',*,*,#215,.F.);
#155=ORIENTED_EDGE('',*,*,#203,.F.);
#156=ORIENTED_EDGE('',*,*,#210,.F.);
#157=ORIENTED_EDGE('',*,*,#195,.F.);
#158=ORIENTED_EDGE('',*,*,#212,.F.);
#159=ORIENTED_EDGE('',*,*,#207,.F.);
#160=ORIENTED_EDGE('',*,*,#256,.F.);
#161=ORIENTED_EDGE('',*,*,#237,.F.);
#162=ORIENTED_EDGE('',*,*,#260,.F.);
#163=ORIENTED_EDGE('',*,*,#241,.F.);
#164=ORIENTED_EDGE('',*,*,#259,.F.);
#165=ORIENTED_EDGE('',*,*,#249,.F.);
#166=ORIENTED_EDGE('',*,*,#261,.F.);
#167=ORIENTED_EDGE('',*,*,#239,.F.);
#168=ORIENTED_EDGE('',*,*,#252,.F.);
#169=ORIENTED_EDGE('',*,*,#233,.F.);
#170=ORIENTED_EDGE('',*,*,#217,.F.);
#171=ORIENTED_EDGE('',*,*,#225,.F.);
#172=ORIENTED_EDGE('',*,*,#257,.F.);
#173=ORIENTED_EDGE('',*,*,#243,.F.);
#174=ORIENTED_EDGE('',*,*,#263,.F.);
#175=ORIENTED_EDGE('',*,*,#245,.F.);
#176=ORIENTED_EDGE('',*,*,#255,.F.);
#177=ORIENTED_EDGE('',*,*,#230,.F.);
#178=ORIENTED_EDGE('',*,*,#219,.F.);
#179=ORIENTED_EDGE('',*,*,#235,.F.);
#180=ORIENTED_EDGE('',*,*,#258,.F.);
#181=ORIENTED_EDGE('',*,*,#247,.F.);
#182=ORIENTED_EDGE('',*,*,#262,.F.);
#183=ORIENTED_EDGE('',*,*,#251,.F.);
#184=ORIENTED_EDGE('',*,*,#254,.F.);
#185=ORIENTED_EDGE('',*,*,#227,.F.);
#186=ORIENTED_EDGE('',*,*,#221,.F.);
#187=ORIENTED_EDGE('',*,*,#232,.F.);
#188=ORIENTED_EDGE('',*,*,#253,.F.);
#189=ORIENTED_EDGE('',*,*,#226,.F.);
#190=ORIENTED_EDGE('',*,*,#223,.F.);
#191=ORIENTED_EDGE('',*,*,#229,.F.);
#192=EDGE_CURVE('',#264,#265,#312,.T.);
#193=EDGE_CURVE('',#265,#266,#313,.T.);
#194=EDGE_CURVE('',#267,#266,#314,.T.);
#195=EDGE_CURVE('',#267,#264,#315,.F.);
#196=EDGE_CURVE('',#268,#269,#316,.T.);
#197=EDGE_CURVE('',#269,#270,#317,.T.);
#198=EDGE_CURVE('',#271,#270,#318,.T.);
#199=EDGE_CURVE('',#271,#268,#319,.F.);
#200=EDGE_CURVE('',#272,#273,#320,.T.);
#201=EDGE_CURVE('',#273,#274,#321,.F.);
#202=EDGE_CURVE('',#275,#274,#322,.T.);
#203=EDGE_CURVE('',#275,#272,#323,.T.);
#204=EDGE_CURVE('',#276,#277,#324,.T.);
#205=EDGE_CURVE('',#277,#278,#325,.F.);
#206=EDGE_CURVE('',#279,#278,#326,.T.);
#207=EDGE_CURVE('',#279,#276,#327,.T.);
#208=EDGE_CURVE('',#274,#269,#24,.F.);
#209=EDGE_CURVE('',#268,#265,#25,.F.);
#210=EDGE_CURVE('',#264,#279,#26,.F.);
#211=EDGE_CURVE('',#278,#275,#27,.F.);
#212=EDGE_CURVE('',#276,#267,#28,.T.);
#213=EDGE_CURVE('',#266,#271,#29,.T.);
#214=EDGE_CURVE('',#270,#273,#30,.T.);
#215=EDGE_CURVE('',#272,#277,#31,.T.);
#216=EDGE_CURVE('',#280,#281,#328,.T.);
#217=EDGE_CURVE('',#281,#282,#32,.F.);
#218=EDGE_CURVE('',#282,#283,#329,.T.);
#219=EDGE_CURVE('',#283,#284,#33,.F.);
#220=EDGE_CURVE('',#285,#284,#330,.T.);
#221=EDGE_CURVE('',#285,#286,#34,.F.);
#222=EDGE_CURVE('',#287,#286,#331,.T.);
#223=EDGE_CURVE('',#287,#280,#35,.F.);
#224=EDGE_CURVE('',#288,#289,#332,.T.);
#225=EDGE_CURVE('',#289,#281,#333,.T.);
#226=EDGE_CURVE('',#280,#288,#334,.F.);
#227=EDGE_CURVE('',#286,#290,#335,.F.);
#228=EDGE_CURVE('',#291,#290,#336,.T.);
#229=EDGE_CURVE('',#291,#287,#337,.T.);
#230=EDGE_CURVE('',#284,#292,#338,.F.);
#231=EDGE_CURVE('',#293,#292,#339,.T.);
#232=EDGE_CURVE('',#293,#285,#340,.T.);
#233=EDGE_CURVE('',#282,#294,#341,.F.);
#234=EDGE_CURVE('',#294,#295,#342,.T.);
#235=EDGE_CURVE('',#295,#283,#343,.T.);
#236=EDGE_CURVE('',#296,#297,#344,.T.);
#237=EDGE_CURVE('',#297,#298,#345,.F.);
#238=EDGE_CURVE('',#298,#299,#346,.T.);
#239=EDGE_CURVE('',#299,#296,#347,.T.);
#240=EDGE_CURVE('',#300,#301,#348,.T.);
#241=EDGE_CURVE('',#301,#302,#349,.T.);
#242=EDGE_CURVE('',#302,#303,#350,.T.);
#243=EDGE_CURVE('',#303,#300,#351,.F.);
#244=EDGE_CURVE('',#304,#305,#352,.T.);
#245=EDGE_CURVE('',#304,#306,#353,.T.);
#246=EDGE_CURVE('',#307,#306,#354,.T.);
#247=EDGE_CURVE('',#307,#305,#355,.F.);
#248=EDGE_CURVE('',#308,#309,#356,.T.);
#249=EDGE_CURVE('',#308,#310,#357,.F.);
#250=EDGE_CURVE('',#311,#310,#358,.T.);
#251=EDGE_CURVE('',#311,#309,#359,.T.);
#252=EDGE_CURVE('',#294,#289,#36,.T.);
#253=EDGE_CURVE('',#288,#291,#37,.T.);
#254=EDGE_CURVE('',#290,#293,#38,.T.);
#255=EDGE_CURVE('',#292,#295,#39,.T.);
#256=EDGE_CURVE('',#298,#301,#40,.F.);
#257=EDGE_CURVE('',#300,#304,#41,.F.);
#258=EDGE_CURVE('',#305,#311,#42,.F.);
#259=EDGE_CURVE('',#310,#299,#43,.F.);
#260=EDGE_CURVE('',#302,#297,#44,.T.);
#261=EDGE_CURVE('',#296,#308,#45,.T.);
#262=EDGE_CURVE('',#309,#307,#46,.T.);
#263=EDGE_CURVE('',#306,#303,#47,.T.);
#264=VERTEX_POINT('',#734);
#265=VERTEX_POINT('',#735);
#266=VERTEX_POINT('',#737);
#267=VERTEX_POINT('',#739);
#268=VERTEX_POINT('',#743);
#269=VERTEX_POINT('',#744);
#270=VERTEX_POINT('',#746);
#271=VERTEX_POINT('',#748);
#272=VERTEX_POINT('',#752);
#273=VERTEX_POINT('',#753);
#274=VERTEX_POINT('',#755);
#275=VERTEX_POINT('',#757);
#276=VERTEX_POINT('',#761);
#277=VERTEX_POINT('',#762);
#278=VERTEX_POINT('',#764);
#279=VERTEX_POINT('',#766);
#280=VERTEX_POINT('',#779);
#281=VERTEX_POINT('',#780);
#282=VERTEX_POINT('',#782);
#283=VERTEX_POINT('',#784);
#284=VERTEX_POINT('',#786);
#285=VERTEX_POINT('',#788);
#286=VERTEX_POINT('',#790);
#287=VERTEX_POINT('',#792);
#288=VERTEX_POINT('',#796);
#289=VERTEX_POINT('',#797);
#290=VERTEX_POINT('',#802);
#291=VERTEX_POINT('',#804);
#292=VERTEX_POINT('',#808);
#293=VERTEX_POINT('',#810);
#294=VERTEX_POINT('',#814);
#295=VERTEX_POINT('',#816);
#296=VERTEX_POINT('',#820);
#297=VERTEX_POINT('',#821);
#298=VERTEX_POINT('',#823);
#299=VERTEX_POINT('',#825);
#300=VERTEX_POINT('',#829);
#301=VERTEX_POINT('',#830);
#302=VERTEX_POINT('',#832);
#303=VERTEX_POINT('',#834);
#304=VERTEX_POINT('',#838);
#305=VERTEX_POINT('',#839);
#306=VERTEX_POINT('',#841);
#307=VERTEX_POINT('',#843);
#308=VERTEX_POINT('',#847);
#309=VERTEX_POINT('',#848);
#310=VERTEX_POINT('',#850);
#311=VERTEX_POINT('',#852);
#312=LINE('',#733,#360);
#313=LINE('',#736,#361);
#314=LINE('',#738,#362);
#315=LINE('',#740,#363);
#316=LINE('',#742,#364);
#317=LINE('',#745,#365);
#318=LINE('',#747,#366);
#319=LINE('',#749,#367);
#320=LINE('',#751,#368);
#321=LINE('',#754,#369);
#322=LINE('',#756,#370);
#323=LINE('',#758,#371);
#324=LINE('',#760,#372);
#325=LINE('',#763,#373);
#326=LINE('',#765,#374);
#327=LINE('',#767,#375);
#328=LINE('',#778,#376);
#329=LINE('',#783,#377);
#330=LINE('',#787,#378);
#331=LINE('',#791,#379);
#332=LINE('',#795,#380);
#333=LINE('',#798,#381);
#334=LINE('',#799,#382);
#335=LINE('',#801,#383);
#336=LINE('',#803,#384);
#337=LINE('',#805,#385);
#338=LINE('',#807,#386);
#339=LINE('',#809,#387);
#340=LINE('',#811,#388);
#341=LINE('',#813,#389);
#342=LINE('',#815,#390);
#343=LINE('',#817,#391);
#344=LINE('',#819,#392);
#345=LINE('',#822,#393);
#346=LINE('',#824,#394);
#347=LINE('',#826,#395);
#348=LINE('',#828,#396);
#349=LINE('',#831,#397);
#350=LINE('',#833,#398);
#351=LINE('',#835,#399);
#352=LINE('',#837,#400);
#353=LINE('',#840,#401);
#354=LINE('',#842,#402);
#355=LINE('',#844,#403);
#356=LINE('',#846,#404);
#357=LINE('',#849,#405);
#358=LINE('',#851,#406);
#359=LINE('',#853,#407);
#360=VECTOR('',#581,1.);
#361=VECTOR('',#582,1.);
#362=VECTOR('',#583,1.);
#363=VECTOR('',#584,1.);
#364=VECTOR('',#587,1.);
#365=VECTOR('',#588,1.);
#366=VECTOR('',#589,1.);
#367=VECTOR('',#590,1.);
#368=VECTOR('',#593,1.);
#369=VECTOR('',#594,1.);
#370=VECTOR('',#595,1.);
#371=VECTOR('',#596,1.);
#372=VECTOR('',#599,1.);
#373=VECTOR('',#600,1.);
#374=VECTOR('',#601,1.);
#375=VECTOR('',#602,1.);
#376=VECTOR('',#623,1.);
#377=VECTOR('',#626,1.);
#378=VECTOR('',#629,1.);
#379=VECTOR('',#632,1.);
#380=VECTOR('',#637,1.);
#381=VECTOR('',#638,1.);
#382=VECTOR('',#639,1.);
#383=VECTOR('',#642,1.);
#384=VECTOR('',#643,1.);
#385=VECTOR('',#644,1.);
#386=VECTOR('',#647,1.);
#387=VECTOR('',#648,1.);
#388=VECTOR('',#649,1.);
#389=VECTOR('',#652,1.);
#390=VECTOR('',#653,1.);
#391=VECTOR('',#654,1.);
#392=VECTOR('',#657,1.);
#393=VECTOR('',#658,1.);
#394=VECTOR('',#659,1.);
#395=VECTOR('',#660,1.);
#396=VECTOR('',#663,1.);
#397=VECTOR('',#664,1.);
#398=VECTOR('',#665,1.);
#399=VECTOR('',#666,1.);
#400=VECTOR('',#669,1.);
#401=VECTOR('',#670,1.);
#402=VECTOR('',#671,1.);
#403=VECTOR('',#672,1.);
#404=VECTOR('',#675,1.);
#405=VECTOR('',#676,1.);
#406=VECTOR('',#677,1.);
#407=VECTOR('',#678,1.);
#408=EDGE_LOOP('',(#48,#49,#50,#51));
#409=EDGE_LOOP('',(#52,#53,#54,#55));
#410=EDGE_LOOP('',(#56,#57,#58,#59));
#411=EDGE_LOOP('',(#60,#61,#62,#63));
#412=EDGE_LOOP('',(#64,#65,#66,#67,#68,#69,#70,#71));
#413=EDGE_LOOP('',(#72,#73,#74,#75,#76,#77,#78,#79));
#414=EDGE_LOOP('',(#80,#81,#82,#83,#84,#85,#86,#87));
#415=EDGE_LOOP('',(#88,#89,#90,#91));
#416=EDGE_LOOP('',(#92,#93,#94,#95));
#417=EDGE_LOOP('',(#96,#97,#98,#99));
#418=EDGE_LOOP('',(#100,#101,#102,#103));
#419=EDGE_LOOP('',(#104,#105,#106,#107));
#420=EDGE_LOOP('',(#108,#109,#110,#111));
#421=EDGE_LOOP('',(#112,#113,#114,#115));
#422=EDGE_LOOP('',(#116,#117,#118,#119));
#423=EDGE_LOOP('',(#120,#121,#122,#123,#124,#125,#126,#127));
#424=EDGE_LOOP('',(#128,#129,#130,#131,#132,#133,#134,#135));
#425=EDGE_LOOP('',(#136,#137,#138,#139,#140,#141,#142,#143));
#426=EDGE_LOOP('',(#144,#145,#146,#147));
#427=EDGE_LOOP('',(#148,#149,#150,#151));
#428=EDGE_LOOP('',(#152,#153,#154,#155));
#429=EDGE_LOOP('',(#156,#157,#158,#159));
#430=EDGE_LOOP('',(#160,#161,#162,#163));
#431=EDGE_LOOP('',(#164,#165,#166,#167));
#432=EDGE_LOOP('',(#168,#169,#170,#171));
#433=EDGE_LOOP('',(#172,#173,#174,#175));
#434=EDGE_LOOP('',(#176,#177,#178,#179));
#435=EDGE_LOOP('',(#180,#181,#182,#183));
#436=EDGE_LOOP('',(#184,#185,#186,#187));
#437=EDGE_LOOP('',(#188,#189,#190,#191));
#438=FACE_BOUND('',#408,.T.);
#439=FACE_BOUND('',#409,.T.);
#440=FACE_BOUND('',#410,.T.);
#441=FACE_BOUND('',#411,.T.);
#442=FACE_BOUND('',#412,.T.);
#443=FACE_BOUND('',#413,.T.);
#444=FACE_BOUND('',#414,.T.);
#445=FACE_BOUND('',#415,.T.);
#446=FACE_BOUND('',#416,.T.);
#447=FACE_BOUND('',#417,.T.);
#448=FACE_BOUND('',#418,.T.);
#449=FACE_BOUND('',#419,.T.);
#450=FACE_BOUND('',#420,.T.);
#451=FACE_BOUND('',#421,.T.);
#452=FACE_BOUND('',#422,.T.);
#453=FACE_BOUND('',#423,.T.);
#454=FACE_BOUND('',#424,.T.);
#455=FACE_BOUND('',#425,.T.);
#456=FACE_BOUND('',#426,.T.);
#457=FACE_BOUND('',#427,.T.);
#458=FACE_BOUND('',#428,.T.);
#459=FACE_BOUND('',#429,.T.);
#460=FACE_BOUND('',#430,.T.);
#461=FACE_BOUND('',#431,.T.);
#462=FACE_BOUND('',#432,.T.);
#463=FACE_BOUND('',#433,.T.);
#464=FACE_BOUND('',#434,.T.);
#465=FACE_BOUND('',#435,.T.);
#466=FACE_BOUND('',#436,.T.);
#467=FACE_BOUND('',#437,.T.);
#468=PLANE('',#525);
#469=PLANE('',#526);
#470=PLANE('',#527);
#471=PLANE('',#528);
#472=PLANE('',#529);
#473=PLANE('',#534);
#474=PLANE('',#543);
#475=PLANE('',#544);
#476=PLANE('',#545);
#477=PLANE('',#546);
#478=PLANE('',#547);
#479=PLANE('',#548);
#480=PLANE('',#549);
#481=PLANE('',#550);
#482=PLANE('',#551);
#483=PLANE('',#560);
#484=ADVANCED_FACE('',(#438),#468,.T.);
#485=ADVANCED_FACE('',(#439),#469,.T.);
#486=ADVANCED_FACE('',(#440),#470,.F.);
#487=ADVANCED_FACE('',(#441),#471,.F.);
#488=ADVANCED_FACE('',(#442),#472,.F.);
#489=ADVANCED_FACE('',(#443,#444),#473,.F.);
#490=ADVANCED_FACE('',(#445),#474,.T.);
#491=ADVANCED_FACE('',(#446),#475,.F.);
#492=ADVANCED_FACE('',(#447),#476,.F.);
#493=ADVANCED_FACE('',(#448),#477,.T.);
#494=ADVANCED_FACE('',(#449),#478,.T.);
#495=ADVANCED_FACE('',(#450),#479,.T.);
#496=ADVANCED_FACE('',(#451),#480,.F.);
#497=ADVANCED_FACE('',(#452),#481,.F.);
#498=ADVANCED_FACE('',(#453,#454),#482,.T.);
#499=ADVANCED_FACE('',(#455),#483,.T.);
#500=ADVANCED_FACE('',(#456),#12,.T.);
#501=ADVANCED_FACE('',(#457),#13,.T.);
#502=ADVANCED_FACE('',(#458),#14,.T.);
#503=ADVANCED_FACE('',(#459),#15,.T.);
#504=ADVANCED_FACE('',(#460),#16,.F.);
#505=ADVANCED_FACE('',(#461),#17,.F.);
#506=ADVANCED_FACE('',(#462),#18,.T.);
#507=ADVANCED_FACE('',(#463),#19,.F.);
#508=ADVANCED_FACE('',(#464),#20,.T.);
#509=ADVANCED_FACE('',(#465),#21,.F.);
#510=ADVANCED_FACE('',(#466),#22,.T.);
#511=ADVANCED_FACE('',(#467),#23,.T.);
#512=CLOSED_SHELL('',(#484,#485,#486,#487,#488,#489,#490,#491,#492,#493,
#494,#495,#496,#497,#498,#499,#500,#501,#502,#503,#504,#505,#506,#507,#508,
#509,#510,#511));
#513=STYLED_ITEM('',(#514),#521);
#514=PRESENTATION_STYLE_ASSIGNMENT((#515));
#515=SURFACE_STYLE_USAGE(.BOTH.,#516);
#516=SURFACE_SIDE_STYLE('',(#517));
#517=SURFACE_STYLE_FILL_AREA(#518);
#518=FILL_AREA_STYLE('',(#519));
#519=FILL_AREA_STYLE_COLOUR('',#520);
#520=COLOUR_RGB('',0.984313725490196,0.984313725490196,0.984313725490196);
#521=MANIFOLD_SOLID_BREP('Bottom Tank',#512);
#522=SHAPE_DEFINITION_REPRESENTATION(#886,#523);
#523=SHAPE_REPRESENTATION('Bottom Tank',(#524),#881);
#524=AXIS2_PLACEMENT_3D('',#731,#577,#578);
#525=AXIS2_PLACEMENT_3D('',#732,#579,#580);
#526=AXIS2_PLACEMENT_3D('',#741,#585,#586);
#527=AXIS2_PLACEMENT_3D('',#750,#591,#592);
#528=AXIS2_PLACEMENT_3D('',#759,#597,#598);
#529=AXIS2_PLACEMENT_3D('',#768,#603,#604);
#530=AXIS2_PLACEMENT_3D('',#769,#605,#606);
#531=AXIS2_PLACEMENT_3D('',#770,#607,#608);
#532=AXIS2_PLACEMENT_3D('',#771,#609,#610);
#533=AXIS2_PLACEMENT_3D('',#772,#611,#612);
#534=AXIS2_PLACEMENT_3D('',#773,#613,#614);
#535=AXIS2_PLACEMENT_3D('',#774,#615,#616);
#536=AXIS2_PLACEMENT_3D('',#775,#617,#618);
#537=AXIS2_PLACEMENT_3D('',#776,#619,#620);
#538=AXIS2_PLACEMENT_3D('',#777,#621,#622);
#539=AXIS2_PLACEMENT_3D('',#781,#624,#625);
#540=AXIS2_PLACEMENT_3D('',#785,#627,#628);
#541=AXIS2_PLACEMENT_3D('',#789,#630,#631);
#542=AXIS2_PLACEMENT_3D('',#793,#633,#634);
#543=AXIS2_PLACEMENT_3D('',#794,#635,#636);
#544=AXIS2_PLACEMENT_3D('',#800,#640,#641);
#545=AXIS2_PLACEMENT_3D('',#806,#645,#646);
#546=AXIS2_PLACEMENT_3D('',#812,#650,#651);
#547=AXIS2_PLACEMENT_3D('',#818,#655,#656);
#548=AXIS2_PLACEMENT_3D('',#827,#661,#662);
#549=AXIS2_PLACEMENT_3D('',#836,#667,#668);
#550=AXIS2_PLACEMENT_3D('',#845,#673,#674);
#551=AXIS2_PLACEMENT_3D('',#854,#679,#680);
#552=AXIS2_PLACEMENT_3D('',#855,#681,#682);
#553=AXIS2_PLACEMENT_3D('',#856,#683,#684);
#554=AXIS2_PLACEMENT_3D('',#857,#685,#686);
#555=AXIS2_PLACEMENT_3D('',#858,#687,#688);
#556=AXIS2_PLACEMENT_3D('',#859,#689,#690);
#557=AXIS2_PLACEMENT_3D('',#860,#691,#692);
#558=AXIS2_PLACEMENT_3D('',#861,#693,#694);
#559=AXIS2_PLACEMENT_3D('',#862,#695,#696);
#560=AXIS2_PLACEMENT_3D('',#863,#697,#698);
#561=AXIS2_PLACEMENT_3D('',#864,#699,#700);
#562=AXIS2_PLACEMENT_3D('',#865,#701,#702);
#563=AXIS2_PLACEMENT_3D('',#866,#703,#704);
#564=AXIS2_PLACEMENT_3D('',#867,#705,#706);
#565=AXIS2_PLACEMENT_3D('',#868,#707,#708);
#566=AXIS2_PLACEMENT_3D('',#869,#709,#710);
#567=AXIS2_PLACEMENT_3D('',#870,#711,#712);
#568=AXIS2_PLACEMENT_3D('',#871,#713,#714);
#569=AXIS2_PLACEMENT_3D('',#872,#715,#716);
#570=AXIS2_PLACEMENT_3D('',#873,#717,#718);
#571=AXIS2_PLACEMENT_3D('',#874,#719,#720);
#572=AXIS2_PLACEMENT_3D('',#875,#721,#722);
#573=AXIS2_PLACEMENT_3D('',#876,#723,#724);
#574=AXIS2_PLACEMENT_3D('',#877,#725,#726);
#575=AXIS2_PLACEMENT_3D('',#878,#727,#728);
#576=AXIS2_PLACEMENT_3D('',#879,#729,#730);
#577=DIRECTION('',(0.,0.,1.));
#578=DIRECTION('',(1.,0.,0.));
#579=DIRECTION('',(0.,-1.,0.));
#580=DIRECTION('',(0.,0.,-1.));
#581=DIRECTION('',(1.,0.,0.));
#582=DIRECTION('',(0.,0.,1.));
#583=DIRECTION('',(1.,0.,0.));
#584=DIRECTION('',(0.,0.,1.));
#585=DIRECTION('',(1.,0.,0.));
#586=DIRECTION('',(0.,0.,-1.));
#587=DIRECTION('',(0.,1.,0.));
#588=DIRECTION('',(0.,0.,1.));
#589=DIRECTION('',(0.,1.,0.));
#590=DIRECTION('',(0.,0.,1.));
#591=DIRECTION('',(0.,-1.,0.));
#592=DIRECTION('',(0.,0.,-1.));
#593=DIRECTION('',(1.,0.,0.));
#594=DIRECTION('',(0.,0.,1.));
#595=DIRECTION('',(1.,0.,0.));
#596=DIRECTION('',(0.,0.,1.));
#597=DIRECTION('',(1.,0.,0.));
#598=DIRECTION('',(0.,0.,-1.));
#599=DIRECTION('',(0.,1.,0.));
#600=DIRECTION('',(0.,0.,1.));
#601=DIRECTION('',(0.,1.,0.));
#602=DIRECTION('',(0.,0.,1.));
#603=DIRECTION('',(0.,0.,1.));
#604=DIRECTION('',(1.,0.,0.));
#605=DIRECTION('',(0.,0.,1.));
#606=DIRECTION('',(1.,0.,0.));
#607=DIRECTION('',(0.,0.,1.));
#608=DIRECTION('',(1.,0.,0.));
#609=DIRECTION('',(0.,0.,1.));
#610=DIRECTION('',(1.,0.,0.));
#611=DIRECTION('',(0.,0.,1.));
#612=DIRECTION('',(1.,0.,0.));
#613=DIRECTION('',(0.,0.,1.));
#614=DIRECTION('',(1.,0.,0.));
#615=DIRECTION('',(0.,0.,1.));
#616=DIRECTION('',(1.,0.,0.));
#617=DIRECTION('',(0.,0.,1.));
#618=DIRECTION('',(1.,0.,0.));
#619=DIRECTION('',(0.,0.,1.));
#620=DIRECTION('',(1.,0.,0.));
#621=DIRECTION('',(0.,0.,1.));
#622=DIRECTION('',(1.,0.,0.));
#623=DIRECTION('',(0.,1.,0.));
#624=DIRECTION('',(0.,0.,1.));
#625=DIRECTION('',(1.,0.,0.));
#626=DIRECTION('',(1.,0.,0.));
#627=DIRECTION('',(0.,0.,1.));
#628=DIRECTION('',(1.,0.,0.));
#629=DIRECTION('',(-3.08395284618099E-16,1.,0.));
#630=DIRECTION('',(0.,0.,1.));
#631=DIRECTION('',(1.,0.,0.));
#632=DIRECTION('',(1.,0.,0.));
#633=DIRECTION('',(0.,0.,1.));
#634=DIRECTION('',(1.,0.,0.));
#635=DIRECTION('',(-1.,0.,0.));
#636=DIRECTION('',(0.,0.,1.));
#637=DIRECTION('',(0.,1.,0.));
#638=DIRECTION('',(0.,0.,-1.));
#639=DIRECTION('',(0.,0.,-1.));
#640=DIRECTION('',(0.,1.,0.));
#641=DIRECTION('',(0.,0.,1.));
#642=DIRECTION('',(0.,0.,-1.));
#643=DIRECTION('',(1.,0.,0.));
#644=DIRECTION('',(0.,0.,-1.));
#645=DIRECTION('',(-1.,-3.08395284618099E-16,0.));
#646=DIRECTION('',(3.08395284618099E-16,-1.,0.));
#647=DIRECTION('',(0.,0.,-1.));
#648=DIRECTION('',(-3.08395284618099E-16,1.,0.));
#649=DIRECTION('',(0.,0.,-1.));
#650=DIRECTION('',(0.,1.,0.));
#651=DIRECTION('',(0.,0.,1.));
#652=DIRECTION('',(0.,0.,-1.));
#653=DIRECTION('',(1.,0.,0.));
#654=DIRECTION('',(0.,0.,-1.));
#655=DIRECTION('',(-1.,-3.26536183713282E-16,0.));
#656=DIRECTION('',(3.26536183713282E-16,-1.,0.));
#657=DIRECTION('',(3.26536183713282E-16,-1.,0.));
#658=DIRECTION('',(0.,0.,-1.));
#659=DIRECTION('',(-3.26536183713282E-16,1.,0.));
#660=DIRECTION('',(0.,0.,-1.));
#661=DIRECTION('',(0.,1.,0.));
#662=DIRECTION('',(0.,0.,1.));
#663=DIRECTION('',(1.,0.,0.));
#664=DIRECTION('',(0.,0.,-1.));
#665=DIRECTION('',(-1.,0.,0.));
#666=DIRECTION('',(0.,0.,-1.));
#667=DIRECTION('',(-1.,0.,0.));
#668=DIRECTION('',(0.,0.,1.));
#669=DIRECTION('',(0.,1.,0.));
#670=DIRECTION('',(0.,0.,-1.));
#671=DIRECTION('',(0.,-1.,0.));
#672=DIRECTION('',(0.,0.,-1.));
#673=DIRECTION('',(0.,1.,0.));
#674=DIRECTION('',(0.,0.,1.));
#675=DIRECTION('',(-1.,0.,0.));
#676=DIRECTION('',(0.,0.,-1.));
#677=DIRECTION('',(1.,0.,0.));
#678=DIRECTION('',(0.,0.,-1.));
#679=DIRECTION('',(0.,0.,1.));
#680=DIRECTION('',(1.,0.,0.));
#681=DIRECTION('',(0.,0.,1.));
#682=DIRECTION('',(1.,0.,0.));
#683=DIRECTION('',(0.,0.,1.));
#684=DIRECTION('',(1.,0.,0.));
#685=DIRECTION('',(0.,0.,1.));
#686=DIRECTION('',(1.,0.,0.));
#687=DIRECTION('',(0.,0.,1.));
#688=DIRECTION('',(1.,0.,0.));
#689=DIRECTION('',(0.,0.,1.));
#690=DIRECTION('',(1.,0.,0.));
#691=DIRECTION('',(0.,0.,1.));
#692=DIRECTION('',(1.,0.,0.));
#693=DIRECTION('',(0.,0.,1.));
#694=DIRECTION('',(1.,0.,0.));
#695=DIRECTION('',(0.,0.,1.));
#696=DIRECTION('',(1.,0.,0.));
#697=DIRECTION('',(0.,0.,1.));
#698=DIRECTION('',(1.,0.,0.));
#699=DIRECTION('',(0.,0.,1.));
#700=DIRECTION('',(1.,0.,0.));
#701=DIRECTION('',(0.,0.,1.));
#702=DIRECTION('',(1.,0.,0.));
#703=DIRECTION('',(0.,0.,1.));
#704=DIRECTION('',(1.,0.,0.));
#705=DIRECTION('',(0.,0.,1.));
#706=DIRECTION('',(1.,0.,0.));
#707=DIRECTION('',(0.,0.,-1.));
#708=DIRECTION('',(-1.,0.,0.));
#709=DIRECTION('',(0.,0.,1.));
#710=DIRECTION('',(1.,0.,0.));
#711=DIRECTION('',(0.,0.,1.));
#712=DIRECTION('',(1.,0.,0.));
#713=DIRECTION('',(0.,0.,-1.));
#714=DIRECTION('',(-1.,0.,0.));
#715=DIRECTION('',(0.,0.,1.));
#716=DIRECTION('',(1.,0.,0.));
#717=DIRECTION('',(0.,0.,-1.));
#718=DIRECTION('',(-1.,0.,0.));
#719=DIRECTION('',(0.,0.,-1.));
#720=DIRECTION('',(-1.,0.,0.));
#721=DIRECTION('',(0.,0.,-1.));
#722=DIRECTION('',(-1.,0.,0.));
#723=DIRECTION('',(0.,0.,1.));
#724=DIRECTION('',(1.,0.,0.));
#725=DIRECTION('',(0.,0.,1.));
#726=DIRECTION('',(1.,0.,0.));
#727=DIRECTION('',(0.,0.,-1.));
#728=DIRECTION('',(-1.,0.,0.));
#729=DIRECTION('',(0.,0.,1.));
#730=DIRECTION('',(1.,0.,0.));
#731=CARTESIAN_POINT('',(0.,0.,0.));
#732=CARTESIAN_POINT('',(0.165,0.021,-0.005));
#733=CARTESIAN_POINT('',(0.165,0.021,-0.005));
#734=CARTESIAN_POINT('',(0.024,0.021,-0.005));
#735=CARTESIAN_POINT('',(0.306,0.021,-0.005));
#736=CARTESIAN_POINT('',(0.306,0.021,-0.005));
#737=CARTESIAN_POINT('',(0.306,0.021,0.));
#738=CARTESIAN_POINT('',(0.165,0.021,0.));
#739=CARTESIAN_POINT('',(0.024,0.021,0.));
#740=CARTESIAN_POINT('',(0.024,0.021,-0.005));
#741=CARTESIAN_POINT('',(0.309,0.09,-0.005));
#742=CARTESIAN_POINT('',(0.309,0.09,-0.005));
#743=CARTESIAN_POINT('',(0.309,0.024,-0.005));
#744=CARTESIAN_POINT('',(0.309,0.156,-0.005));
#745=CARTESIAN_POINT('',(0.309,0.156,0.));
#746=CARTESIAN_POINT('',(0.309,0.156,0.));
#747=CARTESIAN_POINT('',(0.309,0.09,0.));
#748=CARTESIAN_POINT('',(0.309,0.024,0.));
#749=CARTESIAN_POINT('',(0.309,0.024,-0.005));
#750=CARTESIAN_POINT('',(0.165,0.159,-0.005));
#751=CARTESIAN_POINT('',(0.165,0.159,0.));
#752=CARTESIAN_POINT('',(0.024,0.159,0.));
#753=CARTESIAN_POINT('',(0.306,0.159,0.));
#754=CARTESIAN_POINT('',(0.306,0.159,-0.005));
#755=CARTESIAN_POINT('',(0.306,0.159,-0.005));
#756=CARTESIAN_POINT('',(0.165,0.159,-0.005));
#757=CARTESIAN_POINT('',(0.024,0.159,-0.005));
#758=CARTESIAN_POINT('',(0.024,0.159,-0.005));
#759=CARTESIAN_POINT('',(0.021,0.09,-0.005));
#760=CARTESIAN_POINT('',(0.021,0.09,0.));
#761=CARTESIAN_POINT('',(0.021,0.024,0.));
#762=CARTESIAN_POINT('',(0.021,0.156,0.));
#763=CARTESIAN_POINT('',(0.021,0.156,-0.005));
#764=CARTESIAN_POINT('',(0.021,0.156,-0.005));
#765=CARTESIAN_POINT('',(0.021,0.09,-0.005));
#766=CARTESIAN_POINT('',(0.021,0.024,-0.005));
#767=CARTESIAN_POINT('',(0.021,0.024,0.));
#768=CARTESIAN_POINT('',(0.165,0.09,-0.005));
#769=CARTESIAN_POINT('',(0.306,0.156,-0.005));
#770=CARTESIAN_POINT('',(0.306,0.024,-0.005));
#771=CARTESIAN_POINT('',(0.024,0.024,-0.005));
#772=CARTESIAN_POINT('',(0.024,0.156,-0.005));
#773=CARTESIAN_POINT('',(0.165,0.09,0.));
#774=CARTESIAN_POINT('',(0.024,0.024,0.));
#775=CARTESIAN_POINT('',(0.306,0.024,0.));
#776=CARTESIAN_POINT('',(0.306,0.156,0.));
#777=CARTESIAN_POINT('',(0.024,0.156,0.));
#778=CARTESIAN_POINT('',(0.,0.09,0.));
#779=CARTESIAN_POINT('',(0.,0.003,0.));
#780=CARTESIAN_POINT('',(0.,0.177,0.));
#781=CARTESIAN_POINT('',(0.003,0.177,0.));
#782=CARTESIAN_POINT('',(0.003,0.18,0.));
#783=CARTESIAN_POINT('',(0.165,0.18,0.));
#784=CARTESIAN_POINT('',(0.327,0.18,0.));
#785=CARTESIAN_POINT('',(0.327,0.177,0.));
#786=CARTESIAN_POINT('',(0.33,0.177,0.));
#787=CARTESIAN_POINT('',(0.33,0.09,0.));
#788=CARTESIAN_POINT('',(0.33,0.003,0.));
#789=CARTESIAN_POINT('',(0.327,0.003,0.));
#790=CARTESIAN_POINT('',(0.327,0.,0.));
#791=CARTESIAN_POINT('',(0.165,0.,0.));
#792=CARTESIAN_POINT('',(0.003,0.,0.));
#793=CARTESIAN_POINT('',(0.003,0.003,0.));
#794=CARTESIAN_POINT('',(0.,0.09,0.005));
#795=CARTESIAN_POINT('',(0.,0.09,0.065));
#796=CARTESIAN_POINT('',(0.,0.003,0.065));
#797=CARTESIAN_POINT('',(0.,0.177,0.065));
#798=CARTESIAN_POINT('',(0.,0.177,0.005));
#799=CARTESIAN_POINT('',(0.,0.003,0.065));
#800=CARTESIAN_POINT('',(0.165,0.,0.005));
#801=CARTESIAN_POINT('',(0.327,0.,0.005));
#802=CARTESIAN_POINT('',(0.327,0.,0.065));
#803=CARTESIAN_POINT('',(0.165,0.,0.065));
#804=CARTESIAN_POINT('',(0.003,0.,0.065));
#805=CARTESIAN_POINT('',(0.003,0.,0.));
#806=CARTESIAN_POINT('',(0.33,0.09,0.005));
#807=CARTESIAN_POINT('',(0.33,0.177,0.065));
#808=CARTESIAN_POINT('',(0.33,0.177,0.065));
#809=CARTESIAN_POINT('',(0.33,0.09,0.065));
#810=CARTESIAN_POINT('',(0.33,0.003,0.065));
#811=CARTESIAN_POINT('',(0.33,0.003,0.005));
#812=CARTESIAN_POINT('',(0.165,0.18,0.005));
#813=CARTESIAN_POINT('',(0.003,0.18,0.005));
#814=CARTESIAN_POINT('',(0.003,0.18,0.065));
#815=CARTESIAN_POINT('',(0.165,0.18,0.065));
#816=CARTESIAN_POINT('',(0.327,0.18,0.065));
#817=CARTESIAN_POINT('',(0.327,0.18,0.));
#818=CARTESIAN_POINT('',(0.325,0.09,0.065));
#819=CARTESIAN_POINT('',(0.325,0.09,0.005));
#820=CARTESIAN_POINT('',(0.325,0.172,0.005));
#821=CARTESIAN_POINT('',(0.325,0.008,0.005));
#822=CARTESIAN_POINT('',(0.325,0.008,0.065));
#823=CARTESIAN_POINT('',(0.325,0.008,0.065));
#824=CARTESIAN_POINT('',(0.325,0.09,0.065));
#825=CARTESIAN_POINT('',(0.325,0.172,0.065));
#826=CARTESIAN_POINT('',(0.325,0.172,0.065));
#827=CARTESIAN_POINT('',(0.165,0.005,0.065));
#828=CARTESIAN_POINT('',(0.165,0.005,0.065));
#829=CARTESIAN_POINT('',(0.008,0.005,0.065));
#830=CARTESIAN_POINT('',(0.322,0.005,0.065));
#831=CARTESIAN_POINT('',(0.322,0.005,0.005));
#832=CARTESIAN_POINT('',(0.322,0.005,0.005));
#833=CARTESIAN_POINT('',(0.165,0.005,0.005));
#834=CARTESIAN_POINT('',(0.008,0.005,0.005));
#835=CARTESIAN_POINT('',(0.008,0.005,0.065));
#836=CARTESIAN_POINT('',(0.005,0.09,0.065));
#837=CARTESIAN_POINT('',(0.005,0.09,0.065));
#838=CARTESIAN_POINT('',(0.005,0.008,0.065));
#839=CARTESIAN_POINT('',(0.005,0.172,0.065));
#840=CARTESIAN_POINT('',(0.005,0.008,0.065));
#841=CARTESIAN_POINT('',(0.005,0.008,0.005));
#842=CARTESIAN_POINT('',(0.005,0.09,0.005));
#843=CARTESIAN_POINT('',(0.005,0.172,0.005));
#844=CARTESIAN_POINT('',(0.005,0.172,0.065));
#845=CARTESIAN_POINT('',(0.165,0.175,0.065));
#846=CARTESIAN_POINT('',(0.165,0.175,0.005));
#847=CARTESIAN_POINT('',(0.322,0.175,0.005));
#848=CARTESIAN_POINT('',(0.008,0.175,0.005));
#849=CARTESIAN_POINT('',(0.322,0.175,0.065));
#850=CARTESIAN_POINT('',(0.322,0.175,0.065));
#851=CARTESIAN_POINT('',(0.165,0.175,0.065));
#852=CARTESIAN_POINT('',(0.008,0.175,0.065));
#853=CARTESIAN_POINT('',(0.008,0.175,0.005));
#854=CARTESIAN_POINT('',(0.165,0.09,0.065));
#855=CARTESIAN_POINT('',(0.003,0.177,0.065));
#856=CARTESIAN_POINT('',(0.003,0.003,0.065));
#857=CARTESIAN_POINT('',(0.327,0.003,0.065));
#858=CARTESIAN_POINT('',(0.327,0.177,0.065));
#859=CARTESIAN_POINT('',(0.322,0.008,0.065));
#860=CARTESIAN_POINT('',(0.008,0.008,0.065));
#861=CARTESIAN_POINT('',(0.008,0.172,0.065));
#862=CARTESIAN_POINT('',(0.322,0.172,0.065));
#863=CARTESIAN_POINT('',(0.165,0.09,0.005));
#864=CARTESIAN_POINT('',(0.322,0.008,0.005));
#865=CARTESIAN_POINT('',(0.322,0.172,0.005));
#866=CARTESIAN_POINT('',(0.008,0.172,0.005));
#867=CARTESIAN_POINT('',(0.008,0.008,0.005));
#868=CARTESIAN_POINT('',(0.306,0.156,-0.005));
#869=CARTESIAN_POINT('',(0.306,0.024,-0.005));
#870=CARTESIAN_POINT('',(0.024,0.156,-0.005));
#871=CARTESIAN_POINT('',(0.024,0.024,-0.005));
#872=CARTESIAN_POINT('',(0.322,0.008,0.065));
#873=CARTESIAN_POINT('',(0.322,0.172,0.065));
#874=CARTESIAN_POINT('',(0.003,0.177,0.005));
#875=CARTESIAN_POINT('',(0.008,0.008,0.065));
#876=CARTESIAN_POINT('',(0.327,0.177,0.005));
#877=CARTESIAN_POINT('',(0.008,0.172,0.065));
#878=CARTESIAN_POINT('',(0.327,0.003,0.005));
#879=CARTESIAN_POINT('',(0.003,0.003,0.005));
#880=MECHANICAL_DESIGN_GEOMETRIC_PRESENTATION_REPRESENTATION('',(#513),
#881);
#881=(
GEOMETRIC_REPRESENTATION_CONTEXT(3)
GLOBAL_UNCERTAINTY_ASSIGNED_CONTEXT((#882))
GLOBAL_UNIT_ASSIGNED_CONTEXT((#885,#884,#883))
REPRESENTATION_CONTEXT('Bottom Tank','TOP_LEVEL_ASSEMBLY_PART')
);
#882=UNCERTAINTY_MEASURE_WITH_UNIT(LENGTH_MEASURE(1.E-8),#885,
'DISTANCE_ACCURACY_VALUE','Maximum Tolerance applied to model');
#883=(
NAMED_UNIT(*)
SI_UNIT($,.STERADIAN.)
SOLID_ANGLE_UNIT()
);
#884=(
NAMED_UNIT(*)
PLANE_ANGLE_UNIT()
SI_UNIT($,.RADIAN.)
);
#885=(
LENGTH_UNIT()
NAMED_UNIT(*)
SI_UNIT($,.METRE.)
);
#886=PRODUCT_DEFINITION_SHAPE('','',#887);
#887=PRODUCT_DEFINITION('','',#889,#888);
#888=PRODUCT_DEFINITION_CONTEXT('',#895,'design');
#889=PRODUCT_DEFINITION_FORMATION_WITH_SPECIFIED_SOURCE('','',#891,
 .NOT_KNOWN.);
#890=PRODUCT_RELATED_PRODUCT_CATEGORY('','',(#891));
#891=PRODUCT('Bottom Tank','Bottom Tank','Bottom Tank',(#893));
#892=PRODUCT_CATEGORY('','');
#893=PRODUCT_CONTEXT('',#895,'mechanical');
#894=APPLICATION_PROTOCOL_DEFINITION('international standard',
'ap242_managed_model_based_3d_engineering',2020,#895);
#895=APPLICATION_CONTEXT('managed model based 3d engineering');
ENDSEC;
END-ISO-10303-21;
