ISO-10303-21;
HEADER;
/* Generated by software containing ST-Developer
 * from STEP Tools, Inc. (www.steptools.com) 
 */
/* OPTION: using custom renumber hook */

FILE_DESCRIPTION(
/* description */ ('STEP AP242 Edition 2',
'CAx-IF Rec.Pracs.---Representation and Presentation of Product Manufa
cturing Information (PMI)---4.0---2014-10-13',
'CAx-IF Rec.Pracs.---3D Tessellated Geometry---0.4---2014-09-14','2;1',
'CAx-IF Rec.Pracs.---User Defined Attributes---1.5---2016-08-15'),
/* implementation_level */ '2;1');

FILE_NAME(
/* name */ 'Full Assembly - Electronics Cover',
/* time_stamp */ '2026-04-24T00:57:03Z',
/* author */ (''),
/* organization */ (''),
/* preprocessor_version */ 'ST-DEVELOPER v20',
/* originating_system */ 'ONSHAPE BY PTC INC, 1.213',
/* authorisation */ '  ');

FILE_SCHEMA (('AP242_MANAGED_MODEL_BASED_3D_ENGINEERING_MIM_LF { 1 0 10303 442 3 1 4 }'));
ENDSEC;

DATA;
#10=SHAPE_REPRESENTATION_RELATIONSHIP('','',#1084,#11);
#11=ADVANCED_BREP_SHAPE_REPRESENTATION('',(#1082),#1763);
#12=CYLINDRICAL_SURFACE('',#1108,0.0025);
#13=CYLINDRICAL_SURFACE('',#1113,0.0025);
#14=CYLINDRICAL_SURFACE('',#1123,0.00235);
#15=CYLINDRICAL_SURFACE('',#1126,0.00235);
#16=CYLINDRICAL_SURFACE('',#1127,0.00135);
#17=CYLINDRICAL_SURFACE('',#1130,0.004);
#18=CYLINDRICAL_SURFACE('',#1133,0.00135);
#19=CYLINDRICAL_SURFACE('',#1136,0.004);
#20=CYLINDRICAL_SURFACE('',#1139,0.00135);
#21=CYLINDRICAL_SURFACE('',#1142,0.004);
#22=CYLINDRICAL_SURFACE('',#1145,0.00135);
#23=CYLINDRICAL_SURFACE('',#1148,0.004);
#24=CYLINDRICAL_SURFACE('',#1166,0.0025);
#25=CYLINDRICAL_SURFACE('',#1170,0.0065);
#26=CYLINDRICAL_SURFACE('',#1171,0.0065);
#27=CIRCLE('',#1090,0.0025);
#28=CIRCLE('',#1094,0.00235);
#29=CIRCLE('',#1095,0.00235);
#30=CIRCLE('',#1097,0.004);
#31=CIRCLE('',#1098,0.004);
#32=CIRCLE('',#1099,0.004);
#33=CIRCLE('',#1100,0.004);
#34=CIRCLE('',#1101,0.00235);
#35=CIRCLE('',#1102,0.00235);
#36=CIRCLE('',#1105,0.0065);
#37=CIRCLE('',#1106,0.0065);
#38=CIRCLE('',#1109,0.0025);
#39=CIRCLE('',#1110,0.0025);
#40=CIRCLE('',#1112,0.0065);
#41=CIRCLE('',#1114,0.0025);
#42=CIRCLE('',#1115,0.0025);
#43=CIRCLE('',#1124,0.00235);
#44=CIRCLE('',#1128,0.00135);
#45=CIRCLE('',#1129,0.00135);
#46=CIRCLE('',#1131,0.004);
#47=CIRCLE('',#1134,0.00135);
#48=CIRCLE('',#1135,0.00135);
#49=CIRCLE('',#1137,0.004);
#50=CIRCLE('',#1140,0.00135);
#51=CIRCLE('',#1141,0.00135);
#52=CIRCLE('',#1143,0.004);
#53=CIRCLE('',#1146,0.00135);
#54=CIRCLE('',#1147,0.00135);
#55=CIRCLE('',#1149,0.004);
#56=CIRCLE('',#1163,0.0065);
#57=CIRCLE('',#1167,0.0025);
#58=ORIENTED_EDGE('',*,*,#336,.T.);
#59=ORIENTED_EDGE('',*,*,#337,.T.);
#60=ORIENTED_EDGE('',*,*,#338,.T.);
#61=ORIENTED_EDGE('',*,*,#339,.F.);
#62=ORIENTED_EDGE('',*,*,#340,.T.);
#63=ORIENTED_EDGE('',*,*,#341,.T.);
#64=ORIENTED_EDGE('',*,*,#342,.F.);
#65=ORIENTED_EDGE('',*,*,#343,.F.);
#66=ORIENTED_EDGE('',*,*,#344,.T.);
#67=ORIENTED_EDGE('',*,*,#345,.F.);
#68=ORIENTED_EDGE('',*,*,#346,.T.);
#69=ORIENTED_EDGE('',*,*,#347,.T.);
#70=ORIENTED_EDGE('',*,*,#348,.T.);
#71=ORIENTED_EDGE('',*,*,#349,.T.);
#72=ORIENTED_EDGE('',*,*,#350,.F.);
#73=ORIENTED_EDGE('',*,*,#351,.T.);
#74=ORIENTED_EDGE('',*,*,#352,.T.);
#75=ORIENTED_EDGE('',*,*,#353,.T.);
#76=ORIENTED_EDGE('',*,*,#354,.F.);
#77=ORIENTED_EDGE('',*,*,#355,.T.);
#78=ORIENTED_EDGE('',*,*,#347,.F.);
#79=ORIENTED_EDGE('',*,*,#356,.F.);
#80=ORIENTED_EDGE('',*,*,#357,.F.);
#81=ORIENTED_EDGE('',*,*,#358,.T.);
#82=ORIENTED_EDGE('',*,*,#359,.F.);
#83=ORIENTED_EDGE('',*,*,#360,.T.);
#84=ORIENTED_EDGE('',*,*,#361,.F.);
#85=ORIENTED_EDGE('',*,*,#362,.F.);
#86=ORIENTED_EDGE('',*,*,#363,.T.);
#87=ORIENTED_EDGE('',*,*,#364,.F.);
#88=ORIENTED_EDGE('',*,*,#343,.T.);
#89=ORIENTED_EDGE('',*,*,#365,.T.);
#90=ORIENTED_EDGE('',*,*,#366,.T.);
#91=ORIENTED_EDGE('',*,*,#367,.T.);
#92=ORIENTED_EDGE('',*,*,#368,.T.);
#93=ORIENTED_EDGE('',*,*,#369,.F.);
#94=ORIENTED_EDGE('',*,*,#338,.F.);
#95=ORIENTED_EDGE('',*,*,#370,.T.);
#96=ORIENTED_EDGE('',*,*,#371,.F.);
#97=ORIENTED_EDGE('',*,*,#372,.F.);
#98=ORIENTED_EDGE('',*,*,#373,.F.);
#99=ORIENTED_EDGE('',*,*,#374,.F.);
#100=ORIENTED_EDGE('',*,*,#375,.T.);
#101=ORIENTED_EDGE('',*,*,#376,.T.);
#102=ORIENTED_EDGE('',*,*,#341,.F.);
#103=ORIENTED_EDGE('',*,*,#377,.F.);
#104=ORIENTED_EDGE('',*,*,#353,.F.);
#105=ORIENTED_EDGE('',*,*,#378,.F.);
#106=ORIENTED_EDGE('',*,*,#379,.T.);
#107=ORIENTED_EDGE('',*,*,#380,.T.);
#108=ORIENTED_EDGE('',*,*,#381,.F.);
#109=ORIENTED_EDGE('',*,*,#382,.F.);
#110=ORIENTED_EDGE('',*,*,#383,.F.);
#111=ORIENTED_EDGE('',*,*,#384,.F.);
#112=ORIENTED_EDGE('',*,*,#385,.F.);
#113=ORIENTED_EDGE('',*,*,#386,.F.);
#114=ORIENTED_EDGE('',*,*,#369,.T.);
#115=ORIENTED_EDGE('',*,*,#387,.T.);
#116=ORIENTED_EDGE('',*,*,#388,.F.);
#117=ORIENTED_EDGE('',*,*,#389,.F.);
#118=ORIENTED_EDGE('',*,*,#390,.F.);
#119=ORIENTED_EDGE('',*,*,#391,.F.);
#120=ORIENTED_EDGE('',*,*,#392,.T.);
#121=ORIENTED_EDGE('',*,*,#393,.T.);
#122=ORIENTED_EDGE('',*,*,#339,.T.);
#123=ORIENTED_EDGE('',*,*,#394,.T.);
#124=ORIENTED_EDGE('',*,*,#395,.T.);
#125=ORIENTED_EDGE('',*,*,#396,.F.);
#126=ORIENTED_EDGE('',*,*,#397,.F.);
#127=ORIENTED_EDGE('',*,*,#388,.T.);
#128=ORIENTED_EDGE('',*,*,#398,.T.);
#129=ORIENTED_EDGE('',*,*,#399,.F.);
#130=ORIENTED_EDGE('',*,*,#400,.F.);
#131=ORIENTED_EDGE('',*,*,#390,.T.);
#132=ORIENTED_EDGE('',*,*,#401,.F.);
#133=ORIENTED_EDGE('',*,*,#402,.T.);
#134=ORIENTED_EDGE('',*,*,#403,.F.);
#135=ORIENTED_EDGE('',*,*,#404,.F.);
#136=ORIENTED_EDGE('',*,*,#405,.F.);
#137=ORIENTED_EDGE('',*,*,#406,.T.);
#138=ORIENTED_EDGE('',*,*,#407,.T.);
#139=ORIENTED_EDGE('',*,*,#408,.F.);
#140=ORIENTED_EDGE('',*,*,#374,.T.);
#141=ORIENTED_EDGE('',*,*,#352,.F.);
#142=ORIENTED_EDGE('',*,*,#409,.T.);
#143=ORIENTED_EDGE('',*,*,#410,.T.);
#144=ORIENTED_EDGE('',*,*,#411,.F.);
#145=ORIENTED_EDGE('',*,*,#359,.T.);
#146=ORIENTED_EDGE('',*,*,#412,.T.);
#147=ORIENTED_EDGE('',*,*,#391,.T.);
#148=ORIENTED_EDGE('',*,*,#400,.T.);
#149=ORIENTED_EDGE('',*,*,#413,.T.);
#150=ORIENTED_EDGE('',*,*,#414,.F.);
#151=ORIENTED_EDGE('',*,*,#415,.F.);
#152=ORIENTED_EDGE('',*,*,#405,.T.);
#153=ORIENTED_EDGE('',*,*,#416,.T.);
#154=ORIENTED_EDGE('',*,*,#417,.F.);
#155=ORIENTED_EDGE('',*,*,#418,.T.);
#156=ORIENTED_EDGE('',*,*,#363,.F.);
#157=ORIENTED_EDGE('',*,*,#419,.F.);
#158=ORIENTED_EDGE('',*,*,#420,.F.);
#159=ORIENTED_EDGE('',*,*,#421,.T.);
#160=ORIENTED_EDGE('',*,*,#336,.F.);
#161=ORIENTED_EDGE('',*,*,#376,.F.);
#162=ORIENTED_EDGE('',*,*,#422,.T.);
#163=ORIENTED_EDGE('',*,*,#423,.T.);
#164=ORIENTED_EDGE('',*,*,#424,.F.);
#165=ORIENTED_EDGE('',*,*,#414,.T.);
#166=ORIENTED_EDGE('',*,*,#425,.T.);
#167=ORIENTED_EDGE('',*,*,#426,.F.);
#168=ORIENTED_EDGE('',*,*,#424,.T.);
#169=ORIENTED_EDGE('',*,*,#427,.T.);
#170=ORIENTED_EDGE('',*,*,#406,.F.);
#171=ORIENTED_EDGE('',*,*,#415,.T.);
#172=ORIENTED_EDGE('',*,*,#416,.F.);
#173=ORIENTED_EDGE('',*,*,#425,.F.);
#174=ORIENTED_EDGE('',*,*,#428,.T.);
#175=ORIENTED_EDGE('',*,*,#429,.T.);
#176=ORIENTED_EDGE('',*,*,#344,.F.);
#177=ORIENTED_EDGE('',*,*,#364,.T.);
#178=ORIENTED_EDGE('',*,*,#418,.F.);
#179=ORIENTED_EDGE('',*,*,#413,.F.);
#180=ORIENTED_EDGE('',*,*,#404,.T.);
#181=ORIENTED_EDGE('',*,*,#399,.T.);
#182=ORIENTED_EDGE('',*,*,#430,.T.);
#183=ORIENTED_EDGE('',*,*,#367,.F.);
#184=ORIENTED_EDGE('',*,*,#431,.T.);
#185=ORIENTED_EDGE('',*,*,#432,.F.);
#186=ORIENTED_EDGE('',*,*,#417,.T.);
#187=ORIENTED_EDGE('',*,*,#426,.T.);
#188=ORIENTED_EDGE('',*,*,#408,.T.);
#189=ORIENTED_EDGE('',*,*,#433,.T.);
#190=ORIENTED_EDGE('',*,*,#422,.F.);
#191=ORIENTED_EDGE('',*,*,#375,.F.);
#192=ORIENTED_EDGE('',*,*,#434,.T.);
#193=ORIENTED_EDGE('',*,*,#379,.F.);
#194=ORIENTED_EDGE('',*,*,#435,.F.);
#195=ORIENTED_EDGE('',*,*,#395,.F.);
#196=ORIENTED_EDGE('',*,*,#396,.T.);
#197=ORIENTED_EDGE('',*,*,#435,.T.);
#198=ORIENTED_EDGE('',*,*,#378,.T.);
#199=ORIENTED_EDGE('',*,*,#436,.F.);
#200=ORIENTED_EDGE('',*,*,#397,.T.);
#201=ORIENTED_EDGE('',*,*,#436,.T.);
#202=ORIENTED_EDGE('',*,*,#381,.T.);
#203=ORIENTED_EDGE('',*,*,#437,.F.);
#204=ORIENTED_EDGE('',*,*,#437,.T.);
#205=ORIENTED_EDGE('',*,*,#380,.F.);
#206=ORIENTED_EDGE('',*,*,#434,.F.);
#207=ORIENTED_EDGE('',*,*,#394,.F.);
#208=ORIENTED_EDGE('',*,*,#401,.T.);
#209=ORIENTED_EDGE('',*,*,#389,.T.);
#210=ORIENTED_EDGE('',*,*,#403,.T.);
#211=ORIENTED_EDGE('',*,*,#438,.F.);
#212=ORIENTED_EDGE('',*,*,#373,.T.);
#213=ORIENTED_EDGE('',*,*,#438,.T.);
#214=ORIENTED_EDGE('',*,*,#402,.F.);
#215=ORIENTED_EDGE('',*,*,#386,.T.);
#216=ORIENTED_EDGE('',*,*,#372,.T.);
#217=ORIENTED_EDGE('',*,*,#439,.T.);
#218=ORIENTED_EDGE('',*,*,#440,.T.);
#219=ORIENTED_EDGE('',*,*,#441,.F.);
#220=ORIENTED_EDGE('',*,*,#385,.T.);
#221=ORIENTED_EDGE('',*,*,#439,.F.);
#222=ORIENTED_EDGE('',*,*,#441,.T.);
#223=ORIENTED_EDGE('',*,*,#442,.T.);
#224=ORIENTED_EDGE('',*,*,#443,.T.);
#225=ORIENTED_EDGE('',*,*,#444,.F.);
#226=ORIENTED_EDGE('',*,*,#384,.T.);
#227=ORIENTED_EDGE('',*,*,#442,.F.);
#228=ORIENTED_EDGE('',*,*,#444,.T.);
#229=ORIENTED_EDGE('',*,*,#445,.T.);
#230=ORIENTED_EDGE('',*,*,#446,.T.);
#231=ORIENTED_EDGE('',*,*,#447,.F.);
#232=ORIENTED_EDGE('',*,*,#383,.T.);
#233=ORIENTED_EDGE('',*,*,#445,.F.);
#234=ORIENTED_EDGE('',*,*,#447,.T.);
#235=ORIENTED_EDGE('',*,*,#448,.T.);
#236=ORIENTED_EDGE('',*,*,#449,.T.);
#237=ORIENTED_EDGE('',*,*,#450,.F.);
#238=ORIENTED_EDGE('',*,*,#382,.T.);
#239=ORIENTED_EDGE('',*,*,#448,.F.);
#240=ORIENTED_EDGE('',*,*,#450,.T.);
#241=ORIENTED_EDGE('',*,*,#449,.F.);
#242=ORIENTED_EDGE('',*,*,#446,.F.);
#243=ORIENTED_EDGE('',*,*,#443,.F.);
#244=ORIENTED_EDGE('',*,*,#440,.F.);
#245=ORIENTED_EDGE('',*,*,#432,.T.);
#246=ORIENTED_EDGE('',*,*,#451,.T.);
#247=ORIENTED_EDGE('',*,*,#452,.T.);
#248=ORIENTED_EDGE('',*,*,#453,.F.);
#249=ORIENTED_EDGE('',*,*,#365,.F.);
#250=ORIENTED_EDGE('',*,*,#454,.T.);
#251=ORIENTED_EDGE('',*,*,#348,.F.);
#252=ORIENTED_EDGE('',*,*,#355,.F.);
#253=ORIENTED_EDGE('',*,*,#455,.F.);
#254=ORIENTED_EDGE('',*,*,#456,.T.);
#255=ORIENTED_EDGE('',*,*,#457,.T.);
#256=ORIENTED_EDGE('',*,*,#452,.F.);
#257=ORIENTED_EDGE('',*,*,#458,.T.);
#258=ORIENTED_EDGE('',*,*,#459,.F.);
#259=ORIENTED_EDGE('',*,*,#460,.T.);
#260=ORIENTED_EDGE('',*,*,#428,.F.);
#261=ORIENTED_EDGE('',*,*,#453,.T.);
#262=ORIENTED_EDGE('',*,*,#457,.F.);
#263=ORIENTED_EDGE('',*,*,#461,.F.);
#264=ORIENTED_EDGE('',*,*,#462,.F.);
#265=ORIENTED_EDGE('',*,*,#463,.F.);
#266=ORIENTED_EDGE('',*,*,#461,.T.);
#267=ORIENTED_EDGE('',*,*,#456,.F.);
#268=ORIENTED_EDGE('',*,*,#464,.T.);
#269=ORIENTED_EDGE('',*,*,#392,.F.);
#270=ORIENTED_EDGE('',*,*,#412,.F.);
#271=ORIENTED_EDGE('',*,*,#358,.F.);
#272=ORIENTED_EDGE('',*,*,#377,.T.);
#273=ORIENTED_EDGE('',*,*,#340,.F.);
#274=ORIENTED_EDGE('',*,*,#393,.F.);
#275=ORIENTED_EDGE('',*,*,#464,.F.);
#276=ORIENTED_EDGE('',*,*,#455,.T.);
#277=ORIENTED_EDGE('',*,*,#354,.T.);
#278=ORIENTED_EDGE('',*,*,#463,.T.);
#279=ORIENTED_EDGE('',*,*,#465,.T.);
#280=ORIENTED_EDGE('',*,*,#356,.T.);
#281=ORIENTED_EDGE('',*,*,#346,.F.);
#282=ORIENTED_EDGE('',*,*,#466,.F.);
#283=ORIENTED_EDGE('',*,*,#459,.T.);
#284=ORIENTED_EDGE('',*,*,#466,.T.);
#285=ORIENTED_EDGE('',*,*,#345,.T.);
#286=ORIENTED_EDGE('',*,*,#429,.F.);
#287=ORIENTED_EDGE('',*,*,#460,.F.);
#288=ORIENTED_EDGE('',*,*,#462,.T.);
#289=ORIENTED_EDGE('',*,*,#357,.T.);
#290=ORIENTED_EDGE('',*,*,#467,.T.);
#291=ORIENTED_EDGE('',*,*,#468,.F.);
#292=ORIENTED_EDGE('',*,*,#469,.T.);
#293=ORIENTED_EDGE('',*,*,#350,.T.);
#294=ORIENTED_EDGE('',*,*,#465,.F.);
#295=ORIENTED_EDGE('',*,*,#362,.T.);
#296=ORIENTED_EDGE('',*,*,#342,.T.);
#297=ORIENTED_EDGE('',*,*,#470,.F.);
#298=ORIENTED_EDGE('',*,*,#419,.T.);
#299=ORIENTED_EDGE('',*,*,#349,.F.);
#300=ORIENTED_EDGE('',*,*,#454,.F.);
#301=ORIENTED_EDGE('',*,*,#371,.T.);
#302=ORIENTED_EDGE('',*,*,#471,.T.);
#303=ORIENTED_EDGE('',*,*,#420,.T.);
#304=ORIENTED_EDGE('',*,*,#470,.T.);
#305=ORIENTED_EDGE('',*,*,#361,.T.);
#306=ORIENTED_EDGE('',*,*,#472,.T.);
#307=ORIENTED_EDGE('',*,*,#360,.F.);
#308=ORIENTED_EDGE('',*,*,#411,.T.);
#309=ORIENTED_EDGE('',*,*,#473,.F.);
#310=ORIENTED_EDGE('',*,*,#467,.F.);
#311=ORIENTED_EDGE('',*,*,#472,.F.);
#312=ORIENTED_EDGE('',*,*,#410,.F.);
#313=ORIENTED_EDGE('',*,*,#474,.T.);
#314=ORIENTED_EDGE('',*,*,#468,.T.);
#315=ORIENTED_EDGE('',*,*,#473,.T.);
#316=ORIENTED_EDGE('',*,*,#407,.F.);
#317=ORIENTED_EDGE('',*,*,#427,.F.);
#318=ORIENTED_EDGE('',*,*,#423,.F.);
#319=ORIENTED_EDGE('',*,*,#433,.F.);
#320=ORIENTED_EDGE('',*,*,#469,.F.);
#321=ORIENTED_EDGE('',*,*,#474,.F.);
#322=ORIENTED_EDGE('',*,*,#409,.F.);
#323=ORIENTED_EDGE('',*,*,#351,.F.);
#324=ORIENTED_EDGE('',*,*,#337,.F.);
#325=ORIENTED_EDGE('',*,*,#421,.F.);
#326=ORIENTED_EDGE('',*,*,#471,.F.);
#327=ORIENTED_EDGE('',*,*,#370,.F.);
#328=ORIENTED_EDGE('',*,*,#431,.F.);
#329=ORIENTED_EDGE('',*,*,#366,.F.);
#330=ORIENTED_EDGE('',*,*,#458,.F.);
#331=ORIENTED_EDGE('',*,*,#451,.F.);
#332=ORIENTED_EDGE('',*,*,#430,.F.);
#333=ORIENTED_EDGE('',*,*,#398,.F.);
#334=ORIENTED_EDGE('',*,*,#387,.F.);
#335=ORIENTED_EDGE('',*,*,#368,.F.);
#336=EDGE_CURVE('',#475,#476,#576,.T.);
#337=EDGE_CURVE('',#476,#477,#577,.T.);
#338=EDGE_CURVE('',#477,#478,#578,.T.);
#339=EDGE_CURVE('',#479,#478,#579,.T.);
#340=EDGE_CURVE('',#479,#480,#580,.T.);
#341=EDGE_CURVE('',#480,#475,#581,.T.);
#342=EDGE_CURVE('',#481,#482,#582,.T.);
#343=EDGE_CURVE('',#483,#481,#583,.T.);
#344=EDGE_CURVE('',#483,#484,#584,.T.);
#345=EDGE_CURVE('',#485,#484,#585,.T.);
#346=EDGE_CURVE('',#485,#486,#586,.T.);
#347=EDGE_CURVE('',#486,#487,#587,.T.);
#348=EDGE_CURVE('',#487,#488,#588,.T.);
#349=EDGE_CURVE('',#488,#482,#589,.T.);
#350=EDGE_CURVE('',#489,#490,#590,.T.);
#351=EDGE_CURVE('',#489,#491,#591,.T.);
#352=EDGE_CURVE('',#491,#492,#592,.T.);
#353=EDGE_CURVE('',#492,#493,#593,.T.);
#354=EDGE_CURVE('',#494,#493,#594,.T.);
#355=EDGE_CURVE('',#494,#487,#595,.T.);
#356=EDGE_CURVE('',#490,#486,#596,.T.);
#357=EDGE_CURVE('',#495,#496,#597,.T.);
#358=EDGE_CURVE('',#495,#497,#598,.T.);
#359=EDGE_CURVE('',#498,#497,#599,.T.);
#360=EDGE_CURVE('',#498,#496,#600,.T.);
#361=EDGE_CURVE('',#499,#499,#27,.F.);
#362=EDGE_CURVE('',#500,#481,#601,.T.);
#363=EDGE_CURVE('',#500,#501,#602,.T.);
#364=EDGE_CURVE('',#483,#501,#603,.T.);
#365=EDGE_CURVE('',#502,#503,#604,.T.);
#366=EDGE_CURVE('',#503,#504,#605,.T.);
#367=EDGE_CURVE('',#504,#505,#606,.T.);
#368=EDGE_CURVE('',#505,#506,#607,.T.);
#369=EDGE_CURVE('',#478,#506,#608,.T.);
#370=EDGE_CURVE('',#477,#507,#609,.F.);
#371=EDGE_CURVE('',#502,#507,#610,.T.);
#372=EDGE_CURVE('',#508,#508,#28,.T.);
#373=EDGE_CURVE('',#509,#509,#29,.T.);
#374=EDGE_CURVE('',#510,#492,#611,.T.);
#375=EDGE_CURVE('',#510,#511,#612,.T.);
#376=EDGE_CURVE('',#511,#475,#613,.T.);
#377=EDGE_CURVE('',#493,#480,#614,.T.);
#378=EDGE_CURVE('',#512,#513,#615,.T.);
#379=EDGE_CURVE('',#512,#514,#616,.T.);
#380=EDGE_CURVE('',#514,#515,#617,.T.);
#381=EDGE_CURVE('',#513,#515,#618,.T.);
#382=EDGE_CURVE('',#516,#516,#30,.T.);
#383=EDGE_CURVE('',#517,#517,#31,.T.);
#384=EDGE_CURVE('',#518,#518,#32,.T.);
#385=EDGE_CURVE('',#519,#519,#33,.T.);
#386=EDGE_CURVE('',#520,#520,#34,.T.);
#387=EDGE_CURVE('',#506,#521,#619,.T.);
#388=EDGE_CURVE('',#522,#521,#620,.T.);
#389=EDGE_CURVE('',#523,#522,#35,.T.);
#390=EDGE_CURVE('',#524,#523,#621,.T.);
#391=EDGE_CURVE('',#525,#524,#622,.T.);
#392=EDGE_CURVE('',#525,#526,#623,.T.);
#393=EDGE_CURVE('',#526,#479,#624,.T.);
#394=EDGE_CURVE('',#527,#528,#625,.T.);
#395=EDGE_CURVE('',#528,#529,#626,.T.);
#396=EDGE_CURVE('',#530,#529,#627,.T.);
#397=EDGE_CURVE('',#527,#530,#628,.T.);
#398=EDGE_CURVE('',#521,#531,#629,.T.);
#399=EDGE_CURVE('',#532,#531,#630,.T.);
#400=EDGE_CURVE('',#524,#532,#631,.T.);
#401=EDGE_CURVE('',#533,#523,#632,.T.);
#402=EDGE_CURVE('',#533,#534,#633,.T.);
#403=EDGE_CURVE('',#522,#534,#634,.F.);
#404=EDGE_CURVE('',#535,#532,#635,.T.);
#405=EDGE_CURVE('',#536,#535,#636,.T.);
#406=EDGE_CURVE('',#536,#537,#637,.T.);
#407=EDGE_CURVE('',#537,#538,#36,.F.);
#408=EDGE_CURVE('',#510,#538,#638,.T.);
#409=EDGE_CURVE('',#491,#539,#37,.F.);
#410=EDGE_CURVE('',#539,#540,#639,.T.);
#411=EDGE_CURVE('',#498,#540,#640,.T.);
#412=EDGE_CURVE('',#497,#525,#641,.T.);
#413=EDGE_CURVE('',#535,#541,#642,.T.);
#414=EDGE_CURVE('',#542,#541,#643,.T.);
#415=EDGE_CURVE('',#536,#542,#644,.T.);
#416=EDGE_CURVE('',#543,#543,#38,.T.);
#417=EDGE_CURVE('',#544,#544,#39,.T.);
#418=EDGE_CURVE('',#541,#501,#645,.T.);
#419=EDGE_CURVE('',#545,#500,#646,.T.);
#420=EDGE_CURVE('',#546,#545,#647,.T.);
#421=EDGE_CURVE('',#546,#476,#648,.F.);
#422=EDGE_CURVE('',#511,#547,#649,.T.);
#423=EDGE_CURVE('',#547,#548,#40,.T.);
#424=EDGE_CURVE('',#542,#548,#650,.T.);
#425=EDGE_CURVE('',#549,#549,#41,.T.);
#426=EDGE_CURVE('',#550,#550,#42,.T.);
#427=EDGE_CURVE('',#548,#537,#651,.F.);
#428=EDGE_CURVE('',#551,#552,#652,.T.);
#429=EDGE_CURVE('',#552,#484,#653,.T.);
#430=EDGE_CURVE('',#531,#505,#654,.T.);
#431=EDGE_CURVE('',#504,#553,#655,.F.);
#432=EDGE_CURVE('',#551,#553,#656,.T.);
#433=EDGE_CURVE('',#538,#547,#657,.T.);
#434=EDGE_CURVE('',#528,#514,#658,.T.);
#435=EDGE_CURVE('',#529,#512,#659,.T.);
#436=EDGE_CURVE('',#530,#513,#660,.T.);
#437=EDGE_CURVE('',#527,#515,#661,.T.);
#438=EDGE_CURVE('',#533,#534,#43,.T.);
#439=EDGE_CURVE('',#554,#554,#44,.T.);
#440=EDGE_CURVE('',#555,#555,#45,.F.);
#441=EDGE_CURVE('',#556,#556,#46,.T.);
#442=EDGE_CURVE('',#557,#557,#47,.T.);
#443=EDGE_CURVE('',#558,#558,#48,.F.);
#444=EDGE_CURVE('',#559,#559,#49,.T.);
#445=EDGE_CURVE('',#560,#560,#50,.T.);
#446=EDGE_CURVE('',#561,#561,#51,.F.);
#447=EDGE_CURVE('',#562,#562,#52,.T.);
#448=EDGE_CURVE('',#563,#563,#53,.T.);
#449=EDGE_CURVE('',#564,#564,#54,.F.);
#450=EDGE_CURVE('',#565,#565,#55,.T.);
#451=EDGE_CURVE('',#553,#566,#662,.T.);
#452=EDGE_CURVE('',#566,#567,#663,.T.);
#453=EDGE_CURVE('',#551,#567,#664,.T.);
#454=EDGE_CURVE('',#502,#488,#665,.T.);
#455=EDGE_CURVE('',#568,#494,#666,.T.);
#456=EDGE_CURVE('',#568,#569,#667,.T.);
#457=EDGE_CURVE('',#569,#567,#668,.T.);
#458=EDGE_CURVE('',#566,#503,#669,.F.);
#459=EDGE_CURVE('',#570,#571,#670,.T.);
#460=EDGE_CURVE('',#570,#552,#671,.T.);
#461=EDGE_CURVE('',#571,#569,#672,.T.);
#462=EDGE_CURVE('',#572,#495,#673,.T.);
#463=EDGE_CURVE('',#571,#572,#674,.T.);
#464=EDGE_CURVE('',#568,#526,#675,.T.);
#465=EDGE_CURVE('',#572,#490,#676,.T.);
#466=EDGE_CURVE('',#570,#485,#677,.T.);
#467=EDGE_CURVE('',#496,#573,#678,.T.);
#468=EDGE_CURVE('',#574,#573,#679,.T.);
#469=EDGE_CURVE('',#574,#489,#56,.T.);
#470=EDGE_CURVE('',#545,#482,#680,.T.);
#471=EDGE_CURVE('',#507,#546,#681,.F.);
#472=EDGE_CURVE('',#575,#575,#57,.T.);
#473=EDGE_CURVE('',#573,#540,#682,.T.);
#474=EDGE_CURVE('',#539,#574,#683,.F.);
#475=VERTEX_POINT('',#1466);
#476=VERTEX_POINT('',#1467);
#477=VERTEX_POINT('',#1469);
#478=VERTEX_POINT('',#1471);
#479=VERTEX_POINT('',#1473);
#480=VERTEX_POINT('',#1475);
#481=VERTEX_POINT('',#1479);
#482=VERTEX_POINT('',#1480);
#483=VERTEX_POINT('',#1482);
#484=VERTEX_POINT('',#1484);
#485=VERTEX_POINT('',#1486);
#486=VERTEX_POINT('',#1488);
#487=VERTEX_POINT('',#1490);
#488=VERTEX_POINT('',#1492);
#489=VERTEX_POINT('',#1496);
#490=VERTEX_POINT('',#1497);
#491=VERTEX_POINT('',#1499);
#492=VERTEX_POINT('',#1501);
#493=VERTEX_POINT('',#1503);
#494=VERTEX_POINT('',#1505);
#495=VERTEX_POINT('',#1510);
#496=VERTEX_POINT('',#1511);
#497=VERTEX_POINT('',#1513);
#498=VERTEX_POINT('',#1515);
#499=VERTEX_POINT('',#1518);
#500=VERTEX_POINT('',#1521);
#501=VERTEX_POINT('',#1523);
#502=VERTEX_POINT('',#1527);
#503=VERTEX_POINT('',#1528);
#504=VERTEX_POINT('',#1530);
#505=VERTEX_POINT('',#1532);
#506=VERTEX_POINT('',#1534);
#507=VERTEX_POINT('',#1537);
#508=VERTEX_POINT('',#1541);
#509=VERTEX_POINT('',#1543);
#510=VERTEX_POINT('',#1545);
#511=VERTEX_POINT('',#1547);
#512=VERTEX_POINT('',#1551);
#513=VERTEX_POINT('',#1552);
#514=VERTEX_POINT('',#1554);
#515=VERTEX_POINT('',#1556);
#516=VERTEX_POINT('',#1560);
#517=VERTEX_POINT('',#1562);
#518=VERTEX_POINT('',#1564);
#519=VERTEX_POINT('',#1566);
#520=VERTEX_POINT('',#1568);
#521=VERTEX_POINT('',#1570);
#522=VERTEX_POINT('',#1572);
#523=VERTEX_POINT('',#1574);
#524=VERTEX_POINT('',#1576);
#525=VERTEX_POINT('',#1578);
#526=VERTEX_POINT('',#1580);
#527=VERTEX_POINT('',#1583);
#528=VERTEX_POINT('',#1584);
#529=VERTEX_POINT('',#1586);
#530=VERTEX_POINT('',#1588);
#531=VERTEX_POINT('',#1592);
#532=VERTEX_POINT('',#1594);
#533=VERTEX_POINT('',#1597);
#534=VERTEX_POINT('',#1599);
#535=VERTEX_POINT('',#1603);
#536=VERTEX_POINT('',#1605);
#537=VERTEX_POINT('',#1607);
#538=VERTEX_POINT('',#1609);
#539=VERTEX_POINT('',#1612);
#540=VERTEX_POINT('',#1614);
#541=VERTEX_POINT('',#1619);
#542=VERTEX_POINT('',#1621);
#543=VERTEX_POINT('',#1625);
#544=VERTEX_POINT('',#1627);
#545=VERTEX_POINT('',#1631);
#546=VERTEX_POINT('',#1633);
#547=VERTEX_POINT('',#1636);
#548=VERTEX_POINT('',#1638);
#549=VERTEX_POINT('',#1642);
#550=VERTEX_POINT('',#1644);
#551=VERTEX_POINT('',#1649);
#552=VERTEX_POINT('',#1650);
#553=VERTEX_POINT('',#1654);
#554=VERTEX_POINT('',#1672);
#555=VERTEX_POINT('',#1674);
#556=VERTEX_POINT('',#1677);
#557=VERTEX_POINT('',#1681);
#558=VERTEX_POINT('',#1683);
#559=VERTEX_POINT('',#1686);
#560=VERTEX_POINT('',#1690);
#561=VERTEX_POINT('',#1692);
#562=VERTEX_POINT('',#1695);
#563=VERTEX_POINT('',#1699);
#564=VERTEX_POINT('',#1701);
#565=VERTEX_POINT('',#1704);
#566=VERTEX_POINT('',#1712);
#567=VERTEX_POINT('',#1714);
#568=VERTEX_POINT('',#1719);
#569=VERTEX_POINT('',#1721);
#570=VERTEX_POINT('',#1726);
#571=VERTEX_POINT('',#1727);
#572=VERTEX_POINT('',#1732);
#573=VERTEX_POINT('',#1742);
#574=VERTEX_POINT('',#1744);
#575=VERTEX_POINT('',#1752);
#576=LINE('',#1465,#684);
#577=LINE('',#1468,#685);
#578=LINE('',#1470,#686);
#579=LINE('',#1472,#687);
#580=LINE('',#1474,#688);
#581=LINE('',#1476,#689);
#582=LINE('',#1478,#690);
#583=LINE('',#1481,#691);
#584=LINE('',#1483,#692);
#585=LINE('',#1485,#693);
#586=LINE('',#1487,#694);
#587=LINE('',#1489,#695);
#588=LINE('',#1491,#696);
#589=LINE('',#1493,#697);
#590=LINE('',#1495,#698);
#591=LINE('',#1498,#699);
#592=LINE('',#1500,#700);
#593=LINE('',#1502,#701);
#594=LINE('',#1504,#702);
#595=LINE('',#1506,#703);
#596=LINE('',#1507,#704);
#597=LINE('',#1509,#705);
#598=LINE('',#1512,#706);
#599=LINE('',#1514,#707);
#600=LINE('',#1516,#708);
#601=LINE('',#1520,#709);
#602=LINE('',#1522,#710);
#603=LINE('',#1524,#711);
#604=LINE('',#1526,#712);
#605=LINE('',#1529,#713);
#606=LINE('',#1531,#714);
#607=LINE('',#1533,#715);
#608=LINE('',#1535,#716);
#609=LINE('',#1536,#717);
#610=LINE('',#1538,#718);
#611=LINE('',#1544,#719);
#612=LINE('',#1546,#720);
#613=LINE('',#1548,#721);
#614=LINE('',#1549,#722);
#615=LINE('',#1550,#723);
#616=LINE('',#1553,#724);
#617=LINE('',#1555,#725);
#618=LINE('',#1557,#726);
#619=LINE('',#1569,#727);
#620=LINE('',#1571,#728);
#621=LINE('',#1575,#729);
#622=LINE('',#1577,#730);
#623=LINE('',#1579,#731);
#624=LINE('',#1581,#732);
#625=LINE('',#1582,#733);
#626=LINE('',#1585,#734);
#627=LINE('',#1587,#735);
#628=LINE('',#1589,#736);
#629=LINE('',#1591,#737);
#630=LINE('',#1593,#738);
#631=LINE('',#1595,#739);
#632=LINE('',#1596,#740);
#633=LINE('',#1598,#741);
#634=LINE('',#1600,#742);
#635=LINE('',#1602,#743);
#636=LINE('',#1604,#744);
#637=LINE('',#1606,#745);
#638=LINE('',#1610,#746);
#639=LINE('',#1613,#747);
#640=LINE('',#1615,#748);
#641=LINE('',#1616,#749);
#642=LINE('',#1618,#750);
#643=LINE('',#1620,#751);
#644=LINE('',#1622,#752);
#645=LINE('',#1629,#753);
#646=LINE('',#1630,#754);
#647=LINE('',#1632,#755);
#648=LINE('',#1634,#756);
#649=LINE('',#1635,#757);
#650=LINE('',#1639,#758);
#651=LINE('',#1646,#759);
#652=LINE('',#1648,#760);
#653=LINE('',#1651,#761);
#654=LINE('',#1652,#762);
#655=LINE('',#1653,#763);
#656=LINE('',#1655,#764);
#657=LINE('',#1657,#765);
#658=LINE('',#1659,#766);
#659=LINE('',#1660,#767);
#660=LINE('',#1662,#768);
#661=LINE('',#1664,#769);
#662=LINE('',#1711,#770);
#663=LINE('',#1713,#771);
#664=LINE('',#1715,#772);
#665=LINE('',#1717,#773);
#666=LINE('',#1718,#774);
#667=LINE('',#1720,#775);
#668=LINE('',#1722,#776);
#669=LINE('',#1723,#777);
#670=LINE('',#1725,#778);
#671=LINE('',#1728,#779);
#672=LINE('',#1729,#780);
#673=LINE('',#1731,#781);
#674=LINE('',#1733,#782);
#675=LINE('',#1734,#783);
#676=LINE('',#1737,#784);
#677=LINE('',#1738,#785);
#678=LINE('',#1741,#786);
#679=LINE('',#1743,#787);
#680=LINE('',#1747,#788);
#681=LINE('',#1749,#789);
#682=LINE('',#1754,#790);
#683=LINE('',#1756,#791);
#684=VECTOR('',#1179,1.);
#685=VECTOR('',#1180,1.);
#686=VECTOR('',#1181,1.);
#687=VECTOR('',#1182,1.);
#688=VECTOR('',#1183,1.);
#689=VECTOR('',#1184,1.);
#690=VECTOR('',#1187,1.);
#691=VECTOR('',#1188,1.);
#692=VECTOR('',#1189,1.);
#693=VECTOR('',#1190,1.);
#694=VECTOR('',#1191,1.);
#695=VECTOR('',#1192,1.);
#696=VECTOR('',#1193,1.);
#697=VECTOR('',#1194,1.);
#698=VECTOR('',#1197,1.);
#699=VECTOR('',#1198,1.);
#700=VECTOR('',#1199,1.);
#701=VECTOR('',#1200,1.);
#702=VECTOR('',#1201,1.);
#703=VECTOR('',#1202,1.);
#704=VECTOR('',#1203,1.);
#705=VECTOR('',#1206,1.);
#706=VECTOR('',#1207,1.);
#707=VECTOR('',#1208,1.);
#708=VECTOR('',#1209,1.);
#709=VECTOR('',#1214,1.);
#710=VECTOR('',#1215,1.);
#711=VECTOR('',#1216,1.);
#712=VECTOR('',#1219,1.);
#713=VECTOR('',#1220,1.);
#714=VECTOR('',#1221,1.);
#715=VECTOR('',#1222,1.);
#716=VECTOR('',#1223,1.);
#717=VECTOR('',#1224,1.);
#718=VECTOR('',#1225,1.);
#719=VECTOR('',#1232,1.);
#720=VECTOR('',#1233,1.);
#721=VECTOR('',#1234,1.);
#722=VECTOR('',#1235,1.);
#723=VECTOR('',#1236,1.);
#724=VECTOR('',#1237,1.);
#725=VECTOR('',#1238,1.);
#726=VECTOR('',#1239,1.);
#727=VECTOR('',#1252,1.);
#728=VECTOR('',#1253,1.);
#729=VECTOR('',#1256,1.);
#730=VECTOR('',#1257,1.);
#731=VECTOR('',#1258,1.);
#732=VECTOR('',#1259,1.);
#733=VECTOR('',#1260,1.);
#734=VECTOR('',#1261,1.);
#735=VECTOR('',#1262,1.);
#736=VECTOR('',#1263,1.);
#737=VECTOR('',#1266,1.);
#738=VECTOR('',#1267,1.);
#739=VECTOR('',#1268,1.);
#740=VECTOR('',#1269,1.);
#741=VECTOR('',#1270,1.);
#742=VECTOR('',#1271,1.);
#743=VECTOR('',#1274,1.);
#744=VECTOR('',#1275,1.);
#745=VECTOR('',#1276,1.);
#746=VECTOR('',#1279,1.);
#747=VECTOR('',#1282,1.);
#748=VECTOR('',#1283,1.);
#749=VECTOR('',#1284,1.);
#750=VECTOR('',#1287,1.);
#751=VECTOR('',#1288,1.);
#752=VECTOR('',#1289,1.);
#753=VECTOR('',#1298,1.);
#754=VECTOR('',#1299,1.);
#755=VECTOR('',#1300,1.);
#756=VECTOR('',#1301,1.);
#757=VECTOR('',#1302,1.);
#758=VECTOR('',#1305,1.);
#759=VECTOR('',#1314,1.);
#760=VECTOR('',#1317,1.);
#761=VECTOR('',#1318,1.);
#762=VECTOR('',#1319,1.);
#763=VECTOR('',#1320,1.);
#764=VECTOR('',#1321,1.);
#765=VECTOR('',#1324,1.);
#766=VECTOR('',#1327,1.);
#767=VECTOR('',#1328,1.);
#768=VECTOR('',#1331,1.);
#769=VECTOR('',#1334,1.);
#770=VECTOR('',#1403,1.);
#771=VECTOR('',#1404,1.);
#772=VECTOR('',#1405,1.);
#773=VECTOR('',#1408,1.);
#774=VECTOR('',#1409,1.);
#775=VECTOR('',#1410,1.);
#776=VECTOR('',#1411,1.);
#777=VECTOR('',#1412,1.);
#778=VECTOR('',#1415,1.);
#779=VECTOR('',#1416,1.);
#780=VECTOR('',#1417,1.);
#781=VECTOR('',#1420,1.);
#782=VECTOR('',#1421,1.);
#783=VECTOR('',#1422,1.);
#784=VECTOR('',#1427,1.);
#785=VECTOR('',#1428,1.);
#786=VECTOR('',#1433,1.);
#787=VECTOR('',#1434,1.);
#788=VECTOR('',#1439,1.);
#789=VECTOR('',#1442,1.);
#790=VECTOR('',#1449,1.);
#791=VECTOR('',#1452,1.);
#792=EDGE_LOOP('',(#58,#59,#60,#61,#62,#63));
#793=EDGE_LOOP('',(#64,#65,#66,#67,#68,#69,#70,#71));
#794=EDGE_LOOP('',(#72,#73,#74,#75,#76,#77,#78,#79));
#795=EDGE_LOOP('',(#80,#81,#82,#83));
#796=EDGE_LOOP('',(#84));
#797=EDGE_LOOP('',(#85,#86,#87,#88));
#798=EDGE_LOOP('',(#89,#90,#91,#92,#93,#94,#95,#96));
#799=EDGE_LOOP('',(#97));
#800=EDGE_LOOP('',(#98));
#801=EDGE_LOOP('',(#99,#100,#101,#102,#103,#104));
#802=EDGE_LOOP('',(#105,#106,#107,#108));
#803=EDGE_LOOP('',(#109));
#804=EDGE_LOOP('',(#110));
#805=EDGE_LOOP('',(#111));
#806=EDGE_LOOP('',(#112));
#807=EDGE_LOOP('',(#113));
#808=EDGE_LOOP('',(#114,#115,#116,#117,#118,#119,#120,#121,#122));
#809=EDGE_LOOP('',(#123,#124,#125,#126));
#810=EDGE_LOOP('',(#127,#128,#129,#130,#131,#132,#133,#134));
#811=EDGE_LOOP('',(#135,#136,#137,#138,#139,#140,#141,#142,#143,#144,#145,
#146,#147,#148));
#812=EDGE_LOOP('',(#149,#150,#151,#152));
#813=EDGE_LOOP('',(#153));
#814=EDGE_LOOP('',(#154));
#815=EDGE_LOOP('',(#155,#156,#157,#158,#159,#160,#161,#162,#163,#164,#165));
#816=EDGE_LOOP('',(#166));
#817=EDGE_LOOP('',(#167));
#818=EDGE_LOOP('',(#168,#169,#170,#171));
#819=EDGE_LOOP('',(#172));
#820=EDGE_LOOP('',(#173));
#821=EDGE_LOOP('',(#174,#175,#176,#177,#178,#179,#180,#181,#182,#183,#184,
#185));
#822=EDGE_LOOP('',(#186));
#823=EDGE_LOOP('',(#187));
#824=EDGE_LOOP('',(#188,#189,#190,#191));
#825=EDGE_LOOP('',(#192,#193,#194,#195));
#826=EDGE_LOOP('',(#196,#197,#198,#199));
#827=EDGE_LOOP('',(#200,#201,#202,#203));
#828=EDGE_LOOP('',(#204,#205,#206,#207));
#829=EDGE_LOOP('',(#208,#209,#210,#211));
#830=EDGE_LOOP('',(#212));
#831=EDGE_LOOP('',(#213,#214));
#832=EDGE_LOOP('',(#215));
#833=EDGE_LOOP('',(#216));
#834=EDGE_LOOP('',(#217));
#835=EDGE_LOOP('',(#218));
#836=EDGE_LOOP('',(#219));
#837=EDGE_LOOP('',(#220));
#838=EDGE_LOOP('',(#221));
#839=EDGE_LOOP('',(#222));
#840=EDGE_LOOP('',(#223));
#841=EDGE_LOOP('',(#224));
#842=EDGE_LOOP('',(#225));
#843=EDGE_LOOP('',(#226));
#844=EDGE_LOOP('',(#227));
#845=EDGE_LOOP('',(#228));
#846=EDGE_LOOP('',(#229));
#847=EDGE_LOOP('',(#230));
#848=EDGE_LOOP('',(#231));
#849=EDGE_LOOP('',(#232));
#850=EDGE_LOOP('',(#233));
#851=EDGE_LOOP('',(#234));
#852=EDGE_LOOP('',(#235));
#853=EDGE_LOOP('',(#236));
#854=EDGE_LOOP('',(#237));
#855=EDGE_LOOP('',(#238));
#856=EDGE_LOOP('',(#239));
#857=EDGE_LOOP('',(#240));
#858=EDGE_LOOP('',(#241));
#859=EDGE_LOOP('',(#242));
#860=EDGE_LOOP('',(#243));
#861=EDGE_LOOP('',(#244));
#862=EDGE_LOOP('',(#245,#246,#247,#248));
#863=EDGE_LOOP('',(#249,#250,#251,#252,#253,#254,#255,#256,#257));
#864=EDGE_LOOP('',(#258,#259,#260,#261,#262,#263));
#865=EDGE_LOOP('',(#264,#265,#266,#267,#268,#269,#270,#271));
#866=EDGE_LOOP('',(#272,#273,#274,#275,#276,#277));
#867=EDGE_LOOP('',(#278,#279,#280,#281,#282,#283));
#868=EDGE_LOOP('',(#284,#285,#286,#287));
#869=EDGE_LOOP('',(#288,#289,#290,#291,#292,#293,#294));
#870=EDGE_LOOP('',(#295,#296,#297,#298));
#871=EDGE_LOOP('',(#299,#300,#301,#302,#303,#304));
#872=EDGE_LOOP('',(#305));
#873=EDGE_LOOP('',(#306));
#874=EDGE_LOOP('',(#307,#308,#309,#310));
#875=EDGE_LOOP('',(#311));
#876=EDGE_LOOP('',(#312,#313,#314,#315));
#877=EDGE_LOOP('',(#316,#317,#318,#319));
#878=EDGE_LOOP('',(#320,#321,#322,#323));
#879=EDGE_LOOP('',(#324,#325,#326,#327));
#880=EDGE_LOOP('',(#328,#329,#330,#331));
#881=EDGE_LOOP('',(#332,#333,#334,#335));
#882=FACE_BOUND('',#792,.T.);
#883=FACE_BOUND('',#793,.T.);
#884=FACE_BOUND('',#794,.T.);
#885=FACE_BOUND('',#795,.T.);
#886=FACE_BOUND('',#796,.T.);
#887=FACE_BOUND('',#797,.T.);
#888=FACE_BOUND('',#798,.T.);
#889=FACE_BOUND('',#799,.T.);
#890=FACE_BOUND('',#800,.T.);
#891=FACE_BOUND('',#801,.T.);
#892=FACE_BOUND('',#802,.T.);
#893=FACE_BOUND('',#803,.T.);
#894=FACE_BOUND('',#804,.T.);
#895=FACE_BOUND('',#805,.T.);
#896=FACE_BOUND('',#806,.T.);
#897=FACE_BOUND('',#807,.T.);
#898=FACE_BOUND('',#808,.T.);
#899=FACE_BOUND('',#809,.T.);
#900=FACE_BOUND('',#810,.T.);
#901=FACE_BOUND('',#811,.T.);
#902=FACE_BOUND('',#812,.T.);
#903=FACE_BOUND('',#813,.T.);
#904=FACE_BOUND('',#814,.T.);
#905=FACE_BOUND('',#815,.T.);
#906=FACE_BOUND('',#816,.T.);
#907=FACE_BOUND('',#817,.T.);
#908=FACE_BOUND('',#818,.T.);
#909=FACE_BOUND('',#819,.T.);
#910=FACE_BOUND('',#820,.T.);
#911=FACE_BOUND('',#821,.T.);
#912=FACE_BOUND('',#822,.T.);
#913=FACE_BOUND('',#823,.T.);
#914=FACE_BOUND('',#824,.T.);
#915=FACE_BOUND('',#825,.T.);
#916=FACE_BOUND('',#826,.T.);
#917=FACE_BOUND('',#827,.T.);
#918=FACE_BOUND('',#828,.T.);
#919=FACE_BOUND('',#829,.T.);
#920=FACE_BOUND('',#830,.T.);
#921=FACE_BOUND('',#831,.T.);
#922=FACE_BOUND('',#832,.T.);
#923=FACE_BOUND('',#833,.T.);
#924=FACE_BOUND('',#834,.T.);
#925=FACE_BOUND('',#835,.T.);
#926=FACE_BOUND('',#836,.T.);
#927=FACE_BOUND('',#837,.T.);
#928=FACE_BOUND('',#838,.T.);
#929=FACE_BOUND('',#839,.T.);
#930=FACE_BOUND('',#840,.T.);
#931=FACE_BOUND('',#841,.T.);
#932=FACE_BOUND('',#842,.T.);
#933=FACE_BOUND('',#843,.T.);
#934=FACE_BOUND('',#844,.T.);
#935=FACE_BOUND('',#845,.T.);
#936=FACE_BOUND('',#846,.T.);
#937=FACE_BOUND('',#847,.T.);
#938=FACE_BOUND('',#848,.T.);
#939=FACE_BOUND('',#849,.T.);
#940=FACE_BOUND('',#850,.T.);
#941=FACE_BOUND('',#851,.T.);
#942=FACE_BOUND('',#852,.T.);
#943=FACE_BOUND('',#853,.T.);
#944=FACE_BOUND('',#854,.T.);
#945=FACE_BOUND('',#855,.T.);
#946=FACE_BOUND('',#856,.T.);
#947=FACE_BOUND('',#857,.T.);
#948=FACE_BOUND('',#858,.T.);
#949=FACE_BOUND('',#859,.T.);
#950=FACE_BOUND('',#860,.T.);
#951=FACE_BOUND('',#861,.T.);
#952=FACE_BOUND('',#862,.T.);
#953=FACE_BOUND('',#863,.T.);
#954=FACE_BOUND('',#864,.T.);
#955=FACE_BOUND('',#865,.T.);
#956=FACE_BOUND('',#866,.T.);
#957=FACE_BOUND('',#867,.T.);
#958=FACE_BOUND('',#868,.T.);
#959=FACE_BOUND('',#869,.T.);
#960=FACE_BOUND('',#870,.T.);
#961=FACE_BOUND('',#871,.T.);
#962=FACE_BOUND('',#872,.T.);
#963=FACE_BOUND('',#873,.T.);
#964=FACE_BOUND('',#874,.T.);
#965=FACE_BOUND('',#875,.T.);
#966=FACE_BOUND('',#876,.T.);
#967=FACE_BOUND('',#877,.T.);
#968=FACE_BOUND('',#878,.T.);
#969=FACE_BOUND('',#879,.T.);
#970=FACE_BOUND('',#880,.T.);
#971=FACE_BOUND('',#881,.T.);
#972=PLANE('',#1086);
#973=PLANE('',#1087);
#974=PLANE('',#1088);
#975=PLANE('',#1089);
#976=PLANE('',#1091);
#977=PLANE('',#1092);
#978=PLANE('',#1093);
#979=PLANE('',#1096);
#980=PLANE('',#1103);
#981=PLANE('',#1104);
#982=PLANE('',#1107);
#983=PLANE('',#1111);
#984=PLANE('',#1116);
#985=PLANE('',#1117);
#986=PLANE('',#1118);
#987=PLANE('',#1119);
#988=PLANE('',#1120);
#989=PLANE('',#1121);
#990=PLANE('',#1122);
#991=PLANE('',#1125);
#992=PLANE('',#1132);
#993=PLANE('',#1138);
#994=PLANE('',#1144);
#995=PLANE('',#1150);
#996=PLANE('',#1151);
#997=PLANE('',#1152);
#998=PLANE('',#1153);
#999=PLANE('',#1154);
#1000=PLANE('',#1155);
#1001=PLANE('',#1156);
#1002=PLANE('',#1157);
#1003=PLANE('',#1158);
#1004=PLANE('',#1159);
#1005=PLANE('',#1160);
#1006=PLANE('',#1161);
#1007=PLANE('',#1162);
#1008=PLANE('',#1164);
#1009=PLANE('',#1165);
#1010=PLANE('',#1168);
#1011=PLANE('',#1169);
#1012=PLANE('',#1172);
#1013=PLANE('',#1173);
#1014=PLANE('',#1174);
#1015=ADVANCED_FACE('',(#882),#972,.T.);
#1016=ADVANCED_FACE('',(#883),#973,.F.);
#1017=ADVANCED_FACE('',(#884),#974,.F.);
#1018=ADVANCED_FACE('',(#885,#886),#975,.F.);
#1019=ADVANCED_FACE('',(#887),#976,.T.);
#1020=ADVANCED_FACE('',(#888),#977,.F.);
#1021=ADVANCED_FACE('',(#889,#890,#891,#892),#978,.T.);
#1022=ADVANCED_FACE('',(#893,#894,#895,#896,#897,#898,#899),#979,.T.);
#1023=ADVANCED_FACE('',(#900),#980,.T.);
#1024=ADVANCED_FACE('',(#901),#981,.T.);
#1025=ADVANCED_FACE('',(#902),#982,.F.);
#1026=ADVANCED_FACE('',(#903,#904),#12,.F.);
#1027=ADVANCED_FACE('',(#905),#983,.F.);
#1028=ADVANCED_FACE('',(#906,#907),#13,.F.);
#1029=ADVANCED_FACE('',(#908,#909,#910),#984,.T.);
#1030=ADVANCED_FACE('',(#911,#912,#913),#985,.F.);
#1031=ADVANCED_FACE('',(#914),#986,.F.);
#1032=ADVANCED_FACE('',(#915),#987,.T.);
#1033=ADVANCED_FACE('',(#916),#988,.F.);
#1034=ADVANCED_FACE('',(#917),#989,.F.);
#1035=ADVANCED_FACE('',(#918),#990,.T.);
#1036=ADVANCED_FACE('',(#919,#920),#14,.F.);
#1037=ADVANCED_FACE('',(#921),#991,.T.);
#1038=ADVANCED_FACE('',(#922,#923),#15,.F.);
#1039=ADVANCED_FACE('',(#924,#925),#16,.F.);
#1040=ADVANCED_FACE('',(#926,#927),#17,.T.);
#1041=ADVANCED_FACE('',(#928,#929),#992,.T.);
#1042=ADVANCED_FACE('',(#930,#931),#18,.F.);
#1043=ADVANCED_FACE('',(#932,#933),#19,.T.);
#1044=ADVANCED_FACE('',(#934,#935),#993,.T.);
#1045=ADVANCED_FACE('',(#936,#937),#20,.F.);
#1046=ADVANCED_FACE('',(#938,#939),#21,.T.);
#1047=ADVANCED_FACE('',(#940,#941),#994,.T.);
#1048=ADVANCED_FACE('',(#942,#943),#22,.F.);
#1049=ADVANCED_FACE('',(#944,#945),#23,.T.);
#1050=ADVANCED_FACE('',(#946,#947),#995,.T.);
#1051=ADVANCED_FACE('',(#948),#996,.T.);
#1052=ADVANCED_FACE('',(#949),#997,.T.);
#1053=ADVANCED_FACE('',(#950),#998,.T.);
#1054=ADVANCED_FACE('',(#951),#999,.T.);
#1055=ADVANCED_FACE('',(#952),#1000,.F.);
#1056=ADVANCED_FACE('',(#953),#1001,.T.);
#1057=ADVANCED_FACE('',(#954),#1002,.T.);
#1058=ADVANCED_FACE('',(#955),#1003,.T.);
#1059=ADVANCED_FACE('',(#956),#1004,.F.);
#1060=ADVANCED_FACE('',(#957),#1005,.F.);
#1061=ADVANCED_FACE('',(#958),#1006,.T.);
#1062=ADVANCED_FACE('',(#959),#1007,.F.);
#1063=ADVANCED_FACE('',(#960),#1008,.F.);
#1064=ADVANCED_FACE('',(#961),#1009,.T.);
#1065=ADVANCED_FACE('',(#962,#963),#24,.F.);
#1066=ADVANCED_FACE('',(#964),#1010,.T.);
#1067=ADVANCED_FACE('',(#965,#966),#1011,.T.);
#1068=ADVANCED_FACE('',(#967),#25,.F.);
#1069=ADVANCED_FACE('',(#968),#26,.F.);
#1070=ADVANCED_FACE('',(#969),#1012,.T.);
#1071=ADVANCED_FACE('',(#970),#1013,.T.);
#1072=ADVANCED_FACE('',(#971),#1014,.F.);
#1073=CLOSED_SHELL('',(#1015,#1016,#1017,#1018,#1019,#1020,#1021,#1022,
#1023,#1024,#1025,#1026,#1027,#1028,#1029,#1030,#1031,#1032,#1033,#1034,
#1035,#1036,#1037,#1038,#1039,#1040,#1041,#1042,#1043,#1044,#1045,#1046,
#1047,#1048,#1049,#1050,#1051,#1052,#1053,#1054,#1055,#1056,#1057,#1058,
#1059,#1060,#1061,#1062,#1063,#1064,#1065,#1066,#1067,#1068,#1069,#1070,
#1071,#1072));
#1074=STYLED_ITEM('',(#1075),#1082);
#1075=PRESENTATION_STYLE_ASSIGNMENT((#1076));
#1076=SURFACE_STYLE_USAGE(.BOTH.,#1077);
#1077=SURFACE_SIDE_STYLE('',(#1078));
#1078=SURFACE_STYLE_FILL_AREA(#1079);
#1079=FILL_AREA_STYLE('',(#1080));
#1080=FILL_AREA_STYLE_COLOUR('',#1081);
#1081=COLOUR_RGB('',0.901960784313726,0.901960784313726,0.901960784313726);
#1082=MANIFOLD_SOLID_BREP('Electronics Cover',#1073);
#1083=SHAPE_DEFINITION_REPRESENTATION(#1768,#1084);
#1084=SHAPE_REPRESENTATION('Electronics Cover',(#1085),#1763);
#1085=AXIS2_PLACEMENT_3D('',#1463,#1175,#1176);
#1086=AXIS2_PLACEMENT_3D('',#1464,#1177,#1178);
#1087=AXIS2_PLACEMENT_3D('',#1477,#1185,#1186);
#1088=AXIS2_PLACEMENT_3D('',#1494,#1195,#1196);
#1089=AXIS2_PLACEMENT_3D('',#1508,#1204,#1205);
#1090=AXIS2_PLACEMENT_3D('',#1517,#1210,#1211);
#1091=AXIS2_PLACEMENT_3D('',#1519,#1212,#1213);
#1092=AXIS2_PLACEMENT_3D('',#1525,#1217,#1218);
#1093=AXIS2_PLACEMENT_3D('',#1539,#1226,#1227);
#1094=AXIS2_PLACEMENT_3D('',#1540,#1228,#1229);
#1095=AXIS2_PLACEMENT_3D('',#1542,#1230,#1231);
#1096=AXIS2_PLACEMENT_3D('',#1558,#1240,#1241);
#1097=AXIS2_PLACEMENT_3D('',#1559,#1242,#1243);
#1098=AXIS2_PLACEMENT_3D('',#1561,#1244,#1245);
#1099=AXIS2_PLACEMENT_3D('',#1563,#1246,#1247);
#1100=AXIS2_PLACEMENT_3D('',#1565,#1248,#1249);
#1101=AXIS2_PLACEMENT_3D('',#1567,#1250,#1251);
#1102=AXIS2_PLACEMENT_3D('',#1573,#1254,#1255);
#1103=AXIS2_PLACEMENT_3D('',#1590,#1264,#1265);
#1104=AXIS2_PLACEMENT_3D('',#1601,#1272,#1273);
#1105=AXIS2_PLACEMENT_3D('',#1608,#1277,#1278);
#1106=AXIS2_PLACEMENT_3D('',#1611,#1280,#1281);
#1107=AXIS2_PLACEMENT_3D('',#1617,#1285,#1286);
#1108=AXIS2_PLACEMENT_3D('',#1623,#1290,#1291);
#1109=AXIS2_PLACEMENT_3D('',#1624,#1292,#1293);
#1110=AXIS2_PLACEMENT_3D('',#1626,#1294,#1295);
#1111=AXIS2_PLACEMENT_3D('',#1628,#1296,#1297);
#1112=AXIS2_PLACEMENT_3D('',#1637,#1303,#1304);
#1113=AXIS2_PLACEMENT_3D('',#1640,#1306,#1307);
#1114=AXIS2_PLACEMENT_3D('',#1641,#1308,#1309);
#1115=AXIS2_PLACEMENT_3D('',#1643,#1310,#1311);
#1116=AXIS2_PLACEMENT_3D('',#1645,#1312,#1313);
#1117=AXIS2_PLACEMENT_3D('',#1647,#1315,#1316);
#1118=AXIS2_PLACEMENT_3D('',#1656,#1322,#1323);
#1119=AXIS2_PLACEMENT_3D('',#1658,#1325,#1326);
#1120=AXIS2_PLACEMENT_3D('',#1661,#1329,#1330);
#1121=AXIS2_PLACEMENT_3D('',#1663,#1332,#1333);
#1122=AXIS2_PLACEMENT_3D('',#1665,#1335,#1336);
#1123=AXIS2_PLACEMENT_3D('',#1666,#1337,#1338);
#1124=AXIS2_PLACEMENT_3D('',#1667,#1339,#1340);
#1125=AXIS2_PLACEMENT_3D('',#1668,#1341,#1342);
#1126=AXIS2_PLACEMENT_3D('',#1669,#1343,#1344);
#1127=AXIS2_PLACEMENT_3D('',#1670,#1345,#1346);
#1128=AXIS2_PLACEMENT_3D('',#1671,#1347,#1348);
#1129=AXIS2_PLACEMENT_3D('',#1673,#1349,#1350);
#1130=AXIS2_PLACEMENT_3D('',#1675,#1351,#1352);
#1131=AXIS2_PLACEMENT_3D('',#1676,#1353,#1354);
#1132=AXIS2_PLACEMENT_3D('',#1678,#1355,#1356);
#1133=AXIS2_PLACEMENT_3D('',#1679,#1357,#1358);
#1134=AXIS2_PLACEMENT_3D('',#1680,#1359,#1360);
#1135=AXIS2_PLACEMENT_3D('',#1682,#1361,#1362);
#1136=AXIS2_PLACEMENT_3D('',#1684,#1363,#1364);
#1137=AXIS2_PLACEMENT_3D('',#1685,#1365,#1366);
#1138=AXIS2_PLACEMENT_3D('',#1687,#1367,#1368);
#1139=AXIS2_PLACEMENT_3D('',#1688,#1369,#1370);
#1140=AXIS2_PLACEMENT_3D('',#1689,#1371,#1372);
#1141=AXIS2_PLACEMENT_3D('',#1691,#1373,#1374);
#1142=AXIS2_PLACEMENT_3D('',#1693,#1375,#1376);
#1143=AXIS2_PLACEMENT_3D('',#1694,#1377,#1378);
#1144=AXIS2_PLACEMENT_3D('',#1696,#1379,#1380);
#1145=AXIS2_PLACEMENT_3D('',#1697,#1381,#1382);
#1146=AXIS2_PLACEMENT_3D('',#1698,#1383,#1384);
#1147=AXIS2_PLACEMENT_3D('',#1700,#1385,#1386);
#1148=AXIS2_PLACEMENT_3D('',#1702,#1387,#1388);
#1149=AXIS2_PLACEMENT_3D('',#1703,#1389,#1390);
#1150=AXIS2_PLACEMENT_3D('',#1705,#1391,#1392);
#1151=AXIS2_PLACEMENT_3D('',#1706,#1393,#1394);
#1152=AXIS2_PLACEMENT_3D('',#1707,#1395,#1396);
#1153=AXIS2_PLACEMENT_3D('',#1708,#1397,#1398);
#1154=AXIS2_PLACEMENT_3D('',#1709,#1399,#1400);
#1155=AXIS2_PLACEMENT_3D('',#1710,#1401,#1402);
#1156=AXIS2_PLACEMENT_3D('',#1716,#1406,#1407);
#1157=AXIS2_PLACEMENT_3D('',#1724,#1413,#1414);
#1158=AXIS2_PLACEMENT_3D('',#1730,#1418,#1419);
#1159=AXIS2_PLACEMENT_3D('',#1735,#1423,#1424);
#1160=AXIS2_PLACEMENT_3D('',#1736,#1425,#1426);
#1161=AXIS2_PLACEMENT_3D('',#1739,#1429,#1430);
#1162=AXIS2_PLACEMENT_3D('',#1740,#1431,#1432);
#1163=AXIS2_PLACEMENT_3D('',#1745,#1435,#1436);
#1164=AXIS2_PLACEMENT_3D('',#1746,#1437,#1438);
#1165=AXIS2_PLACEMENT_3D('',#1748,#1440,#1441);
#1166=AXIS2_PLACEMENT_3D('',#1750,#1443,#1444);
#1167=AXIS2_PLACEMENT_3D('',#1751,#1445,#1446);
#1168=AXIS2_PLACEMENT_3D('',#1753,#1447,#1448);
#1169=AXIS2_PLACEMENT_3D('',#1755,#1450,#1451);
#1170=AXIS2_PLACEMENT_3D('',#1757,#1453,#1454);
#1171=AXIS2_PLACEMENT_3D('',#1758,#1455,#1456);
#1172=AXIS2_PLACEMENT_3D('',#1759,#1457,#1458);
#1173=AXIS2_PLACEMENT_3D('',#1760,#1459,#1460);
#1174=AXIS2_PLACEMENT_3D('',#1761,#1461,#1462);
#1175=DIRECTION('',(0.,0.,1.));
#1176=DIRECTION('',(1.,0.,0.));
#1177=DIRECTION('',(-7.15349887000745E-17,0.,1.));
#1178=DIRECTION('',(1.,0.,7.15349887000745E-17));
#1179=DIRECTION('',(0.,1.,0.));
#1180=DIRECTION('',(-1.,0.,-7.15349887000745E-17));
#1181=DIRECTION('',(0.,-1.,0.));
#1182=DIRECTION('',(1.,2.77555756156289E-16,7.15349887000745E-17));
#1183=DIRECTION('',(0.,-1.,0.));
#1184=DIRECTION('',(1.,0.,7.15349887000745E-17));
#1185=DIRECTION('',(-0.707106781186548,0.,-0.707106781186548));
#1186=DIRECTION('',(-0.707106781186548,0.,0.707106781186548));
#1187=DIRECTION('',(-0.707106781186548,-1.2266347333467E-16,0.707106781186548));
#1188=DIRECTION('',(0.,-1.,0.));
#1189=DIRECTION('',(-0.707106781186548,0.,0.707106781186548));
#1190=DIRECTION('',(0.,1.,0.));
#1191=DIRECTION('',(-0.707106781186548,-1.06663889856235E-16,0.707106781186548));
#1192=DIRECTION('',(0.,-1.,0.));
#1193=DIRECTION('',(0.707106781186548,0.,-0.707106781186548));
#1194=DIRECTION('',(0.,1.,0.));
#1195=DIRECTION('',(0.,0.,-1.));
#1196=DIRECTION('',(-1.,0.,0.));
#1197=DIRECTION('',(0.,-1.,0.));
#1198=DIRECTION('',(-1.,0.,0.));
#1199=DIRECTION('',(0.,-1.,0.));
#1200=DIRECTION('',(1.,0.,0.));
#1201=DIRECTION('',(0.,-1.,0.));
#1202=DIRECTION('',(1.,0.,0.));
#1203=DIRECTION('',(1.,1.50845519650157E-16,0.));
#1204=DIRECTION('',(0.,-1.,0.));
#1205=DIRECTION('',(1.,0.,0.));
#1206=DIRECTION('',(0.,0.,1.));
#1207=DIRECTION('',(-1.,0.,0.));
#1208=DIRECTION('',(3.46944695195361E-16,0.,-1.));
#1209=DIRECTION('',(1.,0.,0.));
#1210=DIRECTION('',(0.,-1.,0.));
#1211=DIRECTION('',(0.,0.,-1.));
#1212=DIRECTION('',(-7.15349887000745E-17,0.,1.));
#1213=DIRECTION('',(1.,0.,7.15349887000745E-17));
#1214=DIRECTION('',(-1.,-1.7347234759768E-16,-7.15349887000745E-17));
#1215=DIRECTION('',(0.,1.,0.));
#1216=DIRECTION('',(1.,0.,7.15349887000745E-17));
#1217=DIRECTION('',(1.,0.,7.15349887000745E-17));
#1218=DIRECTION('',(7.15349887000745E-17,0.,-1.));
#1219=DIRECTION('',(7.15349887000745E-17,0.,-1.));
#1220=DIRECTION('',(0.,1.,0.));
#1221=DIRECTION('',(7.15349887000745E-17,0.,-1.));
#1222=DIRECTION('',(0.,-1.,0.));
#1223=DIRECTION('',(7.15349887000745E-17,0.,-1.));
#1224=DIRECTION('',(5.05828756019258E-17,-0.707106781186547,-0.707106781186548));
#1225=DIRECTION('',(0.,-1.,0.));
#1226=DIRECTION('',(0.,-1.,0.));
#1227=DIRECTION('',(1.,0.,0.));
#1228=DIRECTION('',(0.,-1.,0.));
#1229=DIRECTION('',(0.,0.,-1.));
#1230=DIRECTION('',(0.,-1.,0.));
#1231=DIRECTION('',(0.,0.,-1.));
#1232=DIRECTION('',(-2.08166817117217E-16,0.,1.));
#1233=DIRECTION('',(1.,0.,0.));
#1234=DIRECTION('',(0.,0.,1.));
#1235=DIRECTION('',(3.30423519233678E-16,0.,-1.));
#1236=DIRECTION('',(1.,0.,0.));
#1237=DIRECTION('',(0.,0.,1.));
#1238=DIRECTION('',(1.,0.,0.));
#1239=DIRECTION('',(0.,0.,1.));
#1240=DIRECTION('',(-2.77555756156289E-16,1.,-1.98549478802808E-32));
#1241=DIRECTION('',(-1.,-2.77555756156289E-16,0.));
#1242=DIRECTION('',(-2.77555756156289E-16,1.,-1.98549478802808E-32));
#1243=DIRECTION('',(-1.,-2.77555756156289E-16,0.));
#1244=DIRECTION('',(-2.77555756156289E-16,1.,-1.98549478802808E-32));
#1245=DIRECTION('',(-1.,-2.77555756156289E-16,0.));
#1246=DIRECTION('',(-2.77555756156289E-16,1.,-1.98549478802808E-32));
#1247=DIRECTION('',(-1.,-2.77555756156289E-16,0.));
#1248=DIRECTION('',(-2.77555756156289E-16,1.,-1.98549478802808E-32));
#1249=DIRECTION('',(-1.,-2.77555756156289E-16,0.));
#1250=DIRECTION('',(-2.77555756156289E-16,1.,-1.98549478802808E-32));
#1251=DIRECTION('',(-1.,-2.77555756156289E-16,0.));
#1252=DIRECTION('',(-0.707106781186549,-1.96261557335472E-16,-0.707106781186546));
#1253=DIRECTION('',(1.,2.77555756156289E-16,7.15349887000745E-17));
#1254=DIRECTION('',(-2.77555756156289E-16,1.,-1.98549478802808E-32));
#1255=DIRECTION('',(-1.,-2.77555756156289E-16,0.));
#1256=DIRECTION('',(1.,2.77555756156289E-16,7.15349887000745E-17));
#1257=DIRECTION('',(7.15349887000745E-17,0.,-1.));
#1258=DIRECTION('',(1.,0.,0.));
#1259=DIRECTION('',(3.30423519233678E-16,0.,-1.));
#1260=DIRECTION('',(-1.,-2.77555756156289E-16,0.));
#1261=DIRECTION('',(0.,-1.98549478802808E-32,-1.));
#1262=DIRECTION('',(-1.,-2.77555756156289E-16,0.));
#1263=DIRECTION('',(0.,-1.98549478802808E-32,-1.));
#1264=DIRECTION('',(-7.15349887000745E-17,0.,1.));
#1265=DIRECTION('',(1.,0.,7.15349887000745E-17));
#1266=DIRECTION('',(0.,1.,0.));
#1267=DIRECTION('',(1.,0.,7.15349887000745E-17));
#1268=DIRECTION('',(0.,1.,0.));
#1269=DIRECTION('',(0.,-1.,0.));
#1270=DIRECTION('',(1.,0.,7.15349887000745E-17));
#1271=DIRECTION('',(0.,-1.,0.));
#1272=DIRECTION('',(-1.,0.,-2.08166817117217E-16));
#1273=DIRECTION('',(-2.08166817117217E-16,0.,1.));
#1274=DIRECTION('',(-2.08166817117217E-16,0.,1.));
#1275=DIRECTION('',(0.,1.,0.));
#1276=DIRECTION('',(-2.08166817117217E-16,0.,1.));
#1277=DIRECTION('',(-1.,0.,-2.08166817117217E-16));
#1278=DIRECTION('',(-2.08166817117217E-16,0.,1.));
#1279=DIRECTION('',(0.,1.,0.));
#1280=DIRECTION('',(-1.,0.,-2.08166817117217E-16));
#1281=DIRECTION('',(-2.08166817117217E-16,0.,1.));
#1282=DIRECTION('',(0.,0.,1.));
#1283=DIRECTION('',(0.,-1.,0.));
#1284=DIRECTION('',(0.,-1.,0.));
#1285=DIRECTION('',(0.,0.,1.));
#1286=DIRECTION('',(1.,0.,0.));
#1287=DIRECTION('',(1.,0.,0.));
#1288=DIRECTION('',(0.,1.,0.));
#1289=DIRECTION('',(1.,0.,0.));
#1290=DIRECTION('',(0.,1.,0.));
#1291=DIRECTION('',(0.,0.,1.));
#1292=DIRECTION('',(0.,-1.,0.));
#1293=DIRECTION('',(0.,0.,-1.));
#1294=DIRECTION('',(0.,-1.,0.));
#1295=DIRECTION('',(0.,0.,-1.));
#1296=DIRECTION('',(-1.,0.,0.));
#1297=DIRECTION('',(0.,0.,1.));
#1298=DIRECTION('',(0.,0.,1.));
#1299=DIRECTION('',(7.15349887000745E-17,0.,-1.));
#1300=DIRECTION('',(0.,1.,0.));
#1301=DIRECTION('',(0.,0.707106781186547,0.707106781186548));
#1302=DIRECTION('',(0.,1.,0.));
#1303=DIRECTION('',(-1.,0.,0.));
#1304=DIRECTION('',(0.,0.,1.));
#1305=DIRECTION('',(0.,0.,1.));
#1306=DIRECTION('',(0.,1.,0.));
#1307=DIRECTION('',(0.,0.,1.));
#1308=DIRECTION('',(0.,-1.,0.));
#1309=DIRECTION('',(0.,0.,-1.));
#1310=DIRECTION('',(0.,-1.,0.));
#1311=DIRECTION('',(0.,0.,-1.));
#1312=DIRECTION('',(0.,-1.,0.));
#1313=DIRECTION('',(1.,0.,0.));
#1314=DIRECTION('',(1.,0.,0.));
#1315=DIRECTION('',(0.,-1.,0.));
#1316=DIRECTION('',(1.,0.,0.));
#1317=DIRECTION('',(-0.707106781186548,0.,0.707106781186548));
#1318=DIRECTION('',(0.,0.,1.));
#1319=DIRECTION('',(0.707106781186549,0.,0.707106781186546));
#1320=DIRECTION('',(0.707106781186548,0.,-0.707106781186548));
#1321=DIRECTION('',(1.,0.,0.));
#1322=DIRECTION('',(0.,0.,1.));
#1323=DIRECTION('',(1.,0.,0.));
#1324=DIRECTION('',(1.,0.,0.));
#1325=DIRECTION('',(1.,0.,0.));
#1326=DIRECTION('',(0.,0.,-1.));
#1327=DIRECTION('',(0.,-1.,0.));
#1328=DIRECTION('',(0.,-1.,0.));
#1329=DIRECTION('',(0.,0.,-1.));
#1330=DIRECTION('',(-1.,0.,0.));
#1331=DIRECTION('',(0.,-1.,0.));
#1332=DIRECTION('',(1.,0.,0.));
#1333=DIRECTION('',(0.,0.,-1.));
#1334=DIRECTION('',(0.,-1.,0.));
#1335=DIRECTION('',(0.,0.,-1.));
#1336=DIRECTION('',(-1.,0.,0.));
#1337=DIRECTION('',(0.,-1.,0.));
#1338=DIRECTION('',(0.,0.,-1.));
#1339=DIRECTION('',(0.,-1.,0.));
#1340=DIRECTION('',(0.,0.,-1.));
#1341=DIRECTION('',(0.,-1.,0.));
#1342=DIRECTION('',(1.,0.,0.));
#1343=DIRECTION('',(0.,-1.,0.));
#1344=DIRECTION('',(0.,0.,-1.));
#1345=DIRECTION('',(2.77555756156289E-16,-1.,1.98549478802808E-32));
#1346=DIRECTION('',(1.,2.77555756156289E-16,0.));
#1347=DIRECTION('',(-2.77555756156289E-16,1.,-1.98549478802808E-32));
#1348=DIRECTION('',(-1.,-2.77555756156289E-16,0.));
#1349=DIRECTION('',(-2.77555756156289E-16,1.,-1.98549478802808E-32));
#1350=DIRECTION('',(-1.,-2.77555756156289E-16,0.));
#1351=DIRECTION('',(2.77555756156289E-16,-1.,1.98549478802808E-32));
#1352=DIRECTION('',(1.,2.77555756156289E-16,0.));
#1353=DIRECTION('',(-2.77555756156289E-16,1.,-1.98549478802808E-32));
#1354=DIRECTION('',(-1.,-2.77555756156289E-16,0.));
#1355=DIRECTION('',(-2.77555756156289E-16,1.,-1.98549478802808E-32));
#1356=DIRECTION('',(-1.,-2.77555756156289E-16,5.51085507235505E-48));
#1357=DIRECTION('',(2.77555756156289E-16,-1.,1.98549478802808E-32));
#1358=DIRECTION('',(1.,2.77555756156289E-16,0.));
#1359=DIRECTION('',(-2.77555756156289E-16,1.,-1.98549478802808E-32));
#1360=DIRECTION('',(-1.,-2.77555756156289E-16,0.));
#1361=DIRECTION('',(-2.77555756156289E-16,1.,-1.98549478802808E-32));
#1362=DIRECTION('',(-1.,-2.77555756156289E-16,0.));
#1363=DIRECTION('',(2.77555756156289E-16,-1.,1.98549478802808E-32));
#1364=DIRECTION('',(1.,2.77555756156289E-16,0.));
#1365=DIRECTION('',(-2.77555756156289E-16,1.,-1.98549478802808E-32));
#1366=DIRECTION('',(-1.,-2.77555756156289E-16,0.));
#1367=DIRECTION('',(-2.77555756156289E-16,1.,-1.98549478802808E-32));
#1368=DIRECTION('',(-1.,-2.77555756156289E-16,5.51085507235505E-48));
#1369=DIRECTION('',(2.77555756156289E-16,-1.,1.98549478802808E-32));
#1370=DIRECTION('',(1.,2.77555756156289E-16,0.));
#1371=DIRECTION('',(-2.77555756156289E-16,1.,-1.98549478802808E-32));
#1372=DIRECTION('',(-1.,-2.77555756156289E-16,0.));
#1373=DIRECTION('',(-2.77555756156289E-16,1.,-1.98549478802808E-32));
#1374=DIRECTION('',(-1.,-2.77555756156289E-16,0.));
#1375=DIRECTION('',(2.77555756156289E-16,-1.,1.98549478802808E-32));
#1376=DIRECTION('',(1.,2.77555756156289E-16,0.));
#1377=DIRECTION('',(-2.77555756156289E-16,1.,-1.98549478802808E-32));
#1378=DIRECTION('',(-1.,-2.77555756156289E-16,0.));
#1379=DIRECTION('',(-2.77555756156289E-16,1.,-1.98549478802808E-32));
#1380=DIRECTION('',(-1.,-2.77555756156289E-16,5.51085507235505E-48));
#1381=DIRECTION('',(2.77555756156289E-16,-1.,1.98549478802808E-32));
#1382=DIRECTION('',(1.,2.77555756156289E-16,0.));
#1383=DIRECTION('',(-2.77555756156289E-16,1.,-1.98549478802808E-32));
#1384=DIRECTION('',(-1.,-2.77555756156289E-16,0.));
#1385=DIRECTION('',(-2.77555756156289E-16,1.,-1.98549478802808E-32));
#1386=DIRECTION('',(-1.,-2.77555756156289E-16,0.));
#1387=DIRECTION('',(2.77555756156289E-16,-1.,1.98549478802808E-32));
#1388=DIRECTION('',(1.,2.77555756156289E-16,0.));
#1389=DIRECTION('',(-2.77555756156289E-16,1.,-1.98549478802808E-32));
#1390=DIRECTION('',(-1.,-2.77555756156289E-16,0.));
#1391=DIRECTION('',(-2.77555756156289E-16,1.,-1.98549478802808E-32));
#1392=DIRECTION('',(-1.,-2.77555756156289E-16,5.51085507235505E-48));
#1393=DIRECTION('',(-2.77555756156289E-16,1.,-1.98549478802808E-32));
#1394=DIRECTION('',(-1.,-2.77555756156289E-16,0.));
#1395=DIRECTION('',(-2.77555756156289E-16,1.,-1.98549478802808E-32));
#1396=DIRECTION('',(-1.,-2.77555756156289E-16,0.));
#1397=DIRECTION('',(-2.77555756156289E-16,1.,-1.98549478802808E-32));
#1398=DIRECTION('',(-1.,-2.77555756156289E-16,0.));
#1399=DIRECTION('',(-2.77555756156289E-16,1.,-1.98549478802808E-32));
#1400=DIRECTION('',(-1.,-2.77555756156289E-16,0.));
#1401=DIRECTION('',(0.,0.,1.));
#1402=DIRECTION('',(1.,0.,0.));
#1403=DIRECTION('',(0.,-1.,0.));
#1404=DIRECTION('',(-1.,0.,0.));
#1405=DIRECTION('',(0.,-1.,0.));
#1406=DIRECTION('',(0.,-1.,0.));
#1407=DIRECTION('',(1.,0.,0.));
#1408=DIRECTION('',(-1.,0.,-7.15349887000745E-17));
#1409=DIRECTION('',(0.,0.,1.));
#1410=DIRECTION('',(1.,0.,0.));
#1411=DIRECTION('',(0.707106781186548,0.,-0.707106781186548));
#1412=DIRECTION('',(-0.707106781186548,0.,0.707106781186548));
#1413=DIRECTION('',(-0.707106781186548,0.,-0.707106781186548));
#1414=DIRECTION('',(-0.707106781186548,0.,0.707106781186548));
#1415=DIRECTION('',(-0.707106781186548,-1.06663889856235E-16,0.707106781186548));
#1416=DIRECTION('',(0.,1.,0.));
#1417=DIRECTION('',(0.,-1.,0.));
#1418=DIRECTION('',(0.,0.,-1.));
#1419=DIRECTION('',(-1.,0.,0.));
#1420=DIRECTION('',(0.,1.,0.));
#1421=DIRECTION('',(-1.,-1.50845519650157E-16,0.));
#1422=DIRECTION('',(0.,-1.,0.));
#1423=DIRECTION('',(-1.,0.,-3.30423519233678E-16));
#1424=DIRECTION('',(-3.30423519233678E-16,0.,1.));
#1425=DIRECTION('',(1.50845519650157E-16,-1.,0.));
#1426=DIRECTION('',(1.,1.50845519650157E-16,0.));
#1427=DIRECTION('',(0.,0.,1.));
#1428=DIRECTION('',(0.,0.,1.));
#1429=DIRECTION('',(-1.,0.,0.));
#1430=DIRECTION('',(0.,0.,1.));
#1431=DIRECTION('',(-1.,0.,0.));
#1432=DIRECTION('',(0.,0.,1.));
#1433=DIRECTION('',(0.,-1.,0.));
#1434=DIRECTION('',(0.,0.,1.));
#1435=DIRECTION('',(-1.,0.,0.));
#1436=DIRECTION('',(0.,0.,1.));
#1437=DIRECTION('',(1.7347234759768E-16,-1.,1.24093424251755E-32));
#1438=DIRECTION('',(1.,1.7347234759768E-16,0.));
#1439=DIRECTION('',(-1.,-1.7347234759768E-16,-7.15349887000745E-17));
#1440=DIRECTION('',(-7.15349887000745E-17,0.,1.));
#1441=DIRECTION('',(1.,0.,7.15349887000745E-17));
#1442=DIRECTION('',(-1.,0.,-7.15349887000745E-17));
#1443=DIRECTION('',(0.,-1.,0.));
#1444=DIRECTION('',(0.,0.,-1.));
#1445=DIRECTION('',(0.,-1.,0.));
#1446=DIRECTION('',(0.,0.,-1.));
#1447=DIRECTION('',(0.,0.,1.));
#1448=DIRECTION('',(1.,0.,0.));
#1449=DIRECTION('',(-1.,0.,0.));
#1450=DIRECTION('',(0.,-1.,0.));
#1451=DIRECTION('',(1.,0.,0.));
#1452=DIRECTION('',(-1.,0.,0.));
#1453=DIRECTION('',(1.,0.,0.));
#1454=DIRECTION('',(0.,0.,-1.));
#1455=DIRECTION('',(-1.,0.,0.));
#1456=DIRECTION('',(0.,0.,1.));
#1457=DIRECTION('',(-5.05828756019257E-17,-0.707106781186548,0.707106781186547));
#1458=DIRECTION('',(1.,0.,7.15349887000745E-17));
#1459=DIRECTION('',(-0.707106781186548,0.,-0.707106781186548));
#1460=DIRECTION('',(0.,1.,0.));
#1461=DIRECTION('',(0.707106781186546,0.,-0.707106781186549));
#1462=DIRECTION('',(0.,-1.,0.));
#1463=CARTESIAN_POINT('',(0.,0.,0.));
#1464=CARTESIAN_POINT('',(0.0445,-0.0205,0.12));
#1465=CARTESIAN_POINT('',(0.097,-0.005,0.12));
#1466=CARTESIAN_POINT('',(0.097,-0.041,0.12));
#1467=CARTESIAN_POINT('',(0.097,-0.034,0.12));
#1468=CARTESIAN_POINT('',(0.092,-0.034,0.12));
#1469=CARTESIAN_POINT('',(0.092,-0.034,0.12));
#1470=CARTESIAN_POINT('',(0.092,-0.018,0.12));
#1471=CARTESIAN_POINT('',(0.092,-0.036,0.12));
#1472=CARTESIAN_POINT('',(0.042,-0.036,0.12));
#1473=CARTESIAN_POINT('',(0.024,-0.036,0.12));
#1474=CARTESIAN_POINT('',(0.024,-0.036,0.12));
#1475=CARTESIAN_POINT('',(0.024,-0.041,0.12));
#1476=CARTESIAN_POINT('',(0.0485,-0.041,0.12));
#1477=CARTESIAN_POINT('',(0.048,1.99999999999853E-6,0.133));
#1478=CARTESIAN_POINT('',(0.048,-0.021,0.133));
#1479=CARTESIAN_POINT('',(0.061,-0.021,0.12));
#1480=CARTESIAN_POINT('',(0.0575,-0.021,0.1235));
#1481=CARTESIAN_POINT('',(0.061,1.99999999999853E-6,0.12));
#1482=CARTESIAN_POINT('',(0.061,0.,0.12));
#1483=CARTESIAN_POINT('',(0.048,0.,0.133));
#1484=CARTESIAN_POINT('',(0.049,1.7347234759768E-18,0.132));
#1485=CARTESIAN_POINT('',(0.049,1.99999999999853E-6,0.132));
#1486=CARTESIAN_POINT('',(0.049,-0.015,0.132));
#1487=CARTESIAN_POINT('',(0.048,-0.015,0.133));
#1488=CARTESIAN_POINT('',(0.035,-0.015,0.146));
#1489=CARTESIAN_POINT('',(0.035,1.99999999999853E-6,0.146));
#1490=CARTESIAN_POINT('',(0.035,-0.026,0.146));
#1491=CARTESIAN_POINT('',(0.048,-0.026,0.133));
#1492=CARTESIAN_POINT('',(0.0575,-0.026,0.1235));
#1493=CARTESIAN_POINT('',(0.0575,1.99999999999853E-6,0.1235));
#1494=CARTESIAN_POINT('',(0.0295,1.99999999999853E-6,0.146));
#1495=CARTESIAN_POINT('',(0.026,-0.0075,0.146));
#1496=CARTESIAN_POINT('',(0.026,-0.0115,0.146));
#1497=CARTESIAN_POINT('',(0.026,-0.015,0.146));
#1498=CARTESIAN_POINT('',(0.0295,-0.0115,0.146));
#1499=CARTESIAN_POINT('',(-0.008,-0.0115,0.146));
#1500=CARTESIAN_POINT('',(-0.008,2.000000000002E-6,0.146));
#1501=CARTESIAN_POINT('',(-0.008,-0.041,0.146));
#1502=CARTESIAN_POINT('',(0.022,-0.041,0.146));
#1503=CARTESIAN_POINT('',(0.024,-0.041,0.146));
#1504=CARTESIAN_POINT('',(0.024,2.000000000002E-6,0.146));
#1505=CARTESIAN_POINT('',(0.024,-0.026,0.146));
#1506=CARTESIAN_POINT('',(0.0295,-0.026,0.146));
#1507=CARTESIAN_POINT('',(0.0375,-0.015,0.146));
#1508=CARTESIAN_POINT('',(0.046,0.,0.0125));
#1509=CARTESIAN_POINT('',(0.026,0.,0.121));
#1510=CARTESIAN_POINT('',(0.026,0.,0.141));
#1511=CARTESIAN_POINT('',(0.026,0.,0.166));
#1512=CARTESIAN_POINT('',(0.0284644660940673,0.,0.141));
#1513=CARTESIAN_POINT('',(-0.008,0.,0.141));
#1514=CARTESIAN_POINT('',(-0.008,0.,0.1435));
#1515=CARTESIAN_POINT('',(-0.008,0.,0.166));
#1516=CARTESIAN_POINT('',(0.009,0.,0.166));
#1517=CARTESIAN_POINT('',(0.015,0.,0.156));
#1518=CARTESIAN_POINT('',(0.015,0.,0.1535));
#1519=CARTESIAN_POINT('',(0.0445,-0.0205,0.12));
#1520=CARTESIAN_POINT('',(0.077,-0.021,0.12));
#1521=CARTESIAN_POINT('',(0.097,-0.021,0.12));
#1522=CARTESIAN_POINT('',(0.097,-0.005,0.12));
#1523=CARTESIAN_POINT('',(0.097,0.,0.12));
#1524=CARTESIAN_POINT('',(0.0485,0.,0.12));
#1525=CARTESIAN_POINT('',(0.092,-0.018,0.12));
#1526=CARTESIAN_POINT('',(0.092,-0.026,0.12));
#1527=CARTESIAN_POINT('',(0.092,-0.026,0.1235));
#1528=CARTESIAN_POINT('',(0.092,-0.026,0.112));
#1529=CARTESIAN_POINT('',(0.092,0.,0.112));
#1530=CARTESIAN_POINT('',(0.092,0.,0.112));
#1531=CARTESIAN_POINT('',(0.092,0.,0.12));
#1532=CARTESIAN_POINT('',(0.092,0.,0.028));
#1533=CARTESIAN_POINT('',(0.092,-0.018,0.028));
#1534=CARTESIAN_POINT('',(0.092,-0.036,0.028));
#1535=CARTESIAN_POINT('',(0.092,-0.036,0.12));
#1536=CARTESIAN_POINT('',(0.092,-0.026,0.128));
#1537=CARTESIAN_POINT('',(0.092,-0.0305,0.1235));
#1538=CARTESIAN_POINT('',(0.092,-0.018,0.1235));
#1539=CARTESIAN_POINT('',(0.0445,-0.041,0.0125));
#1540=CARTESIAN_POINT('',(0.0632,-0.041,0.0668));
#1541=CARTESIAN_POINT('',(0.0632,-0.041,0.06445));
#1542=CARTESIAN_POINT('',(0.0632,-0.041,0.0268));
#1543=CARTESIAN_POINT('',(0.0632,-0.041,0.02445));
#1544=CARTESIAN_POINT('',(-0.008,-0.041,0.0125));
#1545=CARTESIAN_POINT('',(-0.008,-0.041,0.02));
#1546=CARTESIAN_POINT('',(0.0445,-0.041,0.02));
#1547=CARTESIAN_POINT('',(0.097,-0.041,0.02));
#1548=CARTESIAN_POINT('',(0.097,-0.041,0.0125));
#1549=CARTESIAN_POINT('',(0.024,-0.041,0.1305));
#1550=CARTESIAN_POINT('',(0.0632,-0.041,0.033));
#1551=CARTESIAN_POINT('',(0.0394,-0.041,0.033));
#1552=CARTESIAN_POINT('',(0.087,-0.041,0.033));
#1553=CARTESIAN_POINT('',(0.0394,-0.041,0.0468));
#1554=CARTESIAN_POINT('',(0.0394,-0.041,0.0606));
#1555=CARTESIAN_POINT('',(0.0632,-0.041,0.0606));
#1556=CARTESIAN_POINT('',(0.087,-0.041,0.0606));
#1557=CARTESIAN_POINT('',(0.087,-0.041,0.0468));
#1558=CARTESIAN_POINT('',(0.042,-0.036,0.12));
#1559=CARTESIAN_POINT('',(0.085,-0.036,0.076));
#1560=CARTESIAN_POINT('',(0.081,-0.036,0.076));
#1561=CARTESIAN_POINT('',(0.033,-0.036,0.076));
#1562=CARTESIAN_POINT('',(0.029,-0.036,0.076));
#1563=CARTESIAN_POINT('',(0.033,-0.036,0.113));
#1564=CARTESIAN_POINT('',(0.029,-0.036,0.113));
#1565=CARTESIAN_POINT('',(0.085,-0.036,0.113));
#1566=CARTESIAN_POINT('',(0.081,-0.036,0.113));
#1567=CARTESIAN_POINT('',(0.0632,-0.036,0.0668));
#1568=CARTESIAN_POINT('',(0.06085,-0.036,0.0668));
#1569=CARTESIAN_POINT('',(0.113,-0.036,0.049));
#1570=CARTESIAN_POINT('',(0.089,-0.036,0.025));
#1571=CARTESIAN_POINT('',(0.042,-0.036,0.025));
#1572=CARTESIAN_POINT('',(0.0647107944929738,-0.036,0.025));
#1573=CARTESIAN_POINT('',(0.0632,-0.036,0.0268));
#1574=CARTESIAN_POINT('',(0.0616892055070262,-0.036,0.025));
#1575=CARTESIAN_POINT('',(0.042,-0.036,0.025));
#1576=CARTESIAN_POINT('',(-0.008,-0.036,0.025));
#1577=CARTESIAN_POINT('',(-0.008,-0.036,0.12));
#1578=CARTESIAN_POINT('',(-0.008,-0.036,0.141));
#1579=CARTESIAN_POINT('',(0.008,-0.036,0.141));
#1580=CARTESIAN_POINT('',(0.024,-0.036,0.141));
#1581=CARTESIAN_POINT('',(0.024,-0.036,0.1305));
#1582=CARTESIAN_POINT('',(0.042,-0.036,0.0606));
#1583=CARTESIAN_POINT('',(0.087,-0.036,0.0606));
#1584=CARTESIAN_POINT('',(0.0394,-0.036,0.0606));
#1585=CARTESIAN_POINT('',(0.0394,-0.036,0.12));
#1586=CARTESIAN_POINT('',(0.0394,-0.036,0.033));
#1587=CARTESIAN_POINT('',(0.042,-0.036,0.033));
#1588=CARTESIAN_POINT('',(0.087,-0.036,0.033));
#1589=CARTESIAN_POINT('',(0.087,-0.036,0.12));
#1590=CARTESIAN_POINT('',(0.0485,-0.005,0.025));
#1591=CARTESIAN_POINT('',(0.089,-0.005,0.025));
#1592=CARTESIAN_POINT('',(0.089,0.,0.025));
#1593=CARTESIAN_POINT('',(0.0485,0.,0.025));
#1594=CARTESIAN_POINT('',(-0.008,0.,0.025));
#1595=CARTESIAN_POINT('',(-0.008,-0.005,0.025));
#1596=CARTESIAN_POINT('',(0.0616892055070262,-0.0262,0.025));
#1597=CARTESIAN_POINT('',(0.0616892055070262,-0.0262,0.025));
#1598=CARTESIAN_POINT('',(0.0485,-0.0262,0.025));
#1599=CARTESIAN_POINT('',(0.0647107944929738,-0.0262,0.025));
#1600=CARTESIAN_POINT('',(0.0647107944929738,-0.0262,0.025));
#1601=CARTESIAN_POINT('',(-0.008,-0.005,0.0125));
#1602=CARTESIAN_POINT('',(-0.008,0.,0.0125));
#1603=CARTESIAN_POINT('',(-0.008,0.,0.));
#1604=CARTESIAN_POINT('',(-0.008,-0.005,0.));
#1605=CARTESIAN_POINT('',(-0.008,-0.005,0.));
#1606=CARTESIAN_POINT('',(-0.008,-0.005,0.0125));
#1607=CARTESIAN_POINT('',(-0.008,-0.005,0.0135));
#1608=CARTESIAN_POINT('',(-0.008,-0.0115,0.0135));
#1609=CARTESIAN_POINT('',(-0.008,-0.0115,0.02));
#1610=CARTESIAN_POINT('',(-0.008,-0.041,0.02));
#1611=CARTESIAN_POINT('',(-0.008,-0.0115,0.1525));
#1612=CARTESIAN_POINT('',(-0.008,-0.005,0.1525));
#1613=CARTESIAN_POINT('',(-0.008,-0.005,0.156));
#1614=CARTESIAN_POINT('',(-0.008,-0.005,0.166));
#1615=CARTESIAN_POINT('',(-0.008,2.00000000000027E-6,0.166));
#1616=CARTESIAN_POINT('',(-0.008,2.000000000002E-6,0.141));
#1617=CARTESIAN_POINT('',(0.0485,-0.005,0.));
#1618=CARTESIAN_POINT('',(0.0485,0.,0.));
#1619=CARTESIAN_POINT('',(0.097,0.,3.46944695195361E-18));
#1620=CARTESIAN_POINT('',(0.097,-0.005,3.46944695195361E-18));
#1621=CARTESIAN_POINT('',(0.097,-0.005,3.46944695195361E-18));
#1622=CARTESIAN_POINT('',(0.0485,-0.005,0.));
#1623=CARTESIAN_POINT('',(0.015,-0.005,0.01));
#1624=CARTESIAN_POINT('',(0.015,-0.005,0.01));
#1625=CARTESIAN_POINT('',(0.015,-0.005,0.0075));
#1626=CARTESIAN_POINT('',(0.015,0.,0.01));
#1627=CARTESIAN_POINT('',(0.015,0.,0.0075));
#1628=CARTESIAN_POINT('',(0.097,-0.005,0.0125));
#1629=CARTESIAN_POINT('',(0.097,0.,0.0125));
#1630=CARTESIAN_POINT('',(0.097,-0.021,0.1235));
#1631=CARTESIAN_POINT('',(0.097,-0.021,0.1235));
#1632=CARTESIAN_POINT('',(0.097,-0.005,0.1235));
#1633=CARTESIAN_POINT('',(0.097,-0.0305,0.1235));
#1634=CARTESIAN_POINT('',(0.097,-0.07325,0.08075));
#1635=CARTESIAN_POINT('',(0.097,-0.041,0.02));
#1636=CARTESIAN_POINT('',(0.097,-0.0115,0.02));
#1637=CARTESIAN_POINT('',(0.097,-0.0115,0.0135));
#1638=CARTESIAN_POINT('',(0.097,-0.005,0.0135));
#1639=CARTESIAN_POINT('',(0.097,-0.005,0.0125));
#1640=CARTESIAN_POINT('',(0.085,-0.005,0.01));
#1641=CARTESIAN_POINT('',(0.085,-0.005,0.01));
#1642=CARTESIAN_POINT('',(0.085,-0.005,0.0075));
#1643=CARTESIAN_POINT('',(0.085,0.,0.01));
#1644=CARTESIAN_POINT('',(0.085,0.,0.0075));
#1645=CARTESIAN_POINT('',(0.046,-0.005,0.0125));
#1646=CARTESIAN_POINT('',(0.046,-0.005,0.0135));
#1647=CARTESIAN_POINT('',(0.046,0.,0.0125));
#1648=CARTESIAN_POINT('',(0.0459289321881345,0.,0.128));
#1649=CARTESIAN_POINT('',(0.0589289321881345,0.,0.115));
#1650=CARTESIAN_POINT('',(0.049,1.7347234759768E-18,0.124928932188135));
#1651=CARTESIAN_POINT('',(0.049,1.7347234759768E-18,0.121));
#1652=CARTESIAN_POINT('',(0.06125,0.,-0.00275));
#1653=CARTESIAN_POINT('',(0.11875,0.,0.08525));
#1654=CARTESIAN_POINT('',(0.089,0.,0.115));
#1655=CARTESIAN_POINT('',(0.0779644660940673,0.,0.115));
#1656=CARTESIAN_POINT('',(0.0445,-0.041,0.02));
#1657=CARTESIAN_POINT('',(0.0445,-0.0115,0.02));
#1658=CARTESIAN_POINT('',(0.0394,-0.0262,0.0468));
#1659=CARTESIAN_POINT('',(0.0394,-0.0262,0.0606));
#1660=CARTESIAN_POINT('',(0.0394,-0.0262,0.033));
#1661=CARTESIAN_POINT('',(0.0632,-0.0262,0.033));
#1662=CARTESIAN_POINT('',(0.087,-0.0262,0.033));
#1663=CARTESIAN_POINT('',(0.087,-0.0262,0.0468));
#1664=CARTESIAN_POINT('',(0.087,-0.0262,0.0606));
#1665=CARTESIAN_POINT('',(0.0632,-0.0262,0.0606));
#1666=CARTESIAN_POINT('',(0.0632,-0.0262,0.0268));
#1667=CARTESIAN_POINT('',(0.0632,-0.0262,0.0268));
#1668=CARTESIAN_POINT('',(0.0445,-0.0262,0.07));
#1669=CARTESIAN_POINT('',(0.0632,-0.0262,0.0668));
#1670=CARTESIAN_POINT('',(0.085,-0.033,0.113));
#1671=CARTESIAN_POINT('',(0.085,-0.033,0.113));
#1672=CARTESIAN_POINT('',(0.08365,-0.033,0.113));
#1673=CARTESIAN_POINT('',(0.085,-0.039,0.113));
#1674=CARTESIAN_POINT('',(0.08365,-0.039,0.113));
#1675=CARTESIAN_POINT('',(0.085,-0.033,0.113));
#1676=CARTESIAN_POINT('',(0.085,-0.033,0.113));
#1677=CARTESIAN_POINT('',(0.081,-0.033,0.113));
#1678=CARTESIAN_POINT('',(0.042,-0.033,0.0725));
#1679=CARTESIAN_POINT('',(0.033,-0.033,0.113));
#1680=CARTESIAN_POINT('',(0.033,-0.033,0.113));
#1681=CARTESIAN_POINT('',(0.03165,-0.033,0.113));
#1682=CARTESIAN_POINT('',(0.033,-0.039,0.113));
#1683=CARTESIAN_POINT('',(0.03165,-0.039,0.113));
#1684=CARTESIAN_POINT('',(0.033,-0.033,0.113));
#1685=CARTESIAN_POINT('',(0.033,-0.033,0.113));
#1686=CARTESIAN_POINT('',(0.029,-0.033,0.113));
#1687=CARTESIAN_POINT('',(0.042,-0.033,0.0725));
#1688=CARTESIAN_POINT('',(0.033,-0.033,0.076));
#1689=CARTESIAN_POINT('',(0.033,-0.033,0.076));
#1690=CARTESIAN_POINT('',(0.03165,-0.033,0.076));
#1691=CARTESIAN_POINT('',(0.033,-0.039,0.076));
#1692=CARTESIAN_POINT('',(0.03165,-0.039,0.076));
#1693=CARTESIAN_POINT('',(0.033,-0.033,0.076));
#1694=CARTESIAN_POINT('',(0.033,-0.033,0.076));
#1695=CARTESIAN_POINT('',(0.029,-0.033,0.076));
#1696=CARTESIAN_POINT('',(0.042,-0.033,0.0725));
#1697=CARTESIAN_POINT('',(0.085,-0.033,0.076));
#1698=CARTESIAN_POINT('',(0.085,-0.033,0.076));
#1699=CARTESIAN_POINT('',(0.08365,-0.033,0.076));
#1700=CARTESIAN_POINT('',(0.085,-0.039,0.076));
#1701=CARTESIAN_POINT('',(0.08365,-0.039,0.076));
#1702=CARTESIAN_POINT('',(0.085,-0.033,0.076));
#1703=CARTESIAN_POINT('',(0.085,-0.033,0.076));
#1704=CARTESIAN_POINT('',(0.081,-0.033,0.076));
#1705=CARTESIAN_POINT('',(0.042,-0.033,0.0725));
#1706=CARTESIAN_POINT('',(0.042,-0.039,0.12));
#1707=CARTESIAN_POINT('',(0.042,-0.039,0.12));
#1708=CARTESIAN_POINT('',(0.042,-0.039,0.12));
#1709=CARTESIAN_POINT('',(0.042,-0.039,0.12));
#1710=CARTESIAN_POINT('',(0.0779644660940673,1.99999999999853E-6,0.115));
#1711=CARTESIAN_POINT('',(0.089,-0.026,0.115));
#1712=CARTESIAN_POINT('',(0.089,-0.026,0.115));
#1713=CARTESIAN_POINT('',(0.0779644660940673,-0.026,0.115));
#1714=CARTESIAN_POINT('',(0.0589289321881345,-0.026,0.115));
#1715=CARTESIAN_POINT('',(0.0589289321881345,1.99999999999853E-6,0.115));
#1716=CARTESIAN_POINT('',(0.0445,-0.026,0.083));
#1717=CARTESIAN_POINT('',(0.077,-0.026,0.1235));
#1718=CARTESIAN_POINT('',(0.024,-0.026,0.1435));
#1719=CARTESIAN_POINT('',(0.024,-0.026,0.141));
#1720=CARTESIAN_POINT('',(0.0284644660940673,-0.026,0.141));
#1721=CARTESIAN_POINT('',(0.0329289321881346,-0.026,0.141));
#1722=CARTESIAN_POINT('',(0.0459289321881345,-0.026,0.128));
#1723=CARTESIAN_POINT('',(0.089,-0.026,0.115));
#1724=CARTESIAN_POINT('',(0.0459289321881345,1.99999999999853E-6,0.128));
#1725=CARTESIAN_POINT('',(0.0459289321881345,-0.015,0.128));
#1726=CARTESIAN_POINT('',(0.049,-0.015,0.124928932188135));
#1727=CARTESIAN_POINT('',(0.0329289321881346,-0.015,0.141));
#1728=CARTESIAN_POINT('',(0.049,1.99999999999853E-6,0.124928932188135));
#1729=CARTESIAN_POINT('',(0.0329289321881346,1.99999999999853E-6,0.141));
#1730=CARTESIAN_POINT('',(0.0284644660940673,1.99999999999853E-6,0.141));
#1731=CARTESIAN_POINT('',(0.026,1.99999999999853E-6,0.141));
#1732=CARTESIAN_POINT('',(0.026,-0.015,0.141));
#1733=CARTESIAN_POINT('',(0.0284644660940673,-0.015,0.141));
#1734=CARTESIAN_POINT('',(0.024,2.000000000002E-6,0.141));
#1735=CARTESIAN_POINT('',(0.024,-0.036,0.1305));
#1736=CARTESIAN_POINT('',(0.0375,-0.015,0.121));
#1737=CARTESIAN_POINT('',(0.026,-0.015,0.121));
#1738=CARTESIAN_POINT('',(0.049,-0.015,0.121));
#1739=CARTESIAN_POINT('',(0.049,-0.0075,0.121));
#1740=CARTESIAN_POINT('',(0.026,-0.0075,0.121));
#1741=CARTESIAN_POINT('',(0.026,2.00000000000027E-6,0.166));
#1742=CARTESIAN_POINT('',(0.026,-0.005,0.166));
#1743=CARTESIAN_POINT('',(0.026,-0.005,0.156));
#1744=CARTESIAN_POINT('',(0.026,-0.005,0.1525));
#1745=CARTESIAN_POINT('',(0.026,-0.0115,0.1525));
#1746=CARTESIAN_POINT('',(0.077,-0.021,0.1235));
#1747=CARTESIAN_POINT('',(0.077,-0.021,0.1235));
#1748=CARTESIAN_POINT('',(0.0605,-0.0205,0.1235));
#1749=CARTESIAN_POINT('',(0.0445,-0.0305,0.1235));
#1750=CARTESIAN_POINT('',(0.015,2.00000000000027E-6,0.156));
#1751=CARTESIAN_POINT('',(0.015,-0.005,0.156));
#1752=CARTESIAN_POINT('',(0.015,-0.005,0.1535));
#1753=CARTESIAN_POINT('',(0.009,2.00000000000027E-6,0.166));
#1754=CARTESIAN_POINT('',(0.009,-0.005,0.166));
#1755=CARTESIAN_POINT('',(0.0445,-0.005,0.083));
#1756=CARTESIAN_POINT('',(0.0445,-0.005,0.1525));
#1757=CARTESIAN_POINT('',(0.0445,-0.0115,0.0135));
#1758=CARTESIAN_POINT('',(0.0295,-0.0115,0.1525));
#1759=CARTESIAN_POINT('',(0.0445,-0.034,0.12));
#1760=CARTESIAN_POINT('',(0.089,1.99999999999853E-6,0.115));
#1761=CARTESIAN_POINT('',(0.092,-0.018,0.028));
#1762=MECHANICAL_DESIGN_GEOMETRIC_PRESENTATION_REPRESENTATION('',(#1074),
#1763);
#1763=(
GEOMETRIC_REPRESENTATION_CONTEXT(3)
GLOBAL_UNCERTAINTY_ASSIGNED_CONTEXT((#1764))
GLOBAL_UNIT_ASSIGNED_CONTEXT((#1767,#1766,#1765))
REPRESENTATION_CONTEXT('Electronics Cover','TOP_LEVEL_ASSEMBLY_PART')
);
#1764=UNCERTAINTY_MEASURE_WITH_UNIT(LENGTH_MEASURE(1.E-8),#1767,
'DISTANCE_ACCURACY_VALUE','Maximum Tolerance applied to model');
#1765=(
NAMED_UNIT(*)
SI_UNIT($,.STERADIAN.)
SOLID_ANGLE_UNIT()
);
#1766=(
NAMED_UNIT(*)
PLANE_ANGLE_UNIT()
SI_UNIT($,.RADIAN.)
);
#1767=(
LENGTH_UNIT()
NAMED_UNIT(*)
SI_UNIT($,.METRE.)
);
#1768=PRODUCT_DEFINITION_SHAPE('','',#1769);
#1769=PRODUCT_DEFINITION('','',#1771,#1770);
#1770=PRODUCT_DEFINITION_CONTEXT('',#1777,'design');
#1771=PRODUCT_DEFINITION_FORMATION_WITH_SPECIFIED_SOURCE('','',#1773,
 .NOT_KNOWN.);
#1772=PRODUCT_RELATED_PRODUCT_CATEGORY('','',(#1773));
#1773=PRODUCT('Electronics Cover','Electronics Cover',
'Electronics Cover',(#1775));
#1774=PRODUCT_CATEGORY('','');
#1775=PRODUCT_CONTEXT('',#1777,'mechanical');
#1776=APPLICATION_PROTOCOL_DEFINITION('international standard',
'ap242_managed_model_based_3d_engineering',2020,#1777);
#1777=APPLICATION_CONTEXT('managed model based 3d engineering');
ENDSEC;
END-ISO-10303-21;
