ISO-10303-21;
HEADER;
/* Generated by software containing ST-Developer
 * from STEP Tools, Inc. (www.steptools.com) 
 */
/* OPTION: using custom renumber hook */

FILE_DESCRIPTION(
/* description */ ('STEP AP242 Edition 2',
'CAx-IF Rec.Pracs.---Representation and Presentation of Product Manufa
cturing Information (PMI)---4.0---2014-10-13',
'CAx-IF Rec.Pracs.---3D Tessellated Geometry---0.4---2014-09-14','2;1',
'CAx-IF Rec.Pracs.---User Defined Attributes---1.5---2016-08-15'),
/* implementation_level */ '2;1');

FILE_NAME(
/* name */ 'Full Assembly - Motor Mount',
/* time_stamp */ '2026-04-24T00:57:03Z',
/* author */ (''),
/* organization */ (''),
/* preprocessor_version */ 'ST-DEVELOPER v20',
/* originating_system */ 'ONSHAPE BY PTC INC, 1.213',
/* authorisation */ '  ');

FILE_SCHEMA (('AP242_MANAGED_MODEL_BASED_3D_ENGINEERING_MIM_LF { 1 0 10303 442 3 1 4 }'));
ENDSEC;

DATA;
#10=SHAPE_REPRESENTATION_RELATIONSHIP('','',#568,#11);
#11=ADVANCED_BREP_SHAPE_REPRESENTATION('',(#566),#944);
#12=CIRCLE('',#574,0.00165);
#13=CIRCLE('',#575,0.00165);
#14=CIRCLE('',#577,0.00165);
#15=CIRCLE('',#578,0.00165);
#16=CIRCLE('',#580,0.00165);
#17=CIRCLE('',#581,0.00165);
#18=CIRCLE('',#583,0.00165);
#19=CIRCLE('',#584,0.00165);
#20=CIRCLE('',#589,0.0035);
#21=CIRCLE('',#590,0.0035);
#22=CIRCLE('',#592,0.00325);
#23=CIRCLE('',#593,0.00325);
#24=CIRCLE('',#594,0.00325);
#25=CIRCLE('',#595,0.00325);
#26=CIRCLE('',#598,0.0035);
#27=CIRCLE('',#599,0.0035);
#28=CIRCLE('',#600,0.0015);
#29=CIRCLE('',#601,0.0015);
#30=CIRCLE('',#602,0.0015);
#31=CIRCLE('',#603,0.0015);
#32=CIRCLE('',#606,0.0015);
#33=CIRCLE('',#607,0.0015);
#34=CIRCLE('',#608,0.0015);
#35=CIRCLE('',#609,0.0015);
#36=CIRCLE('',#619,0.00325);
#37=CIRCLE('',#622,0.00325);
#38=CIRCLE('',#625,0.00325);
#39=CIRCLE('',#628,0.00325);
#40=CYLINDRICAL_SURFACE('',#573,0.00165);
#41=CYLINDRICAL_SURFACE('',#576,0.00165);
#42=CYLINDRICAL_SURFACE('',#579,0.00165);
#43=CYLINDRICAL_SURFACE('',#582,0.00165);
#44=CYLINDRICAL_SURFACE('',#588,0.0035);
#45=CYLINDRICAL_SURFACE('',#610,0.0015);
#46=CYLINDRICAL_SURFACE('',#611,0.0015);
#47=CYLINDRICAL_SURFACE('',#612,0.0015);
#48=CYLINDRICAL_SURFACE('',#613,0.0015);
#49=CYLINDRICAL_SURFACE('',#618,0.00325);
#50=CYLINDRICAL_SURFACE('',#621,0.00325);
#51=CYLINDRICAL_SURFACE('',#624,0.00325);
#52=CYLINDRICAL_SURFACE('',#627,0.00325);
#53=CYLINDRICAL_SURFACE('',#630,0.0035);
#54=CYLINDRICAL_SURFACE('',#631,0.0035);
#55=LINE('',#798,#90);
#56=LINE('',#802,#91);
#57=LINE('',#804,#92);
#58=LINE('',#806,#93);
#59=LINE('',#808,#94);
#60=LINE('',#810,#95);
#61=LINE('',#832,#96);
#62=LINE('',#835,#97);
#63=LINE('',#837,#98);
#64=LINE('',#839,#99);
#65=LINE('',#841,#100);
#66=LINE('',#843,#101);
#67=LINE('',#845,#102);
#68=LINE('',#847,#103);
#69=LINE('',#849,#104);
#70=LINE('',#851,#105);
#71=LINE('',#853,#106);
#72=LINE('',#856,#107);
#73=LINE('',#858,#108);
#74=LINE('',#859,#109);
#75=LINE('',#861,#110);
#76=LINE('',#863,#111);
#77=LINE('',#878,#112);
#78=LINE('',#879,#113);
#79=LINE('',#880,#114);
#80=LINE('',#882,#115);
#81=LINE('',#883,#116);
#82=LINE('',#886,#117);
#83=LINE('',#888,#118);
#84=LINE('',#890,#119);
#85=LINE('',#901,#120);
#86=LINE('',#904,#121);
#87=LINE('',#905,#122);
#88=LINE('',#915,#123);
#89=LINE('',#916,#124);
#90=VECTOR('',#638,1.);
#91=VECTOR('',#641,1.);
#92=VECTOR('',#642,1.);
#93=VECTOR('',#643,1.);
#94=VECTOR('',#644,1.);
#95=VECTOR('',#645,1.);
#96=VECTOR('',#672,1.);
#97=VECTOR('',#673,1.);
#98=VECTOR('',#674,1.);
#99=VECTOR('',#675,1.);
#100=VECTOR('',#678,1.);
#101=VECTOR('',#679,1.);
#102=VECTOR('',#680,1.);
#103=VECTOR('',#681,1.);
#104=VECTOR('',#682,1.);
#105=VECTOR('',#683,1.);
#106=VECTOR('',#686,1.);
#107=VECTOR('',#687,1.);
#108=VECTOR('',#688,1.);
#109=VECTOR('',#689,1.);
#110=VECTOR('',#690,1.);
#111=VECTOR('',#691,1.);
#112=VECTOR('',#708,1.);
#113=VECTOR('',#709,1.);
#114=VECTOR('',#710,1.);
#115=VECTOR('',#713,1.);
#116=VECTOR('',#714,1.);
#117=VECTOR('',#719,1.);
#118=VECTOR('',#720,1.);
#119=VECTOR('',#721,1.);
#120=VECTOR('',#734,1.);
#121=VECTOR('',#735,1.);
#122=VECTOR('',#736,1.);
#123=VECTOR('',#747,1.);
#124=VECTOR('',#748,1.);
#125=ORIENTED_EDGE('',*,*,#255,.F.);
#126=ORIENTED_EDGE('',*,*,#256,.F.);
#127=ORIENTED_EDGE('',*,*,#257,.F.);
#128=ORIENTED_EDGE('',*,*,#258,.F.);
#129=ORIENTED_EDGE('',*,*,#259,.F.);
#130=ORIENTED_EDGE('',*,*,#260,.F.);
#131=ORIENTED_EDGE('',*,*,#261,.F.);
#132=ORIENTED_EDGE('',*,*,#262,.F.);
#133=ORIENTED_EDGE('',*,*,#263,.F.);
#134=ORIENTED_EDGE('',*,*,#264,.T.);
#135=ORIENTED_EDGE('',*,*,#265,.F.);
#136=ORIENTED_EDGE('',*,*,#266,.T.);
#137=ORIENTED_EDGE('',*,*,#267,.F.);
#138=ORIENTED_EDGE('',*,*,#268,.T.);
#139=ORIENTED_EDGE('',*,*,#269,.F.);
#140=ORIENTED_EDGE('',*,*,#270,.T.);
#141=ORIENTED_EDGE('',*,*,#271,.T.);
#142=ORIENTED_EDGE('',*,*,#272,.T.);
#143=ORIENTED_EDGE('',*,*,#273,.F.);
#144=ORIENTED_EDGE('',*,*,#274,.T.);
#145=ORIENTED_EDGE('',*,*,#275,.F.);
#146=ORIENTED_EDGE('',*,*,#276,.T.);
#147=ORIENTED_EDGE('',*,*,#277,.T.);
#148=ORIENTED_EDGE('',*,*,#278,.T.);
#149=ORIENTED_EDGE('',*,*,#279,.T.);
#150=ORIENTED_EDGE('',*,*,#280,.F.);
#151=ORIENTED_EDGE('',*,*,#259,.T.);
#152=ORIENTED_EDGE('',*,*,#281,.F.);
#153=ORIENTED_EDGE('',*,*,#282,.T.);
#154=ORIENTED_EDGE('',*,*,#283,.T.);
#155=ORIENTED_EDGE('',*,*,#261,.T.);
#156=ORIENTED_EDGE('',*,*,#284,.T.);
#157=ORIENTED_EDGE('',*,*,#285,.T.);
#158=ORIENTED_EDGE('',*,*,#286,.F.);
#159=ORIENTED_EDGE('',*,*,#287,.T.);
#160=ORIENTED_EDGE('',*,*,#288,.F.);
#161=ORIENTED_EDGE('',*,*,#289,.F.);
#162=ORIENTED_EDGE('',*,*,#290,.F.);
#163=ORIENTED_EDGE('',*,*,#291,.F.);
#164=ORIENTED_EDGE('',*,*,#292,.F.);
#165=ORIENTED_EDGE('',*,*,#286,.T.);
#166=ORIENTED_EDGE('',*,*,#293,.T.);
#167=ORIENTED_EDGE('',*,*,#271,.F.);
#168=ORIENTED_EDGE('',*,*,#294,.T.);
#169=ORIENTED_EDGE('',*,*,#278,.F.);
#170=ORIENTED_EDGE('',*,*,#295,.T.);
#171=ORIENTED_EDGE('',*,*,#287,.F.);
#172=ORIENTED_EDGE('',*,*,#273,.T.);
#173=ORIENTED_EDGE('',*,*,#296,.T.);
#174=ORIENTED_EDGE('',*,*,#284,.F.);
#175=ORIENTED_EDGE('',*,*,#260,.T.);
#176=ORIENTED_EDGE('',*,*,#280,.T.);
#177=ORIENTED_EDGE('',*,*,#297,.T.);
#178=ORIENTED_EDGE('',*,*,#269,.T.);
#179=ORIENTED_EDGE('',*,*,#267,.T.);
#180=ORIENTED_EDGE('',*,*,#265,.T.);
#181=ORIENTED_EDGE('',*,*,#263,.T.);
#182=ORIENTED_EDGE('',*,*,#288,.T.);
#183=ORIENTED_EDGE('',*,*,#256,.T.);
#184=ORIENTED_EDGE('',*,*,#298,.T.);
#185=ORIENTED_EDGE('',*,*,#262,.T.);
#186=ORIENTED_EDGE('',*,*,#283,.F.);
#187=ORIENTED_EDGE('',*,*,#299,.T.);
#188=ORIENTED_EDGE('',*,*,#300,.T.);
#189=ORIENTED_EDGE('',*,*,#301,.T.);
#190=ORIENTED_EDGE('',*,*,#275,.T.);
#191=ORIENTED_EDGE('',*,*,#258,.T.);
#192=ORIENTED_EDGE('',*,*,#302,.T.);
#193=ORIENTED_EDGE('',*,*,#303,.F.);
#194=ORIENTED_EDGE('',*,*,#304,.F.);
#195=ORIENTED_EDGE('',*,*,#305,.F.);
#196=ORIENTED_EDGE('',*,*,#306,.F.);
#197=ORIENTED_EDGE('',*,*,#307,.F.);
#198=ORIENTED_EDGE('',*,*,#308,.T.);
#199=ORIENTED_EDGE('',*,*,#300,.F.);
#200=ORIENTED_EDGE('',*,*,#309,.T.);
#201=ORIENTED_EDGE('',*,*,#310,.T.);
#202=ORIENTED_EDGE('',*,*,#311,.T.);
#203=ORIENTED_EDGE('',*,*,#312,.T.);
#204=ORIENTED_EDGE('',*,*,#313,.T.);
#205=ORIENTED_EDGE('',*,*,#277,.F.);
#206=ORIENTED_EDGE('',*,*,#314,.T.);
#207=ORIENTED_EDGE('',*,*,#307,.T.);
#208=ORIENTED_EDGE('',*,*,#315,.T.);
#209=ORIENTED_EDGE('',*,*,#281,.T.);
#210=ORIENTED_EDGE('',*,*,#295,.F.);
#211=ORIENTED_EDGE('',*,*,#305,.T.);
#212=ORIENTED_EDGE('',*,*,#313,.F.);
#213=ORIENTED_EDGE('',*,*,#304,.T.);
#214=ORIENTED_EDGE('',*,*,#312,.F.);
#215=ORIENTED_EDGE('',*,*,#306,.T.);
#216=ORIENTED_EDGE('',*,*,#311,.F.);
#217=ORIENTED_EDGE('',*,*,#303,.T.);
#218=ORIENTED_EDGE('',*,*,#310,.F.);
#219=ORIENTED_EDGE('',*,*,#314,.F.);
#220=ORIENTED_EDGE('',*,*,#276,.F.);
#221=ORIENTED_EDGE('',*,*,#301,.F.);
#222=ORIENTED_EDGE('',*,*,#308,.F.);
#223=ORIENTED_EDGE('',*,*,#315,.F.);
#224=ORIENTED_EDGE('',*,*,#309,.F.);
#225=ORIENTED_EDGE('',*,*,#299,.F.);
#226=ORIENTED_EDGE('',*,*,#282,.F.);
#227=ORIENTED_EDGE('',*,*,#293,.F.);
#228=ORIENTED_EDGE('',*,*,#285,.F.);
#229=ORIENTED_EDGE('',*,*,#296,.F.);
#230=ORIENTED_EDGE('',*,*,#272,.F.);
#231=ORIENTED_EDGE('',*,*,#294,.F.);
#232=ORIENTED_EDGE('',*,*,#274,.F.);
#233=ORIENTED_EDGE('',*,*,#297,.F.);
#234=ORIENTED_EDGE('',*,*,#279,.F.);
#235=ORIENTED_EDGE('',*,*,#316,.F.);
#236=ORIENTED_EDGE('',*,*,#292,.T.);
#237=ORIENTED_EDGE('',*,*,#264,.F.);
#238=ORIENTED_EDGE('',*,*,#316,.T.);
#239=ORIENTED_EDGE('',*,*,#317,.F.);
#240=ORIENTED_EDGE('',*,*,#291,.T.);
#241=ORIENTED_EDGE('',*,*,#266,.F.);
#242=ORIENTED_EDGE('',*,*,#317,.T.);
#243=ORIENTED_EDGE('',*,*,#318,.F.);
#244=ORIENTED_EDGE('',*,*,#290,.T.);
#245=ORIENTED_EDGE('',*,*,#268,.F.);
#246=ORIENTED_EDGE('',*,*,#318,.T.);
#247=ORIENTED_EDGE('',*,*,#319,.F.);
#248=ORIENTED_EDGE('',*,*,#289,.T.);
#249=ORIENTED_EDGE('',*,*,#270,.F.);
#250=ORIENTED_EDGE('',*,*,#319,.T.);
#251=ORIENTED_EDGE('',*,*,#257,.T.);
#252=ORIENTED_EDGE('',*,*,#302,.F.);
#253=ORIENTED_EDGE('',*,*,#255,.T.);
#254=ORIENTED_EDGE('',*,*,#298,.F.);
#255=EDGE_CURVE('',#320,#321,#372,.T.);
#256=EDGE_CURVE('',#322,#320,#55,.T.);
#257=EDGE_CURVE('',#323,#322,#373,.T.);
#258=EDGE_CURVE('',#324,#323,#56,.T.);
#259=EDGE_CURVE('',#325,#324,#57,.F.);
#260=EDGE_CURVE('',#326,#325,#58,.T.);
#261=EDGE_CURVE('',#327,#326,#59,.F.);
#262=EDGE_CURVE('',#321,#327,#60,.T.);
#263=EDGE_CURVE('',#328,#328,#12,.T.);
#264=EDGE_CURVE('',#329,#329,#13,.T.);
#265=EDGE_CURVE('',#330,#330,#14,.T.);
#266=EDGE_CURVE('',#331,#331,#15,.T.);
#267=EDGE_CURVE('',#332,#332,#16,.T.);
#268=EDGE_CURVE('',#333,#333,#17,.T.);
#269=EDGE_CURVE('',#334,#334,#18,.T.);
#270=EDGE_CURVE('',#335,#335,#19,.T.);
#271=EDGE_CURVE('',#336,#337,#61,.T.);
#272=EDGE_CURVE('',#337,#338,#62,.T.);
#273=EDGE_CURVE('',#339,#338,#63,.T.);
#274=EDGE_CURVE('',#339,#336,#64,.T.);
#275=EDGE_CURVE('',#340,#324,#65,.T.);
#276=EDGE_CURVE('',#340,#341,#66,.T.);
#277=EDGE_CURVE('',#341,#342,#67,.T.);
#278=EDGE_CURVE('',#342,#343,#68,.T.);
#279=EDGE_CURVE('',#343,#344,#69,.T.);
#280=EDGE_CURVE('',#325,#344,#70,.T.);
#281=EDGE_CURVE('',#345,#346,#71,.T.);
#282=EDGE_CURVE('',#345,#347,#72,.F.);
#283=EDGE_CURVE('',#347,#327,#73,.T.);
#284=EDGE_CURVE('',#326,#348,#74,.T.);
#285=EDGE_CURVE('',#348,#349,#75,.T.);
#286=EDGE_CURVE('',#346,#349,#76,.T.);
#287=EDGE_CURVE('',#350,#350,#20,.T.);
#288=EDGE_CURVE('',#351,#351,#21,.T.);
#289=EDGE_CURVE('',#352,#352,#22,.T.);
#290=EDGE_CURVE('',#353,#353,#23,.T.);
#291=EDGE_CURVE('',#354,#354,#24,.T.);
#292=EDGE_CURVE('',#355,#355,#25,.T.);
#293=EDGE_CURVE('',#349,#337,#77,.T.);
#294=EDGE_CURVE('',#336,#343,#78,.F.);
#295=EDGE_CURVE('',#342,#346,#79,.T.);
#296=EDGE_CURVE('',#338,#348,#80,.T.);
#297=EDGE_CURVE('',#344,#339,#81,.F.);
#298=EDGE_CURVE('',#320,#321,#26,.T.);
#299=EDGE_CURVE('',#347,#356,#82,.F.);
#300=EDGE_CURVE('',#356,#357,#83,.T.);
#301=EDGE_CURVE('',#357,#340,#84,.T.);
#302=EDGE_CURVE('',#323,#322,#27,.T.);
#303=EDGE_CURVE('',#358,#358,#28,.T.);
#304=EDGE_CURVE('',#359,#359,#29,.T.);
#305=EDGE_CURVE('',#360,#360,#30,.T.);
#306=EDGE_CURVE('',#361,#361,#31,.T.);
#307=EDGE_CURVE('',#362,#363,#85,.T.);
#308=EDGE_CURVE('',#362,#357,#86,.T.);
#309=EDGE_CURVE('',#356,#363,#87,.F.);
#310=EDGE_CURVE('',#364,#364,#32,.T.);
#311=EDGE_CURVE('',#365,#365,#33,.T.);
#312=EDGE_CURVE('',#366,#366,#34,.T.);
#313=EDGE_CURVE('',#367,#367,#35,.T.);
#314=EDGE_CURVE('',#341,#362,#88,.T.);
#315=EDGE_CURVE('',#363,#345,#89,.F.);
#316=EDGE_CURVE('',#368,#368,#36,.T.);
#317=EDGE_CURVE('',#369,#369,#37,.T.);
#318=EDGE_CURVE('',#370,#370,#38,.T.);
#319=EDGE_CURVE('',#371,#371,#39,.T.);
#320=VERTEX_POINT('',#796);
#321=VERTEX_POINT('',#797);
#322=VERTEX_POINT('',#799);
#323=VERTEX_POINT('',#801);
#324=VERTEX_POINT('',#803);
#325=VERTEX_POINT('',#805);
#326=VERTEX_POINT('',#807);
#327=VERTEX_POINT('',#809);
#328=VERTEX_POINT('',#813);
#329=VERTEX_POINT('',#815);
#330=VERTEX_POINT('',#818);
#331=VERTEX_POINT('',#820);
#332=VERTEX_POINT('',#823);
#333=VERTEX_POINT('',#825);
#334=VERTEX_POINT('',#828);
#335=VERTEX_POINT('',#830);
#336=VERTEX_POINT('',#833);
#337=VERTEX_POINT('',#834);
#338=VERTEX_POINT('',#836);
#339=VERTEX_POINT('',#838);
#340=VERTEX_POINT('',#842);
#341=VERTEX_POINT('',#844);
#342=VERTEX_POINT('',#846);
#343=VERTEX_POINT('',#848);
#344=VERTEX_POINT('',#850);
#345=VERTEX_POINT('',#854);
#346=VERTEX_POINT('',#855);
#347=VERTEX_POINT('',#857);
#348=VERTEX_POINT('',#860);
#349=VERTEX_POINT('',#862);
#350=VERTEX_POINT('',#866);
#351=VERTEX_POINT('',#868);
#352=VERTEX_POINT('',#871);
#353=VERTEX_POINT('',#873);
#354=VERTEX_POINT('',#875);
#355=VERTEX_POINT('',#877);
#356=VERTEX_POINT('',#887);
#357=VERTEX_POINT('',#889);
#358=VERTEX_POINT('',#893);
#359=VERTEX_POINT('',#895);
#360=VERTEX_POINT('',#897);
#361=VERTEX_POINT('',#899);
#362=VERTEX_POINT('',#902);
#363=VERTEX_POINT('',#903);
#364=VERTEX_POINT('',#908);
#365=VERTEX_POINT('',#910);
#366=VERTEX_POINT('',#912);
#367=VERTEX_POINT('',#914);
#368=VERTEX_POINT('',#927);
#369=VERTEX_POINT('',#931);
#370=VERTEX_POINT('',#935);
#371=VERTEX_POINT('',#939);
#372=ELLIPSE('',#571,0.00494974746830584,0.0035);
#373=ELLIPSE('',#572,0.00494974746830584,0.0035);
#374=EDGE_LOOP('',(#125,#126,#127,#128,#129,#130,#131,#132));
#375=EDGE_LOOP('',(#133));
#376=EDGE_LOOP('',(#134));
#377=EDGE_LOOP('',(#135));
#378=EDGE_LOOP('',(#136));
#379=EDGE_LOOP('',(#137));
#380=EDGE_LOOP('',(#138));
#381=EDGE_LOOP('',(#139));
#382=EDGE_LOOP('',(#140));
#383=EDGE_LOOP('',(#141,#142,#143,#144));
#384=EDGE_LOOP('',(#145,#146,#147,#148,#149,#150,#151));
#385=EDGE_LOOP('',(#152,#153,#154,#155,#156,#157,#158));
#386=EDGE_LOOP('',(#159));
#387=EDGE_LOOP('',(#160));
#388=EDGE_LOOP('',(#161));
#389=EDGE_LOOP('',(#162));
#390=EDGE_LOOP('',(#163));
#391=EDGE_LOOP('',(#164));
#392=EDGE_LOOP('',(#165,#166,#167,#168,#169,#170));
#393=EDGE_LOOP('',(#171));
#394=EDGE_LOOP('',(#172,#173,#174,#175,#176,#177));
#395=EDGE_LOOP('',(#178));
#396=EDGE_LOOP('',(#179));
#397=EDGE_LOOP('',(#180));
#398=EDGE_LOOP('',(#181));
#399=EDGE_LOOP('',(#182));
#400=EDGE_LOOP('',(#183,#184,#185,#186,#187,#188,#189,#190,#191,#192));
#401=EDGE_LOOP('',(#193));
#402=EDGE_LOOP('',(#194));
#403=EDGE_LOOP('',(#195));
#404=EDGE_LOOP('',(#196));
#405=EDGE_LOOP('',(#197,#198,#199,#200));
#406=EDGE_LOOP('',(#201));
#407=EDGE_LOOP('',(#202));
#408=EDGE_LOOP('',(#203));
#409=EDGE_LOOP('',(#204));
#410=EDGE_LOOP('',(#205,#206,#207,#208,#209,#210));
#411=EDGE_LOOP('',(#211));
#412=EDGE_LOOP('',(#212));
#413=EDGE_LOOP('',(#213));
#414=EDGE_LOOP('',(#214));
#415=EDGE_LOOP('',(#215));
#416=EDGE_LOOP('',(#216));
#417=EDGE_LOOP('',(#217));
#418=EDGE_LOOP('',(#218));
#419=EDGE_LOOP('',(#219,#220,#221,#222));
#420=EDGE_LOOP('',(#223,#224,#225,#226));
#421=EDGE_LOOP('',(#227,#228,#229,#230));
#422=EDGE_LOOP('',(#231,#232,#233,#234));
#423=EDGE_LOOP('',(#235));
#424=EDGE_LOOP('',(#236));
#425=EDGE_LOOP('',(#237));
#426=EDGE_LOOP('',(#238));
#427=EDGE_LOOP('',(#239));
#428=EDGE_LOOP('',(#240));
#429=EDGE_LOOP('',(#241));
#430=EDGE_LOOP('',(#242));
#431=EDGE_LOOP('',(#243));
#432=EDGE_LOOP('',(#244));
#433=EDGE_LOOP('',(#245));
#434=EDGE_LOOP('',(#246));
#435=EDGE_LOOP('',(#247));
#436=EDGE_LOOP('',(#248));
#437=EDGE_LOOP('',(#249));
#438=EDGE_LOOP('',(#250));
#439=EDGE_LOOP('',(#251,#252));
#440=EDGE_LOOP('',(#253,#254));
#441=FACE_BOUND('',#374,.T.);
#442=FACE_BOUND('',#375,.T.);
#443=FACE_BOUND('',#376,.T.);
#444=FACE_BOUND('',#377,.T.);
#445=FACE_BOUND('',#378,.T.);
#446=FACE_BOUND('',#379,.T.);
#447=FACE_BOUND('',#380,.T.);
#448=FACE_BOUND('',#381,.T.);
#449=FACE_BOUND('',#382,.T.);
#450=FACE_BOUND('',#383,.T.);
#451=FACE_BOUND('',#384,.T.);
#452=FACE_BOUND('',#385,.T.);
#453=FACE_BOUND('',#386,.T.);
#454=FACE_BOUND('',#387,.T.);
#455=FACE_BOUND('',#388,.T.);
#456=FACE_BOUND('',#389,.T.);
#457=FACE_BOUND('',#390,.T.);
#458=FACE_BOUND('',#391,.T.);
#459=FACE_BOUND('',#392,.T.);
#460=FACE_BOUND('',#393,.T.);
#461=FACE_BOUND('',#394,.T.);
#462=FACE_BOUND('',#395,.T.);
#463=FACE_BOUND('',#396,.T.);
#464=FACE_BOUND('',#397,.T.);
#465=FACE_BOUND('',#398,.T.);
#466=FACE_BOUND('',#399,.T.);
#467=FACE_BOUND('',#400,.T.);
#468=FACE_BOUND('',#401,.T.);
#469=FACE_BOUND('',#402,.T.);
#470=FACE_BOUND('',#403,.T.);
#471=FACE_BOUND('',#404,.T.);
#472=FACE_BOUND('',#405,.T.);
#473=FACE_BOUND('',#406,.T.);
#474=FACE_BOUND('',#407,.T.);
#475=FACE_BOUND('',#408,.T.);
#476=FACE_BOUND('',#409,.T.);
#477=FACE_BOUND('',#410,.T.);
#478=FACE_BOUND('',#411,.T.);
#479=FACE_BOUND('',#412,.T.);
#480=FACE_BOUND('',#413,.T.);
#481=FACE_BOUND('',#414,.T.);
#482=FACE_BOUND('',#415,.T.);
#483=FACE_BOUND('',#416,.T.);
#484=FACE_BOUND('',#417,.T.);
#485=FACE_BOUND('',#418,.T.);
#486=FACE_BOUND('',#419,.T.);
#487=FACE_BOUND('',#420,.T.);
#488=FACE_BOUND('',#421,.T.);
#489=FACE_BOUND('',#422,.T.);
#490=FACE_BOUND('',#423,.T.);
#491=FACE_BOUND('',#424,.T.);
#492=FACE_BOUND('',#425,.T.);
#493=FACE_BOUND('',#426,.T.);
#494=FACE_BOUND('',#427,.T.);
#495=FACE_BOUND('',#428,.T.);
#496=FACE_BOUND('',#429,.T.);
#497=FACE_BOUND('',#430,.T.);
#498=FACE_BOUND('',#431,.T.);
#499=FACE_BOUND('',#432,.T.);
#500=FACE_BOUND('',#433,.T.);
#501=FACE_BOUND('',#434,.T.);
#502=FACE_BOUND('',#435,.T.);
#503=FACE_BOUND('',#436,.T.);
#504=FACE_BOUND('',#437,.T.);
#505=FACE_BOUND('',#438,.T.);
#506=FACE_BOUND('',#439,.T.);
#507=FACE_BOUND('',#440,.T.);
#508=PLANE('',#570);
#509=PLANE('',#585);
#510=PLANE('',#586);
#511=PLANE('',#587);
#512=PLANE('',#591);
#513=PLANE('',#596);
#514=PLANE('',#597);
#515=PLANE('',#604);
#516=PLANE('',#605);
#517=PLANE('',#614);
#518=PLANE('',#615);
#519=PLANE('',#616);
#520=PLANE('',#617);
#521=PLANE('',#620);
#522=PLANE('',#623);
#523=PLANE('',#626);
#524=PLANE('',#629);
#525=ADVANCED_FACE('',(#441),#508,.T.);
#526=ADVANCED_FACE('',(#442,#443),#40,.F.);
#527=ADVANCED_FACE('',(#444,#445),#41,.F.);
#528=ADVANCED_FACE('',(#446,#447),#42,.F.);
#529=ADVANCED_FACE('',(#448,#449),#43,.F.);
#530=ADVANCED_FACE('',(#450),#509,.T.);
#531=ADVANCED_FACE('',(#451),#510,.T.);
#532=ADVANCED_FACE('',(#452),#511,.F.);
#533=ADVANCED_FACE('',(#453,#454),#44,.F.);
#534=ADVANCED_FACE('',(#455,#456,#457,#458,#459,#460),#512,.T.);
#535=ADVANCED_FACE('',(#461,#462,#463,#464,#465,#466),#513,.F.);
#536=ADVANCED_FACE('',(#467,#468,#469,#470,#471),#514,.F.);
#537=ADVANCED_FACE('',(#472),#515,.F.);
#538=ADVANCED_FACE('',(#473,#474,#475,#476,#477),#516,.F.);
#539=ADVANCED_FACE('',(#478,#479),#45,.F.);
#540=ADVANCED_FACE('',(#480,#481),#46,.F.);
#541=ADVANCED_FACE('',(#482,#483),#47,.F.);
#542=ADVANCED_FACE('',(#484,#485),#48,.F.);
#543=ADVANCED_FACE('',(#486),#517,.T.);
#544=ADVANCED_FACE('',(#487),#518,.F.);
#545=ADVANCED_FACE('',(#488),#519,.T.);
#546=ADVANCED_FACE('',(#489),#520,.F.);
#547=ADVANCED_FACE('',(#490,#491),#49,.F.);
#548=ADVANCED_FACE('',(#492,#493),#521,.T.);
#549=ADVANCED_FACE('',(#494,#495),#50,.F.);
#550=ADVANCED_FACE('',(#496,#497),#522,.T.);
#551=ADVANCED_FACE('',(#498,#499),#51,.F.);
#552=ADVANCED_FACE('',(#500,#501),#523,.T.);
#553=ADVANCED_FACE('',(#502,#503),#52,.F.);
#554=ADVANCED_FACE('',(#504,#505),#524,.T.);
#555=ADVANCED_FACE('',(#506),#53,.F.);
#556=ADVANCED_FACE('',(#507),#54,.F.);
#557=CLOSED_SHELL('',(#525,#526,#527,#528,#529,#530,#531,#532,#533,#534,
#535,#536,#537,#538,#539,#540,#541,#542,#543,#544,#545,#546,#547,#548,#549,
#550,#551,#552,#553,#554,#555,#556));
#558=STYLED_ITEM('',(#559),#566);
#559=PRESENTATION_STYLE_ASSIGNMENT((#560));
#560=SURFACE_STYLE_USAGE(.BOTH.,#561);
#561=SURFACE_SIDE_STYLE('',(#562));
#562=SURFACE_STYLE_FILL_AREA(#563);
#563=FILL_AREA_STYLE('',(#564));
#564=FILL_AREA_STYLE_COLOUR('',#565);
#565=COLOUR_RGB('',0.901960784313726,0.901960784313726,0.901960784313726);
#566=MANIFOLD_SOLID_BREP('Motor Mount',#557);
#567=SHAPE_DEFINITION_REPRESENTATION(#949,#568);
#568=SHAPE_REPRESENTATION('Motor Mount',(#569),#944);
#569=AXIS2_PLACEMENT_3D('',#793,#632,#633);
#570=AXIS2_PLACEMENT_3D('',#794,#634,#635);
#571=AXIS2_PLACEMENT_3D('',#795,#636,#637);
#572=AXIS2_PLACEMENT_3D('',#800,#639,#640);
#573=AXIS2_PLACEMENT_3D('',#811,#646,#647);
#574=AXIS2_PLACEMENT_3D('',#812,#648,#649);
#575=AXIS2_PLACEMENT_3D('',#814,#650,#651);
#576=AXIS2_PLACEMENT_3D('',#816,#652,#653);
#577=AXIS2_PLACEMENT_3D('',#817,#654,#655);
#578=AXIS2_PLACEMENT_3D('',#819,#656,#657);
#579=AXIS2_PLACEMENT_3D('',#821,#658,#659);
#580=AXIS2_PLACEMENT_3D('',#822,#660,#661);
#581=AXIS2_PLACEMENT_3D('',#824,#662,#663);
#582=AXIS2_PLACEMENT_3D('',#826,#664,#665);
#583=AXIS2_PLACEMENT_3D('',#827,#666,#667);
#584=AXIS2_PLACEMENT_3D('',#829,#668,#669);
#585=AXIS2_PLACEMENT_3D('',#831,#670,#671);
#586=AXIS2_PLACEMENT_3D('',#840,#676,#677);
#587=AXIS2_PLACEMENT_3D('',#852,#684,#685);
#588=AXIS2_PLACEMENT_3D('',#864,#692,#693);
#589=AXIS2_PLACEMENT_3D('',#865,#694,#695);
#590=AXIS2_PLACEMENT_3D('',#867,#696,#697);
#591=AXIS2_PLACEMENT_3D('',#869,#698,#699);
#592=AXIS2_PLACEMENT_3D('',#870,#700,#701);
#593=AXIS2_PLACEMENT_3D('',#872,#702,#703);
#594=AXIS2_PLACEMENT_3D('',#874,#704,#705);
#595=AXIS2_PLACEMENT_3D('',#876,#706,#707);
#596=AXIS2_PLACEMENT_3D('',#881,#711,#712);
#597=AXIS2_PLACEMENT_3D('',#884,#715,#716);
#598=AXIS2_PLACEMENT_3D('',#885,#717,#718);
#599=AXIS2_PLACEMENT_3D('',#891,#722,#723);
#600=AXIS2_PLACEMENT_3D('',#892,#724,#725);
#601=AXIS2_PLACEMENT_3D('',#894,#726,#727);
#602=AXIS2_PLACEMENT_3D('',#896,#728,#729);
#603=AXIS2_PLACEMENT_3D('',#898,#730,#731);
#604=AXIS2_PLACEMENT_3D('',#900,#732,#733);
#605=AXIS2_PLACEMENT_3D('',#906,#737,#738);
#606=AXIS2_PLACEMENT_3D('',#907,#739,#740);
#607=AXIS2_PLACEMENT_3D('',#909,#741,#742);
#608=AXIS2_PLACEMENT_3D('',#911,#743,#744);
#609=AXIS2_PLACEMENT_3D('',#913,#745,#746);
#610=AXIS2_PLACEMENT_3D('',#917,#749,#750);
#611=AXIS2_PLACEMENT_3D('',#918,#751,#752);
#612=AXIS2_PLACEMENT_3D('',#919,#753,#754);
#613=AXIS2_PLACEMENT_3D('',#920,#755,#756);
#614=AXIS2_PLACEMENT_3D('',#921,#757,#758);
#615=AXIS2_PLACEMENT_3D('',#922,#759,#760);
#616=AXIS2_PLACEMENT_3D('',#923,#761,#762);
#617=AXIS2_PLACEMENT_3D('',#924,#763,#764);
#618=AXIS2_PLACEMENT_3D('',#925,#765,#766);
#619=AXIS2_PLACEMENT_3D('',#926,#767,#768);
#620=AXIS2_PLACEMENT_3D('',#928,#769,#770);
#621=AXIS2_PLACEMENT_3D('',#929,#771,#772);
#622=AXIS2_PLACEMENT_3D('',#930,#773,#774);
#623=AXIS2_PLACEMENT_3D('',#932,#775,#776);
#624=AXIS2_PLACEMENT_3D('',#933,#777,#778);
#625=AXIS2_PLACEMENT_3D('',#934,#779,#780);
#626=AXIS2_PLACEMENT_3D('',#936,#781,#782);
#627=AXIS2_PLACEMENT_3D('',#937,#783,#784);
#628=AXIS2_PLACEMENT_3D('',#938,#785,#786);
#629=AXIS2_PLACEMENT_3D('',#940,#787,#788);
#630=AXIS2_PLACEMENT_3D('',#941,#789,#790);
#631=AXIS2_PLACEMENT_3D('',#942,#791,#792);
#632=DIRECTION('',(0.,0.,1.));
#633=DIRECTION('',(1.,0.,0.));
#634=DIRECTION('',(-0.707106781186548,0.707106781186547,-4.32978028117747E-17));
#635=DIRECTION('',(-6.12323399573677E-17,3.74939945665465E-33,1.));
#636=DIRECTION('',(-0.707106781186548,0.707106781186547,-4.32978028117747E-17));
#637=DIRECTION('',(-0.707106781186547,-0.707106781186548,-4.32978028117746E-17));
#638=DIRECTION('',(6.12323399573677E-17,-3.74939945665465E-33,-1.));
#639=DIRECTION('',(-0.707106781186548,0.707106781186547,-4.32978028117747E-17));
#640=DIRECTION('',(-0.707106781186547,-0.707106781186548,-4.32978028117746E-17));
#641=DIRECTION('',(6.12323399573677E-17,-3.74939945665465E-33,-1.));
#642=DIRECTION('',(0.707106781186547,0.707106781186548,4.32978028117746E-17));
#643=DIRECTION('',(-6.12323399573677E-17,3.74939945665465E-33,1.));
#644=DIRECTION('',(-0.707106781186547,-0.707106781186548,-4.32978028117746E-17));
#645=DIRECTION('',(6.12323399573677E-17,-3.74939945665465E-33,-1.));
#646=DIRECTION('',(-1.,6.12323399573677E-17,-6.12323399573677E-17));
#647=DIRECTION('',(-6.12323399573677E-17,0.,1.));
#648=DIRECTION('',(1.,-6.12323399573677E-17,6.12323399573677E-17));
#649=DIRECTION('',(6.12323399573677E-17,0.,-1.));
#650=DIRECTION('',(1.,-6.12323399573677E-17,6.12323399573677E-17));
#651=DIRECTION('',(6.12323399573677E-17,0.,-1.));
#652=DIRECTION('',(-1.,6.12323399573677E-17,-6.12323399573677E-17));
#653=DIRECTION('',(-6.12323399573677E-17,0.,1.));
#654=DIRECTION('',(1.,-6.12323399573677E-17,6.12323399573677E-17));
#655=DIRECTION('',(6.12323399573677E-17,0.,-1.));
#656=DIRECTION('',(1.,-6.12323399573677E-17,6.12323399573677E-17));
#657=DIRECTION('',(6.12323399573677E-17,0.,-1.));
#658=DIRECTION('',(-1.,6.12323399573677E-17,-6.12323399573677E-17));
#659=DIRECTION('',(-6.12323399573677E-17,0.,1.));
#660=DIRECTION('',(1.,-6.12323399573677E-17,6.12323399573677E-17));
#661=DIRECTION('',(6.12323399573677E-17,0.,-1.));
#662=DIRECTION('',(1.,-6.12323399573677E-17,6.12323399573677E-17));
#663=DIRECTION('',(6.12323399573677E-17,0.,-1.));
#664=DIRECTION('',(-1.,6.12323399573677E-17,-6.12323399573677E-17));
#665=DIRECTION('',(-6.12323399573677E-17,0.,1.));
#666=DIRECTION('',(1.,-6.12323399573677E-17,6.12323399573677E-17));
#667=DIRECTION('',(6.12323399573677E-17,0.,-1.));
#668=DIRECTION('',(1.,-6.12323399573677E-17,6.12323399573677E-17));
#669=DIRECTION('',(6.12323399573677E-17,0.,-1.));
#670=DIRECTION('',(6.12323399573677E-17,1.,-1.44560289664734E-16));
#671=DIRECTION('',(0.,1.44560289664734E-16,1.));
#672=DIRECTION('',(6.12323399573677E-17,-1.44560289664734E-16,-1.));
#673=DIRECTION('',(-1.,6.12323399573677E-17,-6.12323399573677E-17));
#674=DIRECTION('',(6.12323399573677E-17,-1.44560289664734E-16,-1.));
#675=DIRECTION('',(1.,-6.12323399573677E-17,6.12323399573677E-17));
#676=DIRECTION('',(-6.12323399573677E-17,0.,1.));
#677=DIRECTION('',(1.,0.,6.12323399573677E-17));
#678=DIRECTION('',(1.,-6.12323399573677E-17,6.12323399573677E-17));
#679=DIRECTION('',(-6.12323399573677E-17,-1.,-1.87469972832732E-33));
#680=DIRECTION('',(1.,-6.12323399573677E-17,6.12323399573677E-17));
#681=DIRECTION('',(6.12323399573677E-17,1.,3.74939945665465E-33));
#682=DIRECTION('',(-1.,6.12323399573677E-17,-6.12323399573677E-17));
#683=DIRECTION('',(6.12323399573677E-17,1.,3.74939945665465E-33));
#684=DIRECTION('',(-6.12323399573677E-17,0.,1.));
#685=DIRECTION('',(1.,0.,6.12323399573677E-17));
#686=DIRECTION('',(1.,-6.12323399573677E-17,6.12323399573677E-17));
#687=DIRECTION('',(-6.12323399573677E-17,-1.,-3.74939945665465E-33));
#688=DIRECTION('',(1.,-6.12323399573677E-17,6.12323399573677E-17));
#689=DIRECTION('',(6.12323399573677E-17,1.,3.74939945665465E-33));
#690=DIRECTION('',(1.,-6.12323399573677E-17,6.12323399573677E-17));
#691=DIRECTION('',(6.12323399573677E-17,1.,3.74939945665465E-33));
#692=DIRECTION('',(-1.,6.12323399573677E-17,-6.12323399573677E-17));
#693=DIRECTION('',(-6.12323399573677E-17,0.,1.));
#694=DIRECTION('',(1.,-6.12323399573677E-17,6.12323399573677E-17));
#695=DIRECTION('',(6.12323399573677E-17,1.,0.));
#696=DIRECTION('',(1.,-6.12323399573677E-17,6.12323399573677E-17));
#697=DIRECTION('',(6.12323399573677E-17,1.,0.));
#698=DIRECTION('',(1.,-6.12323399573677E-17,6.12323399573677E-17));
#699=DIRECTION('',(6.12323399573677E-17,1.,3.74939945665465E-33));
#700=DIRECTION('',(1.,-6.12323399573677E-17,6.12323399573677E-17));
#701=DIRECTION('',(6.12323399573677E-17,0.,-1.));
#702=DIRECTION('',(1.,-6.12323399573677E-17,6.12323399573677E-17));
#703=DIRECTION('',(6.12323399573677E-17,0.,-1.));
#704=DIRECTION('',(1.,-6.12323399573677E-17,6.12323399573677E-17));
#705=DIRECTION('',(6.12323399573677E-17,0.,-1.));
#706=DIRECTION('',(1.,-6.12323399573677E-17,6.12323399573677E-17));
#707=DIRECTION('',(6.12323399573677E-17,0.,-1.));
#708=DIRECTION('',(-2.46519032881566E-32,0.707106781186547,0.707106781186548));
#709=DIRECTION('',(8.65956056235493E-17,0.707106781186548,-0.707106781186547));
#710=DIRECTION('',(6.12323399573677E-17,-3.74939945665465E-33,-1.));
#711=DIRECTION('',(1.,-6.12323399573677E-17,6.12323399573677E-17));
#712=DIRECTION('',(6.12323399573677E-17,1.,3.74939945665465E-33));
#713=DIRECTION('',(2.46519032881566E-32,-0.707106781186547,-0.707106781186548));
#714=DIRECTION('',(-8.65956056235493E-17,-0.707106781186548,0.707106781186547));
#715=DIRECTION('',(-6.12323399573677E-17,-1.,-4.52015002552375E-49));
#716=DIRECTION('',(1.,-6.12323399573677E-17,0.));
#717=DIRECTION('',(6.12323399573677E-17,1.,4.52015002552376E-49));
#718=DIRECTION('',(-1.,6.12323399573677E-17,0.));
#719=DIRECTION('',(0.707106781186547,-4.32978028117746E-17,-0.707106781186549));
#720=DIRECTION('',(-6.12323399573677E-17,3.74939945665465E-33,1.));
#721=DIRECTION('',(0.707106781186548,-4.32978028117747E-17,0.707106781186548));
#722=DIRECTION('',(6.12323399573677E-17,1.,4.52015002552376E-49));
#723=DIRECTION('',(-1.,6.12323399573677E-17,0.));
#724=DIRECTION('',(6.12323399573677E-17,1.,4.52015002552376E-49));
#725=DIRECTION('',(-1.,6.12323399573677E-17,0.));
#726=DIRECTION('',(6.12323399573677E-17,1.,4.52015002552376E-49));
#727=DIRECTION('',(-1.,6.12323399573677E-17,0.));
#728=DIRECTION('',(6.12323399573677E-17,1.,4.52015002552376E-49));
#729=DIRECTION('',(-1.,6.12323399573677E-17,0.));
#730=DIRECTION('',(6.12323399573677E-17,1.,4.52015002552376E-49));
#731=DIRECTION('',(-1.,6.12323399573677E-17,0.));
#732=DIRECTION('',(1.,-6.12323399573677E-17,6.12323399573677E-17));
#733=DIRECTION('',(6.12323399573677E-17,1.,0.));
#734=DIRECTION('',(6.12323399573677E-17,-3.74939945665465E-33,-1.));
#735=DIRECTION('',(6.12323399573677E-17,1.,4.35788199605262E-33));
#736=DIRECTION('',(6.12323399573677E-17,1.,0.));
#737=DIRECTION('',(6.12323399573677E-17,1.,4.52015002552375E-49));
#738=DIRECTION('',(-1.,6.12323399573677E-17,0.));
#739=DIRECTION('',(6.12323399573677E-17,1.,4.52015002552375E-49));
#740=DIRECTION('',(-1.,6.12323399573677E-17,0.));
#741=DIRECTION('',(6.12323399573677E-17,1.,4.52015002552375E-49));
#742=DIRECTION('',(-1.,6.12323399573677E-17,0.));
#743=DIRECTION('',(6.12323399573677E-17,1.,4.52015002552375E-49));
#744=DIRECTION('',(-1.,6.12323399573677E-17,0.));
#745=DIRECTION('',(6.12323399573677E-17,1.,4.52015002552375E-49));
#746=DIRECTION('',(-1.,6.12323399573677E-17,0.));
#747=DIRECTION('',(-0.707106781186548,4.32978028117747E-17,-0.707106781186548));
#748=DIRECTION('',(-0.707106781186547,4.32978028117746E-17,0.707106781186549));
#749=DIRECTION('',(6.12323399573677E-17,1.,4.52015002552376E-49));
#750=DIRECTION('',(-1.,6.12323399573677E-17,0.));
#751=DIRECTION('',(6.12323399573677E-17,1.,4.52015002552376E-49));
#752=DIRECTION('',(-1.,6.12323399573677E-17,0.));
#753=DIRECTION('',(6.12323399573677E-17,1.,4.52015002552376E-49));
#754=DIRECTION('',(-1.,6.12323399573677E-17,0.));
#755=DIRECTION('',(6.12323399573677E-17,1.,4.52015002552376E-49));
#756=DIRECTION('',(-1.,6.12323399573677E-17,0.));
#757=DIRECTION('',(-0.707106781186548,4.32978028117747E-17,0.707106781186548));
#758=DIRECTION('',(-6.12323399573677E-17,-1.,-3.74939945665465E-33));
#759=DIRECTION('',(0.707106781186549,-4.32978028117747E-17,0.707106781186547));
#760=DIRECTION('',(6.12323399573677E-17,1.,3.74939945665465E-33));
#761=DIRECTION('',(8.65956056235493E-17,0.707106781186548,-0.707106781186547));
#762=DIRECTION('',(1.,-6.12323399573677E-17,6.12323399573677E-17));
#763=DIRECTION('',(3.40459530941611E-32,-0.707106781186547,-0.707106781186548));
#764=DIRECTION('',(-1.,6.12323399573677E-17,-6.12323399573677E-17));
#765=DIRECTION('',(1.,-6.12323399573677E-17,6.12323399573677E-17));
#766=DIRECTION('',(6.12323399573677E-17,0.,-1.));
#767=DIRECTION('',(1.,-6.12323399573677E-17,6.12323399573677E-17));
#768=DIRECTION('',(6.12323399573677E-17,0.,-1.));
#769=DIRECTION('',(1.,-6.12323399573677E-17,6.12323399573677E-17));
#770=DIRECTION('',(6.12323399573677E-17,1.,3.74939945665465E-33));
#771=DIRECTION('',(1.,-6.12323399573677E-17,6.12323399573677E-17));
#772=DIRECTION('',(6.12323399573677E-17,0.,-1.));
#773=DIRECTION('',(1.,-6.12323399573677E-17,6.12323399573677E-17));
#774=DIRECTION('',(6.12323399573677E-17,0.,-1.));
#775=DIRECTION('',(1.,-6.12323399573677E-17,6.12323399573677E-17));
#776=DIRECTION('',(6.12323399573677E-17,1.,3.74939945665465E-33));
#777=DIRECTION('',(1.,-6.12323399573677E-17,6.12323399573677E-17));
#778=DIRECTION('',(6.12323399573677E-17,0.,-1.));
#779=DIRECTION('',(1.,-6.12323399573677E-17,6.12323399573677E-17));
#780=DIRECTION('',(6.12323399573677E-17,0.,-1.));
#781=DIRECTION('',(1.,-6.12323399573677E-17,6.12323399573677E-17));
#782=DIRECTION('',(6.12323399573677E-17,1.,3.74939945665465E-33));
#783=DIRECTION('',(1.,-6.12323399573677E-17,6.12323399573677E-17));
#784=DIRECTION('',(6.12323399573677E-17,0.,-1.));
#785=DIRECTION('',(1.,-6.12323399573677E-17,6.12323399573677E-17));
#786=DIRECTION('',(6.12323399573677E-17,0.,-1.));
#787=DIRECTION('',(1.,-6.12323399573677E-17,6.12323399573677E-17));
#788=DIRECTION('',(6.12323399573677E-17,1.,3.74939945665465E-33));
#789=DIRECTION('',(-6.12323399573677E-17,-1.,-4.52015002552376E-49));
#790=DIRECTION('',(1.,-6.12323399573677E-17,0.));
#791=DIRECTION('',(-6.12323399573677E-17,-1.,-4.52015002552376E-49));
#792=DIRECTION('',(1.,-6.12323399573677E-17,0.));
#793=CARTESIAN_POINT('',(0.,0.,0.));
#794=CARTESIAN_POINT('',(0.0191660254037845,-0.0657320508075689,0.0208660254037845));
#795=CARTESIAN_POINT('',(0.0168660254037845,-0.0680320508075689,0.00286602540378445));
#796=CARTESIAN_POINT('',(0.0191660254037845,-0.0657320508075689,0.00550420659543903));
#797=CARTESIAN_POINT('',(0.0191660254037845,-0.0657320508075689,0.000227844212129863));
#798=CARTESIAN_POINT('',(0.0191660254037845,-0.0657320508075689,-0.00313397459621556));
#799=CARTESIAN_POINT('',(0.0191660254037845,-0.0657320508075689,0.0362278442121299));
#800=CARTESIAN_POINT('',(0.0168660254037845,-0.0680320508075689,0.0388660254037844));
#801=CARTESIAN_POINT('',(0.0191660254037845,-0.0657320508075689,0.0415042065954391));
#802=CARTESIAN_POINT('',(0.0191660254037845,-0.0657320508075689,-0.00313397459621556));
#803=CARTESIAN_POINT('',(0.0191660254037845,-0.0657320508075689,0.0448660254037845));
#804=CARTESIAN_POINT('',(0.0191660254037845,-0.0657320508075689,0.0448660254037845));
#805=CARTESIAN_POINT('',(0.0231660254037845,-0.0617320508075689,0.0448660254037845));
#806=CARTESIAN_POINT('',(0.0231660254037845,-0.0617320508075689,0.0448660254037845));
#807=CARTESIAN_POINT('',(0.0231660254037845,-0.0617320508075689,-0.00313397459621556));
#808=CARTESIAN_POINT('',(0.0356660254037845,-0.0492320508075689,-0.00313397459621555));
#809=CARTESIAN_POINT('',(0.0191660254037845,-0.0657320508075689,-0.00313397459621556));
#810=CARTESIAN_POINT('',(0.0191660254037845,-0.0657320508075689,-0.00313397459621556));
#811=CARTESIAN_POINT('',(0.0281660254037844,-0.0572320508075689,0.00536602540378445));
#812=CARTESIAN_POINT('',(0.0231660254037845,-0.0572320508075689,0.00536602540378445));
#813=CARTESIAN_POINT('',(0.0231660254037845,-0.0572320508075689,0.00371602540378445));
#814=CARTESIAN_POINT('',(0.0256660254037844,-0.0572320508075689,0.00536602540378445));
#815=CARTESIAN_POINT('',(0.0256660254037844,-0.0572320508075689,0.00371602540378445));
#816=CARTESIAN_POINT('',(0.0281660254037844,-0.0262320508075689,0.00536602540378445));
#817=CARTESIAN_POINT('',(0.0231660254037845,-0.0262320508075689,0.00536602540378445));
#818=CARTESIAN_POINT('',(0.0231660254037845,-0.0262320508075689,0.00371602540378445));
#819=CARTESIAN_POINT('',(0.0256660254037844,-0.0262320508075689,0.00536602540378445));
#820=CARTESIAN_POINT('',(0.0256660254037844,-0.0262320508075689,0.00371602540378445));
#821=CARTESIAN_POINT('',(0.0281660254037844,-0.0262320508075689,0.0363660254037845));
#822=CARTESIAN_POINT('',(0.0231660254037845,-0.0262320508075689,0.0363660254037845));
#823=CARTESIAN_POINT('',(0.0231660254037845,-0.0262320508075689,0.0347160254037845));
#824=CARTESIAN_POINT('',(0.0256660254037844,-0.0262320508075689,0.0363660254037845));
#825=CARTESIAN_POINT('',(0.0256660254037844,-0.0262320508075689,0.0347160254037845));
#826=CARTESIAN_POINT('',(0.0281660254037844,-0.0572320508075689,0.0363660254037845));
#827=CARTESIAN_POINT('',(0.0231660254037845,-0.0572320508075689,0.0363660254037845));
#828=CARTESIAN_POINT('',(0.0231660254037845,-0.0572320508075689,0.0347160254037845));
#829=CARTESIAN_POINT('',(0.0256660254037844,-0.0572320508075689,0.0363660254037845));
#830=CARTESIAN_POINT('',(0.0256660254037844,-0.0572320508075689,0.0347160254037845));
#831=CARTESIAN_POINT('',(0.0281660254037844,-0.0177320508075689,0.0208660254037845));
#832=CARTESIAN_POINT('',(0.0281660254037844,-0.0177320508075689,0.0208660254037845));
#833=CARTESIAN_POINT('',(0.0281660254037844,-0.0177320508075689,0.0408660254037845));
#834=CARTESIAN_POINT('',(0.0281660254037844,-0.0177320508075689,0.00086602540378445));
#835=CARTESIAN_POINT('',(0.0231660254037845,-0.0177320508075689,0.000866025403784449));
#836=CARTESIAN_POINT('',(0.0231660254037845,-0.0177320508075689,0.00086602540378445));
#837=CARTESIAN_POINT('',(0.0231660254037845,-0.0177320508075689,0.0208660254037845));
#838=CARTESIAN_POINT('',(0.0231660254037845,-0.0177320508075689,0.0408660254037845));
#839=CARTESIAN_POINT('',(0.0281660254037844,-0.0177320508075689,0.0408660254037845));
#840=CARTESIAN_POINT('',(0.0281660254037844,-0.0417320508075689,0.0448660254037845));
#841=CARTESIAN_POINT('',(-0.0191359745962155,-0.0657320508075689,0.0448660254037845));
#842=CARTESIAN_POINT('',(-0.022205042408081,-0.0657320508075689,0.0448660254037845));
#843=CARTESIAN_POINT('',(-0.022205042408081,-0.0417320508075689,0.0448660254037845));
#844=CARTESIAN_POINT('',(-0.022205042408081,-0.0707320508075689,0.0448660254037845));
#845=CARTESIAN_POINT('',(-0.0191359745962155,-0.0707320508075689,0.0448660254037845));
#846=CARTESIAN_POINT('',(0.0281660254037844,-0.0707320508075689,0.0448660254037845));
#847=CARTESIAN_POINT('',(0.0281660254037844,-0.0417320508075689,0.0448660254037845));
#848=CARTESIAN_POINT('',(0.0281660254037844,-0.0217320508075689,0.0448660254037845));
#849=CARTESIAN_POINT('',(0.0281660254037844,-0.0217320508075689,0.0448660254037845));
#850=CARTESIAN_POINT('',(0.0231660254037845,-0.0217320508075689,0.0448660254037845));
#851=CARTESIAN_POINT('',(0.0231660254037845,-0.0417320508075689,0.0448660254037845));
#852=CARTESIAN_POINT('',(0.0281660254037844,-0.0417320508075689,-0.00313397459621555));
#853=CARTESIAN_POINT('',(-0.0191359745962155,-0.0707320508075689,-0.00313397459621556));
#854=CARTESIAN_POINT('',(-0.022205042408081,-0.0707320508075689,-0.00313397459621556));
#855=CARTESIAN_POINT('',(0.0281660254037844,-0.0707320508075689,-0.00313397459621556));
#856=CARTESIAN_POINT('',(-0.022205042408081,-0.0417320508075689,-0.00313397459621556));
#857=CARTESIAN_POINT('',(-0.022205042408081,-0.0657320508075689,-0.00313397459621556));
#858=CARTESIAN_POINT('',(-0.0191359745962155,-0.0657320508075689,-0.00313397459621556));
#859=CARTESIAN_POINT('',(0.0231660254037845,-0.0417320508075689,-0.00313397459621556));
#860=CARTESIAN_POINT('',(0.0231660254037845,-0.0217320508075689,-0.00313397459621556));
#861=CARTESIAN_POINT('',(0.0281660254037844,-0.0217320508075689,-0.00313397459621555));
#862=CARTESIAN_POINT('',(0.0281660254037844,-0.0217320508075689,-0.00313397459621555));
#863=CARTESIAN_POINT('',(0.0281660254037844,-0.0417320508075689,-0.00313397459621555));
#864=CARTESIAN_POINT('',(0.0281660254037844,-0.0417320508075689,0.0208660254037845));
#865=CARTESIAN_POINT('',(0.0281660254037844,-0.0417320508075689,0.0208660254037845));
#866=CARTESIAN_POINT('',(0.0281660254037844,-0.0382320508075689,0.0208660254037845));
#867=CARTESIAN_POINT('',(0.0231660254037845,-0.0417320508075689,0.0208660254037845));
#868=CARTESIAN_POINT('',(0.0231660254037845,-0.0382320508075689,0.0208660254037845));
#869=CARTESIAN_POINT('',(0.0281660254037844,-0.0442320508075689,0.0208660254037845));
#870=CARTESIAN_POINT('',(0.0281660254037844,-0.0572320508075689,0.0363660254037845));
#871=CARTESIAN_POINT('',(0.0281660254037844,-0.0572320508075689,0.0331160254037845));
#872=CARTESIAN_POINT('',(0.0281660254037844,-0.0262320508075689,0.0363660254037845));
#873=CARTESIAN_POINT('',(0.0281660254037844,-0.0262320508075689,0.0331160254037845));
#874=CARTESIAN_POINT('',(0.0281660254037844,-0.0262320508075689,0.00536602540378445));
#875=CARTESIAN_POINT('',(0.0281660254037844,-0.0262320508075689,0.00211602540378445));
#876=CARTESIAN_POINT('',(0.0281660254037844,-0.0572320508075689,0.00536602540378445));
#877=CARTESIAN_POINT('',(0.0281660254037844,-0.0572320508075689,0.00211602540378445));
#878=CARTESIAN_POINT('',(0.0281660254037844,-0.0209820508075689,-0.00238397459621554));
#879=CARTESIAN_POINT('',(0.0281660254037844,-0.0209820508075689,0.0441160254037845));
#880=CARTESIAN_POINT('',(0.0281660254037844,-0.0707320508075689,0.0208660254037845));
#881=CARTESIAN_POINT('',(0.0231660254037845,-0.0442320508075689,0.0208660254037845));
#882=CARTESIAN_POINT('',(0.0231660254037845,-0.0177320508075689,0.000866025403784449));
#883=CARTESIAN_POINT('',(0.0231660254037845,-0.0217320508075689,0.0448660254037845));
#884=CARTESIAN_POINT('',(-0.0191359745962155,-0.0657320508075689,0.0208660254037845));
#885=CARTESIAN_POINT('',(0.0168660254037845,-0.0657320508075689,0.00286602540378445));
#886=CARTESIAN_POINT('',(-0.0186695085021483,-0.0657320508075689,-0.00666950850214829));
#887=CARTESIAN_POINT('',(-0.0241339745962155,-0.0657320508075689,-0.00120504240808102));
#888=CARTESIAN_POINT('',(-0.0241339745962155,-0.0657320508075689,0.0208660254037845));
#889=CARTESIAN_POINT('',(-0.0241339745962155,-0.0657320508075689,0.0429370932156499));
#890=CARTESIAN_POINT('',(-0.0226695085021483,-0.0657320508075689,0.0444015593097172));
#891=CARTESIAN_POINT('',(0.0168660254037845,-0.0657320508075689,0.0388660254037844));
#892=CARTESIAN_POINT('',(-0.0131339745962155,-0.0657320508075689,0.0388660254037844));
#893=CARTESIAN_POINT('',(-0.0146339745962155,-0.0657320508075689,0.0388660254037844));
#894=CARTESIAN_POINT('',(-0.0131339745962155,-0.0657320508075689,0.00286602540378445));
#895=CARTESIAN_POINT('',(-0.0146339745962155,-0.0657320508075689,0.00286602540378445));
#896=CARTESIAN_POINT('',(0.0168660254037845,-0.0657320508075689,0.0388660254037844));
#897=CARTESIAN_POINT('',(0.0153660254037845,-0.0657320508075689,0.0388660254037844));
#898=CARTESIAN_POINT('',(0.0168660254037845,-0.0657320508075689,0.00286602540378445));
#899=CARTESIAN_POINT('',(0.0153660254037845,-0.0657320508075689,0.00286602540378445));
#900=CARTESIAN_POINT('',(-0.0241339745962155,-0.0417320508075689,0.0476660254037845));
#901=CARTESIAN_POINT('',(-0.0241339745962155,-0.0707320508075689,0.0208660254037845));
#902=CARTESIAN_POINT('',(-0.0241339745962155,-0.0707320508075689,0.0429370932156499));
#903=CARTESIAN_POINT('',(-0.0241339745962155,-0.0707320508075689,-0.00120504240808102));
#904=CARTESIAN_POINT('',(-0.0241339745962155,-0.0417320508075689,0.0429370932156499));
#905=CARTESIAN_POINT('',(-0.0241339745962155,-0.0417320508075689,-0.00120504240808102));
#906=CARTESIAN_POINT('',(-0.0191359745962155,-0.0707320508075689,0.0208660254037845));
#907=CARTESIAN_POINT('',(-0.0131339745962155,-0.0707320508075689,0.0388660254037844));
#908=CARTESIAN_POINT('',(-0.0146339745962155,-0.0707320508075689,0.0388660254037844));
#909=CARTESIAN_POINT('',(0.0168660254037845,-0.0707320508075689,0.00286602540378445));
#910=CARTESIAN_POINT('',(0.0153660254037845,-0.0707320508075689,0.00286602540378445));
#911=CARTESIAN_POINT('',(-0.0131339745962155,-0.0707320508075689,0.00286602540378445));
#912=CARTESIAN_POINT('',(-0.0146339745962155,-0.0707320508075689,0.00286602540378445));
#913=CARTESIAN_POINT('',(0.0168660254037845,-0.0707320508075689,0.0388660254037844));
#914=CARTESIAN_POINT('',(0.0153660254037845,-0.0707320508075689,0.0388660254037844));
#915=CARTESIAN_POINT('',(-0.0226695085021483,-0.0707320508075689,0.0444015593097172));
#916=CARTESIAN_POINT('',(-0.0186695085021483,-0.0707320508075689,-0.00666950850214829));
#917=CARTESIAN_POINT('',(0.0168660254037845,-0.0907320508075689,0.0388660254037844));
#918=CARTESIAN_POINT('',(-0.0131339745962156,-0.0907320508075689,0.00286602540378445));
#919=CARTESIAN_POINT('',(0.0168660254037845,-0.0907320508075689,0.00286602540378445));
#920=CARTESIAN_POINT('',(-0.0131339745962156,-0.0907320508075689,0.0388660254037844));
#921=CARTESIAN_POINT('',(-0.0226695085021483,-0.0417320508075689,0.0444015593097172));
#922=CARTESIAN_POINT('',(-0.0186695085021483,-0.0417320508075689,-0.00666950850214829));
#923=CARTESIAN_POINT('',(0.0281660254037844,-0.0177320508075689,0.00086602540378445));
#924=CARTESIAN_POINT('',(0.0281660254037844,-0.0217320508075689,0.0448660254037845));
#925=CARTESIAN_POINT('',(0.0256660254037844,-0.0572320508075689,0.00536602540378445));
#926=CARTESIAN_POINT('',(0.0256660254037844,-0.0572320508075689,0.00536602540378445));
#927=CARTESIAN_POINT('',(0.0256660254037844,-0.0572320508075689,0.00211602540378445));
#928=CARTESIAN_POINT('',(0.0256660254037844,-0.0442320508075689,0.0208660254037845));
#929=CARTESIAN_POINT('',(0.0256660254037844,-0.0262320508075689,0.00536602540378445));
#930=CARTESIAN_POINT('',(0.0256660254037844,-0.0262320508075689,0.00536602540378445));
#931=CARTESIAN_POINT('',(0.0256660254037844,-0.0262320508075689,0.00211602540378445));
#932=CARTESIAN_POINT('',(0.0256660254037844,-0.0442320508075689,0.0208660254037845));
#933=CARTESIAN_POINT('',(0.0256660254037844,-0.0262320508075689,0.0363660254037845));
#934=CARTESIAN_POINT('',(0.0256660254037844,-0.0262320508075689,0.0363660254037845));
#935=CARTESIAN_POINT('',(0.0256660254037844,-0.0262320508075689,0.0331160254037845));
#936=CARTESIAN_POINT('',(0.0256660254037844,-0.0442320508075689,0.0208660254037845));
#937=CARTESIAN_POINT('',(0.0256660254037844,-0.0572320508075689,0.0363660254037845));
#938=CARTESIAN_POINT('',(0.0256660254037844,-0.0572320508075689,0.0363660254037845));
#939=CARTESIAN_POINT('',(0.0256660254037844,-0.0572320508075689,0.0331160254037845));
#940=CARTESIAN_POINT('',(0.0256660254037844,-0.0442320508075689,0.0208660254037845));
#941=CARTESIAN_POINT('',(0.0168660254037845,-0.0563320508075689,0.0388660254037844));
#942=CARTESIAN_POINT('',(0.0168660254037845,-0.0563320508075689,0.00286602540378445));
#943=MECHANICAL_DESIGN_GEOMETRIC_PRESENTATION_REPRESENTATION('',(#558),
#944);
#944=(
GEOMETRIC_REPRESENTATION_CONTEXT(3)
GLOBAL_UNCERTAINTY_ASSIGNED_CONTEXT((#945))
GLOBAL_UNIT_ASSIGNED_CONTEXT((#948,#947,#946))
REPRESENTATION_CONTEXT('Motor Mount','TOP_LEVEL_ASSEMBLY_PART')
);
#945=UNCERTAINTY_MEASURE_WITH_UNIT(LENGTH_MEASURE(1.E-8),#948,
'DISTANCE_ACCURACY_VALUE','Maximum Tolerance applied to model');
#946=(
NAMED_UNIT(*)
SI_UNIT($,.STERADIAN.)
SOLID_ANGLE_UNIT()
);
#947=(
NAMED_UNIT(*)
PLANE_ANGLE_UNIT()
SI_UNIT($,.RADIAN.)
);
#948=(
LENGTH_UNIT()
NAMED_UNIT(*)
SI_UNIT($,.METRE.)
);
#949=PRODUCT_DEFINITION_SHAPE('','',#950);
#950=PRODUCT_DEFINITION('','',#952,#951);
#951=PRODUCT_DEFINITION_CONTEXT('',#958,'design');
#952=PRODUCT_DEFINITION_FORMATION_WITH_SPECIFIED_SOURCE('','',#954,
 .NOT_KNOWN.);
#953=PRODUCT_RELATED_PRODUCT_CATEGORY('','',(#954));
#954=PRODUCT('Motor Mount','Motor Mount','Motor Mount',(#956));
#955=PRODUCT_CATEGORY('','');
#956=PRODUCT_CONTEXT('',#958,'mechanical');
#957=APPLICATION_PROTOCOL_DEFINITION('international standard',
'ap242_managed_model_based_3d_engineering',2020,#958);
#958=APPLICATION_CONTEXT('managed model based 3d engineering');
ENDSEC;
END-ISO-10303-21;
