ISO-10303-21;
HEADER;
/* Generated by software containing ST-Developer
 * from STEP Tools, Inc. (www.steptools.com) 
 */
/* OPTION: using custom renumber hook */

FILE_DESCRIPTION(
/* description */ ('STEP AP242 Edition 2',
'CAx-IF Rec.Pracs.---Representation and Presentation of Product Manufa
cturing Information (PMI)---4.0---2014-10-13',
'CAx-IF Rec.Pracs.---3D Tessellated Geometry---0.4---2014-09-14','2;1',
'CAx-IF Rec.Pracs.---User Defined Attributes---1.5---2016-08-15'),
/* implementation_level */ '2;1');

FILE_NAME(
/* name */ 'Full Assembly - Water Atomizer Mount',
/* time_stamp */ '2026-04-24T00:57:04Z',
/* author */ (''),
/* organization */ (''),
/* preprocessor_version */ 'ST-DEVELOPER v20',
/* originating_system */ 'ONSHAPE BY PTC INC, 1.213',
/* authorisation */ '  ');

FILE_SCHEMA (('AP242_MANAGED_MODEL_BASED_3D_ENGINEERING_MIM_LF { 1 0 10303 442 3 1 4 }'));
ENDSEC;

DATA;
#10=SHAPE_REPRESENTATION_RELATIONSHIP('','',#261,#11);
#11=ADVANCED_BREP_SHAPE_REPRESENTATION('',(#259),#433);
#12=PLANE('',#266);
#13=PLANE('',#272);
#14=PLANE('',#273);
#15=PLANE('',#275);
#16=PLANE('',#278);
#17=PLANE('',#282);
#18=PLANE('',#286);
#19=PLANE('',#287);
#20=PLANE('',#288);
#21=PLANE('',#289);
#22=LINE('',#369,#40);
#23=LINE('',#373,#41);
#24=LINE('',#375,#42);
#25=LINE('',#378,#43);
#26=LINE('',#379,#44);
#27=LINE('',#385,#45);
#28=LINE('',#389,#46);
#29=LINE('',#393,#47);
#30=LINE('',#395,#48);
#31=LINE('',#396,#49);
#32=LINE('',#398,#50);
#33=LINE('',#400,#51);
#34=LINE('',#402,#52);
#35=LINE('',#418,#53);
#36=LINE('',#420,#54);
#37=LINE('',#422,#55);
#38=LINE('',#428,#56);
#39=LINE('',#430,#57);
#40=VECTOR('',#296,1.);
#41=VECTOR('',#299,1.);
#42=VECTOR('',#302,1.);
#43=VECTOR('',#303,1.);
#44=VECTOR('',#304,1.);
#45=VECTOR('',#311,1.);
#46=VECTOR('',#314,1.);
#47=VECTOR('',#317,1.);
#48=VECTOR('',#320,1.);
#49=VECTOR('',#321,1.);
#50=VECTOR('',#324,1.);
#51=VECTOR('',#325,1.);
#52=VECTOR('',#326,1.);
#53=VECTOR('',#347,1.);
#54=VECTOR('',#348,1.);
#55=VECTOR('',#349,1.);
#56=VECTOR('',#358,1.);
#57=VECTOR('',#361,1.);
#58=ORIENTED_EDGE('',*,*,#118,.F.);
#59=ORIENTED_EDGE('',*,*,#119,.T.);
#60=ORIENTED_EDGE('',*,*,#120,.F.);
#61=ORIENTED_EDGE('',*,*,#121,.F.);
#62=ORIENTED_EDGE('',*,*,#122,.F.);
#63=ORIENTED_EDGE('',*,*,#123,.T.);
#64=ORIENTED_EDGE('',*,*,#121,.T.);
#65=ORIENTED_EDGE('',*,*,#124,.T.);
#66=ORIENTED_EDGE('',*,*,#125,.F.);
#67=ORIENTED_EDGE('',*,*,#122,.T.);
#68=ORIENTED_EDGE('',*,*,#126,.T.);
#69=ORIENTED_EDGE('',*,*,#127,.F.);
#70=ORIENTED_EDGE('',*,*,#128,.F.);
#71=ORIENTED_EDGE('',*,*,#129,.T.);
#72=ORIENTED_EDGE('',*,*,#130,.F.);
#73=ORIENTED_EDGE('',*,*,#131,.F.);
#74=ORIENTED_EDGE('',*,*,#132,.F.);
#75=ORIENTED_EDGE('',*,*,#127,.T.);
#76=ORIENTED_EDGE('',*,*,#133,.F.);
#77=ORIENTED_EDGE('',*,*,#119,.F.);
#78=ORIENTED_EDGE('',*,*,#130,.T.);
#79=ORIENTED_EDGE('',*,*,#134,.F.);
#80=ORIENTED_EDGE('',*,*,#135,.T.);
#81=ORIENTED_EDGE('',*,*,#136,.F.);
#82=ORIENTED_EDGE('',*,*,#137,.F.);
#83=ORIENTED_EDGE('',*,*,#132,.T.);
#84=ORIENTED_EDGE('',*,*,#118,.T.);
#85=ORIENTED_EDGE('',*,*,#123,.F.);
#86=ORIENTED_EDGE('',*,*,#125,.T.);
#87=ORIENTED_EDGE('',*,*,#138,.F.);
#88=ORIENTED_EDGE('',*,*,#138,.T.);
#89=ORIENTED_EDGE('',*,*,#137,.T.);
#90=ORIENTED_EDGE('',*,*,#139,.T.);
#91=ORIENTED_EDGE('',*,*,#120,.T.);
#92=ORIENTED_EDGE('',*,*,#133,.T.);
#93=ORIENTED_EDGE('',*,*,#126,.F.);
#94=ORIENTED_EDGE('',*,*,#124,.F.);
#95=ORIENTED_EDGE('',*,*,#139,.F.);
#96=ORIENTED_EDGE('',*,*,#140,.T.);
#97=ORIENTED_EDGE('',*,*,#141,.F.);
#98=ORIENTED_EDGE('',*,*,#128,.T.);
#99=ORIENTED_EDGE('',*,*,#142,.T.);
#100=ORIENTED_EDGE('',*,*,#143,.F.);
#101=ORIENTED_EDGE('',*,*,#144,.T.);
#102=ORIENTED_EDGE('',*,*,#145,.F.);
#103=ORIENTED_EDGE('',*,*,#141,.T.);
#104=ORIENTED_EDGE('',*,*,#140,.F.);
#105=ORIENTED_EDGE('',*,*,#145,.T.);
#106=ORIENTED_EDGE('',*,*,#144,.F.);
#107=ORIENTED_EDGE('',*,*,#146,.T.);
#108=ORIENTED_EDGE('',*,*,#134,.T.);
#109=ORIENTED_EDGE('',*,*,#129,.F.);
#110=ORIENTED_EDGE('',*,*,#146,.F.);
#111=ORIENTED_EDGE('',*,*,#143,.T.);
#112=ORIENTED_EDGE('',*,*,#147,.T.);
#113=ORIENTED_EDGE('',*,*,#135,.F.);
#114=ORIENTED_EDGE('',*,*,#142,.F.);
#115=ORIENTED_EDGE('',*,*,#131,.T.);
#116=ORIENTED_EDGE('',*,*,#136,.T.);
#117=ORIENTED_EDGE('',*,*,#147,.F.);
#118=EDGE_CURVE('',#148,#149,#170,.F.);
#119=EDGE_CURVE('',#148,#150,#22,.T.);
#120=EDGE_CURVE('',#151,#150,#171,.T.);
#121=EDGE_CURVE('',#149,#151,#23,.T.);
#122=EDGE_CURVE('',#152,#153,#24,.T.);
#123=EDGE_CURVE('',#152,#149,#25,.T.);
#124=EDGE_CURVE('',#151,#153,#26,.T.);
#125=EDGE_CURVE('',#152,#154,#172,.F.);
#126=EDGE_CURVE('',#153,#155,#173,.T.);
#127=EDGE_CURVE('',#154,#155,#27,.T.);
#128=EDGE_CURVE('',#156,#157,#174,.T.);
#129=EDGE_CURVE('',#156,#158,#28,.T.);
#130=EDGE_CURVE('',#159,#158,#175,.T.);
#131=EDGE_CURVE('',#157,#159,#29,.T.);
#132=EDGE_CURVE('',#154,#148,#30,.T.);
#133=EDGE_CURVE('',#150,#155,#31,.T.);
#134=EDGE_CURVE('',#160,#158,#32,.T.);
#135=EDGE_CURVE('',#160,#161,#33,.T.);
#136=EDGE_CURVE('',#159,#161,#34,.T.);
#137=EDGE_CURVE('',#162,#162,#176,.T.);
#138=EDGE_CURVE('',#163,#163,#177,.F.);
#139=EDGE_CURVE('',#164,#164,#178,.T.);
#140=EDGE_CURVE('',#165,#165,#179,.T.);
#141=EDGE_CURVE('',#166,#166,#180,.T.);
#142=EDGE_CURVE('',#157,#167,#35,.T.);
#143=EDGE_CURVE('',#168,#167,#36,.T.);
#144=EDGE_CURVE('',#168,#156,#37,.T.);
#145=EDGE_CURVE('',#169,#169,#181,.T.);
#146=EDGE_CURVE('',#168,#160,#38,.T.);
#147=EDGE_CURVE('',#167,#161,#39,.T.);
#148=VERTEX_POINT('',#367);
#149=VERTEX_POINT('',#368);
#150=VERTEX_POINT('',#370);
#151=VERTEX_POINT('',#372);
#152=VERTEX_POINT('',#376);
#153=VERTEX_POINT('',#377);
#154=VERTEX_POINT('',#382);
#155=VERTEX_POINT('',#384);
#156=VERTEX_POINT('',#387);
#157=VERTEX_POINT('',#388);
#158=VERTEX_POINT('',#390);
#159=VERTEX_POINT('',#392);
#160=VERTEX_POINT('',#399);
#161=VERTEX_POINT('',#401);
#162=VERTEX_POINT('',#404);
#163=VERTEX_POINT('',#407);
#164=VERTEX_POINT('',#411);
#165=VERTEX_POINT('',#414);
#166=VERTEX_POINT('',#417);
#167=VERTEX_POINT('',#419);
#168=VERTEX_POINT('',#421);
#169=VERTEX_POINT('',#425);
#170=CIRCLE('',#264,0.0101);
#171=CIRCLE('',#265,0.0101);
#172=CIRCLE('',#268,0.0141);
#173=CIRCLE('',#269,0.0141);
#174=CIRCLE('',#270,0.0141);
#175=CIRCLE('',#271,0.0141);
#176=CIRCLE('',#274,0.007);
#177=CIRCLE('',#276,0.007);
#178=CIRCLE('',#279,0.005);
#179=CIRCLE('',#281,0.005);
#180=CIRCLE('',#283,0.0085);
#181=CIRCLE('',#285,0.0085);
#182=EDGE_LOOP('',(#58,#59,#60,#61));
#183=EDGE_LOOP('',(#62,#63,#64,#65));
#184=EDGE_LOOP('',(#66,#67,#68,#69));
#185=EDGE_LOOP('',(#70,#71,#72,#73));
#186=EDGE_LOOP('',(#74,#75,#76,#77));
#187=EDGE_LOOP('',(#78,#79,#80,#81));
#188=EDGE_LOOP('',(#82));
#189=EDGE_LOOP('',(#83,#84,#85,#86));
#190=EDGE_LOOP('',(#87));
#191=EDGE_LOOP('',(#88));
#192=EDGE_LOOP('',(#89));
#193=EDGE_LOOP('',(#90));
#194=EDGE_LOOP('',(#91,#92,#93,#94));
#195=EDGE_LOOP('',(#95));
#196=EDGE_LOOP('',(#96));
#197=EDGE_LOOP('',(#97));
#198=EDGE_LOOP('',(#98,#99,#100,#101));
#199=EDGE_LOOP('',(#102));
#200=EDGE_LOOP('',(#103));
#201=EDGE_LOOP('',(#104));
#202=EDGE_LOOP('',(#105));
#203=EDGE_LOOP('',(#106,#107,#108,#109));
#204=EDGE_LOOP('',(#110,#111,#112,#113));
#205=EDGE_LOOP('',(#114,#115,#116,#117));
#206=FACE_BOUND('',#182,.T.);
#207=FACE_BOUND('',#183,.T.);
#208=FACE_BOUND('',#184,.T.);
#209=FACE_BOUND('',#185,.T.);
#210=FACE_BOUND('',#186,.T.);
#211=FACE_BOUND('',#187,.T.);
#212=FACE_BOUND('',#188,.T.);
#213=FACE_BOUND('',#189,.T.);
#214=FACE_BOUND('',#190,.T.);
#215=FACE_BOUND('',#191,.T.);
#216=FACE_BOUND('',#192,.T.);
#217=FACE_BOUND('',#193,.T.);
#218=FACE_BOUND('',#194,.T.);
#219=FACE_BOUND('',#195,.T.);
#220=FACE_BOUND('',#196,.T.);
#221=FACE_BOUND('',#197,.T.);
#222=FACE_BOUND('',#198,.T.);
#223=FACE_BOUND('',#199,.T.);
#224=FACE_BOUND('',#200,.T.);
#225=FACE_BOUND('',#201,.T.);
#226=FACE_BOUND('',#202,.T.);
#227=FACE_BOUND('',#203,.T.);
#228=FACE_BOUND('',#204,.T.);
#229=FACE_BOUND('',#205,.T.);
#230=CYLINDRICAL_SURFACE('',#263,0.0101);
#231=CYLINDRICAL_SURFACE('',#267,0.0141);
#232=CYLINDRICAL_SURFACE('',#277,0.007);
#233=CYLINDRICAL_SURFACE('',#280,0.005);
#234=CYLINDRICAL_SURFACE('',#284,0.0085);
#235=ADVANCED_FACE('',(#206),#230,.F.);
#236=ADVANCED_FACE('',(#207),#12,.F.);
#237=ADVANCED_FACE('',(#208,#209),#231,.T.);
#238=ADVANCED_FACE('',(#210),#13,.T.);
#239=ADVANCED_FACE('',(#211,#212),#14,.T.);
#240=ADVANCED_FACE('',(#213,#214),#15,.F.);
#241=ADVANCED_FACE('',(#215,#216),#232,.F.);
#242=ADVANCED_FACE('',(#217,#218),#16,.F.);
#243=ADVANCED_FACE('',(#219,#220),#233,.F.);
#244=ADVANCED_FACE('',(#221,#222),#17,.T.);
#245=ADVANCED_FACE('',(#223,#224),#234,.T.);
#246=ADVANCED_FACE('',(#225,#226),#18,.T.);
#247=ADVANCED_FACE('',(#227),#19,.F.);
#248=ADVANCED_FACE('',(#228),#20,.T.);
#249=ADVANCED_FACE('',(#229),#21,.F.);
#250=CLOSED_SHELL('',(#235,#236,#237,#238,#239,#240,#241,#242,#243,#244,
#245,#246,#247,#248,#249));
#251=STYLED_ITEM('',(#252),#259);
#252=PRESENTATION_STYLE_ASSIGNMENT((#253));
#253=SURFACE_STYLE_USAGE(.BOTH.,#254);
#254=SURFACE_SIDE_STYLE('',(#255));
#255=SURFACE_STYLE_FILL_AREA(#256);
#256=FILL_AREA_STYLE('',(#257));
#257=FILL_AREA_STYLE_COLOUR('',#258);
#258=COLOUR_RGB('',0.901960784313726,0.901960784313726,0.901960784313726);
#259=MANIFOLD_SOLID_BREP('Water Atomizer Mount',#250);
#260=SHAPE_DEFINITION_REPRESENTATION(#438,#261);
#261=SHAPE_REPRESENTATION('Water Atomizer Mount',(#262),#433);
#262=AXIS2_PLACEMENT_3D('',#364,#290,#291);
#263=AXIS2_PLACEMENT_3D('',#365,#292,#293);
#264=AXIS2_PLACEMENT_3D('',#366,#294,#295);
#265=AXIS2_PLACEMENT_3D('',#371,#297,#298);
#266=AXIS2_PLACEMENT_3D('',#374,#300,#301);
#267=AXIS2_PLACEMENT_3D('',#380,#305,#306);
#268=AXIS2_PLACEMENT_3D('',#381,#307,#308);
#269=AXIS2_PLACEMENT_3D('',#383,#309,#310);
#270=AXIS2_PLACEMENT_3D('',#386,#312,#313);
#271=AXIS2_PLACEMENT_3D('',#391,#315,#316);
#272=AXIS2_PLACEMENT_3D('',#394,#318,#319);
#273=AXIS2_PLACEMENT_3D('',#397,#322,#323);
#274=AXIS2_PLACEMENT_3D('',#403,#327,#328);
#275=AXIS2_PLACEMENT_3D('',#405,#329,#330);
#276=AXIS2_PLACEMENT_3D('',#406,#331,#332);
#277=AXIS2_PLACEMENT_3D('',#408,#333,#334);
#278=AXIS2_PLACEMENT_3D('',#409,#335,#336);
#279=AXIS2_PLACEMENT_3D('',#410,#337,#338);
#280=AXIS2_PLACEMENT_3D('',#412,#339,#340);
#281=AXIS2_PLACEMENT_3D('',#413,#341,#342);
#282=AXIS2_PLACEMENT_3D('',#415,#343,#344);
#283=AXIS2_PLACEMENT_3D('',#416,#345,#346);
#284=AXIS2_PLACEMENT_3D('',#423,#350,#351);
#285=AXIS2_PLACEMENT_3D('',#424,#352,#353);
#286=AXIS2_PLACEMENT_3D('',#426,#354,#355);
#287=AXIS2_PLACEMENT_3D('',#427,#356,#357);
#288=AXIS2_PLACEMENT_3D('',#429,#359,#360);
#289=AXIS2_PLACEMENT_3D('',#431,#362,#363);
#290=DIRECTION('',(0.,0.,1.));
#291=DIRECTION('',(1.,0.,0.));
#292=DIRECTION('',(0.,0.,-1.));
#293=DIRECTION('',(-1.,0.,0.));
#294=DIRECTION('',(0.,0.,1.));
#295=DIRECTION('',(1.,0.,0.));
#296=DIRECTION('',(0.,0.,-1.));
#297=DIRECTION('',(0.,0.,1.));
#298=DIRECTION('',(1.,0.,0.));
#299=DIRECTION('',(0.,0.,-1.));
#300=DIRECTION('',(-1.,0.,0.));
#301=DIRECTION('',(0.,0.,1.));
#302=DIRECTION('',(0.,0.,-1.));
#303=DIRECTION('',(0.,-1.,0.));
#304=DIRECTION('',(0.,1.,0.));
#305=DIRECTION('',(0.,0.,-1.));
#306=DIRECTION('',(-1.,0.,0.));
#307=DIRECTION('',(0.,0.,1.));
#308=DIRECTION('',(1.,0.,0.));
#309=DIRECTION('',(0.,0.,-1.));
#310=DIRECTION('',(-1.,0.,0.));
#311=DIRECTION('',(0.,0.,-1.));
#312=DIRECTION('',(0.,0.,-1.));
#313=DIRECTION('',(-1.,0.,0.));
#314=DIRECTION('',(0.,0.,1.));
#315=DIRECTION('',(0.,0.,1.));
#316=DIRECTION('',(1.,0.,0.));
#317=DIRECTION('',(0.,0.,1.));
#318=DIRECTION('',(1.,0.,0.));
#319=DIRECTION('',(0.,0.,-1.));
#320=DIRECTION('',(0.,1.,0.));
#321=DIRECTION('',(0.,-1.,0.));
#322=DIRECTION('',(0.,0.,1.));
#323=DIRECTION('',(1.,0.,0.));
#324=DIRECTION('',(1.,0.,0.));
#325=DIRECTION('',(0.,-1.,0.));
#326=DIRECTION('',(-1.,-1.0842021724855E-16,0.));
#327=DIRECTION('',(0.,0.,1.));
#328=DIRECTION('',(1.,0.,0.));
#329=DIRECTION('',(0.,0.,1.));
#330=DIRECTION('',(1.,0.,0.));
#331=DIRECTION('',(0.,0.,1.));
#332=DIRECTION('',(1.,0.,0.));
#333=DIRECTION('',(0.,0.,1.));
#334=DIRECTION('',(1.,0.,0.));
#335=DIRECTION('',(0.,0.,-1.));
#336=DIRECTION('',(1.,0.,0.));
#337=DIRECTION('',(0.,0.,-1.));
#338=DIRECTION('',(-1.,0.,0.));
#339=DIRECTION('',(0.,0.,1.));
#340=DIRECTION('',(1.,0.,0.));
#341=DIRECTION('',(0.,0.,-1.));
#342=DIRECTION('',(-1.,0.,0.));
#343=DIRECTION('',(0.,0.,-1.));
#344=DIRECTION('',(1.,0.,0.));
#345=DIRECTION('',(0.,0.,-1.));
#346=DIRECTION('',(-1.,0.,0.));
#347=DIRECTION('',(-1.,-1.0842021724855E-16,0.));
#348=DIRECTION('',(0.,-1.,0.));
#349=DIRECTION('',(1.,0.,0.));
#350=DIRECTION('',(0.,0.,1.));
#351=DIRECTION('',(1.,0.,0.));
#352=DIRECTION('',(0.,0.,-1.));
#353=DIRECTION('',(-1.,0.,0.));
#354=DIRECTION('',(0.,0.,-1.));
#355=DIRECTION('',(1.,0.,0.));
#356=DIRECTION('',(0.,-1.,0.));
#357=DIRECTION('',(0.,0.,-1.));
#358=DIRECTION('',(0.,0.,1.));
#359=DIRECTION('',(-1.,0.,0.));
#360=DIRECTION('',(0.,0.,1.));
#361=DIRECTION('',(0.,0.,1.));
#362=DIRECTION('',(-1.0842021724855E-16,1.,0.));
#363=DIRECTION('',(-1.,-1.0842021724855E-16,0.));
#364=CARTESIAN_POINT('',(0.,0.,0.));
#365=CARTESIAN_POINT('',(-6.18446633569413E-19,0.,0.006));
#366=CARTESIAN_POINT('',(-6.18446633569413E-19,0.,0.00425));
#367=CARTESIAN_POINT('',(-1.85533990070824E-18,-0.0101,0.00425));
#368=CARTESIAN_POINT('',(6.18446633569413E-19,0.0101,0.00425));
#369=CARTESIAN_POINT('',(-1.85533990070824E-18,-0.0101,0.006));
#370=CARTESIAN_POINT('',(-1.85533990070824E-18,-0.0101,0.));
#371=CARTESIAN_POINT('',(-6.18446633569413E-19,0.,0.));
#372=CARTESIAN_POINT('',(6.18446633569413E-19,0.0101,0.));
#373=CARTESIAN_POINT('',(6.18446633569413E-19,0.0101,0.006));
#374=CARTESIAN_POINT('',(0.,0.0121,0.006));
#375=CARTESIAN_POINT('',(8.63375993398884E-19,0.0141,0.006));
#376=CARTESIAN_POINT('',(8.63375993398884E-19,0.0141,0.00425));
#377=CARTESIAN_POINT('',(8.63375993398884E-19,0.0141,0.));
#378=CARTESIAN_POINT('',(0.,0.0121,0.00425));
#379=CARTESIAN_POINT('',(0.,0.0121,0.));
#380=CARTESIAN_POINT('',(-8.63375993398884E-19,0.,0.006));
#381=CARTESIAN_POINT('',(0.,8.63375993398884E-19,0.00425));
#382=CARTESIAN_POINT('',(0.,-0.0141,0.00425));
#383=CARTESIAN_POINT('',(0.,-8.63375993398884E-19,0.));
#384=CARTESIAN_POINT('',(0.,-0.0141,0.));
#385=CARTESIAN_POINT('',(0.,-0.0141,0.006));
#386=CARTESIAN_POINT('',(0.,-8.63375993398884E-19,-0.002));
#387=CARTESIAN_POINT('',(-0.0131837020597403,0.005,-0.002));
#388=CARTESIAN_POINT('',(-0.0131837020597403,-0.005,-0.002));
#389=CARTESIAN_POINT('',(-0.0131837020597403,0.005,-0.002002));
#390=CARTESIAN_POINT('',(-0.0131837020597403,0.005,0.006));
#391=CARTESIAN_POINT('',(-8.63375993398884E-19,0.,0.006));
#392=CARTESIAN_POINT('',(-0.0131837020597403,-0.005,0.006));
#393=CARTESIAN_POINT('',(-0.0131837020597403,-0.005,-0.002002));
#394=CARTESIAN_POINT('',(0.,-0.0121,0.006));
#395=CARTESIAN_POINT('',(0.,-0.0121,0.00425));
#396=CARTESIAN_POINT('',(0.,-0.0121,0.));
#397=CARTESIAN_POINT('',(0.,0.,0.006));
#398=CARTESIAN_POINT('',(-0.0136418510298701,0.005,0.006));
#399=CARTESIAN_POINT('',(-0.0301,0.005,0.006));
#400=CARTESIAN_POINT('',(-0.0301,1.04083408558608E-17,0.006));
#401=CARTESIAN_POINT('',(-0.0301,-0.005,0.006));
#402=CARTESIAN_POINT('',(-0.0221,-0.005,0.006));
#403=CARTESIAN_POINT('',(-8.67361737988404E-19,4.28626379701574E-19,0.006));
#404=CARTESIAN_POINT('',(0.007,4.28626379701574E-19,0.006));
#405=CARTESIAN_POINT('',(0.,0.,0.00425));
#406=CARTESIAN_POINT('',(-8.67361737988404E-19,4.28626379701574E-19,0.00425));
#407=CARTESIAN_POINT('',(0.007,4.28626379701574E-19,0.00425));
#408=CARTESIAN_POINT('',(-8.67361737988404E-19,4.28626379701574E-19,0.004248));
#409=CARTESIAN_POINT('',(0.,0.,0.));
#410=CARTESIAN_POINT('',(0.,-3.06161699786838E-19,0.));
#411=CARTESIAN_POINT('',(-0.005,-3.06161699786838E-19,0.));
#412=CARTESIAN_POINT('',(0.,-3.06161699786838E-19,-0.002));
#413=CARTESIAN_POINT('',(0.,-3.06161699786838E-19,-0.027));
#414=CARTESIAN_POINT('',(-0.005,-3.06161699786838E-19,-0.027));
#415=CARTESIAN_POINT('',(0.,0.,-0.002));
#416=CARTESIAN_POINT('',(0.,-5.20474889637625E-19,-0.002));
#417=CARTESIAN_POINT('',(-0.0085,-5.20474889637625E-19,-0.002));
#418=CARTESIAN_POINT('',(-0.0221,-0.005,-0.002));
#419=CARTESIAN_POINT('',(-0.0301,-0.005,-0.002));
#420=CARTESIAN_POINT('',(-0.0301,1.04083408558608E-17,-0.002));
#421=CARTESIAN_POINT('',(-0.0301,0.005,-0.002));
#422=CARTESIAN_POINT('',(-0.0136418510298701,0.005,-0.002));
#423=CARTESIAN_POINT('',(0.,-5.20474889637625E-19,-0.027));
#424=CARTESIAN_POINT('',(0.,-5.20474889637625E-19,-0.027));
#425=CARTESIAN_POINT('',(-0.0085,-5.20474889637625E-19,-0.027));
#426=CARTESIAN_POINT('',(0.,0.,-0.027));
#427=CARTESIAN_POINT('',(-0.0136418510298701,0.005,-0.002002));
#428=CARTESIAN_POINT('',(-0.0301,0.005,-0.002002));
#429=CARTESIAN_POINT('',(-0.0301,1.04083408558608E-17,-0.002002));
#430=CARTESIAN_POINT('',(-0.0301,-0.005,-0.002002));
#431=CARTESIAN_POINT('',(-0.0221,-0.005,-0.002002));
#432=MECHANICAL_DESIGN_GEOMETRIC_PRESENTATION_REPRESENTATION('',(#251),
#433);
#433=(
GEOMETRIC_REPRESENTATION_CONTEXT(3)
GLOBAL_UNCERTAINTY_ASSIGNED_CONTEXT((#434))
GLOBAL_UNIT_ASSIGNED_CONTEXT((#437,#436,#435))
REPRESENTATION_CONTEXT('Water Atomizer Mount','TOP_LEVEL_ASSEMBLY_PART')
);
#434=UNCERTAINTY_MEASURE_WITH_UNIT(LENGTH_MEASURE(1.E-8),#437,
'DISTANCE_ACCURACY_VALUE','Maximum Tolerance applied to model');
#435=(
NAMED_UNIT(*)
SI_UNIT($,.STERADIAN.)
SOLID_ANGLE_UNIT()
);
#436=(
NAMED_UNIT(*)
PLANE_ANGLE_UNIT()
SI_UNIT($,.RADIAN.)
);
#437=(
LENGTH_UNIT()
NAMED_UNIT(*)
SI_UNIT($,.METRE.)
);
#438=PRODUCT_DEFINITION_SHAPE('','',#439);
#439=PRODUCT_DEFINITION('','',#441,#440);
#440=PRODUCT_DEFINITION_CONTEXT('',#447,'design');
#441=PRODUCT_DEFINITION_FORMATION_WITH_SPECIFIED_SOURCE('','',#443,
 .NOT_KNOWN.);
#442=PRODUCT_RELATED_PRODUCT_CATEGORY('','',(#443));
#443=PRODUCT('Water Atomizer Mount','Water Atomizer Mount',
'Water Atomizer Mount',(#445));
#444=PRODUCT_CATEGORY('','');
#445=PRODUCT_CONTEXT('',#447,'mechanical');
#446=APPLICATION_PROTOCOL_DEFINITION('international standard',
'ap242_managed_model_based_3d_engineering',2020,#447);
#447=APPLICATION_CONTEXT('managed model based 3d engineering');
ENDSEC;
END-ISO-10303-21;
