ISO-10303-21;
HEADER;
/* Generated by software containing ST-Developer
 * from STEP Tools, Inc. (www.steptools.com) 
 */
/* OPTION: using custom renumber hook */

FILE_DESCRIPTION(
/* description */ ('STEP AP242 Edition 2',
'CAx-IF Rec.Pracs.---Representation and Presentation of Product Manufa
cturing Information (PMI)---4.0---2014-10-13',
'CAx-IF Rec.Pracs.---3D Tessellated Geometry---0.4---2014-09-14','2;1',
'CAx-IF Rec.Pracs.---User Defined Attributes---1.5---2016-08-15'),
/* implementation_level */ '2;1');

FILE_NAME(
/* name */ 'Full Assembly - Power Supply Mount',
/* time_stamp */ '2026-04-24T00:57:03Z',
/* author */ (''),
/* organization */ (''),
/* preprocessor_version */ 'ST-DEVELOPER v20',
/* originating_system */ 'ONSHAPE BY PTC INC, 1.213',
/* authorisation */ '  ');

FILE_SCHEMA (('AP242_MANAGED_MODEL_BASED_3D_ENGINEERING_MIM_LF { 1 0 10303 442 3 1 4 }'));
ENDSEC;

DATA;
#10=SHAPE_REPRESENTATION_RELATIONSHIP('','',#574,#11);
#11=ADVANCED_BREP_SHAPE_REPRESENTATION('',(#572),#930);
#12=CYLINDRICAL_SURFACE('',#589,0.0065);
#13=CYLINDRICAL_SURFACE('',#603,0.0025);
#14=CYLINDRICAL_SURFACE('',#606,0.0025);
#15=CYLINDRICAL_SURFACE('',#607,0.0025);
#16=CYLINDRICAL_SURFACE('',#608,0.0025);
#17=CYLINDRICAL_SURFACE('',#616,0.0065);
#18=CYLINDRICAL_SURFACE('',#617,0.002);
#19=CYLINDRICAL_SURFACE('',#618,0.002);
#20=CYLINDRICAL_SURFACE('',#619,0.002);
#21=CYLINDRICAL_SURFACE('',#620,0.002);
#22=CIRCLE('',#579,0.0025);
#23=CIRCLE('',#580,0.0025);
#24=CIRCLE('',#582,0.0025);
#25=CIRCLE('',#583,0.0025);
#26=CIRCLE('',#584,0.0025);
#27=CIRCLE('',#585,0.0025);
#28=CIRCLE('',#587,0.002);
#29=CIRCLE('',#588,0.002);
#30=CIRCLE('',#590,0.0065);
#31=CIRCLE('',#591,0.0065);
#32=CIRCLE('',#593,0.0025);
#33=CIRCLE('',#594,0.0025);
#34=CIRCLE('',#598,0.0065);
#35=CIRCLE('',#601,0.002);
#36=CIRCLE('',#602,0.002);
#37=CIRCLE('',#605,0.0065);
#38=CIRCLE('',#610,0.002);
#39=CIRCLE('',#611,0.002);
#40=CIRCLE('',#614,0.002);
#41=CIRCLE('',#615,0.002);
#42=ORIENTED_EDGE('',*,*,#184,.F.);
#43=ORIENTED_EDGE('',*,*,#185,.F.);
#44=ORIENTED_EDGE('',*,*,#186,.F.);
#45=ORIENTED_EDGE('',*,*,#187,.T.);
#46=ORIENTED_EDGE('',*,*,#188,.T.);
#47=ORIENTED_EDGE('',*,*,#189,.T.);
#48=ORIENTED_EDGE('',*,*,#190,.F.);
#49=ORIENTED_EDGE('',*,*,#191,.F.);
#50=ORIENTED_EDGE('',*,*,#192,.T.);
#51=ORIENTED_EDGE('',*,*,#193,.T.);
#52=ORIENTED_EDGE('',*,*,#194,.F.);
#53=ORIENTED_EDGE('',*,*,#195,.F.);
#54=ORIENTED_EDGE('',*,*,#196,.F.);
#55=ORIENTED_EDGE('',*,*,#197,.T.);
#56=ORIENTED_EDGE('',*,*,#198,.F.);
#57=ORIENTED_EDGE('',*,*,#199,.F.);
#58=ORIENTED_EDGE('',*,*,#200,.F.);
#59=ORIENTED_EDGE('',*,*,#201,.F.);
#60=ORIENTED_EDGE('',*,*,#202,.T.);
#61=ORIENTED_EDGE('',*,*,#203,.T.);
#62=ORIENTED_EDGE('',*,*,#204,.F.);
#63=ORIENTED_EDGE('',*,*,#188,.F.);
#64=ORIENTED_EDGE('',*,*,#205,.F.);
#65=ORIENTED_EDGE('',*,*,#206,.F.);
#66=ORIENTED_EDGE('',*,*,#207,.F.);
#67=ORIENTED_EDGE('',*,*,#208,.T.);
#68=ORIENTED_EDGE('',*,*,#209,.F.);
#69=ORIENTED_EDGE('',*,*,#210,.T.);
#70=ORIENTED_EDGE('',*,*,#211,.F.);
#71=ORIENTED_EDGE('',*,*,#212,.F.);
#72=ORIENTED_EDGE('',*,*,#213,.T.);
#73=ORIENTED_EDGE('',*,*,#214,.T.);
#74=ORIENTED_EDGE('',*,*,#215,.T.);
#75=ORIENTED_EDGE('',*,*,#216,.F.);
#76=ORIENTED_EDGE('',*,*,#217,.F.);
#77=ORIENTED_EDGE('',*,*,#197,.F.);
#78=ORIENTED_EDGE('',*,*,#218,.F.);
#79=ORIENTED_EDGE('',*,*,#215,.F.);
#80=ORIENTED_EDGE('',*,*,#219,.T.);
#81=ORIENTED_EDGE('',*,*,#220,.T.);
#82=ORIENTED_EDGE('',*,*,#221,.F.);
#83=ORIENTED_EDGE('',*,*,#222,.T.);
#84=ORIENTED_EDGE('',*,*,#223,.F.);
#85=ORIENTED_EDGE('',*,*,#224,.T.);
#86=ORIENTED_EDGE('',*,*,#225,.F.);
#87=ORIENTED_EDGE('',*,*,#226,.T.);
#88=ORIENTED_EDGE('',*,*,#227,.T.);
#89=ORIENTED_EDGE('',*,*,#190,.T.);
#90=ORIENTED_EDGE('',*,*,#228,.F.);
#91=ORIENTED_EDGE('',*,*,#229,.F.);
#92=ORIENTED_EDGE('',*,*,#209,.T.);
#93=ORIENTED_EDGE('',*,*,#230,.F.);
#94=ORIENTED_EDGE('',*,*,#224,.F.);
#95=ORIENTED_EDGE('',*,*,#231,.T.);
#96=ORIENTED_EDGE('',*,*,#232,.T.);
#97=ORIENTED_EDGE('',*,*,#210,.F.);
#98=ORIENTED_EDGE('',*,*,#231,.F.);
#99=ORIENTED_EDGE('',*,*,#223,.T.);
#100=ORIENTED_EDGE('',*,*,#233,.T.);
#101=ORIENTED_EDGE('',*,*,#234,.F.);
#102=ORIENTED_EDGE('',*,*,#186,.T.);
#103=ORIENTED_EDGE('',*,*,#235,.T.);
#104=ORIENTED_EDGE('',*,*,#225,.T.);
#105=ORIENTED_EDGE('',*,*,#236,.F.);
#106=ORIENTED_EDGE('',*,*,#237,.T.);
#107=ORIENTED_EDGE('',*,*,#216,.T.);
#108=ORIENTED_EDGE('',*,*,#218,.T.);
#109=ORIENTED_EDGE('',*,*,#196,.T.);
#110=ORIENTED_EDGE('',*,*,#238,.F.);
#111=ORIENTED_EDGE('',*,*,#202,.F.);
#112=ORIENTED_EDGE('',*,*,#232,.F.);
#113=ORIENTED_EDGE('',*,*,#195,.T.);
#114=ORIENTED_EDGE('',*,*,#239,.F.);
#115=ORIENTED_EDGE('',*,*,#240,.F.);
#116=ORIENTED_EDGE('',*,*,#207,.T.);
#117=ORIENTED_EDGE('',*,*,#241,.T.);
#118=ORIENTED_EDGE('',*,*,#187,.F.);
#119=ORIENTED_EDGE('',*,*,#234,.T.);
#120=ORIENTED_EDGE('',*,*,#242,.T.);
#121=ORIENTED_EDGE('',*,*,#243,.T.);
#122=ORIENTED_EDGE('',*,*,#193,.F.);
#123=ORIENTED_EDGE('',*,*,#198,.T.);
#124=ORIENTED_EDGE('',*,*,#208,.F.);
#125=ORIENTED_EDGE('',*,*,#243,.F.);
#126=ORIENTED_EDGE('',*,*,#244,.T.);
#127=ORIENTED_EDGE('',*,*,#221,.T.);
#128=ORIENTED_EDGE('',*,*,#230,.T.);
#129=ORIENTED_EDGE('',*,*,#220,.F.);
#130=ORIENTED_EDGE('',*,*,#200,.T.);
#131=ORIENTED_EDGE('',*,*,#219,.F.);
#132=ORIENTED_EDGE('',*,*,#201,.T.);
#133=ORIENTED_EDGE('',*,*,#192,.F.);
#134=ORIENTED_EDGE('',*,*,#199,.T.);
#135=ORIENTED_EDGE('',*,*,#245,.T.);
#136=ORIENTED_EDGE('',*,*,#246,.T.);
#137=ORIENTED_EDGE('',*,*,#229,.T.);
#138=ORIENTED_EDGE('',*,*,#247,.T.);
#139=ORIENTED_EDGE('',*,*,#248,.F.);
#140=ORIENTED_EDGE('',*,*,#236,.T.);
#141=ORIENTED_EDGE('',*,*,#248,.T.);
#142=ORIENTED_EDGE('',*,*,#249,.T.);
#143=ORIENTED_EDGE('',*,*,#213,.F.);
#144=ORIENTED_EDGE('',*,*,#237,.F.);
#145=ORIENTED_EDGE('',*,*,#250,.F.);
#146=ORIENTED_EDGE('',*,*,#226,.F.);
#147=ORIENTED_EDGE('',*,*,#235,.F.);
#148=ORIENTED_EDGE('',*,*,#185,.T.);
#149=ORIENTED_EDGE('',*,*,#251,.F.);
#150=ORIENTED_EDGE('',*,*,#252,.F.);
#151=ORIENTED_EDGE('',*,*,#233,.F.);
#152=ORIENTED_EDGE('',*,*,#222,.F.);
#153=ORIENTED_EDGE('',*,*,#244,.F.);
#154=ORIENTED_EDGE('',*,*,#242,.F.);
#155=ORIENTED_EDGE('',*,*,#252,.T.);
#156=ORIENTED_EDGE('',*,*,#240,.T.);
#157=ORIENTED_EDGE('',*,*,#251,.T.);
#158=ORIENTED_EDGE('',*,*,#239,.T.);
#159=ORIENTED_EDGE('',*,*,#212,.T.);
#160=ORIENTED_EDGE('',*,*,#246,.F.);
#161=ORIENTED_EDGE('',*,*,#211,.T.);
#162=ORIENTED_EDGE('',*,*,#245,.F.);
#163=ORIENTED_EDGE('',*,*,#238,.T.);
#164=ORIENTED_EDGE('',*,*,#194,.T.);
#165=ORIENTED_EDGE('',*,*,#217,.T.);
#166=ORIENTED_EDGE('',*,*,#214,.F.);
#167=ORIENTED_EDGE('',*,*,#249,.F.);
#168=ORIENTED_EDGE('',*,*,#247,.F.);
#169=ORIENTED_EDGE('',*,*,#253,.F.);
#170=ORIENTED_EDGE('',*,*,#203,.F.);
#171=ORIENTED_EDGE('',*,*,#228,.T.);
#172=ORIENTED_EDGE('',*,*,#189,.F.);
#173=ORIENTED_EDGE('',*,*,#204,.T.);
#174=ORIENTED_EDGE('',*,*,#253,.T.);
#175=ORIENTED_EDGE('',*,*,#254,.F.);
#176=ORIENTED_EDGE('',*,*,#205,.T.);
#177=ORIENTED_EDGE('',*,*,#191,.T.);
#178=ORIENTED_EDGE('',*,*,#227,.F.);
#179=ORIENTED_EDGE('',*,*,#206,.T.);
#180=ORIENTED_EDGE('',*,*,#254,.T.);
#181=ORIENTED_EDGE('',*,*,#250,.T.);
#182=ORIENTED_EDGE('',*,*,#184,.T.);
#183=ORIENTED_EDGE('',*,*,#241,.F.);
#184=EDGE_CURVE('',#255,#256,#307,.T.);
#185=EDGE_CURVE('',#257,#255,#308,.T.);
#186=EDGE_CURVE('',#258,#257,#309,.T.);
#187=EDGE_CURVE('',#258,#256,#310,.T.);
#188=EDGE_CURVE('',#259,#260,#311,.T.);
#189=EDGE_CURVE('',#260,#261,#312,.T.);
#190=EDGE_CURVE('',#262,#261,#313,.T.);
#191=EDGE_CURVE('',#259,#262,#314,.T.);
#192=EDGE_CURVE('',#263,#263,#22,.T.);
#193=EDGE_CURVE('',#264,#264,#23,.T.);
#194=EDGE_CURVE('',#265,#266,#315,.T.);
#195=EDGE_CURVE('',#267,#265,#316,.T.);
#196=EDGE_CURVE('',#268,#267,#317,.T.);
#197=EDGE_CURVE('',#268,#266,#318,.T.);
#198=EDGE_CURVE('',#269,#269,#24,.T.);
#199=EDGE_CURVE('',#270,#270,#25,.T.);
#200=EDGE_CURVE('',#271,#271,#26,.T.);
#201=EDGE_CURVE('',#272,#272,#27,.T.);
#202=EDGE_CURVE('',#273,#274,#319,.T.);
#203=EDGE_CURVE('',#274,#275,#320,.T.);
#204=EDGE_CURVE('',#260,#275,#321,.T.);
#205=EDGE_CURVE('',#276,#259,#322,.T.);
#206=EDGE_CURVE('',#277,#276,#323,.T.);
#207=EDGE_CURVE('',#278,#277,#324,.T.);
#208=EDGE_CURVE('',#278,#279,#325,.T.);
#209=EDGE_CURVE('',#280,#279,#326,.T.);
#210=EDGE_CURVE('',#280,#273,#327,.T.);
#211=EDGE_CURVE('',#281,#281,#28,.T.);
#212=EDGE_CURVE('',#282,#282,#29,.T.);
#213=EDGE_CURVE('',#283,#284,#328,.T.);
#214=EDGE_CURVE('',#284,#285,#329,.T.);
#215=EDGE_CURVE('',#285,#286,#330,.F.);
#216=EDGE_CURVE('',#283,#286,#331,.T.);
#217=EDGE_CURVE('',#266,#285,#30,.F.);
#218=EDGE_CURVE('',#286,#268,#31,.F.);
#219=EDGE_CURVE('',#287,#287,#32,.T.);
#220=EDGE_CURVE('',#288,#288,#33,.T.);
#221=EDGE_CURVE('',#289,#290,#332,.T.);
#222=EDGE_CURVE('',#289,#291,#333,.F.);
#223=EDGE_CURVE('',#292,#291,#334,.T.);
#224=EDGE_CURVE('',#292,#290,#335,.T.);
#225=EDGE_CURVE('',#293,#294,#336,.T.);
#226=EDGE_CURVE('',#293,#295,#337,.T.);
#227=EDGE_CURVE('',#295,#262,#338,.T.);
#228=EDGE_CURVE('',#296,#261,#339,.T.);
#229=EDGE_CURVE('',#294,#296,#340,.T.);
#230=EDGE_CURVE('',#290,#279,#341,.T.);
#231=EDGE_CURVE('',#292,#280,#342,.T.);
#232=EDGE_CURVE('',#267,#273,#343,.T.);
#233=EDGE_CURVE('',#291,#297,#34,.F.);
#234=EDGE_CURVE('',#258,#297,#344,.T.);
#235=EDGE_CURVE('',#257,#293,#345,.T.);
#236=EDGE_CURVE('',#298,#294,#346,.T.);
#237=EDGE_CURVE('',#298,#283,#347,.T.);
#238=EDGE_CURVE('',#274,#265,#348,.T.);
#239=EDGE_CURVE('',#299,#299,#35,.T.);
#240=EDGE_CURVE('',#300,#300,#36,.T.);
#241=EDGE_CURVE('',#277,#256,#349,.T.);
#242=EDGE_CURVE('',#297,#301,#350,.T.);
#243=EDGE_CURVE('',#301,#278,#351,.T.);
#244=EDGE_CURVE('',#301,#289,#37,.F.);
#245=EDGE_CURVE('',#302,#302,#38,.T.);
#246=EDGE_CURVE('',#303,#303,#39,.T.);
#247=EDGE_CURVE('',#296,#304,#352,.T.);
#248=EDGE_CURVE('',#298,#304,#353,.T.);
#249=EDGE_CURVE('',#304,#284,#354,.T.);
#250=EDGE_CURVE('',#295,#255,#355,.T.);
#251=EDGE_CURVE('',#305,#305,#40,.T.);
#252=EDGE_CURVE('',#306,#306,#41,.T.);
#253=EDGE_CURVE('',#275,#296,#356,.T.);
#254=EDGE_CURVE('',#276,#295,#357,.T.);
#255=VERTEX_POINT('',#779);
#256=VERTEX_POINT('',#780);
#257=VERTEX_POINT('',#782);
#258=VERTEX_POINT('',#784);
#259=VERTEX_POINT('',#788);
#260=VERTEX_POINT('',#789);
#261=VERTEX_POINT('',#791);
#262=VERTEX_POINT('',#793);
#263=VERTEX_POINT('',#797);
#264=VERTEX_POINT('',#799);
#265=VERTEX_POINT('',#801);
#266=VERTEX_POINT('',#802);
#267=VERTEX_POINT('',#804);
#268=VERTEX_POINT('',#806);
#269=VERTEX_POINT('',#810);
#270=VERTEX_POINT('',#812);
#271=VERTEX_POINT('',#814);
#272=VERTEX_POINT('',#816);
#273=VERTEX_POINT('',#818);
#274=VERTEX_POINT('',#819);
#275=VERTEX_POINT('',#821);
#276=VERTEX_POINT('',#824);
#277=VERTEX_POINT('',#826);
#278=VERTEX_POINT('',#828);
#279=VERTEX_POINT('',#830);
#280=VERTEX_POINT('',#832);
#281=VERTEX_POINT('',#836);
#282=VERTEX_POINT('',#838);
#283=VERTEX_POINT('',#840);
#284=VERTEX_POINT('',#841);
#285=VERTEX_POINT('',#843);
#286=VERTEX_POINT('',#845);
#287=VERTEX_POINT('',#852);
#288=VERTEX_POINT('',#854);
#289=VERTEX_POINT('',#856);
#290=VERTEX_POINT('',#857);
#291=VERTEX_POINT('',#859);
#292=VERTEX_POINT('',#861);
#293=VERTEX_POINT('',#865);
#294=VERTEX_POINT('',#866);
#295=VERTEX_POINT('',#868);
#296=VERTEX_POINT('',#871);
#297=VERTEX_POINT('',#879);
#298=VERTEX_POINT('',#883);
#299=VERTEX_POINT('',#889);
#300=VERTEX_POINT('',#891);
#301=VERTEX_POINT('',#894);
#302=VERTEX_POINT('',#904);
#303=VERTEX_POINT('',#906);
#304=VERTEX_POINT('',#908);
#305=VERTEX_POINT('',#915);
#306=VERTEX_POINT('',#917);
#307=LINE('',#778,#358);
#308=LINE('',#781,#359);
#309=LINE('',#783,#360);
#310=LINE('',#785,#361);
#311=LINE('',#787,#362);
#312=LINE('',#790,#363);
#313=LINE('',#792,#364);
#314=LINE('',#794,#365);
#315=LINE('',#800,#366);
#316=LINE('',#803,#367);
#317=LINE('',#805,#368);
#318=LINE('',#807,#369);
#319=LINE('',#817,#370);
#320=LINE('',#820,#371);
#321=LINE('',#822,#372);
#322=LINE('',#823,#373);
#323=LINE('',#825,#374);
#324=LINE('',#827,#375);
#325=LINE('',#829,#376);
#326=LINE('',#831,#377);
#327=LINE('',#833,#378);
#328=LINE('',#839,#379);
#329=LINE('',#842,#380);
#330=LINE('',#844,#381);
#331=LINE('',#846,#382);
#332=LINE('',#855,#383);
#333=LINE('',#858,#384);
#334=LINE('',#860,#385);
#335=LINE('',#862,#386);
#336=LINE('',#864,#387);
#337=LINE('',#867,#388);
#338=LINE('',#869,#389);
#339=LINE('',#870,#390);
#340=LINE('',#872,#391);
#341=LINE('',#874,#392);
#342=LINE('',#875,#393);
#343=LINE('',#877,#394);
#344=LINE('',#880,#395);
#345=LINE('',#881,#396);
#346=LINE('',#882,#397);
#347=LINE('',#884,#398);
#348=LINE('',#886,#399);
#349=LINE('',#892,#400);
#350=LINE('',#893,#401);
#351=LINE('',#895,#402);
#352=LINE('',#907,#403);
#353=LINE('',#909,#404);
#354=LINE('',#911,#405);
#355=LINE('',#913,#406);
#356=LINE('',#924,#407);
#357=LINE('',#927,#408);
#358=VECTOR('',#629,1.);
#359=VECTOR('',#630,1.);
#360=VECTOR('',#631,1.);
#361=VECTOR('',#632,1.);
#362=VECTOR('',#635,1.);
#363=VECTOR('',#636,1.);
#364=VECTOR('',#637,1.);
#365=VECTOR('',#638,1.);
#366=VECTOR('',#645,1.);
#367=VECTOR('',#646,1.);
#368=VECTOR('',#647,1.);
#369=VECTOR('',#648,1.);
#370=VECTOR('',#659,1.);
#371=VECTOR('',#660,1.);
#372=VECTOR('',#661,1.);
#373=VECTOR('',#662,1.);
#374=VECTOR('',#663,1.);
#375=VECTOR('',#664,1.);
#376=VECTOR('',#665,1.);
#377=VECTOR('',#666,1.);
#378=VECTOR('',#667,1.);
#379=VECTOR('',#674,1.);
#380=VECTOR('',#675,1.);
#381=VECTOR('',#676,1.);
#382=VECTOR('',#677,1.);
#383=VECTOR('',#690,1.);
#384=VECTOR('',#691,1.);
#385=VECTOR('',#692,1.);
#386=VECTOR('',#693,1.);
#387=VECTOR('',#696,1.);
#388=VECTOR('',#697,1.);
#389=VECTOR('',#698,1.);
#390=VECTOR('',#699,1.);
#391=VECTOR('',#700,1.);
#392=VECTOR('',#703,1.);
#393=VECTOR('',#704,1.);
#394=VECTOR('',#707,1.);
#395=VECTOR('',#710,1.);
#396=VECTOR('',#711,1.);
#397=VECTOR('',#712,1.);
#398=VECTOR('',#713,1.);
#399=VECTOR('',#716,1.);
#400=VECTOR('',#723,1.);
#401=VECTOR('',#724,1.);
#402=VECTOR('',#725,1.);
#403=VECTOR('',#744,1.);
#404=VECTOR('',#745,1.);
#405=VECTOR('',#748,1.);
#406=VECTOR('',#751,1.);
#407=VECTOR('',#768,1.);
#408=VECTOR('',#773,1.);
#409=EDGE_LOOP('',(#42,#43,#44,#45));
#410=EDGE_LOOP('',(#46,#47,#48,#49));
#411=EDGE_LOOP('',(#50));
#412=EDGE_LOOP('',(#51));
#413=EDGE_LOOP('',(#52,#53,#54,#55));
#414=EDGE_LOOP('',(#56));
#415=EDGE_LOOP('',(#57));
#416=EDGE_LOOP('',(#58));
#417=EDGE_LOOP('',(#59));
#418=EDGE_LOOP('',(#60,#61,#62,#63,#64,#65,#66,#67,#68,#69));
#419=EDGE_LOOP('',(#70));
#420=EDGE_LOOP('',(#71));
#421=EDGE_LOOP('',(#72,#73,#74,#75));
#422=EDGE_LOOP('',(#76,#77,#78,#79));
#423=EDGE_LOOP('',(#80));
#424=EDGE_LOOP('',(#81));
#425=EDGE_LOOP('',(#82,#83,#84,#85));
#426=EDGE_LOOP('',(#86,#87,#88,#89,#90,#91));
#427=EDGE_LOOP('',(#92,#93,#94,#95));
#428=EDGE_LOOP('',(#96,#97,#98,#99,#100,#101,#102,#103,#104,#105,#106,#107,
#108,#109));
#429=EDGE_LOOP('',(#110,#111,#112,#113));
#430=EDGE_LOOP('',(#114));
#431=EDGE_LOOP('',(#115));
#432=EDGE_LOOP('',(#116,#117,#118,#119,#120,#121));
#433=EDGE_LOOP('',(#122));
#434=EDGE_LOOP('',(#123));
#435=EDGE_LOOP('',(#124,#125,#126,#127,#128));
#436=EDGE_LOOP('',(#129));
#437=EDGE_LOOP('',(#130));
#438=EDGE_LOOP('',(#131));
#439=EDGE_LOOP('',(#132));
#440=EDGE_LOOP('',(#133));
#441=EDGE_LOOP('',(#134));
#442=EDGE_LOOP('',(#135));
#443=EDGE_LOOP('',(#136));
#444=EDGE_LOOP('',(#137,#138,#139,#140));
#445=EDGE_LOOP('',(#141,#142,#143,#144));
#446=EDGE_LOOP('',(#145,#146,#147,#148));
#447=EDGE_LOOP('',(#149));
#448=EDGE_LOOP('',(#150));
#449=EDGE_LOOP('',(#151,#152,#153,#154));
#450=EDGE_LOOP('',(#155));
#451=EDGE_LOOP('',(#156));
#452=EDGE_LOOP('',(#157));
#453=EDGE_LOOP('',(#158));
#454=EDGE_LOOP('',(#159));
#455=EDGE_LOOP('',(#160));
#456=EDGE_LOOP('',(#161));
#457=EDGE_LOOP('',(#162));
#458=EDGE_LOOP('',(#163,#164,#165,#166,#167,#168,#169,#170));
#459=EDGE_LOOP('',(#171,#172,#173,#174));
#460=EDGE_LOOP('',(#175,#176,#177,#178));
#461=EDGE_LOOP('',(#179,#180,#181,#182,#183));
#462=FACE_BOUND('',#409,.T.);
#463=FACE_BOUND('',#410,.T.);
#464=FACE_BOUND('',#411,.T.);
#465=FACE_BOUND('',#412,.T.);
#466=FACE_BOUND('',#413,.T.);
#467=FACE_BOUND('',#414,.T.);
#468=FACE_BOUND('',#415,.T.);
#469=FACE_BOUND('',#416,.T.);
#470=FACE_BOUND('',#417,.T.);
#471=FACE_BOUND('',#418,.T.);
#472=FACE_BOUND('',#419,.T.);
#473=FACE_BOUND('',#420,.T.);
#474=FACE_BOUND('',#421,.T.);
#475=FACE_BOUND('',#422,.T.);
#476=FACE_BOUND('',#423,.T.);
#477=FACE_BOUND('',#424,.T.);
#478=FACE_BOUND('',#425,.T.);
#479=FACE_BOUND('',#426,.T.);
#480=FACE_BOUND('',#427,.T.);
#481=FACE_BOUND('',#428,.T.);
#482=FACE_BOUND('',#429,.T.);
#483=FACE_BOUND('',#430,.T.);
#484=FACE_BOUND('',#431,.T.);
#485=FACE_BOUND('',#432,.T.);
#486=FACE_BOUND('',#433,.T.);
#487=FACE_BOUND('',#434,.T.);
#488=FACE_BOUND('',#435,.T.);
#489=FACE_BOUND('',#436,.T.);
#490=FACE_BOUND('',#437,.T.);
#491=FACE_BOUND('',#438,.T.);
#492=FACE_BOUND('',#439,.T.);
#493=FACE_BOUND('',#440,.T.);
#494=FACE_BOUND('',#441,.T.);
#495=FACE_BOUND('',#442,.T.);
#496=FACE_BOUND('',#443,.T.);
#497=FACE_BOUND('',#444,.T.);
#498=FACE_BOUND('',#445,.T.);
#499=FACE_BOUND('',#446,.T.);
#500=FACE_BOUND('',#447,.T.);
#501=FACE_BOUND('',#448,.T.);
#502=FACE_BOUND('',#449,.T.);
#503=FACE_BOUND('',#450,.T.);
#504=FACE_BOUND('',#451,.T.);
#505=FACE_BOUND('',#452,.T.);
#506=FACE_BOUND('',#453,.T.);
#507=FACE_BOUND('',#454,.T.);
#508=FACE_BOUND('',#455,.T.);
#509=FACE_BOUND('',#456,.T.);
#510=FACE_BOUND('',#457,.T.);
#511=FACE_BOUND('',#458,.T.);
#512=FACE_BOUND('',#459,.T.);
#513=FACE_BOUND('',#460,.T.);
#514=FACE_BOUND('',#461,.T.);
#515=PLANE('',#576);
#516=PLANE('',#577);
#517=PLANE('',#578);
#518=PLANE('',#581);
#519=PLANE('',#586);
#520=PLANE('',#592);
#521=PLANE('',#595);
#522=PLANE('',#596);
#523=PLANE('',#597);
#524=PLANE('',#599);
#525=PLANE('',#600);
#526=PLANE('',#604);
#527=PLANE('',#609);
#528=PLANE('',#612);
#529=PLANE('',#613);
#530=PLANE('',#621);
#531=PLANE('',#622);
#532=PLANE('',#623);
#533=PLANE('',#624);
#534=ADVANCED_FACE('',(#462),#515,.F.);
#535=ADVANCED_FACE('',(#463),#516,.F.);
#536=ADVANCED_FACE('',(#464,#465,#466),#517,.F.);
#537=ADVANCED_FACE('',(#467,#468,#469,#470,#471),#518,.T.);
#538=ADVANCED_FACE('',(#472,#473,#474),#519,.T.);
#539=ADVANCED_FACE('',(#475),#12,.F.);
#540=ADVANCED_FACE('',(#476,#477,#478),#520,.F.);
#541=ADVANCED_FACE('',(#479),#521,.F.);
#542=ADVANCED_FACE('',(#480),#522,.F.);
#543=ADVANCED_FACE('',(#481),#523,.T.);
#544=ADVANCED_FACE('',(#482),#524,.T.);
#545=ADVANCED_FACE('',(#483,#484,#485),#525,.F.);
#546=ADVANCED_FACE('',(#486,#487),#13,.F.);
#547=ADVANCED_FACE('',(#488),#526,.T.);
#548=ADVANCED_FACE('',(#489,#490),#14,.F.);
#549=ADVANCED_FACE('',(#491,#492),#15,.F.);
#550=ADVANCED_FACE('',(#493,#494),#16,.F.);
#551=ADVANCED_FACE('',(#495,#496,#497),#527,.F.);
#552=ADVANCED_FACE('',(#498),#528,.F.);
#553=ADVANCED_FACE('',(#499,#500,#501),#529,.T.);
#554=ADVANCED_FACE('',(#502),#17,.F.);
#555=ADVANCED_FACE('',(#503,#504),#18,.F.);
#556=ADVANCED_FACE('',(#505,#506),#19,.F.);
#557=ADVANCED_FACE('',(#507,#508),#20,.F.);
#558=ADVANCED_FACE('',(#509,#510),#21,.F.);
#559=ADVANCED_FACE('',(#511),#530,.T.);
#560=ADVANCED_FACE('',(#512),#531,.F.);
#561=ADVANCED_FACE('',(#513),#532,.F.);
#562=ADVANCED_FACE('',(#514),#533,.F.);
#563=CLOSED_SHELL('',(#534,#535,#536,#537,#538,#539,#540,#541,#542,#543,
#544,#545,#546,#547,#548,#549,#550,#551,#552,#553,#554,#555,#556,#557,#558,
#559,#560,#561,#562));
#564=STYLED_ITEM('',(#565),#572);
#565=PRESENTATION_STYLE_ASSIGNMENT((#566));
#566=SURFACE_STYLE_USAGE(.BOTH.,#567);
#567=SURFACE_SIDE_STYLE('',(#568));
#568=SURFACE_STYLE_FILL_AREA(#569);
#569=FILL_AREA_STYLE('',(#570));
#570=FILL_AREA_STYLE_COLOUR('',#571);
#571=COLOUR_RGB('',0.917647058823529,0.917647058823529,0.917647058823529);
#572=MANIFOLD_SOLID_BREP('Power Supply Mount',#563);
#573=SHAPE_DEFINITION_REPRESENTATION(#935,#574);
#574=SHAPE_REPRESENTATION('Power Supply Mount',(#575),#930);
#575=AXIS2_PLACEMENT_3D('',#776,#625,#626);
#576=AXIS2_PLACEMENT_3D('',#777,#627,#628);
#577=AXIS2_PLACEMENT_3D('',#786,#633,#634);
#578=AXIS2_PLACEMENT_3D('',#795,#639,#640);
#579=AXIS2_PLACEMENT_3D('',#796,#641,#642);
#580=AXIS2_PLACEMENT_3D('',#798,#643,#644);
#581=AXIS2_PLACEMENT_3D('',#808,#649,#650);
#582=AXIS2_PLACEMENT_3D('',#809,#651,#652);
#583=AXIS2_PLACEMENT_3D('',#811,#653,#654);
#584=AXIS2_PLACEMENT_3D('',#813,#655,#656);
#585=AXIS2_PLACEMENT_3D('',#815,#657,#658);
#586=AXIS2_PLACEMENT_3D('',#834,#668,#669);
#587=AXIS2_PLACEMENT_3D('',#835,#670,#671);
#588=AXIS2_PLACEMENT_3D('',#837,#672,#673);
#589=AXIS2_PLACEMENT_3D('',#847,#678,#679);
#590=AXIS2_PLACEMENT_3D('',#848,#680,#681);
#591=AXIS2_PLACEMENT_3D('',#849,#682,#683);
#592=AXIS2_PLACEMENT_3D('',#850,#684,#685);
#593=AXIS2_PLACEMENT_3D('',#851,#686,#687);
#594=AXIS2_PLACEMENT_3D('',#853,#688,#689);
#595=AXIS2_PLACEMENT_3D('',#863,#694,#695);
#596=AXIS2_PLACEMENT_3D('',#873,#701,#702);
#597=AXIS2_PLACEMENT_3D('',#876,#705,#706);
#598=AXIS2_PLACEMENT_3D('',#878,#708,#709);
#599=AXIS2_PLACEMENT_3D('',#885,#714,#715);
#600=AXIS2_PLACEMENT_3D('',#887,#717,#718);
#601=AXIS2_PLACEMENT_3D('',#888,#719,#720);
#602=AXIS2_PLACEMENT_3D('',#890,#721,#722);
#603=AXIS2_PLACEMENT_3D('',#896,#726,#727);
#604=AXIS2_PLACEMENT_3D('',#897,#728,#729);
#605=AXIS2_PLACEMENT_3D('',#898,#730,#731);
#606=AXIS2_PLACEMENT_3D('',#899,#732,#733);
#607=AXIS2_PLACEMENT_3D('',#900,#734,#735);
#608=AXIS2_PLACEMENT_3D('',#901,#736,#737);
#609=AXIS2_PLACEMENT_3D('',#902,#738,#739);
#610=AXIS2_PLACEMENT_3D('',#903,#740,#741);
#611=AXIS2_PLACEMENT_3D('',#905,#742,#743);
#612=AXIS2_PLACEMENT_3D('',#910,#746,#747);
#613=AXIS2_PLACEMENT_3D('',#912,#749,#750);
#614=AXIS2_PLACEMENT_3D('',#914,#752,#753);
#615=AXIS2_PLACEMENT_3D('',#916,#754,#755);
#616=AXIS2_PLACEMENT_3D('',#918,#756,#757);
#617=AXIS2_PLACEMENT_3D('',#919,#758,#759);
#618=AXIS2_PLACEMENT_3D('',#920,#760,#761);
#619=AXIS2_PLACEMENT_3D('',#921,#762,#763);
#620=AXIS2_PLACEMENT_3D('',#922,#764,#765);
#621=AXIS2_PLACEMENT_3D('',#923,#766,#767);
#622=AXIS2_PLACEMENT_3D('',#925,#769,#770);
#623=AXIS2_PLACEMENT_3D('',#926,#771,#772);
#624=AXIS2_PLACEMENT_3D('',#928,#774,#775);
#625=DIRECTION('',(0.,0.,1.));
#626=DIRECTION('',(1.,0.,0.));
#627=DIRECTION('',(0.,-1.,0.));
#628=DIRECTION('',(1.,0.,0.));
#629=DIRECTION('',(0.,0.,-1.));
#630=DIRECTION('',(-1.,0.,-1.29095700537809E-16));
#631=DIRECTION('',(0.,0.,1.));
#632=DIRECTION('',(-1.,0.,-1.73472347597681E-16));
#633=DIRECTION('',(1.,0.,0.));
#634=DIRECTION('',(0.,0.,-1.));
#635=DIRECTION('',(0.,0.,1.));
#636=DIRECTION('',(0.,1.,0.));
#637=DIRECTION('',(0.,0.,1.));
#638=DIRECTION('',(0.,1.,0.));
#639=DIRECTION('',(0.,-1.,0.));
#640=DIRECTION('',(1.,0.,0.));
#641=DIRECTION('',(0.,-1.,0.));
#642=DIRECTION('',(0.,0.,-1.));
#643=DIRECTION('',(0.,-1.,0.));
#644=DIRECTION('',(0.,0.,-1.));
#645=DIRECTION('',(0.,0.,-1.));
#646=DIRECTION('',(-1.,0.,0.));
#647=DIRECTION('',(0.,0.,1.));
#648=DIRECTION('',(-1.,0.,0.));
#649=DIRECTION('',(0.,-1.,0.));
#650=DIRECTION('',(1.,0.,0.));
#651=DIRECTION('',(0.,-1.,0.));
#652=DIRECTION('',(0.,0.,-1.));
#653=DIRECTION('',(0.,-1.,0.));
#654=DIRECTION('',(0.,0.,-1.));
#655=DIRECTION('',(0.,-1.,0.));
#656=DIRECTION('',(0.,0.,-1.));
#657=DIRECTION('',(0.,-1.,0.));
#658=DIRECTION('',(0.,0.,-1.));
#659=DIRECTION('',(-1.,0.,0.));
#660=DIRECTION('',(0.,0.,-1.));
#661=DIRECTION('',(1.,0.,1.29095700537809E-16));
#662=DIRECTION('',(-1.,0.,0.));
#663=DIRECTION('',(0.,0.,1.));
#664=DIRECTION('',(-1.,0.,-1.73472347597681E-16));
#665=DIRECTION('',(0.,0.,-1.));
#666=DIRECTION('',(-1.,0.,0.));
#667=DIRECTION('',(0.,0.,1.));
#668=DIRECTION('',(0.,0.,1.));
#669=DIRECTION('',(1.,0.,0.));
#670=DIRECTION('',(0.,0.,1.));
#671=DIRECTION('',(1.,0.,0.));
#672=DIRECTION('',(0.,0.,1.));
#673=DIRECTION('',(1.,0.,0.));
#674=DIRECTION('',(-1.,0.,0.));
#675=DIRECTION('',(0.,-1.,0.));
#676=DIRECTION('',(-1.,0.,0.));
#677=DIRECTION('',(0.,-1.,0.));
#678=DIRECTION('',(-1.,0.,0.));
#679=DIRECTION('',(0.,0.,1.));
#680=DIRECTION('',(-1.,0.,0.));
#681=DIRECTION('',(0.,0.,1.));
#682=DIRECTION('',(1.,0.,0.));
#683=DIRECTION('',(0.,0.,-1.));
#684=DIRECTION('',(0.,-1.,0.));
#685=DIRECTION('',(1.,0.,0.));
#686=DIRECTION('',(0.,-1.,0.));
#687=DIRECTION('',(0.,0.,-1.));
#688=DIRECTION('',(0.,-1.,0.));
#689=DIRECTION('',(0.,0.,-1.));
#690=DIRECTION('',(0.,0.,-1.));
#691=DIRECTION('',(-1.,0.,-1.73472347597681E-16));
#692=DIRECTION('',(0.,0.,1.));
#693=DIRECTION('',(-1.,0.,0.));
#694=DIRECTION('',(0.,-1.,0.));
#695=DIRECTION('',(1.,0.,0.));
#696=DIRECTION('',(0.,0.,1.));
#697=DIRECTION('',(-1.,0.,-1.29095700537809E-16));
#698=DIRECTION('',(-1.,0.,-1.29095700537809E-16));
#699=DIRECTION('',(-1.,0.,-1.29095700537809E-16));
#700=DIRECTION('',(-1.,0.,-1.29095700537809E-16));
#701=DIRECTION('',(0.,0.,1.));
#702=DIRECTION('',(1.,0.,0.));
#703=DIRECTION('',(0.,-1.,0.));
#704=DIRECTION('',(0.,-1.,0.));
#705=DIRECTION('',(1.,0.,0.));
#706=DIRECTION('',(0.,0.,-1.));
#707=DIRECTION('',(0.,-1.,0.));
#708=DIRECTION('',(1.,0.,0.));
#709=DIRECTION('',(0.,0.,-1.));
#710=DIRECTION('',(0.,-1.,0.));
#711=DIRECTION('',(0.,-1.,0.));
#712=DIRECTION('',(0.,-1.,0.));
#713=DIRECTION('',(0.,0.,1.));
#714=DIRECTION('',(0.,0.,1.));
#715=DIRECTION('',(1.,0.,0.));
#716=DIRECTION('',(0.,1.,0.));
#717=DIRECTION('',(-1.73472347597681E-16,0.,1.));
#718=DIRECTION('',(1.,0.,1.73472347597681E-16));
#719=DIRECTION('',(1.73472347597681E-16,0.,-1.));
#720=DIRECTION('',(-1.,0.,-1.73472347597681E-16));
#721=DIRECTION('',(1.73472347597681E-16,0.,-1.));
#722=DIRECTION('',(-1.,0.,-1.73472347597681E-16));
#723=DIRECTION('',(0.,1.,0.));
#724=DIRECTION('',(-1.,0.,-1.73472347597681E-16));
#725=DIRECTION('',(0.,-1.,0.));
#726=DIRECTION('',(0.,-1.,0.));
#727=DIRECTION('',(0.,0.,-1.));
#728=DIRECTION('',(-1.,0.,0.));
#729=DIRECTION('',(0.,0.,1.));
#730=DIRECTION('',(-1.,0.,0.));
#731=DIRECTION('',(0.,0.,1.));
#732=DIRECTION('',(0.,-1.,0.));
#733=DIRECTION('',(0.,0.,-1.));
#734=DIRECTION('',(0.,-1.,0.));
#735=DIRECTION('',(0.,0.,-1.));
#736=DIRECTION('',(0.,-1.,0.));
#737=DIRECTION('',(0.,0.,-1.));
#738=DIRECTION('',(-1.29095700537809E-16,0.,1.));
#739=DIRECTION('',(1.,0.,1.29095700537809E-16));
#740=DIRECTION('',(-1.29095700537809E-16,0.,1.));
#741=DIRECTION('',(1.,0.,1.29095700537809E-16));
#742=DIRECTION('',(-1.29095700537809E-16,0.,1.));
#743=DIRECTION('',(1.,0.,1.29095700537809E-16));
#744=DIRECTION('',(0.,1.,0.));
#745=DIRECTION('',(-1.,0.,-1.29095700537809E-16));
#746=DIRECTION('',(0.,-1.,0.));
#747=DIRECTION('',(1.,0.,0.));
#748=DIRECTION('',(0.,0.,1.));
#749=DIRECTION('',(-1.29095700537809E-16,0.,1.));
#750=DIRECTION('',(1.,0.,1.29095700537809E-16));
#751=DIRECTION('',(0.,1.,0.));
#752=DIRECTION('',(-1.29095700537809E-16,0.,1.));
#753=DIRECTION('',(1.,0.,1.29095700537809E-16));
#754=DIRECTION('',(-1.29095700537809E-16,0.,1.));
#755=DIRECTION('',(1.,0.,1.29095700537809E-16));
#756=DIRECTION('',(1.,0.,1.73472347597681E-16));
#757=DIRECTION('',(1.73472347597681E-16,0.,-1.));
#758=DIRECTION('',(1.73472347597681E-16,0.,-1.));
#759=DIRECTION('',(-1.,0.,-1.73472347597681E-16));
#760=DIRECTION('',(1.73472347597681E-16,0.,-1.));
#761=DIRECTION('',(-1.,0.,-1.73472347597681E-16));
#762=DIRECTION('',(1.73472347597681E-16,0.,-1.));
#763=DIRECTION('',(-1.,0.,-1.73472347597681E-16));
#764=DIRECTION('',(1.73472347597681E-16,0.,-1.));
#765=DIRECTION('',(-1.,0.,-1.73472347597681E-16));
#766=DIRECTION('',(-1.,0.,0.));
#767=DIRECTION('',(0.,0.,1.));
#768=DIRECTION('',(0.,1.,0.));
#769=DIRECTION('',(1.29095700537809E-16,0.,-1.));
#770=DIRECTION('',(-1.,0.,-1.29095700537809E-16));
#771=DIRECTION('',(0.,0.,1.));
#772=DIRECTION('',(1.,0.,0.));
#773=DIRECTION('',(0.,1.,0.));
#774=DIRECTION('',(1.,0.,0.));
#775=DIRECTION('',(0.,0.,-1.));
#776=CARTESIAN_POINT('',(0.,0.,0.));
#777=CARTESIAN_POINT('',(-0.1075,0.035,0.083));
#778=CARTESIAN_POINT('',(-0.1867,0.035,0.0125));
#779=CARTESIAN_POINT('',(-0.1867,0.035,0.025));
#780=CARTESIAN_POINT('',(-0.1867,0.035,0.02));
#781=CARTESIAN_POINT('',(-0.1075,0.035,0.025));
#782=CARTESIAN_POINT('',(0.,0.035,0.025));
#783=CARTESIAN_POINT('',(0.,0.035,0.0225));
#784=CARTESIAN_POINT('',(-3.46944695195361E-18,0.035,0.02));
#785=CARTESIAN_POINT('',(-0.195,0.035,0.02));
#786=CARTESIAN_POINT('',(-0.215,0.005,0.0225));
#787=CARTESIAN_POINT('',(-0.215,0.,0.0225));
#788=CARTESIAN_POINT('',(-0.215,0.,0.025));
#789=CARTESIAN_POINT('',(-0.215,0.,0.141));
#790=CARTESIAN_POINT('',(-0.215,-0.0075,0.141));
#791=CARTESIAN_POINT('',(-0.215,0.005,0.141));
#792=CARTESIAN_POINT('',(-0.215,0.005,0.0225));
#793=CARTESIAN_POINT('',(-0.215,0.005,0.025));
#794=CARTESIAN_POINT('',(-0.215,-0.0075,0.025));
#795=CARTESIAN_POINT('',(-0.1075,0.005,0.083));
#796=CARTESIAN_POINT('',(-0.12,0.005,0.156));
#797=CARTESIAN_POINT('',(-0.12,0.005,0.1535));
#798=CARTESIAN_POINT('',(-0.05,0.005,0.156));
#799=CARTESIAN_POINT('',(-0.05,0.005,0.1535));
#800=CARTESIAN_POINT('',(-0.1867,0.005,0.083));
#801=CARTESIAN_POINT('',(-0.1867,0.005,0.166));
#802=CARTESIAN_POINT('',(-0.1867,0.005,0.1525));
#803=CARTESIAN_POINT('',(-0.1075,0.005,0.166));
#804=CARTESIAN_POINT('',(-2.77555756156289E-17,0.005,0.166));
#805=CARTESIAN_POINT('',(0.,0.005,0.01));
#806=CARTESIAN_POINT('',(0.,0.005,0.1525));
#807=CARTESIAN_POINT('',(-0.1075,0.005,0.1525));
#808=CARTESIAN_POINT('',(-0.1075,0.,0.083));
#809=CARTESIAN_POINT('',(-0.05,0.,0.156));
#810=CARTESIAN_POINT('',(-0.05,0.,0.1535));
#811=CARTESIAN_POINT('',(-0.12,0.,0.156));
#812=CARTESIAN_POINT('',(-0.12,0.,0.1535));
#813=CARTESIAN_POINT('',(-0.05,0.,0.01));
#814=CARTESIAN_POINT('',(-0.05,0.,0.0075));
#815=CARTESIAN_POINT('',(-0.12,0.,0.01));
#816=CARTESIAN_POINT('',(-0.12,0.,0.0075));
#817=CARTESIAN_POINT('',(-0.1075,0.,0.166));
#818=CARTESIAN_POINT('',(-2.77555756156289E-17,0.,0.166));
#819=CARTESIAN_POINT('',(-0.1867,0.,0.166));
#820=CARTESIAN_POINT('',(-0.1867,0.,0.083));
#821=CARTESIAN_POINT('',(-0.1867,0.,0.141));
#822=CARTESIAN_POINT('',(-0.1075,0.,0.141));
#823=CARTESIAN_POINT('',(-0.1075,0.,0.025));
#824=CARTESIAN_POINT('',(-0.1867,0.,0.025));
#825=CARTESIAN_POINT('',(-0.1867,0.,0.083));
#826=CARTESIAN_POINT('',(-0.1867,0.,0.02));
#827=CARTESIAN_POINT('',(-0.195,0.,0.02));
#828=CARTESIAN_POINT('',(-0.175,0.,0.02));
#829=CARTESIAN_POINT('',(-0.175,0.,0.01));
#830=CARTESIAN_POINT('',(-0.175,0.,-1.7347234759768E-17));
#831=CARTESIAN_POINT('',(-0.0875,0.,0.));
#832=CARTESIAN_POINT('',(0.,0.,0.));
#833=CARTESIAN_POINT('',(0.,0.,0.01));
#834=CARTESIAN_POINT('',(-0.1075,0.035,0.146));
#835=CARTESIAN_POINT('',(-0.0325,0.018,0.146));
#836=CARTESIAN_POINT('',(-0.0305,0.018,0.146));
#837=CARTESIAN_POINT('',(-0.1825,0.018,0.146));
#838=CARTESIAN_POINT('',(-0.1805,0.018,0.146));
#839=CARTESIAN_POINT('',(-0.1075,0.035,0.146));
#840=CARTESIAN_POINT('',(-2.77555756156289E-17,0.035,0.146));
#841=CARTESIAN_POINT('',(-0.1867,0.035,0.146));
#842=CARTESIAN_POINT('',(-0.1867,0.035,0.146));
#843=CARTESIAN_POINT('',(-0.1867,0.0115,0.146));
#844=CARTESIAN_POINT('',(-0.1075,0.0115,0.146));
#845=CARTESIAN_POINT('',(-2.77555756156289E-17,0.0115,0.146));
#846=CARTESIAN_POINT('',(-2.77555756156289E-17,0.035,0.146));
#847=CARTESIAN_POINT('',(-0.1075,0.0115,0.1525));
#848=CARTESIAN_POINT('',(-0.1867,0.0115,0.1525));
#849=CARTESIAN_POINT('',(0.,0.0115,0.1525));
#850=CARTESIAN_POINT('',(-0.1075,0.005,0.083));
#851=CARTESIAN_POINT('',(-0.12,0.005,0.01));
#852=CARTESIAN_POINT('',(-0.12,0.005,0.0075));
#853=CARTESIAN_POINT('',(-0.05,0.005,0.01));
#854=CARTESIAN_POINT('',(-0.05,0.005,0.0075));
#855=CARTESIAN_POINT('',(-0.175,0.005,0.01));
#856=CARTESIAN_POINT('',(-0.175,0.005,0.0135));
#857=CARTESIAN_POINT('',(-0.175,0.005,-1.7347234759768E-17));
#858=CARTESIAN_POINT('',(0.,0.005,0.0135));
#859=CARTESIAN_POINT('',(0.,0.005,0.0135));
#860=CARTESIAN_POINT('',(0.,0.005,0.01));
#861=CARTESIAN_POINT('',(0.,0.005,0.));
#862=CARTESIAN_POINT('',(-0.0875,0.005,0.));
#863=CARTESIAN_POINT('',(-0.1075,0.005,0.083));
#864=CARTESIAN_POINT('',(0.,0.005,0.01));
#865=CARTESIAN_POINT('',(0.,0.005,0.025));
#866=CARTESIAN_POINT('',(0.,0.005,0.141));
#867=CARTESIAN_POINT('',(-0.1075,0.005,0.025));
#868=CARTESIAN_POINT('',(-0.1867,0.005,0.025));
#869=CARTESIAN_POINT('',(-0.1075,0.005,0.025));
#870=CARTESIAN_POINT('',(-0.1075,0.005,0.141));
#871=CARTESIAN_POINT('',(-0.1867,0.005,0.141));
#872=CARTESIAN_POINT('',(-0.1075,0.005,0.141));
#873=CARTESIAN_POINT('',(-0.0875,0.005,0.));
#874=CARTESIAN_POINT('',(-0.175,0.005,-1.7347234759768E-17));
#875=CARTESIAN_POINT('',(0.,0.005,0.));
#876=CARTESIAN_POINT('',(0.,0.005,0.01));
#877=CARTESIAN_POINT('',(-2.77555756156289E-17,0.005,0.166));
#878=CARTESIAN_POINT('',(0.,0.0115,0.0135));
#879=CARTESIAN_POINT('',(-3.46944695195361E-18,0.0115,0.02));
#880=CARTESIAN_POINT('',(-3.46944695195361E-18,0.035,0.02));
#881=CARTESIAN_POINT('',(0.,0.035,0.025));
#882=CARTESIAN_POINT('',(0.,0.035,0.141));
#883=CARTESIAN_POINT('',(0.,0.035,0.141));
#884=CARTESIAN_POINT('',(-2.77555756156289E-17,0.035,0.1435));
#885=CARTESIAN_POINT('',(-0.1075,0.005,0.166));
#886=CARTESIAN_POINT('',(-0.1867,-0.0075,0.166));
#887=CARTESIAN_POINT('',(-0.195,0.005,0.02));
#888=CARTESIAN_POINT('',(-0.0325,0.018,0.02));
#889=CARTESIAN_POINT('',(-0.0345,0.018,0.02));
#890=CARTESIAN_POINT('',(-0.1825,0.018,0.02));
#891=CARTESIAN_POINT('',(-0.1845,0.018,0.02));
#892=CARTESIAN_POINT('',(-0.1867,0.005,0.02));
#893=CARTESIAN_POINT('',(-0.175,0.0115,0.02));
#894=CARTESIAN_POINT('',(-0.175,0.0115,0.02));
#895=CARTESIAN_POINT('',(-0.175,0.005,0.02));
#896=CARTESIAN_POINT('',(-0.05,0.005,0.156));
#897=CARTESIAN_POINT('',(-0.175,0.005,0.01));
#898=CARTESIAN_POINT('',(-0.175,0.0115,0.0135));
#899=CARTESIAN_POINT('',(-0.05,0.005,0.01));
#900=CARTESIAN_POINT('',(-0.12,0.005,0.01));
#901=CARTESIAN_POINT('',(-0.12,0.005,0.156));
#902=CARTESIAN_POINT('',(-0.1075,0.035,0.141));
#903=CARTESIAN_POINT('',(-0.0325,0.018,0.141));
#904=CARTESIAN_POINT('',(-0.0305,0.018,0.141));
#905=CARTESIAN_POINT('',(-0.1825,0.018,0.141));
#906=CARTESIAN_POINT('',(-0.1805,0.018,0.141));
#907=CARTESIAN_POINT('',(-0.1867,-0.0075,0.141));
#908=CARTESIAN_POINT('',(-0.1867,0.035,0.141));
#909=CARTESIAN_POINT('',(-0.1075,0.035,0.141));
#910=CARTESIAN_POINT('',(-0.1075,0.035,0.083));
#911=CARTESIAN_POINT('',(-0.1867,0.035,0.1535));
#912=CARTESIAN_POINT('',(-0.1075,0.035,0.025));
#913=CARTESIAN_POINT('',(-0.1867,-0.0075,0.025));
#914=CARTESIAN_POINT('',(-0.0325,0.018,0.025));
#915=CARTESIAN_POINT('',(-0.0305,0.018,0.025));
#916=CARTESIAN_POINT('',(-0.1825,0.018,0.025));
#917=CARTESIAN_POINT('',(-0.1805,0.018,0.025));
#918=CARTESIAN_POINT('',(-0.195,0.0115,0.0135));
#919=CARTESIAN_POINT('',(-0.1825,0.018,0.354));
#920=CARTESIAN_POINT('',(-0.0325,0.018,0.354));
#921=CARTESIAN_POINT('',(-0.1825,0.018,0.354));
#922=CARTESIAN_POINT('',(-0.0325,0.018,0.354));
#923=CARTESIAN_POINT('',(-0.1867,-0.0075,0.1535));
#924=CARTESIAN_POINT('',(-0.1867,-0.0075,0.141));
#925=CARTESIAN_POINT('',(-0.1075,-0.0075,0.141));
#926=CARTESIAN_POINT('',(-0.20085,-0.0075,0.025));
#927=CARTESIAN_POINT('',(-0.1867,-0.0075,0.025));
#928=CARTESIAN_POINT('',(-0.1867,-0.0075,0.0125));
#929=MECHANICAL_DESIGN_GEOMETRIC_PRESENTATION_REPRESENTATION('',(#564),
#930);
#930=(
GEOMETRIC_REPRESENTATION_CONTEXT(3)
GLOBAL_UNCERTAINTY_ASSIGNED_CONTEXT((#931))
GLOBAL_UNIT_ASSIGNED_CONTEXT((#934,#933,#932))
REPRESENTATION_CONTEXT('Power Supply Mount','TOP_LEVEL_ASSEMBLY_PART')
);
#931=UNCERTAINTY_MEASURE_WITH_UNIT(LENGTH_MEASURE(1.E-8),#934,
'DISTANCE_ACCURACY_VALUE','Maximum Tolerance applied to model');
#932=(
NAMED_UNIT(*)
SI_UNIT($,.STERADIAN.)
SOLID_ANGLE_UNIT()
);
#933=(
NAMED_UNIT(*)
PLANE_ANGLE_UNIT()
SI_UNIT($,.RADIAN.)
);
#934=(
LENGTH_UNIT()
NAMED_UNIT(*)
SI_UNIT($,.METRE.)
);
#935=PRODUCT_DEFINITION_SHAPE('','',#936);
#936=PRODUCT_DEFINITION('','',#938,#937);
#937=PRODUCT_DEFINITION_CONTEXT('',#944,'design');
#938=PRODUCT_DEFINITION_FORMATION_WITH_SPECIFIED_SOURCE('','',#940,
 .NOT_KNOWN.);
#939=PRODUCT_RELATED_PRODUCT_CATEGORY('','',(#940));
#940=PRODUCT('Power Supply Mount','Power Supply Mount',
'Power Supply Mount',(#942));
#941=PRODUCT_CATEGORY('','');
#942=PRODUCT_CONTEXT('',#944,'mechanical');
#943=APPLICATION_PROTOCOL_DEFINITION('international standard',
'ap242_managed_model_based_3d_engineering',2020,#944);
#944=APPLICATION_CONTEXT('managed model based 3d engineering');
ENDSEC;
END-ISO-10303-21;
