ISO-10303-21;
HEADER;
/* Generated by software containing ST-Developer
 * from STEP Tools, Inc. (www.steptools.com) 
 */
/* OPTION: using custom renumber hook */

FILE_DESCRIPTION(
/* description */ ('STEP AP242 Edition 2',
'CAx-IF Rec.Pracs.---Representation and Presentation of Product Manufa
cturing Information (PMI)---4.0---2014-10-13',
'CAx-IF Rec.Pracs.---3D Tessellated Geometry---0.4---2014-09-14','2;1',
'CAx-IF Rec.Pracs.---User Defined Attributes---1.5---2016-08-15'),
/* implementation_level */ '2;1');

FILE_NAME(
/* name */ 'Full Assembly - Surface Fork Holder',
/* time_stamp */ '2026-04-24T00:57:04Z',
/* author */ (''),
/* organization */ (''),
/* preprocessor_version */ 'ST-DEVELOPER v20',
/* originating_system */ 'ONSHAPE BY PTC INC, 1.213',
/* authorisation */ '  ');

FILE_SCHEMA (('AP242_MANAGED_MODEL_BASED_3D_ENGINEERING_MIM_LF { 1 0 10303 442 3 1 4 }'));
ENDSEC;

DATA;
#10=SHAPE_REPRESENTATION_RELATIONSHIP('','',#386,#11);
#11=ADVANCED_BREP_SHAPE_REPRESENTATION('',(#384),#608);
#12=CYLINDRICAL_SURFACE('',#394,0.00135);
#13=CYLINDRICAL_SURFACE('',#398,0.00135);
#14=CIRCLE('',#392,0.00135);
#15=CIRCLE('',#393,0.00135);
#16=CIRCLE('',#395,0.00135);
#17=CIRCLE('',#399,0.00135);
#18=ORIENTED_EDGE('',*,*,#116,.F.);
#19=ORIENTED_EDGE('',*,*,#117,.T.);
#20=ORIENTED_EDGE('',*,*,#118,.F.);
#21=ORIENTED_EDGE('',*,*,#119,.F.);
#22=ORIENTED_EDGE('',*,*,#120,.T.);
#23=ORIENTED_EDGE('',*,*,#121,.T.);
#24=ORIENTED_EDGE('',*,*,#122,.T.);
#25=ORIENTED_EDGE('',*,*,#123,.T.);
#26=ORIENTED_EDGE('',*,*,#124,.T.);
#27=ORIENTED_EDGE('',*,*,#125,.T.);
#28=ORIENTED_EDGE('',*,*,#126,.T.);
#29=ORIENTED_EDGE('',*,*,#127,.F.);
#30=ORIENTED_EDGE('',*,*,#125,.F.);
#31=ORIENTED_EDGE('',*,*,#128,.T.);
#32=ORIENTED_EDGE('',*,*,#129,.T.);
#33=ORIENTED_EDGE('',*,*,#130,.T.);
#34=ORIENTED_EDGE('',*,*,#131,.F.);
#35=ORIENTED_EDGE('',*,*,#132,.T.);
#36=ORIENTED_EDGE('',*,*,#127,.T.);
#37=ORIENTED_EDGE('',*,*,#133,.F.);
#38=ORIENTED_EDGE('',*,*,#134,.F.);
#39=ORIENTED_EDGE('',*,*,#135,.T.);
#40=ORIENTED_EDGE('',*,*,#136,.T.);
#41=ORIENTED_EDGE('',*,*,#137,.T.);
#42=ORIENTED_EDGE('',*,*,#138,.T.);
#43=ORIENTED_EDGE('',*,*,#136,.F.);
#44=ORIENTED_EDGE('',*,*,#139,.T.);
#45=ORIENTED_EDGE('',*,*,#140,.T.);
#46=ORIENTED_EDGE('',*,*,#141,.T.);
#47=ORIENTED_EDGE('',*,*,#141,.F.);
#48=ORIENTED_EDGE('',*,*,#142,.T.);
#49=ORIENTED_EDGE('',*,*,#135,.F.);
#50=ORIENTED_EDGE('',*,*,#143,.T.);
#51=ORIENTED_EDGE('',*,*,#144,.T.);
#52=ORIENTED_EDGE('',*,*,#139,.F.);
#53=ORIENTED_EDGE('',*,*,#117,.F.);
#54=ORIENTED_EDGE('',*,*,#145,.T.);
#55=ORIENTED_EDGE('',*,*,#146,.T.);
#56=ORIENTED_EDGE('',*,*,#137,.F.);
#57=ORIENTED_EDGE('',*,*,#144,.F.);
#58=ORIENTED_EDGE('',*,*,#147,.T.);
#59=ORIENTED_EDGE('',*,*,#148,.F.);
#60=ORIENTED_EDGE('',*,*,#140,.F.);
#61=ORIENTED_EDGE('',*,*,#149,.T.);
#62=ORIENTED_EDGE('',*,*,#142,.F.);
#63=ORIENTED_EDGE('',*,*,#143,.F.);
#64=ORIENTED_EDGE('',*,*,#134,.T.);
#65=ORIENTED_EDGE('',*,*,#150,.F.);
#66=ORIENTED_EDGE('',*,*,#129,.F.);
#67=ORIENTED_EDGE('',*,*,#151,.T.);
#68=ORIENTED_EDGE('',*,*,#152,.T.);
#69=ORIENTED_EDGE('',*,*,#153,.T.);
#70=ORIENTED_EDGE('',*,*,#154,.T.);
#71=ORIENTED_EDGE('',*,*,#155,.T.);
#72=ORIENTED_EDGE('',*,*,#156,.F.);
#73=ORIENTED_EDGE('',*,*,#157,.F.);
#74=ORIENTED_EDGE('',*,*,#147,.F.);
#75=ORIENTED_EDGE('',*,*,#149,.F.);
#76=ORIENTED_EDGE('',*,*,#130,.F.);
#77=ORIENTED_EDGE('',*,*,#150,.T.);
#78=ORIENTED_EDGE('',*,*,#133,.T.);
#79=ORIENTED_EDGE('',*,*,#126,.F.);
#80=ORIENTED_EDGE('',*,*,#158,.F.);
#81=ORIENTED_EDGE('',*,*,#119,.T.);
#82=ORIENTED_EDGE('',*,*,#159,.T.);
#83=ORIENTED_EDGE('',*,*,#156,.T.);
#84=ORIENTED_EDGE('',*,*,#120,.F.);
#85=ORIENTED_EDGE('',*,*,#158,.T.);
#86=ORIENTED_EDGE('',*,*,#155,.F.);
#87=ORIENTED_EDGE('',*,*,#160,.F.);
#88=ORIENTED_EDGE('',*,*,#159,.F.);
#89=ORIENTED_EDGE('',*,*,#118,.T.);
#90=ORIENTED_EDGE('',*,*,#148,.T.);
#91=ORIENTED_EDGE('',*,*,#157,.T.);
#92=ORIENTED_EDGE('',*,*,#154,.F.);
#93=ORIENTED_EDGE('',*,*,#161,.T.);
#94=ORIENTED_EDGE('',*,*,#121,.F.);
#95=ORIENTED_EDGE('',*,*,#160,.T.);
#96=ORIENTED_EDGE('',*,*,#152,.F.);
#97=ORIENTED_EDGE('',*,*,#162,.T.);
#98=ORIENTED_EDGE('',*,*,#123,.F.);
#99=ORIENTED_EDGE('',*,*,#163,.T.);
#100=ORIENTED_EDGE('',*,*,#124,.F.);
#101=ORIENTED_EDGE('',*,*,#162,.F.);
#102=ORIENTED_EDGE('',*,*,#151,.F.);
#103=ORIENTED_EDGE('',*,*,#128,.F.);
#104=ORIENTED_EDGE('',*,*,#122,.F.);
#105=ORIENTED_EDGE('',*,*,#161,.F.);
#106=ORIENTED_EDGE('',*,*,#153,.F.);
#107=ORIENTED_EDGE('',*,*,#163,.F.);
#108=ORIENTED_EDGE('',*,*,#138,.F.);
#109=ORIENTED_EDGE('',*,*,#146,.F.);
#110=ORIENTED_EDGE('',*,*,#164,.T.);
#111=ORIENTED_EDGE('',*,*,#131,.T.);
#112=ORIENTED_EDGE('',*,*,#145,.F.);
#113=ORIENTED_EDGE('',*,*,#116,.T.);
#114=ORIENTED_EDGE('',*,*,#132,.F.);
#115=ORIENTED_EDGE('',*,*,#164,.F.);
#116=EDGE_CURVE('',#165,#166,#199,.T.);
#117=EDGE_CURVE('',#165,#167,#200,.T.);
#118=EDGE_CURVE('',#168,#167,#201,.T.);
#119=EDGE_CURVE('',#169,#168,#202,.T.);
#120=EDGE_CURVE('',#169,#170,#203,.T.);
#121=EDGE_CURVE('',#170,#171,#204,.T.);
#122=EDGE_CURVE('',#171,#172,#205,.F.);
#123=EDGE_CURVE('',#172,#173,#206,.T.);
#124=EDGE_CURVE('',#173,#174,#207,.F.);
#125=EDGE_CURVE('',#174,#175,#208,.T.);
#126=EDGE_CURVE('',#175,#176,#209,.T.);
#127=EDGE_CURVE('',#166,#176,#210,.T.);
#128=EDGE_CURVE('',#174,#177,#211,.T.);
#129=EDGE_CURVE('',#177,#178,#212,.T.);
#130=EDGE_CURVE('',#178,#175,#213,.T.);
#131=EDGE_CURVE('',#179,#180,#214,.T.);
#132=EDGE_CURVE('',#179,#166,#215,.T.);
#133=EDGE_CURVE('',#181,#176,#216,.T.);
#134=EDGE_CURVE('',#182,#181,#217,.T.);
#135=EDGE_CURVE('',#182,#183,#218,.T.);
#136=EDGE_CURVE('',#183,#180,#219,.T.);
#137=EDGE_CURVE('',#184,#185,#220,.T.);
#138=EDGE_CURVE('',#185,#180,#221,.T.);
#139=EDGE_CURVE('',#183,#184,#222,.T.);
#140=EDGE_CURVE('',#186,#186,#14,.T.);
#141=EDGE_CURVE('',#187,#187,#15,.T.);
#142=EDGE_CURVE('',#188,#188,#16,.T.);
#143=EDGE_CURVE('',#182,#189,#223,.T.);
#144=EDGE_CURVE('',#189,#184,#224,.T.);
#145=EDGE_CURVE('',#165,#190,#225,.T.);
#146=EDGE_CURVE('',#190,#185,#226,.T.);
#147=EDGE_CURVE('',#189,#191,#227,.T.);
#148=EDGE_CURVE('',#167,#191,#228,.T.);
#149=EDGE_CURVE('',#192,#192,#17,.T.);
#150=EDGE_CURVE('',#178,#181,#229,.T.);
#151=EDGE_CURVE('',#177,#193,#230,.F.);
#152=EDGE_CURVE('',#193,#194,#231,.T.);
#153=EDGE_CURVE('',#194,#195,#232,.F.);
#154=EDGE_CURVE('',#195,#196,#233,.T.);
#155=EDGE_CURVE('',#196,#197,#234,.T.);
#156=EDGE_CURVE('',#198,#197,#235,.T.);
#157=EDGE_CURVE('',#191,#198,#236,.T.);
#158=EDGE_CURVE('',#169,#197,#237,.T.);
#159=EDGE_CURVE('',#168,#198,#238,.T.);
#160=EDGE_CURVE('',#170,#196,#239,.T.);
#161=EDGE_CURVE('',#195,#171,#240,.T.);
#162=EDGE_CURVE('',#193,#173,#241,.T.);
#163=EDGE_CURVE('',#172,#194,#242,.T.);
#164=EDGE_CURVE('',#190,#179,#243,.T.);
#165=VERTEX_POINT('',#507);
#166=VERTEX_POINT('',#508);
#167=VERTEX_POINT('',#510);
#168=VERTEX_POINT('',#512);
#169=VERTEX_POINT('',#514);
#170=VERTEX_POINT('',#516);
#171=VERTEX_POINT('',#518);
#172=VERTEX_POINT('',#520);
#173=VERTEX_POINT('',#522);
#174=VERTEX_POINT('',#524);
#175=VERTEX_POINT('',#526);
#176=VERTEX_POINT('',#528);
#177=VERTEX_POINT('',#532);
#178=VERTEX_POINT('',#534);
#179=VERTEX_POINT('',#538);
#180=VERTEX_POINT('',#539);
#181=VERTEX_POINT('',#542);
#182=VERTEX_POINT('',#544);
#183=VERTEX_POINT('',#546);
#184=VERTEX_POINT('',#550);
#185=VERTEX_POINT('',#551);
#186=VERTEX_POINT('',#555);
#187=VERTEX_POINT('',#557);
#188=VERTEX_POINT('',#560);
#189=VERTEX_POINT('',#563);
#190=VERTEX_POINT('',#567);
#191=VERTEX_POINT('',#570);
#192=VERTEX_POINT('',#574);
#193=VERTEX_POINT('',#578);
#194=VERTEX_POINT('',#580);
#195=VERTEX_POINT('',#582);
#196=VERTEX_POINT('',#584);
#197=VERTEX_POINT('',#586);
#198=VERTEX_POINT('',#588);
#199=LINE('',#506,#244);
#200=LINE('',#509,#245);
#201=LINE('',#511,#246);
#202=LINE('',#513,#247);
#203=LINE('',#515,#248);
#204=LINE('',#517,#249);
#205=LINE('',#519,#250);
#206=LINE('',#521,#251);
#207=LINE('',#523,#252);
#208=LINE('',#525,#253);
#209=LINE('',#527,#254);
#210=LINE('',#529,#255);
#211=LINE('',#531,#256);
#212=LINE('',#533,#257);
#213=LINE('',#535,#258);
#214=LINE('',#537,#259);
#215=LINE('',#540,#260);
#216=LINE('',#541,#261);
#217=LINE('',#543,#262);
#218=LINE('',#545,#263);
#219=LINE('',#547,#264);
#220=LINE('',#549,#265);
#221=LINE('',#552,#266);
#222=LINE('',#553,#267);
#223=LINE('',#562,#268);
#224=LINE('',#564,#269);
#225=LINE('',#566,#270);
#226=LINE('',#568,#271);
#227=LINE('',#569,#272);
#228=LINE('',#571,#273);
#229=LINE('',#576,#274);
#230=LINE('',#577,#275);
#231=LINE('',#579,#276);
#232=LINE('',#581,#277);
#233=LINE('',#583,#278);
#234=LINE('',#585,#279);
#235=LINE('',#587,#280);
#236=LINE('',#589,#281);
#237=LINE('',#592,#282);
#238=LINE('',#593,#283);
#239=LINE('',#595,#284);
#240=LINE('',#598,#285);
#241=LINE('',#600,#286);
#242=LINE('',#601,#287);
#243=LINE('',#605,#288);
#244=VECTOR('',#415,1.);
#245=VECTOR('',#416,1.);
#246=VECTOR('',#417,1.);
#247=VECTOR('',#418,1.);
#248=VECTOR('',#419,1.);
#249=VECTOR('',#420,1.);
#250=VECTOR('',#421,1.);
#251=VECTOR('',#422,1.);
#252=VECTOR('',#423,1.);
#253=VECTOR('',#424,1.);
#254=VECTOR('',#425,1.);
#255=VECTOR('',#426,1.);
#256=VECTOR('',#429,1.);
#257=VECTOR('',#430,1.);
#258=VECTOR('',#431,1.);
#259=VECTOR('',#434,1.);
#260=VECTOR('',#435,1.);
#261=VECTOR('',#436,1.);
#262=VECTOR('',#437,1.);
#263=VECTOR('',#438,1.);
#264=VECTOR('',#439,1.);
#265=VECTOR('',#442,1.);
#266=VECTOR('',#443,1.);
#267=VECTOR('',#444,1.);
#268=VECTOR('',#455,1.);
#269=VECTOR('',#456,1.);
#270=VECTOR('',#459,1.);
#271=VECTOR('',#460,1.);
#272=VECTOR('',#461,1.);
#273=VECTOR('',#462,1.);
#274=VECTOR('',#469,1.);
#275=VECTOR('',#470,1.);
#276=VECTOR('',#471,1.);
#277=VECTOR('',#472,1.);
#278=VECTOR('',#473,1.);
#279=VECTOR('',#474,1.);
#280=VECTOR('',#475,1.);
#281=VECTOR('',#476,1.);
#282=VECTOR('',#481,1.);
#283=VECTOR('',#482,1.);
#284=VECTOR('',#485,1.);
#285=VECTOR('',#490,1.);
#286=VECTOR('',#493,1.);
#287=VECTOR('',#494,1.);
#288=VECTOR('',#501,1.);
#289=EDGE_LOOP('',(#18,#19,#20,#21,#22,#23,#24,#25,#26,#27,#28,#29));
#290=EDGE_LOOP('',(#30,#31,#32,#33));
#291=EDGE_LOOP('',(#34,#35,#36,#37,#38,#39,#40));
#292=EDGE_LOOP('',(#41,#42,#43,#44));
#293=EDGE_LOOP('',(#45));
#294=EDGE_LOOP('',(#46));
#295=EDGE_LOOP('',(#47));
#296=EDGE_LOOP('',(#48));
#297=EDGE_LOOP('',(#49,#50,#51,#52));
#298=EDGE_LOOP('',(#53,#54,#55,#56,#57,#58,#59));
#299=EDGE_LOOP('',(#60));
#300=EDGE_LOOP('',(#61));
#301=EDGE_LOOP('',(#62));
#302=EDGE_LOOP('',(#63,#64,#65,#66,#67,#68,#69,#70,#71,#72,#73,#74));
#303=EDGE_LOOP('',(#75));
#304=EDGE_LOOP('',(#76,#77,#78,#79));
#305=EDGE_LOOP('',(#80,#81,#82,#83));
#306=EDGE_LOOP('',(#84,#85,#86,#87));
#307=EDGE_LOOP('',(#88,#89,#90,#91));
#308=EDGE_LOOP('',(#92,#93,#94,#95));
#309=EDGE_LOOP('',(#96,#97,#98,#99));
#310=EDGE_LOOP('',(#100,#101,#102,#103));
#311=EDGE_LOOP('',(#104,#105,#106,#107));
#312=EDGE_LOOP('',(#108,#109,#110,#111));
#313=EDGE_LOOP('',(#112,#113,#114,#115));
#314=FACE_BOUND('',#289,.T.);
#315=FACE_BOUND('',#290,.T.);
#316=FACE_BOUND('',#291,.T.);
#317=FACE_BOUND('',#292,.T.);
#318=FACE_BOUND('',#293,.T.);
#319=FACE_BOUND('',#294,.T.);
#320=FACE_BOUND('',#295,.T.);
#321=FACE_BOUND('',#296,.T.);
#322=FACE_BOUND('',#297,.T.);
#323=FACE_BOUND('',#298,.T.);
#324=FACE_BOUND('',#299,.T.);
#325=FACE_BOUND('',#300,.T.);
#326=FACE_BOUND('',#301,.T.);
#327=FACE_BOUND('',#302,.T.);
#328=FACE_BOUND('',#303,.T.);
#329=FACE_BOUND('',#304,.T.);
#330=FACE_BOUND('',#305,.T.);
#331=FACE_BOUND('',#306,.T.);
#332=FACE_BOUND('',#307,.T.);
#333=FACE_BOUND('',#308,.T.);
#334=FACE_BOUND('',#309,.T.);
#335=FACE_BOUND('',#310,.T.);
#336=FACE_BOUND('',#311,.T.);
#337=FACE_BOUND('',#312,.T.);
#338=FACE_BOUND('',#313,.T.);
#339=PLANE('',#388);
#340=PLANE('',#389);
#341=PLANE('',#390);
#342=PLANE('',#391);
#343=PLANE('',#396);
#344=PLANE('',#397);
#345=PLANE('',#400);
#346=PLANE('',#401);
#347=PLANE('',#402);
#348=PLANE('',#403);
#349=PLANE('',#404);
#350=PLANE('',#405);
#351=PLANE('',#406);
#352=PLANE('',#407);
#353=PLANE('',#408);
#354=PLANE('',#409);
#355=PLANE('',#410);
#356=ADVANCED_FACE('',(#314),#339,.F.);
#357=ADVANCED_FACE('',(#315),#340,.T.);
#358=ADVANCED_FACE('',(#316),#341,.F.);
#359=ADVANCED_FACE('',(#317,#318,#319),#342,.F.);
#360=ADVANCED_FACE('',(#320,#321),#12,.F.);
#361=ADVANCED_FACE('',(#322),#343,.T.);
#362=ADVANCED_FACE('',(#323),#344,.T.);
#363=ADVANCED_FACE('',(#324,#325),#13,.F.);
#364=ADVANCED_FACE('',(#326,#327,#328),#345,.T.);
#365=ADVANCED_FACE('',(#329),#346,.T.);
#366=ADVANCED_FACE('',(#330),#347,.F.);
#367=ADVANCED_FACE('',(#331),#348,.T.);
#368=ADVANCED_FACE('',(#332),#349,.F.);
#369=ADVANCED_FACE('',(#333),#350,.T.);
#370=ADVANCED_FACE('',(#334),#351,.T.);
#371=ADVANCED_FACE('',(#335),#352,.T.);
#372=ADVANCED_FACE('',(#336),#353,.T.);
#373=ADVANCED_FACE('',(#337),#354,.T.);
#374=ADVANCED_FACE('',(#338),#355,.T.);
#375=CLOSED_SHELL('',(#356,#357,#358,#359,#360,#361,#362,#363,#364,#365,
#366,#367,#368,#369,#370,#371,#372,#373,#374));
#376=STYLED_ITEM('',(#377),#384);
#377=PRESENTATION_STYLE_ASSIGNMENT((#378));
#378=SURFACE_STYLE_USAGE(.BOTH.,#379);
#379=SURFACE_SIDE_STYLE('',(#380));
#380=SURFACE_STYLE_FILL_AREA(#381);
#381=FILL_AREA_STYLE('',(#382));
#382=FILL_AREA_STYLE_COLOUR('',#383);
#383=COLOUR_RGB('',0.901960784313726,0.901960784313726,0.901960784313726);
#384=MANIFOLD_SOLID_BREP('Surface Fork Holder',#375);
#385=SHAPE_DEFINITION_REPRESENTATION(#613,#386);
#386=SHAPE_REPRESENTATION('Surface Fork Holder',(#387),#608);
#387=AXIS2_PLACEMENT_3D('',#504,#411,#412);
#388=AXIS2_PLACEMENT_3D('',#505,#413,#414);
#389=AXIS2_PLACEMENT_3D('',#530,#427,#428);
#390=AXIS2_PLACEMENT_3D('',#536,#432,#433);
#391=AXIS2_PLACEMENT_3D('',#548,#440,#441);
#392=AXIS2_PLACEMENT_3D('',#554,#445,#446);
#393=AXIS2_PLACEMENT_3D('',#556,#447,#448);
#394=AXIS2_PLACEMENT_3D('',#558,#449,#450);
#395=AXIS2_PLACEMENT_3D('',#559,#451,#452);
#396=AXIS2_PLACEMENT_3D('',#561,#453,#454);
#397=AXIS2_PLACEMENT_3D('',#565,#457,#458);
#398=AXIS2_PLACEMENT_3D('',#572,#463,#464);
#399=AXIS2_PLACEMENT_3D('',#573,#465,#466);
#400=AXIS2_PLACEMENT_3D('',#575,#467,#468);
#401=AXIS2_PLACEMENT_3D('',#590,#477,#478);
#402=AXIS2_PLACEMENT_3D('',#591,#479,#480);
#403=AXIS2_PLACEMENT_3D('',#594,#483,#484);
#404=AXIS2_PLACEMENT_3D('',#596,#486,#487);
#405=AXIS2_PLACEMENT_3D('',#597,#488,#489);
#406=AXIS2_PLACEMENT_3D('',#599,#491,#492);
#407=AXIS2_PLACEMENT_3D('',#602,#495,#496);
#408=AXIS2_PLACEMENT_3D('',#603,#497,#498);
#409=AXIS2_PLACEMENT_3D('',#604,#499,#500);
#410=AXIS2_PLACEMENT_3D('',#606,#502,#503);
#411=DIRECTION('',(0.,0.,1.));
#412=DIRECTION('',(1.,0.,0.));
#413=DIRECTION('',(-6.12323399573676E-17,-1.,-5.55111512312578E-16));
#414=DIRECTION('',(1.,-6.12323399573676E-17,-3.39907768361722E-32));
#415=DIRECTION('',(-1.,6.12323399573676E-17,3.39907768361722E-32));
#416=DIRECTION('',(6.12323399573677E-17,5.55111512312578E-16,-1.));
#417=DIRECTION('',(-1.,6.12323399573677E-17,-6.16790569236198E-17));
#418=DIRECTION('',(7.58306958771745E-33,-5.55111512312578E-16,1.));
#419=DIRECTION('',(-1.,6.12323399573676E-17,3.39907768361722E-32));
#420=DIRECTION('',(9.79158180465831E-34,-5.55111512312578E-16,1.));
#421=DIRECTION('',(0.707106781186548,3.49225311859169E-16,-0.707106781186547));
#422=DIRECTION('',(-1.,6.12323399573677E-17,-6.16790569236198E-17));
#423=DIRECTION('',(0.707106781186548,-4.35820917482718E-16,0.707106781186547));
#424=DIRECTION('',(6.12323399573677E-17,5.55111512312578E-16,-1.));
#425=DIRECTION('',(-1.,6.12323399573677E-17,-6.12323399573677E-17));
#426=DIRECTION('',(6.12323399573677E-17,5.55111512312578E-16,-1.));
#427=DIRECTION('',(1.,-6.12323399573677E-17,6.12323399573677E-17));
#428=DIRECTION('',(6.12323399573677E-17,0.,-1.));
#429=DIRECTION('',(-6.12323399573676E-17,-1.,-5.55111512312578E-16));
#430=DIRECTION('',(6.12323399573677E-17,5.55111512312578E-16,-1.));
#431=DIRECTION('',(6.12323399573676E-17,1.,5.55111512312578E-16));
#432=DIRECTION('',(1.,-6.12323399573677E-17,6.12323399573677E-17));
#433=DIRECTION('',(6.12323399573677E-17,0.,-1.));
#434=DIRECTION('',(-6.12323399573676E-17,-1.,-5.55111512312578E-16));
#435=DIRECTION('',(6.77927340424307E-32,-0.707106781186547,-0.707106781186548));
#436=DIRECTION('',(6.12323399573676E-17,1.,5.55111512312578E-16));
#437=DIRECTION('',(6.12323399573677E-17,5.55111512312578E-16,-1.));
#438=DIRECTION('',(6.12323399573676E-17,1.,5.55111512312578E-16));
#439=DIRECTION('',(6.12323399573677E-17,5.55111512312578E-16,-1.));
#440=DIRECTION('',(-6.12323399573676E-17,-1.,-5.55111512312578E-16));
#441=DIRECTION('',(1.,-6.12323399573676E-17,-3.39907768361722E-32));
#442=DIRECTION('',(6.12323399573677E-17,5.55111512312578E-16,-1.));
#443=DIRECTION('',(-1.,6.12323399573676E-17,3.39907768361722E-32));
#444=DIRECTION('',(1.,-6.12323399573676E-17,-3.39907768361722E-32));
#445=DIRECTION('',(-6.12323399573676E-17,-1.,-5.55111512312578E-16));
#446=DIRECTION('',(0.,5.55111512312578E-16,-1.));
#447=DIRECTION('',(-6.12323399573676E-17,-1.,-5.55111512312578E-16));
#448=DIRECTION('',(0.,5.55111512312578E-16,-1.));
#449=DIRECTION('',(6.12323399573676E-17,1.,5.55111512312578E-16));
#450=DIRECTION('',(0.,-5.55111512312578E-16,1.));
#451=DIRECTION('',(-6.12323399573676E-17,-1.,-5.55111512312578E-16));
#452=DIRECTION('',(0.,5.55111512312578E-16,-1.));
#453=DIRECTION('',(0.,-5.55111512312578E-16,1.));
#454=DIRECTION('',(0.,-1.,-5.55111512312578E-16));
#455=DIRECTION('',(1.,-6.12323399573676E-17,-3.39907768361722E-32));
#456=DIRECTION('',(6.12323399573676E-17,1.,5.55111512312578E-16));
#457=DIRECTION('',(1.,-6.12323399573677E-17,6.12323399573677E-17));
#458=DIRECTION('',(6.12323399573677E-17,0.,-1.));
#459=DIRECTION('',(-6.77927340424307E-32,0.707106781186547,0.707106781186548));
#460=DIRECTION('',(-6.12323399573676E-17,-1.,-5.55111512312578E-16));
#461=DIRECTION('',(6.12323399573677E-17,5.55111512312578E-16,-1.));
#462=DIRECTION('',(-6.12323399573676E-17,-1.,-5.55111512312578E-16));
#463=DIRECTION('',(6.12323399573676E-17,1.,5.55111512312578E-16));
#464=DIRECTION('',(0.,-5.55111512312578E-16,1.));
#465=DIRECTION('',(-6.12323399573676E-17,-1.,-5.55111512312578E-16));
#466=DIRECTION('',(0.,5.55111512312578E-16,-1.));
#467=DIRECTION('',(-6.12323399573676E-17,-1.,-5.55111512312578E-16));
#468=DIRECTION('',(1.,-6.12323399573676E-17,-3.39907768361722E-32));
#469=DIRECTION('',(-1.,6.12323399573677E-17,-6.12323399573677E-17));
#470=DIRECTION('',(-0.707106781186548,4.35820917482718E-16,-0.707106781186547));
#471=DIRECTION('',(1.,-6.12323399573677E-17,6.16790569236198E-17));
#472=DIRECTION('',(-0.707106781186548,-3.49225311859169E-16,0.707106781186547));
#473=DIRECTION('',(-9.79158180465828E-34,5.55111512312578E-16,-1.));
#474=DIRECTION('',(1.,-6.12323399573676E-17,-3.39907768361722E-32));
#475=DIRECTION('',(-7.58306958771745E-33,5.55111512312578E-16,-1.));
#476=DIRECTION('',(1.,-6.12323399573677E-17,6.16790569236198E-17));
#477=DIRECTION('',(6.12323399573677E-17,5.55111512312578E-16,-1.));
#478=DIRECTION('',(0.,1.,5.55111512312578E-16));
#479=DIRECTION('',(-1.,6.12323399573676E-17,4.15738464238897E-32));
#480=DIRECTION('',(-6.12323399573676E-17,-1.,0.));
#481=DIRECTION('',(-6.12323399573676E-17,-1.,-5.55111512312578E-16));
#482=DIRECTION('',(-6.12323399573676E-17,-1.,-5.55111512312578E-16));
#483=DIRECTION('',(0.,5.55111512312578E-16,-1.));
#484=DIRECTION('',(0.,1.,5.55111512312578E-16));
#485=DIRECTION('',(-6.12323399573676E-17,-1.,-5.55111512312578E-16));
#486=DIRECTION('',(6.16790569236198E-17,5.55111512312578E-16,-1.));
#487=DIRECTION('',(0.,1.,5.55111512312578E-16));
#488=DIRECTION('',(-1.,6.12323399573676E-17,3.49699350166381E-32));
#489=DIRECTION('',(-6.12323399573676E-17,-1.,0.));
#490=DIRECTION('',(6.12323399573676E-17,1.,5.55111512312578E-16));
#491=DIRECTION('',(6.16790569236198E-17,5.55111512312578E-16,-1.));
#492=DIRECTION('',(0.,1.,5.55111512312578E-16));
#493=DIRECTION('',(6.12323399573676E-17,1.,5.55111512312578E-16));
#494=DIRECTION('',(-6.12323399573676E-17,-1.,-5.55111512312578E-16));
#495=DIRECTION('',(0.707106781186547,3.49225311859169E-16,-0.707106781186548));
#496=DIRECTION('',(6.12323399573676E-17,1.,5.55111512312578E-16));
#497=DIRECTION('',(-0.707106781186547,4.35820917482719E-16,-0.707106781186548));
#498=DIRECTION('',(6.12323399573676E-17,1.,5.55111512312578E-16));
#499=DIRECTION('',(0.,-5.55111512312578E-16,1.));
#500=DIRECTION('',(0.,-1.,-5.55111512312578E-16));
#501=DIRECTION('',(-1.,6.12323399573676E-17,3.39907768361722E-32));
#502=DIRECTION('',(4.32978028117746E-17,0.707106781186548,-0.707106781186547));
#503=DIRECTION('',(1.,-6.12323399573676E-17,-3.39907768361722E-32));
#504=CARTESIAN_POINT('',(0.,0.,0.));
#505=CARTESIAN_POINT('',(0.0319660254037845,-0.0620320508075689,0.00836602540378446));
#506=CARTESIAN_POINT('',(0.0319660254037845,-0.0620320508075689,-0.0124339745962155));
#507=CARTESIAN_POINT('',(0.0344660254037845,-0.0620320508075689,-0.0124339745962155));
#508=CARTESIAN_POINT('',(0.0294660254037845,-0.0620320508075689,-0.0124339745962155));
#509=CARTESIAN_POINT('',(0.0344660254037845,-0.0620320508075689,0.00836602540378445));
#510=CARTESIAN_POINT('',(0.0344660254037845,-0.0620320508075689,-0.0169339745962155));
#511=CARTESIAN_POINT('',(0.146966025403784,-0.0620320508075689,-0.0169339745962154));
#512=CARTESIAN_POINT('',(0.264466025403784,-0.0620320508075689,-0.0169339745962154));
#513=CARTESIAN_POINT('',(0.264466025403784,-0.0620320508075689,-0.0680339745962155));
#514=CARTESIAN_POINT('',(0.264466025403784,-0.0620320508075689,-0.119133974596215));
#515=CARTESIAN_POINT('',(0.261966025403784,-0.0620320508075688,-0.119133974596215));
#516=CARTESIAN_POINT('',(0.259466025403784,-0.0620320508075688,-0.119133974596215));
#517=CARTESIAN_POINT('',(0.259466025403784,-0.0620320508075689,-0.0705339745962155));
#518=CARTESIAN_POINT('',(0.259466025403784,-0.0620320508075689,-0.0269339745962154));
#519=CARTESIAN_POINT('',(0.128066025403784,-0.062032050807569,0.104466025403785));
#520=CARTESIAN_POINT('',(0.254466025403784,-0.0620320508075689,-0.0219339745962154));
#521=CARTESIAN_POINT('',(0.146966025403784,-0.0620320508075689,-0.0219339745962154));
#522=CARTESIAN_POINT('',(0.0394660254037845,-0.0620320508075689,-0.0219339745962155));
#523=CARTESIAN_POINT('',(0.0508660254037844,-0.0620320508075689,-0.0105339745962155));
#524=CARTESIAN_POINT('',(0.0344660254037845,-0.0620320508075689,-0.0269339745962154));
#525=CARTESIAN_POINT('',(0.0344660254037845,-0.0620320508075689,0.00836602540378445));
#526=CARTESIAN_POINT('',(0.0344660254037845,-0.0620320508075688,-0.119133974596216));
#527=CARTESIAN_POINT('',(0.0344660254037845,-0.0620320508075688,-0.119133974596216));
#528=CARTESIAN_POINT('',(0.0294660254037845,-0.0620320508075688,-0.119133974596216));
#529=CARTESIAN_POINT('',(0.0294660254037845,-0.0620320508075689,0.00836602540378445));
#530=CARTESIAN_POINT('',(0.0344660254037845,-0.0667340508075689,0.00836602540378445));
#531=CARTESIAN_POINT('',(0.0344660254037845,-0.0667320508075689,-0.0269339745962154));
#532=CARTESIAN_POINT('',(0.0344660254037845,-0.0667320508075689,-0.0269339745962154));
#533=CARTESIAN_POINT('',(0.0344660254037845,-0.0667320508075689,0.00836602540378445));
#534=CARTESIAN_POINT('',(0.0344660254037845,-0.0667320508075689,-0.119133974596216));
#535=CARTESIAN_POINT('',(0.0344660254037845,-0.0667340508075688,-0.119133974596216));
#536=CARTESIAN_POINT('',(0.0294660254037845,-0.0667340508075689,0.00836602540378445));
#537=CARTESIAN_POINT('',(0.0294660254037845,-0.0540320508075689,-0.00443397459621554));
#538=CARTESIAN_POINT('',(0.0294660254037845,-0.0540320508075689,-0.00443397459621554));
#539=CARTESIAN_POINT('',(0.0294660254037845,-0.0620320508075689,-0.00443397459621554));
#540=CARTESIAN_POINT('',(0.0294660254037845,-0.0540320508075689,-0.00443397459621554));
#541=CARTESIAN_POINT('',(0.0294660254037845,-0.0667340508075688,-0.119133974596216));
#542=CARTESIAN_POINT('',(0.0294660254037845,-0.0667320508075688,-0.119133974596216));
#543=CARTESIAN_POINT('',(0.0294660254037845,-0.0667320508075689,0.00836602540378445));
#544=CARTESIAN_POINT('',(0.0294660254037845,-0.0667320508075689,0.0205660254037844));
#545=CARTESIAN_POINT('',(0.0294660254037845,-0.0667340508075689,0.0205660254037844));
#546=CARTESIAN_POINT('',(0.0294660254037845,-0.0620320508075689,0.0205660254037844));
#547=CARTESIAN_POINT('',(0.0294660254037845,-0.0620320508075689,0.00836602540378445));
#548=CARTESIAN_POINT('',(0.0319660254037845,-0.0620320508075689,0.00836602540378446));
#549=CARTESIAN_POINT('',(0.0344660254037845,-0.0620320508075689,0.00836602540378445));
#550=CARTESIAN_POINT('',(0.0344660254037845,-0.0620320508075689,0.0205660254037844));
#551=CARTESIAN_POINT('',(0.0344660254037845,-0.0620320508075689,-0.00443397459621554));
#552=CARTESIAN_POINT('',(0.0319660254037845,-0.0620320508075689,-0.00443397459621554));
#553=CARTESIAN_POINT('',(0.0319660254037845,-0.0620320508075689,0.0205660254037844));
#554=CARTESIAN_POINT('',(0.0319660254037845,-0.0620320508075689,0.000866025403784454));
#555=CARTESIAN_POINT('',(0.0319660254037845,-0.0620320508075689,-0.000483974596215546));
#556=CARTESIAN_POINT('',(0.0319660254037845,-0.0620320508075689,0.0158660254037844));
#557=CARTESIAN_POINT('',(0.0319660254037845,-0.0620320508075689,0.0145160254037844));
#558=CARTESIAN_POINT('',(0.0319660254037845,-0.0667340508075689,0.0158660254037844));
#559=CARTESIAN_POINT('',(0.0319660254037845,-0.0667320508075689,0.0158660254037844));
#560=CARTESIAN_POINT('',(0.0319660254037845,-0.0667320508075689,0.0145160254037844));
#561=CARTESIAN_POINT('',(0.0319660254037845,-0.0667340508075689,0.0205660254037844));
#562=CARTESIAN_POINT('',(0.0319660254037845,-0.0667320508075689,0.0205660254037844));
#563=CARTESIAN_POINT('',(0.0344660254037845,-0.0667320508075689,0.0205660254037844));
#564=CARTESIAN_POINT('',(0.0344660254037845,-0.0667340508075689,0.0205660254037844));
#565=CARTESIAN_POINT('',(0.0344660254037845,-0.0667340508075689,0.00836602540378445));
#566=CARTESIAN_POINT('',(0.0344660254037845,-0.0539830508075689,-0.00438497459621554));
#567=CARTESIAN_POINT('',(0.0344660254037845,-0.0540320508075689,-0.00443397459621554));
#568=CARTESIAN_POINT('',(0.0344660254037845,-0.0540320508075689,-0.00443397459621554));
#569=CARTESIAN_POINT('',(0.0344660254037845,-0.0667320508075689,0.00836602540378445));
#570=CARTESIAN_POINT('',(0.0344660254037845,-0.0667320508075689,-0.0169339745962155));
#571=CARTESIAN_POINT('',(0.0344660254037845,-0.0620300508075689,-0.0169339745962155));
#572=CARTESIAN_POINT('',(0.0319660254037845,-0.0667340508075689,0.000866025403784451));
#573=CARTESIAN_POINT('',(0.0319660254037845,-0.0667320508075689,0.000866025403784451));
#574=CARTESIAN_POINT('',(0.0319660254037845,-0.0667320508075689,-0.000483974596215549));
#575=CARTESIAN_POINT('',(0.0344660254037845,-0.0667320508075689,0.0208660254037845));
#576=CARTESIAN_POINT('',(0.0344660254037845,-0.0667320508075688,-0.119133974596216));
#577=CARTESIAN_POINT('',(0.0344660254037845,-0.0667320508075689,-0.0269339745962154));
#578=CARTESIAN_POINT('',(0.0394660254037845,-0.0667320508075689,-0.0219339745962155));
#579=CARTESIAN_POINT('',(0.146966025403784,-0.0667320508075689,-0.0219339745962154));
#580=CARTESIAN_POINT('',(0.254466025403784,-0.0667320508075689,-0.0219339745962154));
#581=CARTESIAN_POINT('',(0.254466025403784,-0.0667320508075689,-0.0219339745962154));
#582=CARTESIAN_POINT('',(0.259466025403784,-0.0667320508075689,-0.0269339745962154));
#583=CARTESIAN_POINT('',(0.259466025403784,-0.0667320508075689,-0.0705339745962155));
#584=CARTESIAN_POINT('',(0.259466025403784,-0.0667320508075689,-0.119133974596215));
#585=CARTESIAN_POINT('',(0.261966025403784,-0.0667320508075689,-0.119133974596215));
#586=CARTESIAN_POINT('',(0.264466025403784,-0.0667320508075689,-0.119133974596215));
#587=CARTESIAN_POINT('',(0.264466025403784,-0.0667320508075689,-0.0680339745962155));
#588=CARTESIAN_POINT('',(0.264466025403784,-0.0667320508075689,-0.0169339745962154));
#589=CARTESIAN_POINT('',(0.146966025403784,-0.0667320508075689,-0.0169339745962154));
#590=CARTESIAN_POINT('',(0.0344660254037845,-0.0667340508075688,-0.119133974596216));
#591=CARTESIAN_POINT('',(0.264466025403784,-0.0620300508075689,-0.0680339745962155));
#592=CARTESIAN_POINT('',(0.264466025403784,-0.0620300508075688,-0.119133974596215));
#593=CARTESIAN_POINT('',(0.264466025403784,-0.0620300508075689,-0.0169339745962154));
#594=CARTESIAN_POINT('',(0.261966025403784,-0.0620300508075688,-0.119133974596215));
#595=CARTESIAN_POINT('',(0.259466025403784,-0.0620300508075688,-0.119133974596215));
#596=CARTESIAN_POINT('',(0.146966025403784,-0.0620300508075689,-0.0169339745962154));
#597=CARTESIAN_POINT('',(0.259466025403784,-0.0620300508075689,-0.0705339745962155));
#598=CARTESIAN_POINT('',(0.259466025403784,-0.0620320508075689,-0.0269339745962154));
#599=CARTESIAN_POINT('',(0.146966025403784,-0.0620300508075689,-0.0219339745962154));
#600=CARTESIAN_POINT('',(0.0394660254037845,-0.0620320508075689,-0.0219339745962155));
#601=CARTESIAN_POINT('',(0.254466025403784,-0.0667320508075689,-0.0219339745962154));
#602=CARTESIAN_POINT('',(0.0344660254037845,-0.0667340508075689,-0.0269339745962154));
#603=CARTESIAN_POINT('',(0.254466025403784,-0.0620300508075689,-0.0219339745962154));
#604=CARTESIAN_POINT('',(0.0319660254037845,-0.0540320508075689,-0.00443397459621554));
#605=CARTESIAN_POINT('',(0.0319660254037845,-0.0540320508075689,-0.00443397459621554));
#606=CARTESIAN_POINT('',(0.146966025403784,-0.0540320508075689,-0.00443397459621554));
#607=MECHANICAL_DESIGN_GEOMETRIC_PRESENTATION_REPRESENTATION('',(#376),
#608);
#608=(
GEOMETRIC_REPRESENTATION_CONTEXT(3)
GLOBAL_UNCERTAINTY_ASSIGNED_CONTEXT((#609))
GLOBAL_UNIT_ASSIGNED_CONTEXT((#612,#611,#610))
REPRESENTATION_CONTEXT('Surface Fork Holder','TOP_LEVEL_ASSEMBLY_PART')
);
#609=UNCERTAINTY_MEASURE_WITH_UNIT(LENGTH_MEASURE(1.E-8),#612,
'DISTANCE_ACCURACY_VALUE','Maximum Tolerance applied to model');
#610=(
NAMED_UNIT(*)
SI_UNIT($,.STERADIAN.)
SOLID_ANGLE_UNIT()
);
#611=(
NAMED_UNIT(*)
PLANE_ANGLE_UNIT()
SI_UNIT($,.RADIAN.)
);
#612=(
LENGTH_UNIT()
NAMED_UNIT(*)
SI_UNIT($,.METRE.)
);
#613=PRODUCT_DEFINITION_SHAPE('','',#614);
#614=PRODUCT_DEFINITION('','',#616,#615);
#615=PRODUCT_DEFINITION_CONTEXT('',#622,'design');
#616=PRODUCT_DEFINITION_FORMATION_WITH_SPECIFIED_SOURCE('','',#618,
 .NOT_KNOWN.);
#617=PRODUCT_RELATED_PRODUCT_CATEGORY('','',(#618));
#618=PRODUCT('Surface Fork Holder','Surface Fork Holder',
'Surface Fork Holder',(#620));
#619=PRODUCT_CATEGORY('','');
#620=PRODUCT_CONTEXT('',#622,'mechanical');
#621=APPLICATION_PROTOCOL_DEFINITION('international standard',
'ap242_managed_model_based_3d_engineering',2020,#622);
#622=APPLICATION_CONTEXT('managed model based 3d engineering');
ENDSEC;
END-ISO-10303-21;
