ISO-10303-21;
HEADER;
/* Generated by software containing ST-Developer
 * from STEP Tools, Inc. (www.steptools.com) 
 */
/* OPTION: using custom renumber hook */

FILE_DESCRIPTION(
/* description */ ('STEP AP242 Edition 2',
'CAx-IF Rec.Pracs.---Representation and Presentation of Product Manufa
cturing Information (PMI)---4.0---2014-10-13',
'CAx-IF Rec.Pracs.---3D Tessellated Geometry---0.4---2014-09-14','2;1',
'CAx-IF Rec.Pracs.---User Defined Attributes---1.5---2016-08-15'),
/* implementation_level */ '2;1');

FILE_NAME(
/* name */ 'Full Assembly - top tube holder',
/* time_stamp */ '2026-04-24T00:57:04Z',
/* author */ (''),
/* organization */ (''),
/* preprocessor_version */ 'ST-DEVELOPER v20',
/* originating_system */ 'ONSHAPE BY PTC INC, 1.213',
/* authorisation */ '  ');

FILE_SCHEMA (('AP242_MANAGED_MODEL_BASED_3D_ENGINEERING_MIM_LF { 1 0 10303 442 3 1 4 }'));
ENDSEC;

DATA;
#10=SHAPE_REPRESENTATION_RELATIONSHIP('','',#173,#11);
#11=ADVANCED_BREP_SHAPE_REPRESENTATION('',(#171),#281);
#12=CIRCLE('',#179,0.0025);
#13=CIRCLE('',#180,0.0025);
#14=CIRCLE('',#182,0.008);
#15=CIRCLE('',#183,0.008);
#16=CIRCLE('',#185,0.0051);
#17=CIRCLE('',#186,0.0051);
#18=CIRCLE('',#188,0.0025);
#19=CIRCLE('',#189,0.0025);
#20=CYLINDRICAL_SURFACE('',#178,0.0025);
#21=CYLINDRICAL_SURFACE('',#181,0.008);
#22=CYLINDRICAL_SURFACE('',#184,0.0051);
#23=CYLINDRICAL_SURFACE('',#187,0.0025);
#24=ORIENTED_EDGE('',*,*,#60,.T.);
#25=ORIENTED_EDGE('',*,*,#61,.F.);
#26=ORIENTED_EDGE('',*,*,#62,.F.);
#27=ORIENTED_EDGE('',*,*,#63,.T.);
#28=ORIENTED_EDGE('',*,*,#64,.T.);
#29=ORIENTED_EDGE('',*,*,#65,.F.);
#30=ORIENTED_EDGE('',*,*,#66,.F.);
#31=ORIENTED_EDGE('',*,*,#61,.T.);
#32=ORIENTED_EDGE('',*,*,#67,.F.);
#33=ORIENTED_EDGE('',*,*,#68,.F.);
#34=ORIENTED_EDGE('',*,*,#69,.T.);
#35=ORIENTED_EDGE('',*,*,#65,.T.);
#36=ORIENTED_EDGE('',*,*,#70,.T.);
#37=ORIENTED_EDGE('',*,*,#71,.F.);
#38=ORIENTED_EDGE('',*,*,#72,.T.);
#39=ORIENTED_EDGE('',*,*,#63,.F.);
#40=ORIENTED_EDGE('',*,*,#73,.F.);
#41=ORIENTED_EDGE('',*,*,#68,.T.);
#42=ORIENTED_EDGE('',*,*,#74,.T.);
#43=ORIENTED_EDGE('',*,*,#75,.F.);
#44=ORIENTED_EDGE('',*,*,#76,.T.);
#45=ORIENTED_EDGE('',*,*,#77,.F.);
#46=ORIENTED_EDGE('',*,*,#74,.F.);
#47=ORIENTED_EDGE('',*,*,#62,.T.);
#48=ORIENTED_EDGE('',*,*,#66,.T.);
#49=ORIENTED_EDGE('',*,*,#69,.F.);
#50=ORIENTED_EDGE('',*,*,#73,.T.);
#51=ORIENTED_EDGE('',*,*,#70,.F.);
#52=ORIENTED_EDGE('',*,*,#76,.F.);
#53=ORIENTED_EDGE('',*,*,#75,.T.);
#54=ORIENTED_EDGE('',*,*,#60,.F.);
#55=ORIENTED_EDGE('',*,*,#72,.F.);
#56=ORIENTED_EDGE('',*,*,#67,.T.);
#57=ORIENTED_EDGE('',*,*,#64,.F.);
#58=ORIENTED_EDGE('',*,*,#71,.T.);
#59=ORIENTED_EDGE('',*,*,#77,.T.);
#60=EDGE_CURVE('',#78,#79,#92,.T.);
#61=EDGE_CURVE('',#80,#79,#93,.T.);
#62=EDGE_CURVE('',#81,#80,#94,.T.);
#63=EDGE_CURVE('',#81,#78,#95,.T.);
#64=EDGE_CURVE('',#79,#82,#96,.T.);
#65=EDGE_CURVE('',#83,#82,#97,.T.);
#66=EDGE_CURVE('',#80,#83,#98,.T.);
#67=EDGE_CURVE('',#84,#82,#99,.T.);
#68=EDGE_CURVE('',#85,#84,#100,.T.);
#69=EDGE_CURVE('',#85,#83,#101,.T.);
#70=EDGE_CURVE('',#86,#86,#12,.T.);
#71=EDGE_CURVE('',#87,#87,#13,.T.);
#72=EDGE_CURVE('',#84,#78,#14,.T.);
#73=EDGE_CURVE('',#85,#81,#15,.T.);
#74=EDGE_CURVE('',#88,#88,#16,.T.);
#75=EDGE_CURVE('',#89,#89,#17,.T.);
#76=EDGE_CURVE('',#90,#90,#18,.T.);
#77=EDGE_CURVE('',#91,#91,#19,.T.);
#78=VERTEX_POINT('',#241);
#79=VERTEX_POINT('',#242);
#80=VERTEX_POINT('',#244);
#81=VERTEX_POINT('',#246);
#82=VERTEX_POINT('',#250);
#83=VERTEX_POINT('',#252);
#84=VERTEX_POINT('',#256);
#85=VERTEX_POINT('',#258);
#86=VERTEX_POINT('',#262);
#87=VERTEX_POINT('',#264);
#88=VERTEX_POINT('',#270);
#89=VERTEX_POINT('',#272);
#90=VERTEX_POINT('',#275);
#91=VERTEX_POINT('',#277);
#92=LINE('',#240,#102);
#93=LINE('',#243,#103);
#94=LINE('',#245,#104);
#95=LINE('',#247,#105);
#96=LINE('',#249,#106);
#97=LINE('',#251,#107);
#98=LINE('',#253,#108);
#99=LINE('',#255,#109);
#100=LINE('',#257,#110);
#101=LINE('',#259,#111);
#102=VECTOR('',#196,1.);
#103=VECTOR('',#197,1.);
#104=VECTOR('',#198,1.);
#105=VECTOR('',#199,1.);
#106=VECTOR('',#202,1.);
#107=VECTOR('',#203,1.);
#108=VECTOR('',#204,1.);
#109=VECTOR('',#207,1.);
#110=VECTOR('',#208,1.);
#111=VECTOR('',#209,1.);
#112=EDGE_LOOP('',(#24,#25,#26,#27));
#113=EDGE_LOOP('',(#28,#29,#30,#31));
#114=EDGE_LOOP('',(#32,#33,#34,#35));
#115=EDGE_LOOP('',(#36));
#116=EDGE_LOOP('',(#37));
#117=EDGE_LOOP('',(#38,#39,#40,#41));
#118=EDGE_LOOP('',(#42));
#119=EDGE_LOOP('',(#43));
#120=EDGE_LOOP('',(#44));
#121=EDGE_LOOP('',(#45));
#122=EDGE_LOOP('',(#46));
#123=EDGE_LOOP('',(#47,#48,#49,#50));
#124=EDGE_LOOP('',(#51));
#125=EDGE_LOOP('',(#52));
#126=EDGE_LOOP('',(#53));
#127=EDGE_LOOP('',(#54,#55,#56,#57));
#128=EDGE_LOOP('',(#58));
#129=EDGE_LOOP('',(#59));
#130=FACE_BOUND('',#112,.T.);
#131=FACE_BOUND('',#113,.T.);
#132=FACE_BOUND('',#114,.T.);
#133=FACE_BOUND('',#115,.T.);
#134=FACE_BOUND('',#116,.T.);
#135=FACE_BOUND('',#117,.T.);
#136=FACE_BOUND('',#118,.T.);
#137=FACE_BOUND('',#119,.T.);
#138=FACE_BOUND('',#120,.T.);
#139=FACE_BOUND('',#121,.T.);
#140=FACE_BOUND('',#122,.T.);
#141=FACE_BOUND('',#123,.T.);
#142=FACE_BOUND('',#124,.T.);
#143=FACE_BOUND('',#125,.T.);
#144=FACE_BOUND('',#126,.T.);
#145=FACE_BOUND('',#127,.T.);
#146=FACE_BOUND('',#128,.T.);
#147=FACE_BOUND('',#129,.T.);
#148=PLANE('',#175);
#149=PLANE('',#176);
#150=PLANE('',#177);
#151=PLANE('',#190);
#152=PLANE('',#191);
#153=ADVANCED_FACE('',(#130),#148,.F.);
#154=ADVANCED_FACE('',(#131),#149,.F.);
#155=ADVANCED_FACE('',(#132),#150,.T.);
#156=ADVANCED_FACE('',(#133,#134),#20,.F.);
#157=ADVANCED_FACE('',(#135),#21,.T.);
#158=ADVANCED_FACE('',(#136,#137),#22,.F.);
#159=ADVANCED_FACE('',(#138,#139),#23,.F.);
#160=ADVANCED_FACE('',(#140,#141,#142,#143),#151,.T.);
#161=ADVANCED_FACE('',(#144,#145,#146,#147),#152,.F.);
#162=CLOSED_SHELL('',(#153,#154,#155,#156,#157,#158,#159,#160,#161));
#163=STYLED_ITEM('',(#164),#171);
#164=PRESENTATION_STYLE_ASSIGNMENT((#165));
#165=SURFACE_STYLE_USAGE(.BOTH.,#166);
#166=SURFACE_SIDE_STYLE('',(#167));
#167=SURFACE_STYLE_FILL_AREA(#168);
#168=FILL_AREA_STYLE('',(#169));
#169=FILL_AREA_STYLE_COLOUR('',#170);
#170=COLOUR_RGB('',0.901960784313726,0.901960784313726,0.901960784313726);
#171=MANIFOLD_SOLID_BREP('top tube holder',#162);
#172=SHAPE_DEFINITION_REPRESENTATION(#286,#173);
#173=SHAPE_REPRESENTATION('top tube holder',(#174),#281);
#174=AXIS2_PLACEMENT_3D('',#238,#192,#193);
#175=AXIS2_PLACEMENT_3D('',#239,#194,#195);
#176=AXIS2_PLACEMENT_3D('',#248,#200,#201);
#177=AXIS2_PLACEMENT_3D('',#254,#205,#206);
#178=AXIS2_PLACEMENT_3D('',#260,#210,#211);
#179=AXIS2_PLACEMENT_3D('',#261,#212,#213);
#180=AXIS2_PLACEMENT_3D('',#263,#214,#215);
#181=AXIS2_PLACEMENT_3D('',#265,#216,#217);
#182=AXIS2_PLACEMENT_3D('',#266,#218,#219);
#183=AXIS2_PLACEMENT_3D('',#267,#220,#221);
#184=AXIS2_PLACEMENT_3D('',#268,#222,#223);
#185=AXIS2_PLACEMENT_3D('',#269,#224,#225);
#186=AXIS2_PLACEMENT_3D('',#271,#226,#227);
#187=AXIS2_PLACEMENT_3D('',#273,#228,#229);
#188=AXIS2_PLACEMENT_3D('',#274,#230,#231);
#189=AXIS2_PLACEMENT_3D('',#276,#232,#233);
#190=AXIS2_PLACEMENT_3D('',#278,#234,#235);
#191=AXIS2_PLACEMENT_3D('',#279,#236,#237);
#192=DIRECTION('',(0.,0.,1.));
#193=DIRECTION('',(1.,0.,0.));
#194=DIRECTION('',(1.,0.,-2.31296463463574E-16));
#195=DIRECTION('',(-2.31296463463574E-16,0.,-1.));
#196=DIRECTION('',(-2.31296463463574E-16,0.,-1.));
#197=DIRECTION('',(0.,1.,0.));
#198=DIRECTION('',(-2.31296463463574E-16,0.,-1.));
#199=DIRECTION('',(0.,1.,0.));
#200=DIRECTION('',(0.,0.,1.));
#201=DIRECTION('',(1.,0.,0.));
#202=DIRECTION('',(1.,0.,0.));
#203=DIRECTION('',(0.,1.,0.));
#204=DIRECTION('',(1.,0.,0.));
#205=DIRECTION('',(1.,0.,0.));
#206=DIRECTION('',(0.,0.,-1.));
#207=DIRECTION('',(0.,0.,-1.));
#208=DIRECTION('',(0.,1.,0.));
#209=DIRECTION('',(0.,0.,-1.));
#210=DIRECTION('',(0.,1.,0.));
#211=DIRECTION('',(0.,0.,1.));
#212=DIRECTION('',(0.,-1.,0.));
#213=DIRECTION('',(0.,0.,-1.));
#214=DIRECTION('',(0.,-1.,0.));
#215=DIRECTION('',(0.,0.,-1.));
#216=DIRECTION('',(0.,1.,0.));
#217=DIRECTION('',(0.,0.,1.));
#218=DIRECTION('',(0.,-1.,0.));
#219=DIRECTION('',(0.,0.,-1.));
#220=DIRECTION('',(0.,-1.,0.));
#221=DIRECTION('',(0.,0.,-1.));
#222=DIRECTION('',(0.,1.,0.));
#223=DIRECTION('',(0.,0.,1.));
#224=DIRECTION('',(0.,-1.,0.));
#225=DIRECTION('',(0.,0.,-1.));
#226=DIRECTION('',(0.,-1.,0.));
#227=DIRECTION('',(0.,0.,-1.));
#228=DIRECTION('',(0.,1.,0.));
#229=DIRECTION('',(0.,0.,1.));
#230=DIRECTION('',(0.,-1.,0.));
#231=DIRECTION('',(0.,0.,-1.));
#232=DIRECTION('',(0.,-1.,0.));
#233=DIRECTION('',(0.,0.,-1.));
#234=DIRECTION('',(0.,-1.,0.));
#235=DIRECTION('',(1.,0.,0.));
#236=DIRECTION('',(0.,-1.,0.));
#237=DIRECTION('',(1.,0.,0.));
#238=CARTESIAN_POINT('',(0.,0.,0.));
#239=CARTESIAN_POINT('',(-0.008,-0.005,0.0075));
#240=CARTESIAN_POINT('',(-0.008,0.,0.0075));
#241=CARTESIAN_POINT('',(-0.008,0.,0.015));
#242=CARTESIAN_POINT('',(-0.008,0.,-0.023));
#243=CARTESIAN_POINT('',(-0.008,-0.005,-0.023));
#244=CARTESIAN_POINT('',(-0.008,-0.005,-0.023));
#245=CARTESIAN_POINT('',(-0.008,-0.005,0.0075));
#246=CARTESIAN_POINT('',(-0.008,-0.005,0.015));
#247=CARTESIAN_POINT('',(-0.008,-0.005,0.015));
#248=CARTESIAN_POINT('',(0.,-0.005,-0.023));
#249=CARTESIAN_POINT('',(0.,0.,-0.023));
#250=CARTESIAN_POINT('',(0.008,0.,-0.023));
#251=CARTESIAN_POINT('',(0.008,-0.005,-0.023));
#252=CARTESIAN_POINT('',(0.008,-0.005,-0.023));
#253=CARTESIAN_POINT('',(0.,-0.005,-0.023));
#254=CARTESIAN_POINT('',(0.008,-0.005,0.0075));
#255=CARTESIAN_POINT('',(0.008,0.,0.0075));
#256=CARTESIAN_POINT('',(0.008,0.,0.015));
#257=CARTESIAN_POINT('',(0.008,-0.005,0.015));
#258=CARTESIAN_POINT('',(0.008,-0.005,0.015));
#259=CARTESIAN_POINT('',(0.008,-0.005,0.0075));
#260=CARTESIAN_POINT('',(0.,-0.005,-0.0179));
#261=CARTESIAN_POINT('',(0.,-0.005,-0.0179));
#262=CARTESIAN_POINT('',(0.,-0.005,-0.0204));
#263=CARTESIAN_POINT('',(0.,0.,-0.0179));
#264=CARTESIAN_POINT('',(0.,0.,-0.0204));
#265=CARTESIAN_POINT('',(2.4492935982947E-19,-0.005,0.015));
#266=CARTESIAN_POINT('',(2.4492935982947E-19,0.,0.015));
#267=CARTESIAN_POINT('',(2.4492935982947E-19,-0.005,0.015));
#268=CARTESIAN_POINT('',(0.,-0.005,0.015));
#269=CARTESIAN_POINT('',(0.,-0.005,0.015));
#270=CARTESIAN_POINT('',(0.,-0.005,0.0099));
#271=CARTESIAN_POINT('',(0.,0.,0.015));
#272=CARTESIAN_POINT('',(0.,0.,0.0099));
#273=CARTESIAN_POINT('',(0.,-0.005,-0.0079));
#274=CARTESIAN_POINT('',(0.,-0.005,-0.0079));
#275=CARTESIAN_POINT('',(0.,-0.005,-0.0104));
#276=CARTESIAN_POINT('',(0.,0.,-0.0079));
#277=CARTESIAN_POINT('',(0.,0.,-0.0104));
#278=CARTESIAN_POINT('',(-3.46944695195361E-18,-0.005,0.));
#279=CARTESIAN_POINT('',(-3.46944695195361E-18,0.,0.));
#280=MECHANICAL_DESIGN_GEOMETRIC_PRESENTATION_REPRESENTATION('',(#163),
#281);
#281=(
GEOMETRIC_REPRESENTATION_CONTEXT(3)
GLOBAL_UNCERTAINTY_ASSIGNED_CONTEXT((#282))
GLOBAL_UNIT_ASSIGNED_CONTEXT((#285,#284,#283))
REPRESENTATION_CONTEXT('top tube holder','TOP_LEVEL_ASSEMBLY_PART')
);
#282=UNCERTAINTY_MEASURE_WITH_UNIT(LENGTH_MEASURE(1.E-8),#285,
'DISTANCE_ACCURACY_VALUE','Maximum Tolerance applied to model');
#283=(
NAMED_UNIT(*)
SI_UNIT($,.STERADIAN.)
SOLID_ANGLE_UNIT()
);
#284=(
NAMED_UNIT(*)
PLANE_ANGLE_UNIT()
SI_UNIT($,.RADIAN.)
);
#285=(
LENGTH_UNIT()
NAMED_UNIT(*)
SI_UNIT($,.METRE.)
);
#286=PRODUCT_DEFINITION_SHAPE('','',#287);
#287=PRODUCT_DEFINITION('','',#289,#288);
#288=PRODUCT_DEFINITION_CONTEXT('',#295,'design');
#289=PRODUCT_DEFINITION_FORMATION_WITH_SPECIFIED_SOURCE('','',#291,
 .NOT_KNOWN.);
#290=PRODUCT_RELATED_PRODUCT_CATEGORY('','',(#291));
#291=PRODUCT('top tube holder','top tube holder','top tube holder',(#293));
#292=PRODUCT_CATEGORY('','');
#293=PRODUCT_CONTEXT('',#295,'mechanical');
#294=APPLICATION_PROTOCOL_DEFINITION('international standard',
'ap242_managed_model_based_3d_engineering',2020,#295);
#295=APPLICATION_CONTEXT('managed model based 3d engineering');
ENDSEC;
END-ISO-10303-21;
