ISO-10303-21;
HEADER;
/* Generated by software containing ST-Developer
 * from STEP Tools, Inc. (www.steptools.com) 
 */
/* OPTION: using custom renumber hook */

FILE_DESCRIPTION(
/* description */ ('STEP AP242 Edition 2',
'CAx-IF Rec.Pracs.---Representation and Presentation of Product Manufa
cturing Information (PMI)---4.0---2014-10-13',
'CAx-IF Rec.Pracs.---3D Tessellated Geometry---0.4---2014-09-14','2;1',
'CAx-IF Rec.Pracs.---User Defined Attributes---1.5---2016-08-15'),
/* implementation_level */ '2;1');

FILE_NAME(
/* name */ 'Full Assembly - Tube Guide',
/* time_stamp */ '2026-04-24T00:57:04Z',
/* author */ (''),
/* organization */ (''),
/* preprocessor_version */ 'ST-DEVELOPER v20',
/* originating_system */ 'ONSHAPE BY PTC INC, 1.213',
/* authorisation */ '  ');

FILE_SCHEMA (('AP242_MANAGED_MODEL_BASED_3D_ENGINEERING_MIM_LF { 1 0 10303 442 3 1 4 }'));
ENDSEC;

DATA;
#10=SHAPE_REPRESENTATION_RELATIONSHIP('','',#265,#11);
#11=ADVANCED_BREP_SHAPE_REPRESENTATION('',(#263),#455);
#12=CYLINDRICAL_SURFACE('',#285,0.0135);
#13=CYLINDRICAL_SURFACE('',#288,0.0135);
#14=CYLINDRICAL_SURFACE('',#291,0.0135);
#15=CYLINDRICAL_SURFACE('',#294,0.0135);
#16=CYLINDRICAL_SURFACE('',#296,0.0085);
#17=TOROIDAL_SURFACE('',#273,0.025,0.0135);
#18=TOROIDAL_SURFACE('',#283,0.025,0.0085);
#19=LINE('',#389,#35);
#20=LINE('',#391,#36);
#21=LINE('',#396,#37);
#22=LINE('',#414,#38);
#23=LINE('',#419,#39);
#24=LINE('',#423,#40);
#25=LINE('',#425,#41);
#26=LINE('',#427,#42);
#27=LINE('',#429,#43);
#28=LINE('',#433,#44);
#29=LINE('',#435,#45);
#30=LINE('',#437,#46);
#31=LINE('',#441,#47);
#32=LINE('',#443,#48);
#33=LINE('',#445,#49);
#34=LINE('',#452,#50);
#35=VECTOR('',#306,1.);
#36=VECTOR('',#309,1.);
#37=VECTOR('',#314,1.);
#38=VECTOR('',#337,1.);
#39=VECTOR('',#344,1.);
#40=VECTOR('',#347,1.);
#41=VECTOR('',#350,1.);
#42=VECTOR('',#351,1.);
#43=VECTOR('',#354,1.);
#44=VECTOR('',#359,1.);
#45=VECTOR('',#360,1.);
#46=VECTOR('',#363,1.);
#47=VECTOR('',#368,1.);
#48=VECTOR('',#369,1.);
#49=VECTOR('',#372,1.);
#50=VECTOR('',#381,1.);
#51=ORIENTED_EDGE('',*,*,#115,.F.);
#52=ORIENTED_EDGE('',*,*,#116,.T.);
#53=ORIENTED_EDGE('',*,*,#117,.F.);
#54=ORIENTED_EDGE('',*,*,#118,.F.);
#55=ORIENTED_EDGE('',*,*,#119,.F.);
#56=ORIENTED_EDGE('',*,*,#120,.F.);
#57=ORIENTED_EDGE('',*,*,#121,.F.);
#58=ORIENTED_EDGE('',*,*,#122,.T.);
#59=ORIENTED_EDGE('',*,*,#118,.T.);
#60=ORIENTED_EDGE('',*,*,#123,.T.);
#61=ORIENTED_EDGE('',*,*,#120,.T.);
#62=ORIENTED_EDGE('',*,*,#124,.T.);
#63=ORIENTED_EDGE('',*,*,#115,.T.);
#64=ORIENTED_EDGE('',*,*,#125,.T.);
#65=ORIENTED_EDGE('',*,*,#126,.T.);
#66=ORIENTED_EDGE('',*,*,#127,.F.);
#67=ORIENTED_EDGE('',*,*,#121,.T.);
#68=ORIENTED_EDGE('',*,*,#126,.F.);
#69=ORIENTED_EDGE('',*,*,#128,.T.);
#70=ORIENTED_EDGE('',*,*,#127,.T.);
#71=ORIENTED_EDGE('',*,*,#129,.F.);
#72=ORIENTED_EDGE('',*,*,#124,.F.);
#73=ORIENTED_EDGE('',*,*,#130,.F.);
#74=ORIENTED_EDGE('',*,*,#131,.T.);
#75=ORIENTED_EDGE('',*,*,#132,.T.);
#76=ORIENTED_EDGE('',*,*,#119,.T.);
#77=ORIENTED_EDGE('',*,*,#133,.F.);
#78=ORIENTED_EDGE('',*,*,#134,.F.);
#79=ORIENTED_EDGE('',*,*,#130,.T.);
#80=ORIENTED_EDGE('',*,*,#123,.F.);
#81=ORIENTED_EDGE('',*,*,#135,.F.);
#82=ORIENTED_EDGE('',*,*,#136,.T.);
#83=ORIENTED_EDGE('',*,*,#133,.T.);
#84=ORIENTED_EDGE('',*,*,#117,.T.);
#85=ORIENTED_EDGE('',*,*,#137,.F.);
#86=ORIENTED_EDGE('',*,*,#138,.F.);
#87=ORIENTED_EDGE('',*,*,#135,.T.);
#88=ORIENTED_EDGE('',*,*,#122,.F.);
#89=ORIENTED_EDGE('',*,*,#139,.F.);
#90=ORIENTED_EDGE('',*,*,#140,.T.);
#91=ORIENTED_EDGE('',*,*,#137,.T.);
#92=ORIENTED_EDGE('',*,*,#128,.F.);
#93=ORIENTED_EDGE('',*,*,#141,.F.);
#94=ORIENTED_EDGE('',*,*,#142,.T.);
#95=ORIENTED_EDGE('',*,*,#139,.T.);
#96=ORIENTED_EDGE('',*,*,#125,.F.);
#97=ORIENTED_EDGE('',*,*,#143,.F.);
#98=ORIENTED_EDGE('',*,*,#144,.T.);
#99=ORIENTED_EDGE('',*,*,#141,.T.);
#100=ORIENTED_EDGE('',*,*,#145,.F.);
#101=ORIENTED_EDGE('',*,*,#129,.T.);
#102=ORIENTED_EDGE('',*,*,#116,.F.);
#103=ORIENTED_EDGE('',*,*,#132,.F.);
#104=ORIENTED_EDGE('',*,*,#146,.T.);
#105=ORIENTED_EDGE('',*,*,#143,.T.);
#106=ORIENTED_EDGE('',*,*,#145,.T.);
#107=ORIENTED_EDGE('',*,*,#131,.F.);
#108=ORIENTED_EDGE('',*,*,#134,.T.);
#109=ORIENTED_EDGE('',*,*,#136,.F.);
#110=ORIENTED_EDGE('',*,*,#138,.T.);
#111=ORIENTED_EDGE('',*,*,#140,.F.);
#112=ORIENTED_EDGE('',*,*,#142,.F.);
#113=ORIENTED_EDGE('',*,*,#144,.F.);
#114=ORIENTED_EDGE('',*,*,#146,.F.);
#115=EDGE_CURVE('',#147,#148,#167,.T.);
#116=EDGE_CURVE('',#147,#148,#19,.T.);
#117=EDGE_CURVE('',#149,#150,#20,.T.);
#118=EDGE_CURVE('',#150,#149,#168,.T.);
#119=EDGE_CURVE('',#151,#152,#21,.T.);
#120=EDGE_CURVE('',#152,#151,#169,.T.);
#121=EDGE_CURVE('',#153,#153,#170,.T.);
#122=EDGE_CURVE('',#154,#150,#171,.T.);
#123=EDGE_CURVE('',#149,#152,#172,.T.);
#124=EDGE_CURVE('',#151,#147,#173,.T.);
#125=EDGE_CURVE('',#148,#155,#174,.T.);
#126=EDGE_CURVE('',#155,#154,#175,.T.);
#127=EDGE_CURVE('',#156,#156,#176,.T.);
#128=EDGE_CURVE('',#155,#154,#22,.T.);
#129=EDGE_CURVE('',#157,#157,#177,.T.);
#130=EDGE_CURVE('',#158,#151,#23,.T.);
#131=EDGE_CURVE('',#158,#159,#178,.T.);
#132=EDGE_CURVE('',#159,#147,#24,.T.);
#133=EDGE_CURVE('',#160,#152,#25,.T.);
#134=EDGE_CURVE('',#158,#160,#26,.T.);
#135=EDGE_CURVE('',#161,#149,#27,.T.);
#136=EDGE_CURVE('',#161,#160,#179,.T.);
#137=EDGE_CURVE('',#162,#150,#28,.T.);
#138=EDGE_CURVE('',#161,#162,#29,.T.);
#139=EDGE_CURVE('',#163,#154,#30,.T.);
#140=EDGE_CURVE('',#163,#162,#180,.T.);
#141=EDGE_CURVE('',#164,#155,#31,.T.);
#142=EDGE_CURVE('',#164,#163,#32,.T.);
#143=EDGE_CURVE('',#165,#148,#33,.T.);
#144=EDGE_CURVE('',#165,#164,#181,.T.);
#145=EDGE_CURVE('',#166,#166,#182,.T.);
#146=EDGE_CURVE('',#159,#165,#34,.T.);
#147=VERTEX_POINT('',#387);
#148=VERTEX_POINT('',#388);
#149=VERTEX_POINT('',#392);
#150=VERTEX_POINT('',#393);
#151=VERTEX_POINT('',#397);
#152=VERTEX_POINT('',#398);
#153=VERTEX_POINT('',#402);
#154=VERTEX_POINT('',#404);
#155=VERTEX_POINT('',#408);
#156=VERTEX_POINT('',#412);
#157=VERTEX_POINT('',#417);
#158=VERTEX_POINT('',#420);
#159=VERTEX_POINT('',#422);
#160=VERTEX_POINT('',#426);
#161=VERTEX_POINT('',#430);
#162=VERTEX_POINT('',#434);
#163=VERTEX_POINT('',#438);
#164=VERTEX_POINT('',#442);
#165=VERTEX_POINT('',#446);
#166=VERTEX_POINT('',#450);
#167=CIRCLE('',#268,0.0135);
#168=CIRCLE('',#270,0.0135);
#169=CIRCLE('',#272,0.0135);
#170=CIRCLE('',#274,0.0135);
#171=CIRCLE('',#275,0.0135);
#172=CIRCLE('',#276,0.0135);
#173=CIRCLE('',#277,0.0135);
#174=CIRCLE('',#278,0.0135);
#175=CIRCLE('',#279,0.0135);
#176=CIRCLE('',#281,0.0085);
#177=CIRCLE('',#284,0.0085);
#178=CIRCLE('',#286,0.0135);
#179=CIRCLE('',#289,0.0135);
#180=CIRCLE('',#292,0.0135);
#181=CIRCLE('',#295,0.0135);
#182=CIRCLE('',#297,0.0085);
#183=EDGE_LOOP('',(#51,#52));
#184=EDGE_LOOP('',(#53,#54));
#185=EDGE_LOOP('',(#55,#56));
#186=EDGE_LOOP('',(#57));
#187=EDGE_LOOP('',(#58,#59,#60,#61,#62,#63,#64,#65));
#188=EDGE_LOOP('',(#66));
#189=EDGE_LOOP('',(#67));
#190=EDGE_LOOP('',(#68,#69));
#191=EDGE_LOOP('',(#70));
#192=EDGE_LOOP('',(#71));
#193=EDGE_LOOP('',(#72,#73,#74,#75));
#194=EDGE_LOOP('',(#76,#77,#78,#79));
#195=EDGE_LOOP('',(#80,#81,#82,#83));
#196=EDGE_LOOP('',(#84,#85,#86,#87));
#197=EDGE_LOOP('',(#88,#89,#90,#91));
#198=EDGE_LOOP('',(#92,#93,#94,#95));
#199=EDGE_LOOP('',(#96,#97,#98,#99));
#200=EDGE_LOOP('',(#100));
#201=EDGE_LOOP('',(#101));
#202=EDGE_LOOP('',(#102,#103,#104,#105));
#203=EDGE_LOOP('',(#106));
#204=EDGE_LOOP('',(#107,#108,#109,#110,#111,#112,#113,#114));
#205=FACE_BOUND('',#183,.T.);
#206=FACE_BOUND('',#184,.T.);
#207=FACE_BOUND('',#185,.T.);
#208=FACE_BOUND('',#186,.T.);
#209=FACE_BOUND('',#187,.T.);
#210=FACE_BOUND('',#188,.T.);
#211=FACE_BOUND('',#189,.T.);
#212=FACE_BOUND('',#190,.T.);
#213=FACE_BOUND('',#191,.T.);
#214=FACE_BOUND('',#192,.T.);
#215=FACE_BOUND('',#193,.T.);
#216=FACE_BOUND('',#194,.T.);
#217=FACE_BOUND('',#195,.T.);
#218=FACE_BOUND('',#196,.T.);
#219=FACE_BOUND('',#197,.T.);
#220=FACE_BOUND('',#198,.T.);
#221=FACE_BOUND('',#199,.T.);
#222=FACE_BOUND('',#200,.T.);
#223=FACE_BOUND('',#201,.T.);
#224=FACE_BOUND('',#202,.T.);
#225=FACE_BOUND('',#203,.T.);
#226=FACE_BOUND('',#204,.T.);
#227=PLANE('',#267);
#228=PLANE('',#269);
#229=PLANE('',#271);
#230=PLANE('',#280);
#231=PLANE('',#282);
#232=PLANE('',#287);
#233=PLANE('',#290);
#234=PLANE('',#293);
#235=PLANE('',#298);
#236=PLANE('',#299);
#237=ADVANCED_FACE('',(#205),#227,.F.);
#238=ADVANCED_FACE('',(#206),#228,.F.);
#239=ADVANCED_FACE('',(#207),#229,.F.);
#240=ADVANCED_FACE('',(#208,#209),#17,.T.);
#241=ADVANCED_FACE('',(#210,#211),#230,.T.);
#242=ADVANCED_FACE('',(#212),#231,.F.);
#243=ADVANCED_FACE('',(#213,#214),#18,.F.);
#244=ADVANCED_FACE('',(#215),#12,.T.);
#245=ADVANCED_FACE('',(#216),#232,.F.);
#246=ADVANCED_FACE('',(#217),#13,.T.);
#247=ADVANCED_FACE('',(#218),#233,.F.);
#248=ADVANCED_FACE('',(#219),#14,.T.);
#249=ADVANCED_FACE('',(#220),#234,.T.);
#250=ADVANCED_FACE('',(#221),#15,.T.);
#251=ADVANCED_FACE('',(#222,#223),#16,.F.);
#252=ADVANCED_FACE('',(#224),#235,.T.);
#253=ADVANCED_FACE('',(#225,#226),#236,.T.);
#254=CLOSED_SHELL('',(#237,#238,#239,#240,#241,#242,#243,#244,#245,#246,
#247,#248,#249,#250,#251,#252,#253));
#255=STYLED_ITEM('',(#256),#263);
#256=PRESENTATION_STYLE_ASSIGNMENT((#257));
#257=SURFACE_STYLE_USAGE(.BOTH.,#258);
#258=SURFACE_SIDE_STYLE('',(#259));
#259=SURFACE_STYLE_FILL_AREA(#260);
#260=FILL_AREA_STYLE('',(#261));
#261=FILL_AREA_STYLE_COLOUR('',#262);
#262=COLOUR_RGB('',0.945098039215686,0.972549019607843,0.992156862745098);
#263=MANIFOLD_SOLID_BREP('Tube Guide',#254);
#264=SHAPE_DEFINITION_REPRESENTATION(#460,#265);
#265=SHAPE_REPRESENTATION('Tube Guide',(#266),#455);
#266=AXIS2_PLACEMENT_3D('',#384,#300,#301);
#267=AXIS2_PLACEMENT_3D('',#385,#302,#303);
#268=AXIS2_PLACEMENT_3D('',#386,#304,#305);
#269=AXIS2_PLACEMENT_3D('',#390,#307,#308);
#270=AXIS2_PLACEMENT_3D('',#394,#310,#311);
#271=AXIS2_PLACEMENT_3D('',#395,#312,#313);
#272=AXIS2_PLACEMENT_3D('',#399,#315,#316);
#273=AXIS2_PLACEMENT_3D('',#400,#317,#318);
#274=AXIS2_PLACEMENT_3D('',#401,#319,#320);
#275=AXIS2_PLACEMENT_3D('',#403,#321,#322);
#276=AXIS2_PLACEMENT_3D('',#405,#323,#324);
#277=AXIS2_PLACEMENT_3D('',#406,#325,#326);
#278=AXIS2_PLACEMENT_3D('',#407,#327,#328);
#279=AXIS2_PLACEMENT_3D('',#409,#329,#330);
#280=AXIS2_PLACEMENT_3D('',#410,#331,#332);
#281=AXIS2_PLACEMENT_3D('',#411,#333,#334);
#282=AXIS2_PLACEMENT_3D('',#413,#335,#336);
#283=AXIS2_PLACEMENT_3D('',#415,#338,#339);
#284=AXIS2_PLACEMENT_3D('',#416,#340,#341);
#285=AXIS2_PLACEMENT_3D('',#418,#342,#343);
#286=AXIS2_PLACEMENT_3D('',#421,#345,#346);
#287=AXIS2_PLACEMENT_3D('',#424,#348,#349);
#288=AXIS2_PLACEMENT_3D('',#428,#352,#353);
#289=AXIS2_PLACEMENT_3D('',#431,#355,#356);
#290=AXIS2_PLACEMENT_3D('',#432,#357,#358);
#291=AXIS2_PLACEMENT_3D('',#436,#361,#362);
#292=AXIS2_PLACEMENT_3D('',#439,#364,#365);
#293=AXIS2_PLACEMENT_3D('',#440,#366,#367);
#294=AXIS2_PLACEMENT_3D('',#444,#370,#371);
#295=AXIS2_PLACEMENT_3D('',#447,#373,#374);
#296=AXIS2_PLACEMENT_3D('',#448,#375,#376);
#297=AXIS2_PLACEMENT_3D('',#449,#377,#378);
#298=AXIS2_PLACEMENT_3D('',#451,#379,#380);
#299=AXIS2_PLACEMENT_3D('',#453,#382,#383);
#300=DIRECTION('',(0.,0.,1.));
#301=DIRECTION('',(1.,0.,0.));
#302=DIRECTION('',(0.,-1.,0.));
#303=DIRECTION('',(1.,0.,0.));
#304=DIRECTION('',(0.,-1.,0.));
#305=DIRECTION('',(0.,0.,-1.));
#306=DIRECTION('',(0.,0.,-1.));
#307=DIRECTION('',(0.,-1.,0.));
#308=DIRECTION('',(1.,0.,0.));
#309=DIRECTION('',(0.,0.,-1.));
#310=DIRECTION('',(0.,-1.,0.));
#311=DIRECTION('',(0.,0.,-1.));
#312=DIRECTION('',(0.,-1.,0.));
#313=DIRECTION('',(1.,0.,0.));
#314=DIRECTION('',(1.,0.,0.));
#315=DIRECTION('',(0.,-1.,0.));
#316=DIRECTION('',(0.,0.,-1.));
#317=DIRECTION('',(1.,0.,0.));
#318=DIRECTION('',(0.,0.,-1.));
#319=DIRECTION('',(0.,-7.75455381207769E-17,-1.));
#320=DIRECTION('',(0.,1.,-7.75455381207769E-17));
#321=DIRECTION('',(0.,-1.,0.));
#322=DIRECTION('',(0.,0.,-1.));
#323=DIRECTION('',(0.,-1.,0.));
#324=DIRECTION('',(0.,0.,-1.));
#325=DIRECTION('',(0.,-1.,0.));
#326=DIRECTION('',(0.,0.,-1.));
#327=DIRECTION('',(0.,-1.,0.));
#328=DIRECTION('',(0.,0.,-1.));
#329=DIRECTION('',(0.,-1.,0.));
#330=DIRECTION('',(0.,0.,-1.));
#331=DIRECTION('',(0.,-7.75455381207769E-17,-1.));
#332=DIRECTION('',(1.,0.,0.));
#333=DIRECTION('',(0.,-7.75455381207769E-17,-1.));
#334=DIRECTION('',(0.,1.,-7.75455381207769E-17));
#335=DIRECTION('',(0.,-1.,0.));
#336=DIRECTION('',(1.,0.,0.));
#337=DIRECTION('',(1.,0.,0.));
#338=DIRECTION('',(1.,0.,0.));
#339=DIRECTION('',(0.,0.,-1.));
#340=DIRECTION('',(0.,-1.,0.));
#341=DIRECTION('',(0.,0.,-1.));
#342=DIRECTION('',(0.,-1.,0.));
#343=DIRECTION('',(0.,0.,-1.));
#344=DIRECTION('',(0.,-1.,0.));
#345=DIRECTION('',(0.,-1.,0.));
#346=DIRECTION('',(0.,0.,-1.));
#347=DIRECTION('',(0.,-1.,0.));
#348=DIRECTION('',(0.,0.,-1.));
#349=DIRECTION('',(-1.,0.,0.));
#350=DIRECTION('',(0.,-1.,0.));
#351=DIRECTION('',(1.,0.,0.));
#352=DIRECTION('',(0.,-1.,0.));
#353=DIRECTION('',(0.,0.,-1.));
#354=DIRECTION('',(0.,-1.,0.));
#355=DIRECTION('',(0.,-1.,0.));
#356=DIRECTION('',(0.,0.,-1.));
#357=DIRECTION('',(-1.,0.,0.));
#358=DIRECTION('',(0.,0.,1.));
#359=DIRECTION('',(0.,-1.,0.));
#360=DIRECTION('',(0.,0.,-1.));
#361=DIRECTION('',(0.,-1.,0.));
#362=DIRECTION('',(0.,0.,-1.));
#363=DIRECTION('',(0.,-1.,0.));
#364=DIRECTION('',(0.,-1.,0.));
#365=DIRECTION('',(0.,0.,-1.));
#366=DIRECTION('',(0.,0.,-1.));
#367=DIRECTION('',(-1.,0.,0.));
#368=DIRECTION('',(0.,-1.,0.));
#369=DIRECTION('',(1.,0.,0.));
#370=DIRECTION('',(0.,-1.,0.));
#371=DIRECTION('',(0.,0.,-1.));
#372=DIRECTION('',(0.,-1.,0.));
#373=DIRECTION('',(0.,-1.,0.));
#374=DIRECTION('',(0.,0.,-1.));
#375=DIRECTION('',(0.,-1.,0.));
#376=DIRECTION('',(0.,0.,-1.));
#377=DIRECTION('',(0.,-1.,0.));
#378=DIRECTION('',(0.,0.,-1.));
#379=DIRECTION('',(-1.,0.,0.));
#380=DIRECTION('',(0.,0.,1.));
#381=DIRECTION('',(0.,0.,-1.));
#382=DIRECTION('',(0.,1.,0.));
#383=DIRECTION('',(-1.,0.,0.));
#384=CARTESIAN_POINT('',(0.,0.,0.));
#385=CARTESIAN_POINT('',(0.,0.,0.));
#386=CARTESIAN_POINT('',(0.,0.,8.26636589424464E-19));
#387=CARTESIAN_POINT('',(-0.0098,0.,0.00928493403315285));
#388=CARTESIAN_POINT('',(-0.0098,0.,-0.00928493403315285));
#389=CARTESIAN_POINT('',(-0.0098,0.,-1.7347234759768E-18));
#390=CARTESIAN_POINT('',(0.,0.,0.));
#391=CARTESIAN_POINT('',(0.0098,0.,0.));
#392=CARTESIAN_POINT('',(0.0098,0.,0.00928493403315285));
#393=CARTESIAN_POINT('',(0.0098,0.,-0.00928493403315285));
#394=CARTESIAN_POINT('',(0.,0.,8.26636589424464E-19));
#395=CARTESIAN_POINT('',(0.,0.,0.));
#396=CARTESIAN_POINT('',(0.,0.,0.0098));
#397=CARTESIAN_POINT('',(-0.00928493403315285,0.,0.0098));
#398=CARTESIAN_POINT('',(0.00928493403315285,0.,0.0098));
#399=CARTESIAN_POINT('',(0.,0.,8.26636589424464E-19));
#400=CARTESIAN_POINT('',(0.,0.,-0.025));
#401=CARTESIAN_POINT('',(0.,-0.025,-0.025));
#402=CARTESIAN_POINT('',(0.,-0.0115,-0.025));
#403=CARTESIAN_POINT('',(0.,0.,8.26636589424464E-19));
#404=CARTESIAN_POINT('',(0.00928493403315285,0.,-0.0098));
#405=CARTESIAN_POINT('',(0.,0.,8.26636589424464E-19));
#406=CARTESIAN_POINT('',(0.,0.,8.26636589424464E-19));
#407=CARTESIAN_POINT('',(0.,0.,8.26636589424464E-19));
#408=CARTESIAN_POINT('',(-0.00928493403315285,0.,-0.0098));
#409=CARTESIAN_POINT('',(0.,0.,8.26636589424464E-19));
#410=CARTESIAN_POINT('',(0.,-0.025,-0.025));
#411=CARTESIAN_POINT('',(0.,-0.025,-0.025));
#412=CARTESIAN_POINT('',(0.,-0.0165,-0.025));
#413=CARTESIAN_POINT('',(0.,0.,0.));
#414=CARTESIAN_POINT('',(0.,0.,-0.0098));
#415=CARTESIAN_POINT('',(0.,0.,-0.025));
#416=CARTESIAN_POINT('',(0.,0.,5.20474889637625E-19));
#417=CARTESIAN_POINT('',(0.,0.,-0.0085));
#418=CARTESIAN_POINT('',(0.,0.005,8.26636589424464E-19));
#419=CARTESIAN_POINT('',(-0.00928493403315285,0.005,0.0098));
#420=CARTESIAN_POINT('',(-0.00928493403315285,0.005,0.0098));
#421=CARTESIAN_POINT('',(0.,0.005,8.26636589424464E-19));
#422=CARTESIAN_POINT('',(-0.0098,0.005,0.00928493403315285));
#423=CARTESIAN_POINT('',(-0.0098,0.005,0.00928493403315285));
#424=CARTESIAN_POINT('',(0.,0.005,0.0098));
#425=CARTESIAN_POINT('',(0.00928493403315285,0.005,0.0098));
#426=CARTESIAN_POINT('',(0.00928493403315285,0.005,0.0098));
#427=CARTESIAN_POINT('',(0.,0.005,0.0098));
#428=CARTESIAN_POINT('',(0.,0.005,8.26636589424464E-19));
#429=CARTESIAN_POINT('',(0.0098,0.005,0.00928493403315285));
#430=CARTESIAN_POINT('',(0.0098,0.005,0.00928493403315285));
#431=CARTESIAN_POINT('',(0.,0.005,8.26636589424464E-19));
#432=CARTESIAN_POINT('',(0.0098,0.005,0.));
#433=CARTESIAN_POINT('',(0.0098,0.005,-0.00928493403315285));
#434=CARTESIAN_POINT('',(0.0098,0.005,-0.00928493403315285));
#435=CARTESIAN_POINT('',(0.0098,0.005,0.));
#436=CARTESIAN_POINT('',(0.,0.005,8.26636589424464E-19));
#437=CARTESIAN_POINT('',(0.00928493403315285,0.005,-0.0098));
#438=CARTESIAN_POINT('',(0.00928493403315285,0.005,-0.0098));
#439=CARTESIAN_POINT('',(0.,0.005,8.26636589424464E-19));
#440=CARTESIAN_POINT('',(0.,0.005,-0.0098));
#441=CARTESIAN_POINT('',(-0.00928493403315285,0.005,-0.0098));
#442=CARTESIAN_POINT('',(-0.00928493403315285,0.005,-0.0098));
#443=CARTESIAN_POINT('',(0.,0.005,-0.0098));
#444=CARTESIAN_POINT('',(0.,0.005,8.26636589424464E-19));
#445=CARTESIAN_POINT('',(-0.0098,0.005,-0.00928493403315285));
#446=CARTESIAN_POINT('',(-0.0098,0.005,-0.00928493403315285));
#447=CARTESIAN_POINT('',(0.,0.005,8.26636589424464E-19));
#448=CARTESIAN_POINT('',(0.,0.005,5.20474889637625E-19));
#449=CARTESIAN_POINT('',(0.,0.005,5.20474889637625E-19));
#450=CARTESIAN_POINT('',(0.,0.005,-0.0085));
#451=CARTESIAN_POINT('',(-0.0098,0.005,-1.7347234759768E-18));
#452=CARTESIAN_POINT('',(-0.0098,0.005,-1.7347234759768E-18));
#453=CARTESIAN_POINT('',(0.,0.005,0.));
#454=MECHANICAL_DESIGN_GEOMETRIC_PRESENTATION_REPRESENTATION('',(#255),
#455);
#455=(
GEOMETRIC_REPRESENTATION_CONTEXT(3)
GLOBAL_UNCERTAINTY_ASSIGNED_CONTEXT((#456))
GLOBAL_UNIT_ASSIGNED_CONTEXT((#459,#458,#457))
REPRESENTATION_CONTEXT('Tube Guide','TOP_LEVEL_ASSEMBLY_PART')
);
#456=UNCERTAINTY_MEASURE_WITH_UNIT(LENGTH_MEASURE(1.E-8),#459,
'DISTANCE_ACCURACY_VALUE','Maximum Tolerance applied to model');
#457=(
NAMED_UNIT(*)
SI_UNIT($,.STERADIAN.)
SOLID_ANGLE_UNIT()
);
#458=(
NAMED_UNIT(*)
PLANE_ANGLE_UNIT()
SI_UNIT($,.RADIAN.)
);
#459=(
LENGTH_UNIT()
NAMED_UNIT(*)
SI_UNIT($,.METRE.)
);
#460=PRODUCT_DEFINITION_SHAPE('','',#461);
#461=PRODUCT_DEFINITION('','',#463,#462);
#462=PRODUCT_DEFINITION_CONTEXT('',#469,'design');
#463=PRODUCT_DEFINITION_FORMATION_WITH_SPECIFIED_SOURCE('','',#465,
 .NOT_KNOWN.);
#464=PRODUCT_RELATED_PRODUCT_CATEGORY('','',(#465));
#465=PRODUCT('Tube Guide','Tube Guide','Tube Guide',(#467));
#466=PRODUCT_CATEGORY('','');
#467=PRODUCT_CONTEXT('',#469,'mechanical');
#468=APPLICATION_PROTOCOL_DEFINITION('international standard',
'ap242_managed_model_based_3d_engineering',2020,#469);
#469=APPLICATION_CONTEXT('managed model based 3d engineering');
ENDSEC;
END-ISO-10303-21;
